<svg width="136" height="40" viewBox="0 0 136 40" fill="none" xmlns="http://www.w3.org/2000/svg">
  <g clip-path="url(#clip0)">
    <path d="M130.664 0H5.66406C2.90264 0 0.664062 2.23858 0.664062 5V35C0.664062 37.7614 2.90264 40 5.66406 40H130.664C133.425 40 135.664 37.7614 135.664 35V5C135.664 2.23858 133.425 0 130.664 0Z"
          fill="black" />
    <path d="M130.664 0.8C131.778 0.8 132.846 1.2425 133.634 2.03015C134.422 2.8178 134.864 3.88609 134.864 5V35C134.864 36.1139 134.422 37.1822 133.634 37.9698C132.846 38.7575 131.778 39.2 130.664 39.2H5.66406C4.55015 39.2 3.48187 38.7575 2.69421 37.9698C1.90656 37.1822 1.46406 36.1139 1.46406 35V5C1.46406 3.88609 1.90656 2.8178 2.69421 2.03015C3.48187 1.2425 4.55015 0.8 5.66406 0.8H130.664ZM130.664 0H5.66406C4.33798 0 3.06621 0.526784 2.12853 1.46447C1.19085 2.40215 0.664063 3.67392 0.664062 5V35C0.664063 36.3261 1.19085 37.5979 2.12853 38.5355C3.06621 39.4732 4.33798 40 5.66406 40H130.664C131.99 40 133.262 39.4732 134.2 38.5355C135.137 37.5979 135.664 36.3261 135.664 35V5C135.664 3.67392 135.137 2.40215 134.2 1.46447C133.262 0.526784 131.99 0 130.664 0Z"
          fill="#A6A6A6" />
    <path d="M68.8042 21.75C67.9616 21.752 67.1386 22.0037 66.4391 22.4735C65.7397 22.9432 65.1952 23.6098 64.8746 24.389C64.554 25.1682 64.4717 26.0249 64.638 26.8509C64.8043 27.6768 65.2118 28.4349 65.809 29.0293C66.4061 29.6237 67.1662 30.0276 67.9929 30.1901C68.8196 30.3525 69.676 30.2661 70.4536 29.9419C71.2313 29.6176 71.8953 29.07 72.3618 28.3684C72.8282 27.6667 73.0761 26.8425 73.0742 26C73.0823 25.4379 72.9773 24.88 72.7653 24.3593C72.5534 23.8387 72.2388 23.366 71.8404 22.9695C71.442 22.5729 70.9679 22.2606 70.4463 22.0511C69.9246 21.8416 69.3662 21.7392 68.8042 21.75ZM68.8042 28.58C68.2877 28.6161 67.7724 28.496 67.3251 28.2354C66.8779 27.9747 66.5193 27.5855 66.2962 27.1184C66.073 26.6513 65.9956 26.1279 66.0738 25.6161C66.1521 25.1044 66.3825 24.6281 66.7351 24.249C67.0877 23.87 67.5462 23.6058 68.0509 23.4908C68.5557 23.3757 69.0833 23.4152 69.5653 23.6041C70.0474 23.7929 70.4614 24.1224 70.7537 24.5497C71.0459 24.977 71.2029 25.4823 71.2042 26C71.2203 26.328 71.1705 26.6559 71.0579 26.9644C70.9452 27.2729 70.772 27.5557 70.5483 27.7962C70.3246 28.0366 70.0551 28.2299 69.7555 28.3645C69.456 28.4991 69.1325 28.5724 68.8042 28.58ZM59.4842 21.75C58.6416 21.752 57.8186 22.0037 57.1191 22.4735C56.4197 22.9432 55.8752 23.6098 55.5546 24.389C55.234 25.1682 55.1517 26.0249 55.318 26.8509C55.4843 27.6768 55.8918 28.4349 56.489 29.0293C57.0861 29.6237 57.8462 30.0276 58.6729 30.1901C59.4996 30.3525 60.356 30.2661 61.1336 29.9419C61.9113 29.6176 62.5753 29.07 63.0418 28.3684C63.5082 27.6667 63.7561 26.8425 63.7542 26C63.7623 25.4379 63.6573 24.88 63.4453 24.3593C63.2334 23.8387 62.9188 23.366 62.5204 22.9695C62.122 22.5729 61.6479 22.2606 61.1263 22.0511C60.6046 21.8416 60.0462 21.7392 59.4842 21.75ZM59.4842 28.58C58.9677 28.6161 58.4524 28.496 58.0051 28.2354C57.5579 27.9747 57.1993 27.5855 56.9762 27.1184C56.753 26.6513 56.6756 26.1279 56.7538 25.6161C56.8321 25.1044 57.0625 24.6281 57.4151 24.249C57.7677 23.87 58.2262 23.6058 58.7309 23.4908C59.2357 23.3757 59.7633 23.4152 60.2453 23.6041C60.7274 23.7929 61.1414 24.1224 61.4337 24.5497C61.7259 24.977 61.8829 25.4823 61.8842 26C61.9003 26.328 61.8505 26.6559 61.7379 26.9644C61.6252 27.2729 61.452 27.5557 61.2283 27.7962C61.0046 28.0366 60.7351 28.2299 60.4355 28.3645C60.136 28.4991 59.8125 28.5724 59.4842 28.58ZM48.4042 23.06V24.86H52.7242C52.6564 25.7078 52.304 26.5078 51.7242 27.13C51.2908 27.5715 50.7696 27.9171 50.1943 28.1445C49.6189 28.3719 49.0023 28.476 48.3842 28.45C47.1111 28.45 45.8902 27.9443 44.99 27.0441C44.0899 26.1439 43.5842 24.923 43.5842 23.65C43.5842 22.3769 44.0899 21.156 44.99 20.2559C45.8902 19.3557 47.1111 18.85 48.3842 18.85C49.6046 18.8318 50.7831 19.2953 51.6642 20.14L52.9342 18.87C52.3381 18.2805 51.6305 17.8159 50.8526 17.5034C50.0748 17.1908 49.2424 17.0367 48.4042 17.05C47.5152 17.0154 46.6283 17.1606 45.7968 17.477C44.9652 17.7933 44.2061 18.2743 43.5649 18.891C42.9237 19.5077 42.4136 20.2476 42.0652 21.0662C41.7167 21.8848 41.5371 22.7653 41.5371 23.655C41.5371 24.5447 41.7167 25.4252 42.0652 26.2438C42.4136 27.0624 42.9237 27.8022 43.5649 28.419C44.2061 29.0357 44.9652 29.5167 45.7968 29.833C46.6283 30.1494 47.5152 30.2946 48.4042 30.26C49.2596 30.2941 50.1126 30.147 50.9071 29.8281C51.7016 29.5093 52.4197 29.026 53.0142 28.41C54.0643 27.2564 54.6238 25.7392 54.5742 24.18C54.5777 23.8047 54.5476 23.4299 54.4842 23.06H48.4042ZM93.7142 24.46C93.4534 23.6927 92.9657 23.0228 92.3157 22.5388C91.6657 22.0549 90.884 21.7798 90.0742 21.75C89.5272 21.7489 88.9857 21.86 88.4834 22.0765C87.981 22.293 87.5284 22.6102 87.1535 23.0085C86.7786 23.4068 86.4894 23.8778 86.3038 24.3924C86.1181 24.9069 86.04 25.454 86.0742 26C86.0656 26.9128 86.3526 27.804 86.8923 28.5402C87.432 29.2765 88.1953 29.8185 89.0684 30.0851C89.9415 30.3518 90.8774 30.3288 91.7364 30.0197C92.5953 29.7106 93.3312 29.1318 93.8342 28.37L92.3842 27.37C92.168 27.7303 91.8614 28.0278 91.4948 28.233C91.1282 28.4382 90.7143 28.5441 90.2942 28.54C89.8607 28.5579 89.432 28.4442 89.0644 28.214C88.6967 27.9838 88.4073 27.6477 88.2342 27.25L93.9242 24.9L93.7142 24.46ZM87.9142 25.88C87.8939 25.5694 87.9358 25.2578 88.0374 24.9636C88.1391 24.6694 88.2984 24.3984 88.5061 24.1665C88.7137 23.9346 88.9656 23.7465 89.2469 23.6132C89.5281 23.4798 89.8332 23.404 90.1442 23.39C90.4664 23.3703 90.7872 23.4462 91.0665 23.6081C91.3458 23.7699 91.5711 24.0106 91.7142 24.3L87.9142 25.88ZM83.2942 30H85.1642V17.5H83.2942V30ZM80.2342 22.7H80.1642C79.8848 22.3818 79.54 22.1278 79.1534 21.9552C78.7668 21.7826 78.3475 21.6956 77.9242 21.7C76.8313 21.753 75.8008 22.2244 75.0461 23.0166C74.2915 23.8087 73.8705 24.8609 73.8705 25.955C73.8705 27.0491 74.2915 28.1012 75.0461 28.8934C75.8008 29.6856 76.8313 30.157 77.9242 30.21C78.3481 30.2185 78.7687 30.1333 79.156 29.9604C79.5432 29.7875 79.8874 29.5313 80.1642 29.21H80.2342V29.82C80.2342 31.45 79.3642 32.32 77.9642 32.32C77.4965 32.3097 77.0424 32.1607 76.6596 31.8918C76.2768 31.623 75.9825 31.2464 75.8142 30.81L74.1942 31.48C74.4937 32.2322 75.0144 32.8759 75.6876 33.3258C76.3607 33.7758 77.1546 34.0109 77.9642 34C80.1542 34 81.9642 32.71 81.9642 29.57V22H80.2342V22.7ZM78.0842 28.58C77.429 28.5391 76.814 28.2501 76.3645 27.7716C75.9149 27.2932 75.6647 26.6615 75.6647 26.005C75.6647 25.3485 75.9149 24.7167 76.3645 24.2383C76.814 23.7599 77.429 23.4708 78.0842 23.43C78.4044 23.4438 78.7186 23.5219 79.008 23.6596C79.2975 23.7973 79.5562 23.9919 79.769 24.2317C79.9817 24.4714 80.144 24.7516 80.2462 25.0553C80.3485 25.3591 80.3886 25.6804 80.3642 26C80.3914 26.3207 80.3534 26.6436 80.2523 26.9491C80.1513 27.2547 79.9893 27.5366 79.7761 27.7778C79.563 28.0189 79.3032 28.2144 79.0124 28.3523C78.7215 28.4902 78.4058 28.5676 78.0842 28.58ZM102.474 17.5H97.9942V30H99.8642V25.26H102.474C103.007 25.2983 103.542 25.2264 104.046 25.0487C104.55 24.8711 105.012 24.5915 105.403 24.2275C105.794 23.8634 106.106 23.4227 106.32 22.9328C106.533 22.4429 106.643 21.9143 106.643 21.38C106.643 20.8457 106.533 20.3171 106.32 19.8272C106.106 19.3372 105.794 18.8965 105.403 18.5325C105.012 18.1685 104.55 17.8889 104.046 17.7113C103.542 17.5336 103.007 17.4617 102.474 17.5ZM102.474 23.5H99.8642V19.24H102.514C102.795 19.24 103.073 19.2953 103.333 19.4029C103.593 19.5104 103.829 19.6681 104.027 19.8668C104.226 20.0655 104.384 20.3014 104.491 20.561C104.599 20.8207 104.654 21.099 104.654 21.38C104.654 21.661 104.599 21.9393 104.491 22.1989C104.384 22.4586 104.226 22.6945 104.027 22.8932C103.829 23.0919 103.593 23.2495 103.333 23.3571C103.073 23.4646 102.795 23.52 102.514 23.52L102.474 23.5ZM114.014 21.71C113.333 21.668 112.655 21.8265 112.063 22.166C111.471 22.5055 110.992 23.011 110.684 23.62L112.334 24.31C112.501 24.0094 112.751 23.7635 113.055 23.602C113.358 23.4405 113.702 23.3704 114.044 23.4C114.282 23.3723 114.522 23.3921 114.752 23.4583C114.981 23.5245 115.196 23.6358 115.382 23.7857C115.568 23.9356 115.722 24.121 115.836 24.3312C115.95 24.5414 116.021 24.7722 116.044 25.01V25.13C115.443 24.8139 114.774 24.6491 114.094 24.65C112.314 24.65 110.494 25.65 110.494 27.47C110.512 27.8568 110.607 28.2362 110.774 28.5855C110.941 28.9349 111.177 29.2471 111.467 29.5036C111.757 29.7601 112.096 29.9557 112.463 30.0788C112.83 30.2018 113.218 30.2499 113.604 30.22C114.073 30.2459 114.541 30.1466 114.959 29.9323C115.378 29.7179 115.731 29.3961 115.984 29H116.044V30H117.844V25.19C117.844 23 116.184 21.73 114.054 21.73L114.014 21.71ZM113.784 28.56C113.174 28.56 112.324 28.25 112.324 27.5C112.324 26.5 113.384 26.16 114.324 26.16C114.918 26.1453 115.505 26.2904 116.024 26.58C115.961 27.1231 115.704 27.625 115.299 27.9927C114.895 28.3604 114.371 28.5691 113.824 28.58L113.784 28.56ZM124.404 22L122.264 27.42H122.204L119.984 22H117.984L121.314 29.58L119.414 33.79H121.364L126.484 22H124.404ZM107.604 30H109.464V17.5H107.604V30Z"
          fill="white" />
    <path d="M11.1042 7.53997C10.7747 7.92959 10.6065 8.43043 10.6342 8.93997V31.06C10.6002 31.5704 10.7691 32.0735 11.1042 32.46L11.1742 32.54L23.5642 20.15V19.85L11.1742 7.46997L11.1042 7.53997Z"
          fill="url(#paint0_linear)" />
    <path d="M27.664 24.28L23.564 20.15V19.85L27.664 15.72L27.754 15.78L32.664 18.56C34.064 19.35 34.064 20.65 32.664 21.45L27.774 24.23L27.664 24.28Z"
          fill="url(#paint1_linear)" />
    <path d="M27.784 24.22L23.564 20L11.104 32.46C11.3866 32.7115 11.7483 32.8562 12.1264 32.869C12.5044 32.8818 12.8751 32.7619 13.174 32.53L27.784 24.22Z"
          fill="url(#paint2_linear)" />
    <path d="M27.784 15.78L13.174 7.47997C12.877 7.24488 12.5067 7.12203 12.1281 7.133C11.7495 7.14397 11.3869 7.28808 11.104 7.53997L23.564 20L27.784 15.78Z"
          fill="url(#paint3_linear)" />
    <path opacity="0.2"
          d="M27.664 24.13L13.174 32.38C12.8859 32.5974 12.5349 32.715 12.174 32.715C11.8131 32.715 11.4621 32.5974 11.174 32.38L11.104 32.45L11.174 32.53C11.4621 32.7474 11.8131 32.865 12.174 32.865C12.5349 32.865 12.8859 32.7474 13.174 32.53L27.784 24.22L27.664 24.13Z"
          fill="black" />
    <path opacity="0.12"
          d="M11.1039 32.32C10.7827 31.9233 10.6253 31.4189 10.6639 30.91V31.06C10.6299 31.5704 10.7988 32.0735 11.1339 32.46L11.2039 32.39L11.1039 32.32Z"
          fill="black" />
    <path opacity="0.12"
          d="M32.6641 21.3L27.6641 24.13L27.7541 24.22L32.6641 21.44C32.9539 21.3174 33.2053 21.119 33.3919 20.8656C33.5784 20.6122 33.6932 20.3132 33.7241 20C33.6615 20.2846 33.533 20.5505 33.3489 20.7763C33.1648 21.0021 32.9302 21.1815 32.6641 21.3Z"
          fill="black" />
    <path opacity="0.25"
          d="M13.174 7.61998L32.664 18.7C32.9302 18.8185 33.1648 18.9979 33.3489 19.2237C33.533 19.4495 33.6615 19.7154 33.724 20C33.6931 19.6868 33.5784 19.3878 33.3918 19.1344C33.2053 18.881 32.9539 18.6825 32.664 18.56L13.174 7.47998C11.784 6.67998 10.634 7.33998 10.634 8.93998V9.08998C10.664 7.48998 11.784 6.82998 13.174 7.61998Z"
          fill="white" />
    <path d="M42.0142 13V7H42.9542L45.8642 11.67V10.51V7H46.6642V13H45.8642L42.8142 8.11V9.26V13H42.0142Z"
          fill="white" stroke="white" stroke-width="0.2" stroke-miterlimit="10" />
    <path d="M50.3042 13H49.5342V10.21L47.5342 7H48.4342L49.9142 9.44L51.3842 7H52.2842L50.2842 10.21L50.3042 13Z"
          fill="white" stroke="white" stroke-width="0.2" stroke-miterlimit="10" />
    <path d="M53.1541 13V7H54.0941L57.014 11.67V10.51V7H57.7841V13H56.974L53.924 8.11V9.26V13H53.1541Z"
          fill="white" stroke="white" stroke-width="0.2" stroke-miterlimit="10" />
    <path d="M59.1541 13V7.00002H59.9241V13H59.1541ZM59.8741 6.53002H59.2041L59.6641 5.46002H60.5041L59.8741 6.53002Z"
          fill="white" stroke="white" stroke-width="0.2" stroke-miterlimit="10" />
    <path d="M63.314 13V7H64.254L67.164 11.67V10.51V7H67.944V13H67.134L64.134 8.11V9.26V13H63.314Z"
          fill="white" stroke="white" stroke-width="0.2" stroke-miterlimit="10" />
    <path d="M68.814 13L71.074 7H71.944L74.204 13H73.354L72.774 11.37H70.254L69.664 13H68.814ZM70.514 10.65H72.514L71.514 7.95L70.514 10.65Z"
          fill="white" stroke="white" stroke-width="0.2" stroke-miterlimit="10" />
  </g>
  <defs>
    <linearGradient id="paint0_linear" x1="22.4642" y1="8.70997" x2="5.68418" y2="25.49"
                    gradientUnits="userSpaceOnUse">
      <stop stop-color="#00A0FF" />
      <stop offset="0.01" stop-color="#00A1FF" />
      <stop offset="0.26" stop-color="#00BEFF" />
      <stop offset="0.51" stop-color="#00D2FF" />
      <stop offset="0.76" stop-color="#00DFFF" />
      <stop offset="1" stop-color="#00E3FF" />
    </linearGradient>
    <linearGradient id="paint1_linear" x1="34.494" y1="20" x2="10.304" y2="20"
                    gradientUnits="userSpaceOnUse">
      <stop stop-color="#FFE000" />
      <stop offset="0.41" stop-color="#FFBD00" />
      <stop offset="0.78" stop-color="#FFA500" />
      <stop offset="1" stop-color="#FF9C00" />
    </linearGradient>
    <linearGradient id="paint2_linear" x1="25.494" y1="22.3" x2="2.734" y2="45.05"
                    gradientUnits="userSpaceOnUse">
      <stop stop-color="#FF3A44" />
      <stop offset="1" stop-color="#C31162" />
    </linearGradient>
    <linearGradient id="paint3_linear" x1="7.964" y1="0.17997" x2="18.124" y2="10.34"
                    gradientUnits="userSpaceOnUse">
      <stop stop-color="#32A071" />
      <stop offset="0.07" stop-color="#2DA771" />
      <stop offset="0.48" stop-color="#15CF74" />
      <stop offset="0.8" stop-color="#06E775" />
      <stop offset="1" stop-color="#00F076" />
    </linearGradient>
    <clipPath id="clip0">
      <rect width="135" height="40" fill="white" transform="translate(0.664062)" />
    </clipPath>
  </defs>
</svg>