<svg width="149" height="53" viewBox="0 0 149 53" fill="none" xmlns="http://www.w3.org/2000/svg">
<path d="M0 0H148.05V45.6542L141.528 52.1762H0V0Z" fill="#BA1B02"/>

<path fill-rule="evenodd" clip-rule="evenodd" d="M30.6785 23.8175L30.0825 24.1032L29.4869 23.8175L21.1683 19.6867L25.113 18.1727L33.6462 22.3386L30.6785 23.8175ZM39.0076 19.6867L36.0294 21.1404L27.3975 17.2805L30.0825 16.2378L39.0076 19.6867ZM19.6739 29.9634L19.9461 30.4647L29.5355 39.1273L29.8363 37.142L21.3142 29.432L20.1226 19.4111L18.3179 18.7142L19.6739 29.9634ZM40.0428 19.4111L38.8608 29.4271L30.3266 37.1319L30.6389 39.1273L40.2183 30.4647L40.4915 29.9634L41.8495 18.7142L40.0428 19.4111ZM29.7706 13.5658L18.8422 17.8068L20.3757 19.0451L30.0804 15.2653L39.7882 19.0451L41.3207 17.8068L30.4053 13.5658H29.7706ZM118.418 22.8548C119.02 23.1179 119.538 23.5412 119.916 24.0782C120.309 24.6977 120.51 25.4197 120.493 26.1534V33.262H118.254V26.1735C118.237 25.7679 118.063 25.3847 117.768 25.1058C117.471 24.8364 117.108 24.6514 116.716 24.5695C116.31 24.4701 115.89 24.4478 115.477 24.5041C115.099 24.5455 114.734 24.6631 114.404 24.85V33.262H112.144V23.1256C112.342 23.0988 112.539 23.0569 112.731 23.0002C112.972 22.925 113.34 22.8047 113.834 22.6343C114.431 22.4569 115.049 22.3642 115.671 22.3587C115.719 22.3486 115.768 22.3486 115.816 22.3587C116.005 22.3495 116.194 22.3529 116.383 22.3687C117.084 22.407 117.773 22.5716 118.416 22.8548H118.418ZM111.78 23.1456L108.23 33.262H105.834L102.284 23.1456C103.052 23.1503 103.805 22.9309 104.451 22.5141L106.598 28.7704L106.949 30.9058H107.114L107.465 28.7704L109.612 22.5141C110.258 22.9307 111.011 23.1501 111.78 23.1456ZM74.931 27.3367C75.4464 27.5414 75.8987 27.8785 76.2419 28.3141C76.6114 28.8379 76.7999 29.4681 76.7788 30.1088C76.7974 30.8489 76.5645 31.5735 76.1181 32.1642C75.6891 32.6884 75.1145 33.0739 74.4668 33.272C73.78 33.4887 73.0537 33.5502 72.3403 33.4524C71.6011 33.3478 70.8953 33.077 70.2759 32.6603C69.6326 32.2281 69.1217 31.6261 68.8 30.921L70.4934 29.818C70.7509 30.2715 71.1205 30.6513 71.5668 30.921C71.9658 31.1693 72.419 31.3172 72.8877 31.352C73.286 31.3987 73.6885 31.3125 74.0326 31.1065C74.1904 31.002 74.3195 30.8596 74.4079 30.6923C74.4964 30.525 74.5415 30.3382 74.539 30.1489C74.5415 30.0336 74.519 29.9192 74.4727 29.8136C74.4265 29.708 74.3577 29.6135 74.2713 29.5372C74.0855 29.3708 73.8674 29.2447 73.6306 29.1664C73.3684 29.0912 73.1113 29.0211 72.8571 28.9659C72.4414 28.8918 72.0309 28.7912 71.6279 28.6651C71.1956 28.5328 70.7826 28.344 70.3997 28.1036C70.0075 27.8683 69.6781 27.5415 69.4397 27.1512C69.2128 26.7589 69.0885 26.3157 69.0783 25.8626V25.8227C69.072 25.7645 69.0688 25.7059 69.0688 25.6472C69.0462 24.9562 69.2691 24.2795 69.6979 23.7373C70.0943 23.2538 70.6154 22.8881 71.2048 22.6796C71.797 22.4655 72.423 22.3601 73.0526 22.3687C73.6632 22.3737 74.2667 22.4997 74.8282 22.7395C75.466 23.0186 76.0468 23.4131 76.5417 23.9027L75.1791 25.3966C74.8707 25.0966 74.5007 24.8673 74.0948 24.7247C73.6966 24.5676 73.2736 24.4828 72.8456 24.474C72.484 24.4646 72.1258 24.5457 71.8034 24.7097C71.6736 24.7805 71.5619 24.8804 71.4772 25.0015C71.3925 25.1226 71.337 25.2617 71.315 25.4079C71.2931 25.554 71.3053 25.7034 71.3507 25.844C71.3961 25.9847 71.4735 26.113 71.5768 26.2188C71.796 26.4175 72.0569 26.5647 72.3403 26.6498C72.635 26.754 72.9395 26.8278 73.2491 26.8704C73.8272 26.9539 74.3924 27.1106 74.931 27.3367ZM79.7305 18.9597C79.9976 19.2441 80.1417 19.6224 80.1315 20.0125C80.1369 20.3912 79.9928 20.757 79.7305 21.0303C79.5956 21.1691 79.4333 21.2782 79.2538 21.3507C79.0744 21.4232 78.8817 21.4575 78.6883 21.4513C78.501 21.4548 78.3151 21.4193 78.1425 21.3468C77.9698 21.2742 77.8142 21.1664 77.6857 21.0303C77.5532 20.8962 77.4485 20.7371 77.3777 20.5625C77.3069 20.3878 77.2713 20.2009 77.2731 20.0125C77.2689 19.8185 77.3032 19.6255 77.3741 19.4448C77.4449 19.2642 77.5508 19.0992 77.6857 18.9597C77.8176 18.8287 77.974 18.725 78.146 18.6545C78.3181 18.5839 78.5023 18.548 78.6883 18.5487C78.8805 18.5454 79.0714 18.58 79.2503 18.6505C79.4291 18.7211 79.5923 18.826 79.7305 18.9597ZM85.521 31.2118V18.5688H87.7949V26.8503L88.8582 25.6673L88.8687 25.6472L91.6339 22.5241H94.4723L90.0137 27.4721L94.4522 33.262H91.7893L88.4246 28.8656L87.7949 29.5071V33.262L85.6172 33.3472H85.4975C85.449 33.3465 85.4007 33.3432 85.3526 33.3372L85.2348 33.3271C83.783 33.2218 82.7577 32.8961 82.1588 32.3497C81.7973 32.0032 81.5145 31.5828 81.3294 31.1175C81.1444 30.6522 81.0613 30.1527 81.086 29.6525V18.5688H83.3564V29.6525C83.3464 29.8582 83.3808 30.0635 83.4573 30.2547C83.5338 30.4458 83.6505 30.6183 83.7995 30.7604C84.3198 31.0711 84.9177 31.2278 85.5235 31.2118H85.521ZM79.8778 33.262H77.6075V22.4889H79.8778V33.262ZM64.9215 21.8473H62.6922L64.1575 19.4211H66.9553L64.9215 21.8473ZM128.978 23.9228C128.569 23.393 128.023 22.984 127.399 22.7395C126.758 22.4879 126.075 22.362 125.387 22.3687C124.698 22.3537 124.014 22.4762 123.373 22.7295C122.656 23.0258 122.017 23.484 121.506 24.0682L122.827 25.2813C123.161 24.9381 123.571 24.6785 124.025 24.5242C124.48 24.3767 124.961 24.3238 125.438 24.3688C125.881 24.4016 126.305 24.5638 126.656 24.8351C127.016 25.1196 127.258 25.5263 127.337 25.9779V26.6298C126.714 26.3724 126.05 26.2248 125.376 26.1936C124.702 26.1606 124.028 26.2645 123.394 26.4993C122.735 26.7205 122.164 27.1491 121.768 27.721C121.372 28.2929 121.171 28.9773 121.196 29.6726C121.173 30.4433 121.374 31.2042 121.774 31.8633C122.123 32.4092 122.63 32.8358 123.227 33.0865C123.869 33.3583 124.556 33.5063 125.252 33.5227C126.001 33.5565 126.752 33.5078 127.491 33.3773C128.208 33.2503 128.913 33.059 129.596 32.8057V25.918C129.613 25.2032 129.396 24.5025 128.977 23.9228H128.978ZM127.336 31.352C126.912 31.4746 126.476 31.5552 126.036 31.5926C125.599 31.6307 125.159 31.5986 124.732 31.4974C124.351 31.4174 124.007 31.215 123.751 30.921C123.492 30.5597 123.374 30.115 123.422 29.6726C123.428 29.479 123.475 29.2889 123.56 29.115C123.645 28.9411 123.767 28.7877 123.917 28.6651C124.229 28.4289 124.601 28.2861 124.991 28.2539C125.41 28.2037 125.834 28.2139 126.25 28.284C126.625 28.33 126.991 28.4349 127.334 28.5948V31.352H127.336ZM102.162 24.9203C102.063 24.5878 101.905 24.2755 101.697 23.9979C101.297 23.451 100.759 23.02 100.138 22.7496C99.5072 22.4835 98.8309 22.3424 98.1463 22.3337C97.984 22.3352 97.8219 22.3468 97.6611 22.3687C97.125 22.4138 96.5993 22.5422 96.103 22.7496C95.7317 22.9109 95.3899 23.1329 95.0914 23.4063C94.8827 23.5805 94.6957 23.7792 94.5344 23.9979C94.11 24.598 93.8891 25.3185 93.9043 26.0533V29.808C93.8877 30.5492 94.1085 31.2765 94.5344 31.8834C94.7353 32.1556 94.9713 32.4001 95.2362 32.6104C95.5027 32.815 95.7939 32.985 96.103 33.1166C96.5994 33.3265 97.1247 33.46 97.6611 33.5127C97.82 33.5277 97.9814 33.5327 98.1463 33.5327C98.8314 33.5289 99.5087 33.3874 100.138 33.1166C100.76 32.855 101.299 32.4287 101.697 31.8834C102.122 31.2761 102.343 30.5491 102.327 29.808V26.0533C102.324 25.6699 102.268 25.2886 102.162 24.9203ZM100.056 29.808C100.059 30.1246 99.9529 30.4327 99.7555 30.6803C99.5597 30.9167 99.3127 31.1053 99.0331 31.2318C98.7511 31.3465 98.4498 31.4059 98.1453 31.4071C97.9825 31.4073 97.82 31.3922 97.66 31.362C97.5051 31.3321 97.3531 31.2886 97.2059 31.2318C96.9203 31.1058 96.6666 30.9173 96.4635 30.6803C96.2725 30.43 96.1707 30.1228 96.1742 29.808V26.0533C96.1687 25.7473 96.2712 25.4491 96.4635 25.2111C96.6646 24.9874 96.9205 24.8197 97.2059 24.7247C97.3525 24.6673 97.5047 24.6253 97.66 24.5994C97.8202 24.5708 97.9827 24.5576 98.1453 24.5595C98.4489 24.5596 98.7499 24.6155 99.0331 24.7247C99.3126 24.8202 99.5618 24.9881 99.7555 25.2111C99.954 25.4463 100.061 25.7455 100.056 26.0533V29.808ZM67.5834 23.9228C67.1738 23.3928 66.628 22.9837 66.0043 22.7395C65.3634 22.4878 64.6801 22.3619 63.9916 22.3687C63.3516 22.3545 62.7145 22.46 62.1132 22.6796C62.0672 22.6929 62.0223 22.7095 61.9788 22.7295C61.2612 23.0255 60.6219 23.4838 60.111 24.0682L61.4324 25.2813C61.6336 25.0777 61.8628 24.9037 62.1132 24.7648C62.2778 24.6697 62.4504 24.5892 62.629 24.5242C63.0849 24.3767 63.5661 24.3238 64.0432 24.3688C64.4862 24.4019 64.9099 24.5641 65.2619 24.8351C65.621 25.1199 65.8632 25.5265 65.9426 25.9779V26.6298C65.3187 26.3726 64.6551 26.225 63.981 26.1936C63.3475 26.1608 62.7135 26.2493 62.1132 26.4543C62.0711 26.4693 62.0335 26.4843 61.9999 26.4993C61.3402 26.7205 60.7698 27.1492 60.3735 27.721C59.9771 28.2928 59.7762 28.9773 59.8007 29.6726C59.8023 30.1046 59.8613 30.5346 59.9761 30.9511H52.2661L60.3997 20.1378L59.6673 18.5788H49.4794V20.935H57.1493L49.0472 31.6878L49.6869 33.262H60.1015V31.3018C60.2099 31.569 60.3483 31.823 60.514 32.0589C60.6294 32.2114 60.7573 32.354 60.8965 32.4851C61.1712 32.7399 61.4891 32.9435 61.8354 33.0865C61.9247 33.1266 62.0174 33.1667 62.1142 33.2018C62.6747 33.4009 63.2635 33.5093 63.8582 33.5227C64.6079 33.5565 65.359 33.5078 66.098 33.3773C66.8155 33.2502 67.5202 33.0588 68.2035 32.8057V25.918C68.2202 25.2031 68.0026 24.5024 67.5839 23.9228H67.5834ZM65.9431 31.352C65.5176 31.4747 65.081 31.5552 64.6397 31.5926C64.204 31.6305 63.765 31.5983 63.3394 31.4974C62.9583 31.4176 62.6138 31.2152 62.3588 30.921C62.2463 30.7815 62.1622 30.6215 62.1112 30.4498C62.0391 30.1975 62.0112 29.9344 62.029 29.6726C62.0394 29.5343 62.067 29.3979 62.1112 29.2665C62.1822 29.0275 62.3267 28.8172 62.5243 28.6651C62.8357 28.429 63.208 28.2862 63.5975 28.2539C64.0164 28.2037 64.4403 28.2139 64.8563 28.284C65.2318 28.33 65.5978 28.4349 65.9406 28.5948V31.352H65.9431Z" fill="white"/>
<path fill-rule="evenodd" clip-rule="evenodd" d="M29.5946 24.9954L30.0252 35.9038L22.2425 28.8655L21.1487 19.8019L29.5946 24.9954Z" fill="#DEDEDE"/>
<path fill-rule="evenodd" clip-rule="evenodd" d="M36.2645 21.4914L39.0187 19.8019L37.9343 28.8655L30.1421 35.9139L30.5717 24.9954L33.9901 22.8849L33.765 28.2389L35.8935 26.735L36.2645 21.4914Z" fill="#B4B4B4"/>

</svg>
