<svg width="135" height="40" viewBox="0 0 135 40" fill="none" xmlns="http://www.w3.org/2000/svg">
<path d="M130 0H5C2.23858 0 0 2.23858 0 5V35C0 37.7614 2.23858 40 5 40H130C132.761 40 135 37.7614 135 35V5C135 2.23858 132.761 0 130 0Z" fill="black"/>
<path d="M130 0.8C131.114 0.8 132.182 1.2425 132.97 2.03015C133.758 2.8178 134.2 3.88609 134.2 5V35C134.2 36.1139 133.758 37.1822 132.97 37.9698C132.182 38.7575 131.114 39.2 130 39.2H5C3.88609 39.2 2.8178 38.7575 2.03015 37.9698C1.2425 37.1822 0.8 36.1139 0.8 35V5C0.8 3.88609 1.2425 2.8178 2.03015 2.03015C2.8178 1.2425 3.88609 0.8 5 0.8H130ZM130 0H5C3.67392 0 2.40215 0.526784 1.46447 1.46447C0.526784 2.40215 0 3.67392 0 5L0 35C0 36.3261 0.526784 37.5979 1.46447 38.5355C2.40215 39.4732 3.67392 40 5 40H130C131.326 40 132.598 39.4732 133.536 38.5355C134.473 37.5979 135 36.3261 135 35V5C135 3.67392 134.473 2.40215 133.536 1.46447C132.598 0.526784 131.326 0 130 0V0Z" fill="#A6A6A6"/>
<path d="M47.4206 10.24C47.437 10.6067 47.379 10.973 47.2501 11.3167C47.1212 11.6604 46.9241 11.9745 46.6706 12.24C46.3865 12.5333 46.0437 12.7633 45.6646 12.9149C45.2855 13.0666 44.8786 13.1365 44.4706 13.12C44.0603 13.1291 43.6524 13.054 43.2723 12.8992C42.8921 12.7444 42.5478 12.5132 42.2606 12.22C41.9643 11.9325 41.7306 11.5869 41.574 11.2049C41.4174 10.8229 41.3414 10.4127 41.3506 10C41.34 9.58559 41.4154 9.17348 41.572 8.78967C41.7286 8.40585 41.9631 8.05866 42.2606 7.77C42.7061 7.33468 43.2703 7.04074 43.8824 6.92509C44.4944 6.80944 45.127 6.87725 45.7006 7.12C46.0612 7.26823 46.3828 7.49748 46.6406 7.79L46.1106 8.32C45.912 8.08077 45.6604 7.89114 45.3757 7.76615C45.091 7.64117 44.7811 7.58428 44.4706 7.6C44.1582 7.59847 43.8488 7.66003 43.5608 7.78099C43.2728 7.90195 43.0122 8.07982 42.7946 8.30394C42.5771 8.52806 42.407 8.7938 42.2946 9.08524C42.1822 9.37669 42.1298 9.68782 42.1406 10C42.134 10.4661 42.2657 10.9238 42.5189 11.3152C42.7722 11.7066 43.1357 12.0142 43.5635 12.1993C43.9914 12.3843 44.4645 12.4385 44.9231 12.355C45.3818 12.2715 45.8054 12.054 46.1406 11.73C46.4489 11.3961 46.6296 10.964 46.6506 10.51H44.4706V9.79H47.3806C47.403 9.93906 47.4163 10.0893 47.4206 10.24Z" fill="white" stroke="white" stroke-width="0.2" stroke-miterlimit="10"/>
<path d="M51.9995 7.74H49.2995V9.64H51.7595V10.36H49.2995V12.26H51.9995V13H48.5195V7H51.9995V7.74Z" fill="white" stroke="white" stroke-width="0.2" stroke-miterlimit="10"/>
<path d="M55.2801 13H54.5101V7.74H52.8301V7H57.0001V7.74H55.2801V13Z" fill="white" stroke="white" stroke-width="0.2" stroke-miterlimit="10"/>
<path d="M59.9395 13V7H60.7095V13H59.9395Z" fill="white" stroke="white" stroke-width="0.2" stroke-miterlimit="10"/>
<path d="M64.1297 13H63.3597V7.74H61.6797V7H65.7997V7.74H64.1297V13Z" fill="white" stroke="white" stroke-width="0.2" stroke-miterlimit="10"/>
<path d="M73.6097 12.22C73.3208 12.5091 72.9779 12.7384 72.6004 12.8948C72.2229 13.0513 71.8183 13.1318 71.4097 13.1318C71.001 13.1318 70.5964 13.0513 70.2189 12.8948C69.8414 12.7384 69.4985 12.5091 69.2097 12.22C68.9188 11.9299 68.6906 11.5832 68.5392 11.2013C68.3879 10.8195 68.3165 10.4106 68.3297 10C68.3165 9.58943 68.3879 9.18054 68.5392 8.79867C68.6906 8.41679 68.9188 8.07008 69.2097 7.78C69.4923 7.4828 69.8341 7.24823 70.2131 7.09148C70.592 6.93472 70.9997 6.85927 71.4097 6.87C71.8191 6.86352 72.2254 6.94092 72.6038 7.09742C72.9821 7.25392 73.3245 7.48622 73.6097 7.78C73.8972 8.07249 74.1232 8.41963 74.2744 8.80093C74.4255 9.18222 74.4987 9.58994 74.4897 10C74.5028 10.4106 74.4314 10.8195 74.2801 11.2013C74.1287 11.5832 73.9005 11.9299 73.6097 12.22ZM69.7797 11.72C69.9927 11.9359 70.2465 12.1073 70.5263 12.2243C70.8061 12.3413 71.1064 12.4015 71.4097 12.4015C71.7129 12.4015 72.0132 12.3413 72.293 12.2243C72.5728 12.1073 72.8266 11.9359 73.0397 11.72C73.2612 11.493 73.4347 11.2237 73.5498 10.9282C73.6649 10.6327 73.7193 10.317 73.7097 10C73.7141 9.68015 73.6534 9.36275 73.5313 9.06707C73.4093 8.77139 73.2284 8.50361 72.9997 8.28C72.7866 8.06412 72.5328 7.89271 72.253 7.77572C71.9732 7.65872 71.6729 7.59848 71.3697 7.59848C71.0664 7.59848 70.7661 7.65872 70.4863 7.77572C70.2065 7.89271 69.9527 8.06412 69.7397 8.28C69.5253 8.51024 69.3592 8.78101 69.251 9.07638C69.1428 9.37176 69.0947 9.68579 69.1097 10C69.1 10.317 69.1544 10.6327 69.2695 10.9282C69.3846 11.2237 69.5581 11.493 69.7797 11.72Z" fill="white" stroke="white" stroke-width="0.2" stroke-miterlimit="10"/>
<path d="M75.5801 13V7H76.5101L79.4301 11.67V10.51V7H80.2001V13H79.4001L76.3501 8.11V9.26V13H75.5801Z" fill="white" stroke="white" stroke-width="0.2" stroke-miterlimit="10"/>
<path d="M68.1401 21.75C67.2976 21.752 66.4745 22.0038 65.7751 22.4735C65.0756 22.9432 64.5312 23.6098 64.2106 24.389C63.89 25.1682 63.8076 26.0249 63.9739 26.8509C64.1402 27.6769 64.5477 28.435 65.1449 29.0293C65.7421 29.6237 66.5021 30.0276 67.3288 30.1901C68.1556 30.3525 69.0119 30.2661 69.7896 29.9419C70.5672 29.6176 71.2313 29.0701 71.6977 28.3684C72.1642 27.6668 72.4121 26.8425 72.4101 26C72.4183 25.4379 72.3132 24.88 72.1013 24.3593C71.8893 23.8387 71.5748 23.366 71.1764 22.9695C70.7779 22.573 70.3038 22.2606 69.7822 22.0511C69.2606 21.8416 68.7021 21.7392 68.1401 21.75ZM68.1401 28.58C67.6237 28.6161 67.1083 28.496 66.6611 28.2354C66.2138 27.9747 65.8553 27.5856 65.6321 27.1184C65.409 26.6513 65.3315 26.1279 65.4098 25.6161C65.4881 25.1044 65.7185 24.6281 66.0711 24.249C66.4237 23.87 66.8821 23.6058 67.3869 23.4908C67.8916 23.3758 68.4193 23.4152 68.9013 23.6041C69.3833 23.7929 69.7973 24.1224 70.0896 24.5497C70.3819 24.977 70.5388 25.4823 70.5401 26C70.5562 26.328 70.5065 26.6559 70.3938 26.9644C70.2812 27.2729 70.1079 27.5557 69.8842 27.7962C69.6606 28.0366 69.391 28.2299 69.0914 28.3645C68.7919 28.4991 68.4684 28.5724 68.1401 28.58ZM58.8201 21.75C57.9776 21.752 57.1545 22.0038 56.4551 22.4735C55.7556 22.9432 55.2112 23.6098 54.8906 24.389C54.57 25.1682 54.4876 26.0249 54.6539 26.8509C54.8202 27.6769 55.2277 28.435 55.8249 29.0293C56.4221 29.6237 57.1821 30.0276 58.0088 30.1901C58.8356 30.3525 59.6919 30.2661 60.4696 29.9419C61.2472 29.6176 61.9113 29.0701 62.3777 28.3684C62.8442 27.6668 63.0921 26.8425 63.0901 26C63.0983 25.4379 62.9932 24.88 62.7813 24.3593C62.5693 23.8387 62.2548 23.366 61.8564 22.9695C61.4579 22.573 60.9838 22.2606 60.4622 22.0511C59.9406 21.8416 59.3821 21.7392 58.8201 21.75ZM58.8201 28.58C58.3037 28.6161 57.7883 28.496 57.3411 28.2354C56.8938 27.9747 56.5353 27.5856 56.3121 27.1184C56.089 26.6513 56.0115 26.1279 56.0898 25.6161C56.1681 25.1044 56.3985 24.6281 56.7511 24.249C57.1037 23.87 57.5621 23.6058 58.0669 23.4908C58.5716 23.3758 59.0993 23.4152 59.5813 23.6041C60.0633 23.7929 60.4773 24.1224 60.7696 24.5497C61.0619 24.977 61.2188 25.4823 61.2201 26C61.2362 26.328 61.1865 26.6559 61.0738 26.9644C60.9612 27.2729 60.7879 27.5557 60.5642 27.7962C60.3406 28.0366 60.071 28.2299 59.7714 28.3645C59.4719 28.4991 59.1484 28.5724 58.8201 28.58ZM47.7401 23.06V24.86H52.0601C51.9924 25.7078 51.6399 26.5078 51.0601 27.13C50.6268 27.5715 50.1056 27.9171 49.5302 28.1445C48.9549 28.3719 48.3382 28.476 47.7201 28.45C46.4471 28.45 45.2262 27.9443 44.326 27.0441C43.4258 26.1439 42.9201 24.923 42.9201 23.65C42.9201 22.377 43.4258 21.1561 44.326 20.2559C45.2262 19.3557 46.4471 18.85 47.7201 18.85C48.9405 18.8318 50.119 19.2953 51.0001 20.14L52.2701 18.87C51.6741 18.2805 50.9664 17.8159 50.1886 17.5034C49.4107 17.1909 48.5783 17.0367 47.7401 17.05C46.8511 17.0154 45.9643 17.1606 45.1327 17.477C44.3012 17.7933 43.5421 18.2743 42.9009 18.891C42.2596 19.5078 41.7495 20.2476 41.4011 21.0662C41.0527 21.8848 40.873 22.7653 40.873 23.655C40.873 24.5447 41.0527 25.4252 41.4011 26.2438C41.7495 27.0624 42.2596 27.8022 42.9009 28.419C43.5421 29.0357 44.3012 29.5167 45.1327 29.833C45.9643 30.1494 46.8511 30.2946 47.7401 30.26C48.5955 30.2942 49.4485 30.147 50.243 29.8282C51.0375 29.5093 51.7556 29.026 52.3501 28.41C53.4002 27.2564 53.9598 25.7392 53.9101 24.18C53.9137 23.8047 53.8836 23.4299 53.8201 23.06H47.7401ZM93.0501 24.46C92.7893 23.6927 92.3016 23.0228 91.6516 22.5388C91.0016 22.0549 90.2199 21.7798 89.4101 21.75C88.8631 21.7489 88.3217 21.8601 87.8193 22.0765C87.317 22.293 86.8644 22.6102 86.4895 23.0085C86.1146 23.4069 85.8254 23.8778 85.6397 24.3924C85.4541 24.9069 85.3759 25.4541 85.4101 26C85.4016 26.9128 85.6885 27.804 86.2282 28.5403C86.7679 29.2766 87.5313 29.8185 88.4044 30.0851C89.2774 30.3518 90.2134 30.3288 91.0723 30.0197C91.9313 29.7106 92.6672 29.1319 93.1701 28.37L91.7201 27.37C91.5039 27.7303 91.1974 28.0278 90.8307 28.233C90.4641 28.4383 90.0502 28.5441 89.6301 28.54C89.1967 28.5579 88.768 28.4443 88.4003 28.214C88.0327 27.9838 87.7432 27.6477 87.5701 27.25L93.2601 24.9L93.0501 24.46ZM87.2501 25.88C87.2298 25.5699 87.2718 25.2589 87.3736 24.9652C87.4753 24.6716 87.6348 24.4012 87.8426 24.1701C88.0504 23.9391 88.3023 23.7519 88.5835 23.6196C88.8647 23.4873 89.1696 23.4127 89.4801 23.4C89.8012 23.3794 90.1213 23.4538 90.4005 23.6138C90.6796 23.7739 90.9056 24.0125 91.0501 24.3L87.2501 25.88ZM82.6301 30H84.5001V17.5H82.6301V30ZM79.5701 22.7H79.5001C79.2162 22.3909 78.8694 22.1463 78.483 21.9824C78.0966 21.8185 77.6796 21.7393 77.2601 21.75C76.1673 21.803 75.1367 22.2744 74.3821 23.0666C73.6274 23.8587 73.2064 24.9109 73.2064 26.005C73.2064 27.0991 73.6274 28.1513 74.3821 28.9434C75.1367 29.7356 76.1673 30.207 77.2601 30.26C77.6841 30.2685 78.1047 30.1833 78.4919 30.0104C78.8791 29.8376 79.2234 29.5813 79.5001 29.26H79.5701V29.87C79.5701 31.5 78.7001 32.37 77.3001 32.37C76.8324 32.3597 76.3783 32.2107 75.9955 31.9418C75.6127 31.673 75.3185 31.2964 75.1501 30.86L73.5301 31.53C73.8296 32.2822 74.3504 32.9259 75.0235 33.3758C75.6966 33.8258 76.4905 34.0609 77.3001 34.05C79.4901 34.05 81.3001 32.76 81.3001 29.62V22H79.5701V22.7ZM77.4201 28.58C76.7649 28.5391 76.1499 28.2501 75.7004 27.7717C75.2509 27.2932 75.0006 26.6615 75.0006 26.005C75.0006 25.3485 75.2509 24.7168 75.7004 24.2383C76.1499 23.7599 76.7649 23.4708 77.4201 23.43C77.7403 23.4438 78.0545 23.5219 78.344 23.6596C78.6334 23.7974 78.8922 23.9919 79.1049 24.2317C79.3176 24.4715 79.4799 24.7516 79.5822 25.0554C79.6844 25.3591 79.7245 25.6804 79.7001 26C79.7274 26.3207 79.6893 26.6436 79.5883 26.9492C79.4872 27.2547 79.3252 27.5366 79.1121 27.7778C78.8989 28.019 78.6391 28.2144 78.3483 28.3523C78.0575 28.4902 77.7417 28.5676 77.4201 28.58ZM101.81 17.5H97.3301V30H99.2001V25.26H101.81C102.343 25.2983 102.878 25.2264 103.382 25.0487C103.886 24.8711 104.348 24.5915 104.739 24.2275C105.13 23.8635 105.442 23.4227 105.655 22.9328C105.869 22.4429 105.979 21.9143 105.979 21.38C105.979 20.8457 105.869 20.3171 105.655 19.8272C105.442 19.3373 105.13 18.8965 104.739 18.5325C104.348 18.1685 103.886 17.8889 103.382 17.7113C102.878 17.5336 102.343 17.4617 101.81 17.5ZM101.81 23.5H99.2001V19.24H101.85C102.418 19.24 102.962 19.4655 103.363 19.8668C103.765 20.2681 103.99 20.8124 103.99 21.38C103.99 21.9476 103.765 22.4919 103.363 22.8932C102.962 23.2945 102.418 23.52 101.85 23.52L101.81 23.5ZM113.35 21.71C112.669 21.668 111.991 21.8266 111.399 22.166C110.807 22.5055 110.328 23.011 110.02 23.62L111.67 24.31C111.837 24.0094 112.087 23.7635 112.39 23.602C112.694 23.4405 113.038 23.3704 113.38 23.4C113.617 23.3723 113.858 23.3921 114.088 23.4583C114.317 23.5245 114.531 23.6358 114.718 23.7857C114.904 23.9356 115.058 24.121 115.172 24.3312C115.286 24.5414 115.356 24.7722 115.38 25.01V25.13C114.779 24.8139 114.109 24.6492 113.43 24.65C111.65 24.65 109.83 25.65 109.83 27.47C109.848 27.8568 109.943 28.2362 110.11 28.5855C110.277 28.9349 110.513 29.2471 110.803 29.5036C111.093 29.7601 111.432 29.9557 111.799 30.0788C112.166 30.2019 112.554 30.2499 112.94 30.22C113.409 30.246 113.877 30.1467 114.295 29.9323C114.714 29.7179 115.067 29.3961 115.32 29H115.38V30H117.18V25.19C117.18 23 115.52 21.73 113.39 21.73L113.35 21.71ZM113.12 28.56C112.51 28.56 111.66 28.25 111.66 27.5C111.66 26.5 112.72 26.16 113.66 26.16C114.254 26.1453 114.841 26.2904 115.36 26.58C115.297 27.1231 115.04 27.625 114.635 27.9927C114.231 28.3605 113.707 28.5691 113.16 28.58L113.12 28.56ZM123.74 22L121.6 27.42H121.54L119.32 22H117.32L120.65 29.58L118.75 33.79H120.75L125.82 22H123.74ZM106.94 30H108.8V17.5H106.94V30Z" fill="white"/>
<path d="M10.4392 7.54C10.1204 7.93406 9.96318 8.43444 9.9992 8.94V31.06C9.96518 31.5704 10.1341 32.0735 10.4692 32.46L10.5392 32.54L22.8992 20.15V19.85L10.5092 7.47L10.4392 7.54Z" fill="url(#paint0_linear)"/>
<path d="M27.0004 24.28L22.9004 20.15V19.85L27.0004 15.72L27.0904 15.78L32.0004 18.56C33.4004 19.35 33.4004 20.65 32.0004 21.45L27.1104 24.23L27.0004 24.28Z" fill="url(#paint1_linear)"/>
<path d="M27.1195 24.23L22.8995 20L10.4395 32.46C10.722 32.7115 11.0837 32.8562 11.4618 32.869C11.8399 32.8818 12.2105 32.7619 12.5095 32.53L27.1195 24.23Z" fill="url(#paint2_linear)"/>
<path d="M27.1195 15.78L12.5095 7.48C12.2125 7.24491 11.8421 7.12206 11.4635 7.13303C11.0849 7.14401 10.7223 7.28811 10.4395 7.54L22.8995 20L27.1195 15.78Z" fill="url(#paint3_linear)"/>
<path opacity="0.2" d="M26.9995 24.13L12.5095 32.38C12.2214 32.5974 11.8703 32.715 11.5095 32.715C11.1486 32.715 10.7975 32.5974 10.5095 32.38L10.4395 32.45L10.5095 32.53C10.7975 32.7474 11.1486 32.865 11.5095 32.865C11.8703 32.865 12.2214 32.7474 12.5095 32.53L27.1195 24.23L26.9995 24.13Z" fill="black"/>
<path opacity="0.12" d="M10.4399 32.32C10.1187 31.9234 9.96126 31.4189 9.99988 30.91V31.06C9.96585 31.5704 10.1348 32.0735 10.4699 32.46L10.5399 32.39L10.4399 32.32Z" fill="black"/>
<path opacity="0.12" d="M32 21.3L27 24.13L27.09 24.23L32 21.44C32.2898 21.3174 32.5413 21.119 32.7278 20.8656C32.9143 20.6122 33.0291 20.3132 33.06 20C32.9975 20.2846 32.869 20.5505 32.6849 20.7763C32.5007 21.0021 32.2662 21.1815 32 21.3Z" fill="black"/>
<path opacity="0.25" d="M12.51 7.62L32 18.7C32.2662 18.8185 32.5007 18.9979 32.6849 19.2237C32.869 19.4495 32.9975 19.7154 33.06 20C33.0291 19.6868 32.9143 19.3878 32.7278 19.1344C32.5413 18.881 32.2898 18.6826 32 18.56L12.51 7.48C11.12 6.68 10 7.34 10 8.94V9.09C10 7.49 11.12 6.83 12.51 7.62Z" fill="white"/>
<defs>
<linearGradient id="paint0_linear" x1="21.7992" y1="8.71" x2="5.0192" y2="25.49" gradientUnits="userSpaceOnUse">
<stop stop-color="#00A0FF"/>
<stop offset="0.01" stop-color="#00A1FF"/>
<stop offset="0.26" stop-color="#00BEFF"/>
<stop offset="0.51" stop-color="#00D2FF"/>
<stop offset="0.76" stop-color="#00DFFF"/>
<stop offset="1" stop-color="#00E3FF"/>
</linearGradient>
<linearGradient id="paint1_linear" x1="33.8304" y1="20" x2="9.64039" y2="20" gradientUnits="userSpaceOnUse">
<stop stop-color="#FFE000"/>
<stop offset="0.41" stop-color="#FFBD00"/>
<stop offset="0.78" stop-color="#FFA500"/>
<stop offset="1" stop-color="#FF9C00"/>
</linearGradient>
<linearGradient id="paint2_linear" x1="24.8295" y1="22.3" x2="2.06945" y2="45.05" gradientUnits="userSpaceOnUse">
<stop stop-color="#FF3A44"/>
<stop offset="1" stop-color="#C31162"/>
</linearGradient>
<linearGradient id="paint3_linear" x1="7.29945" y1="0.18" x2="17.4595" y2="10.34" gradientUnits="userSpaceOnUse">
<stop stop-color="#32A071"/>
<stop offset="0.07" stop-color="#2DA771"/>
<stop offset="0.48" stop-color="#15CF74"/>
<stop offset="0.8" stop-color="#06E775"/>
<stop offset="1" stop-color="#00F076"/>
</linearGradient>
</defs>
</svg>
