<svg width="392" height="3" viewBox="0 0 392 3" fill="none" xmlns="http://www.w3.org/2000/svg">
<rect y="0.0859375" width="2" height="2" fill="#BA1B02"/>
<rect x="10" y="0.0859375" width="2" height="2" fill="#BA1B02"/>
<rect x="20" y="0.0859375" width="2" height="2" fill="#BA1B02"/>
<rect x="30" y="0.0859375" width="2" height="2" fill="#BA1B02"/>
<rect x="40" y="0.0859375" width="2" height="2" fill="#BA1B02"/>
<rect x="50" y="0.0859375" width="2" height="2" fill="#BA1B02"/>
<rect x="60" y="0.0859375" width="2" height="2" fill="#BA1B02"/>
<rect x="70" y="0.0859375" width="2" height="2" fill="#BA1B02"/>
<rect x="80" y="0.0859375" width="2" height="2" fill="#BA1B02"/>
<rect x="90" y="0.0859375" width="2" height="2" fill="#BA1B02"/>
<rect x="100" y="0.0859375" width="2" height="2" fill="#BA1B02"/>
<rect x="110" y="0.0859375" width="2" height="2" fill="#BA1B02"/>
<rect x="120" y="0.0859375" width="2" height="2" fill="#BA1B02"/>
<rect x="130" y="0.0859375" width="2" height="2" fill="#BA1B02"/>
<rect x="140" y="0.0859375" width="2" height="2" fill="#BA1B02"/>
<rect x="150" y="0.0859375" width="2" height="2" fill="#BA1B02"/>
<rect x="160" y="0.0859375" width="2" height="2" fill="#BA1B02"/>
<rect x="170" y="0.0859375" width="2" height="2" fill="#BA1B02"/>
<rect x="180" y="0.0859375" width="2" height="2" fill="#BA1B02"/>
<rect x="190" y="0.0859375" width="2" height="2" fill="#BA1B02"/>
<rect x="200" y="0.0859375" width="2" height="2" fill="#BA1B02"/>
<rect x="210" y="0.0859375" width="2" height="2" fill="#BA1B02"/>
<rect x="220" y="0.0859375" width="2" height="2" fill="#BA1B02"/>
<rect x="230" y="0.0859375" width="2" height="2" fill="#BA1B02"/>
<rect x="240" y="0.0859375" width="2" height="2" fill="#BA1B02"/>
<rect x="250" y="0.0859375" width="2" height="2" fill="#BA1B02"/>
<rect x="260" y="0.0859375" width="2" height="2" fill="#BA1B02"/>
<rect x="270" y="0.0859375" width="2" height="2" fill="#BA1B02"/>
<rect x="280" y="0.0859375" width="2" height="2" fill="#BA1B02"/>
<rect x="290" y="0.0859375" width="2" height="2" fill="#BA1B02"/>
<rect x="300" y="0.0859375" width="2" height="2" fill="#BA1B02"/>
<rect x="310" y="0.0859375" width="2" height="2" fill="#BA1B02"/>
<rect x="320" y="0.0859375" width="2" height="2" fill="#BA1B02"/>
<rect x="330" y="0.0859375" width="2" height="2" fill="#BA1B02"/>
<rect x="340" y="0.0859375" width="2" height="2" fill="#BA1B02"/>
<rect x="350" y="0.0859375" width="2" height="2" fill="#BA1B02"/>
<rect x="360" y="0.0859375" width="2" height="2" fill="#BA1B02"/>
<rect x="370" y="0.0859375" width="2" height="2" fill="#BA1B02"/>
<rect x="380" y="0.0859375" width="2" height="2" fill="#BA1B02"/>
<rect x="390" y="0.0859375" width="2" height="2" fill="#BA1B02"/>
</svg>