<svg width="120" height="40" viewBox="0 0 120 40" fill="none" xmlns="http://www.w3.org/2000/svg">
<g clip-path="url(#clip0)">
<path d="M110.135 3.00293e-07H9.53468C9.16798 3.00293e-07 8.80568 3.00352e-07 8.43995 0.0020003C8.1338 0.0040003 7.83009 0.0098103 7.521 0.0147003C6.84951 0.0226021 6.17961 0.0816766 5.5171 0.19141C4.85552 0.303533 4.21467 0.514916 3.61622 0.81841C3.0185 1.12447 2.47235 1.52217 1.99757 1.99707C1.5203 2.47064 1.12246 3.01802 0.81935 3.61816C0.5154 4.21711 0.304641 4.85894 0.19435 5.52148C0.0830109 6.18319 0.0230984 6.85252 0.01515 7.52348C0.00587 7.83008 0.00489 8.1377 0 8.44434V31.5586C0.00489 31.8691 0.00587 32.1699 0.01515 32.4805C0.0231008 33.1514 0.0830134 33.8207 0.19435 34.4824C0.304336 35.1453 0.515108 35.7875 0.81935 36.3867C1.12233 36.9849 1.52022 37.5301 1.99757 38.001C2.47054 38.478 3.01705 38.876 3.61622 39.1797C4.21467 39.484 4.85545 39.6966 5.5171 39.8105C6.17972 39.9194 6.84956 39.9785 7.521 39.9873C7.83009 39.9941 8.1338 39.998 8.43995 39.998C8.80567 40 9.168 40 9.53468 40H110.135C110.494 40 110.859 40 111.219 39.998C111.523 39.998 111.836 39.9941 112.141 39.9873C112.811 39.9789 113.479 39.9198 114.141 39.8105C114.804 39.6958 115.448 39.4833 116.049 39.1797C116.647 38.8758 117.193 38.4778 117.666 38.001C118.142 37.5282 118.541 36.9835 118.848 36.3867C119.15 35.7871 119.358 35.1449 119.467 34.4824C119.578 33.8206 119.64 33.1515 119.652 32.4805C119.656 32.1699 119.656 31.8691 119.656 31.5586C119.664 31.1953 119.664 30.834 119.664 30.4648V9.53613C119.664 9.16992 119.664 8.80664 119.656 8.44434C119.656 8.1377 119.656 7.83008 119.652 7.52344C119.64 6.85242 119.578 6.18324 119.467 5.52144C119.358 4.85928 119.149 4.2175 118.848 3.61812C118.23 2.4152 117.252 1.43603 116.049 0.81832C115.448 0.515568 114.804 0.304241 114.141 0.19132C113.48 0.0811031 112.811 0.0220081 112.141 0.0145603C111.836 0.0096803 111.523 0.0038203 111.219 0.0018703C110.859 -0.0001297 110.494 -0.0001297 110.135 -0.0001297V3.00293e-07Z" fill="#A6A6A6"/>
<path d="M8.44487 39.125C8.14019 39.125 7.84287 39.1211 7.54058 39.1143C6.91436 39.1061 6.2896 39.0516 5.67144 38.9512C5.09503 38.8519 4.53664 38.6673 4.0147 38.4033C3.49754 38.1415 3.02585 37.7983 2.6177 37.3867C2.20364 36.98 1.85891 36.5082 1.59719 35.9902C1.33258 35.4688 1.14945 34.9099 1.05419 34.333C0.951311 33.7131 0.895651 33.0863 0.887687 32.458C0.881347 32.2471 0.873047 31.5449 0.873047 31.5449V8.44434C0.873047 8.44434 0.881887 7.75293 0.887737 7.5498C0.895363 6.92248 0.950699 6.29665 1.05327 5.67773C1.14871 5.09925 1.33197 4.53875 1.59673 4.01563C1.85749 3.49794 2.2003 3.02586 2.61187 2.61768C3.02297 2.20562 3.49617 1.8606 4.01421 1.59521C4.53495 1.33209 5.09228 1.14873 5.66753 1.05127C6.28772 0.949836 6.91465 0.894996 7.54304 0.88721L8.44536 0.875H111.214L112.127 0.8877C112.75 0.895099 113.371 0.94945 113.985 1.05029C114.566 1.14898 115.13 1.33362 115.656 1.59814C116.694 2.13299 117.539 2.97916 118.071 4.01807C118.332 4.53758 118.512 5.09351 118.607 5.66699C118.71 6.29099 118.768 6.92174 118.78 7.5542C118.783 7.8374 118.783 8.1416 118.783 8.44434C118.791 8.81934 118.791 9.17627 118.791 9.53613V30.4648C118.791 30.8281 118.791 31.1826 118.783 31.54C118.783 31.8652 118.783 32.1631 118.779 32.4697C118.768 33.0909 118.711 33.7104 118.608 34.3232C118.515 34.9043 118.333 35.4675 118.068 35.9932C117.805 36.5056 117.462 36.9733 117.053 37.3789C116.644 37.7927 116.172 38.1379 115.653 38.4014C115.128 38.6674 114.566 38.8527 113.985 38.9512C113.367 39.0522 112.742 39.1067 112.116 39.1143C111.823 39.1211 111.517 39.125 111.219 39.125L110.135 39.127L8.44487 39.125Z" fill="black"/>
<path d="M24.768 20.3007C24.7788 19.466 25.0005 18.6476 25.4125 17.9217C25.8245 17.1957 26.4135 16.5858 27.1246 16.1486C26.6728 15.5035 26.0769 14.9725 25.3841 14.598C24.6912 14.2234 23.9206 14.0156 23.1334 13.9909C21.4542 13.8147 19.8262 14.9958 18.9705 14.9958C18.0982 14.9958 16.7807 14.0084 15.362 14.0376C14.4443 14.0673 13.55 14.3341 12.7661 14.8122C11.9822 15.2902 11.3356 15.9632 10.8891 16.7655C8.9551 20.1139 10.3977 25.035 12.2503 27.7416C13.1772 29.0669 14.2605 30.5474 15.6779 30.4949C17.065 30.4374 17.583 29.6104 19.2573 29.6104C20.9161 29.6104 21.4021 30.4949 22.8483 30.4615C24.3367 30.4373 25.2745 29.1303 26.1688 27.7924C26.8348 26.848 27.3473 25.8043 27.6873 24.6999C26.8225 24.3341 26.0846 23.7219 25.5655 22.9396C25.0464 22.1574 24.769 21.2395 24.768 20.3007Z" fill="white"/>
<path d="M22.0356 12.2109C22.8471 11.2367 23.247 9.9845 23.1501 8.72027C21.9103 8.85049 20.765 9.44305 19.9426 10.3799C19.5404 10.8375 19.2324 11.37 19.0362 11.9468C18.8399 12.5235 18.7593 13.1333 18.7988 13.7413C19.419 13.7477 20.0325 13.6132 20.5932 13.3482C21.1538 13.0831 21.647 12.6942 22.0356 12.2109Z" fill="white"/>
<path d="M42.3008 27.1397H37.5674L36.4307 30.4961H34.4258L38.9092 18.0781H40.9922L45.4756 30.4961H43.4365L42.3008 27.1397ZM38.0576 25.5908H41.8096L39.96 20.1436H39.9082L38.0576 25.5908Z" fill="white"/>
<path d="M55.1573 25.9697C55.1573 28.7832 53.6514 30.5908 51.3789 30.5908C50.8033 30.6209 50.2308 30.4883 49.727 30.2082C49.2232 29.9281 48.8085 29.5117 48.5303 29.0068H48.4873V33.4912H46.6289V21.4424H48.4278V22.9482H48.4619C48.7529 22.4458 49.1746 22.0316 49.6823 21.7497C50.1899 21.4679 50.7644 21.3289 51.3448 21.3477C53.6426 21.3477 55.1573 23.1641 55.1573 25.9697ZM53.2471 25.9697C53.2471 24.1367 52.2998 22.9316 50.8545 22.9316C49.4346 22.9316 48.4795 24.1621 48.4795 25.9697C48.4795 27.794 49.4346 29.0156 50.8545 29.0156C52.2998 29.0156 53.2471 27.8193 53.2471 25.9697Z" fill="white"/>
<path d="M65.1221 25.9697C65.1221 28.7832 63.6162 30.5908 61.3438 30.5908C60.7681 30.6209 60.1956 30.4883 59.6918 30.2082C59.188 29.9281 58.7733 29.5117 58.4952 29.0068H58.4521V33.4912H56.5938V21.4424H58.3926V22.9482H58.4268C58.7177 22.4458 59.1394 22.0316 59.6471 21.7497C60.1547 21.4679 60.7292 21.3289 61.3096 21.3477C63.6075 21.3477 65.1221 23.1641 65.1221 25.9697ZM63.2119 25.9697C63.2119 24.1367 62.2647 22.9316 60.8194 22.9316C59.3994 22.9316 58.4444 24.1621 58.4444 25.9697C58.4444 27.794 59.3994 29.0156 60.8194 29.0156C62.2647 29.0156 63.2119 27.8193 63.2119 25.9697H63.2119Z" fill="white"/>
<path d="M71.709 27.0361C71.8467 28.2676 73.043 29.0761 74.6778 29.0761C76.2442 29.0761 77.3711 28.2675 77.3711 27.1572C77.3711 26.1933 76.6914 25.6162 75.0821 25.2207L73.4727 24.833C71.1924 24.2822 70.1338 23.2158 70.1338 21.4853C70.1338 19.3427 72.001 17.871 74.6524 17.871C77.2764 17.871 79.0752 19.3427 79.1358 21.4853H77.2598C77.1475 20.246 76.1231 19.498 74.626 19.498C73.1289 19.498 72.1045 20.2548 72.1045 21.3564C72.1045 22.2343 72.7588 22.7509 74.3594 23.1464L75.7275 23.4823C78.2754 24.0849 79.334 25.1083 79.334 26.9247C79.334 29.248 77.4834 30.703 74.54 30.703C71.7861 30.703 69.9268 29.2821 69.8066 27.036L71.709 27.0361Z" fill="white"/>
<path d="M83.3437 19.2998V21.4424H85.0654V22.9141H83.3437V27.9053C83.3437 28.6807 83.6885 29.042 84.4453 29.042C84.6497 29.0384 84.8538 29.0241 85.0566 28.999V30.4619C84.7164 30.5255 84.3705 30.5543 84.0244 30.5478C82.1914 30.5478 81.4766 29.8593 81.4766 28.1035V22.9141H80.1602V21.4424H81.4765V19.2998H83.3437Z" fill="white"/>
<path d="M86.0645 25.9697C86.0645 23.1211 87.7422 21.3311 90.3584 21.3311C92.9834 21.3311 94.6533 23.1211 94.6533 25.9697C94.6533 28.8262 92.9922 30.6084 90.3584 30.6084C87.7255 30.6084 86.0645 28.8262 86.0645 25.9697ZM92.7598 25.9697C92.7598 24.0156 91.8643 22.8623 90.3584 22.8623C88.8525 22.8623 87.958 24.0244 87.958 25.9697C87.958 27.9316 88.8525 29.0762 90.3584 29.0762C91.8643 29.0762 92.7597 27.9316 92.7597 25.9697H92.7598Z" fill="white"/>
<path d="M96.1836 21.4424H97.9561V22.9834H97.9991C98.119 22.5021 98.4009 22.0768 98.7975 21.7789C99.1941 21.481 99.6812 21.3287 100.177 21.3476C100.391 21.3469 100.605 21.3702 100.814 21.417V23.1553C100.543 23.0726 100.261 23.0347 99.9785 23.043C99.7085 23.032 99.4394 23.0796 99.1895 23.1825C98.9397 23.2854 98.7151 23.4411 98.5311 23.639C98.3471 23.8369 98.2082 24.0723 98.1237 24.3289C98.0393 24.5856 98.0114 24.8575 98.042 25.126V30.4961H96.1836L96.1836 21.4424Z" fill="white"/>
<path d="M109.382 27.8369C109.132 29.4805 107.531 30.6084 105.483 30.6084C102.85 30.6084 101.215 28.8437 101.215 26.0127C101.215 23.1728 102.858 21.3311 105.405 21.3311C107.91 21.3311 109.485 23.0517 109.485 25.7969V26.4336H103.091V26.5459C103.061 26.8791 103.103 27.2148 103.213 27.5306C103.323 27.8464 103.5 28.1352 103.73 28.3778C103.96 28.6203 104.24 28.8111 104.549 28.9374C104.859 29.0637 105.192 29.1226 105.526 29.1103C105.966 29.1515 106.406 29.0498 106.783 28.8203C107.16 28.5909 107.452 28.246 107.617 27.8369L109.382 27.8369ZM103.1 25.1348H107.626C107.643 24.8352 107.597 24.5354 107.493 24.2541C107.388 23.9729 107.226 23.7164 107.018 23.5006C106.809 23.2849 106.558 23.1145 106.281 23.0003C106.003 22.8861 105.705 22.8305 105.405 22.8369C105.103 22.8351 104.803 22.8932 104.523 23.008C104.243 23.1227 103.988 23.2918 103.774 23.5054C103.559 23.7191 103.389 23.973 103.274 24.2527C103.158 24.5323 103.099 24.8321 103.1 25.1348V25.1348Z" fill="white"/>
<path d="M37.8271 8.731C38.2168 8.70304 38.6077 8.7619 38.9718 8.90333C39.3359 9.04477 39.6641 9.26525 39.9327 9.54887C40.2013 9.8325 40.4036 10.1722 40.525 10.5435C40.6464 10.9147 40.6839 11.3083 40.6348 11.6958C40.6348 13.6021 39.6045 14.6978 37.8271 14.6978H35.6719V8.731H37.8271ZM36.5986 13.854H37.7236C38.002 13.8706 38.2806 13.825 38.5392 13.7204C38.7977 13.6158 39.0297 13.4548 39.2182 13.2493C39.4067 13.0437 39.5469 12.7987 39.6288 12.5321C39.7107 12.2654 39.7321 11.9839 39.6914 11.708C39.7291 11.4332 39.7056 11.1534 39.6224 10.8887C39.5393 10.6241 39.3987 10.3811 39.2106 10.1771C39.0226 9.9732 38.7917 9.8134 38.5346 9.70916C38.2776 9.60492 38.0006 9.55884 37.7236 9.57421H36.5986V13.854Z" fill="white"/>
<path d="M41.6819 12.4443C41.6536 12.1484 41.6875 11.8499 41.7813 11.5678C41.8751 11.2857 42.0269 11.0264 42.2268 10.8064C42.4268 10.5864 42.6705 10.4106 42.9423 10.2904C43.2142 10.1701 43.5082 10.108 43.8055 10.108C44.1027 10.108 44.3967 10.1701 44.6686 10.2904C44.9404 10.4106 45.1841 10.5864 45.3841 10.8064C45.584 11.0264 45.7358 11.2857 45.8296 11.5678C45.9235 11.8499 45.9573 12.1484 45.929 12.4443C45.9578 12.7406 45.9244 13.0395 45.8308 13.3221C45.7372 13.6046 45.5855 13.8644 45.3855 14.0848C45.1856 14.3052 44.9417 14.4814 44.6695 14.6019C44.3974 14.7224 44.1031 14.7847 43.8055 14.7847C43.5078 14.7847 43.2135 14.7224 42.9414 14.6019C42.6693 14.4814 42.4254 14.3052 42.2254 14.0848C42.0254 13.8644 41.8737 13.6046 41.7801 13.3221C41.6865 13.0395 41.6531 12.7406 41.6819 12.4443ZM45.0149 12.4443C45.0149 11.4683 44.5764 10.8975 43.8069 10.8975C43.0345 10.8975 42.5999 11.4683 42.5999 12.4444C42.5999 13.4282 43.0345 13.9946 43.8069 13.9946C44.5765 13.9946 45.0149 13.4243 45.0149 12.4443H45.0149Z" fill="white"/>
<path d="M51.5742 14.6978H50.6523L49.7217 11.3813H49.6514L48.7246 14.6978H47.8115L46.5703 10.1948H47.4717L48.2783 13.6308H48.3447L49.2705 10.1948H50.1231L51.0488 13.6308H51.1191L51.9219 10.1948H52.8105L51.5742 14.6978Z" fill="white"/>
<path d="M53.8535 10.1948H54.709V10.9101H54.7754C54.888 10.6532 55.0781 10.4379 55.3189 10.2941C55.5598 10.1502 55.8395 10.0852 56.1191 10.1079C56.3382 10.0914 56.5582 10.1245 56.7628 10.2046C56.9674 10.2847 57.1514 10.4098 57.3011 10.5706C57.4508 10.7314 57.5623 10.9239 57.6275 11.1337C57.6927 11.3435 57.7099 11.5653 57.6777 11.7827V14.6977H56.7891V12.0059C56.7891 11.2822 56.4746 10.9224 55.8174 10.9224C55.6686 10.9154 55.5201 10.9407 55.3821 10.9966C55.244 11.0524 55.1197 11.1374 55.0175 11.2458C54.9154 11.3542 54.8379 11.4834 54.7904 11.6245C54.7429 11.7656 54.7264 11.9154 54.7422 12.0635V14.6978H53.8535L53.8535 10.1948Z" fill="white"/>
<path d="M59.0938 8.437H59.9824V14.6977H59.0938V8.437Z" fill="white"/>
<path d="M61.219 12.4443C61.1907 12.1484 61.2246 11.8498 61.3185 11.5677C61.4123 11.2857 61.5641 11.0263 61.7641 10.8063C61.964 10.5863 62.2078 10.4106 62.4796 10.2903C62.7515 10.17 63.0455 10.1079 63.3428 10.1079C63.6401 10.1079 63.9341 10.17 64.206 10.2903C64.4778 10.4106 64.7215 10.5863 64.9215 10.8063C65.1215 11.0263 65.2733 11.2857 65.3671 11.5677C65.461 11.8498 65.4949 12.1484 65.4666 12.4443C65.4954 12.7406 65.4619 13.0396 65.3683 13.3221C65.2747 13.6046 65.123 13.8644 64.9229 14.0848C64.7229 14.3052 64.479 14.4814 64.2069 14.6019C63.9348 14.7224 63.6404 14.7847 63.3428 14.7847C63.0452 14.7847 62.7508 14.7224 62.4787 14.6019C62.2065 14.4814 61.9626 14.3052 61.7626 14.0848C61.5626 13.8644 61.4109 13.6046 61.3173 13.3221C61.2237 13.0396 61.1902 12.7406 61.219 12.4443ZM64.552 12.4443C64.552 11.4683 64.1135 10.8975 63.344 10.8975C62.5715 10.8975 62.137 11.4683 62.137 12.4444C62.137 13.4282 62.5716 13.9946 63.344 13.9946C64.1135 13.9946 64.552 13.4243 64.552 12.4443H64.552Z" fill="white"/>
<path d="M66.4023 13.4243C66.4023 12.6138 67.0059 12.1465 68.0771 12.0801L69.2969 12.0098V11.6211C69.2969 11.1455 68.9824 10.877 68.375 10.877C67.8789 10.877 67.5352 11.0591 67.4365 11.3774H66.5762C66.667 10.604 67.3945 10.1079 68.416 10.1079C69.5449 10.1079 70.1816 10.6699 70.1816 11.6211V14.6978H69.3262V14.0649H69.2559C69.1131 14.2919 68.9127 14.477 68.6751 14.6012C68.4375 14.7254 68.1712 14.7843 67.9033 14.7719C67.7143 14.7916 67.5232 14.7714 67.3425 14.7127C67.1617 14.654 66.9953 14.5581 66.8538 14.4312C66.7124 14.3042 66.5992 14.149 66.5214 13.9756C66.4437 13.8022 66.4031 13.6144 66.4023 13.4243ZM69.2969 13.0395V12.6631L68.1973 12.7334C67.5771 12.7749 67.2959 12.9858 67.2959 13.3828C67.2959 13.7881 67.6474 14.0239 68.1309 14.0239C68.2725 14.0383 68.4156 14.024 68.5516 13.9819C68.6876 13.9398 68.8138 13.8708 68.9226 13.7789C69.0313 13.6871 69.1205 13.5743 69.1849 13.4473C69.2492 13.3203 69.2873 13.1816 69.2969 13.0395Z" fill="white"/>
<path d="M71.3496 12.4443C71.3496 11.0215 72.0811 10.1201 73.2188 10.1201C73.5002 10.1072 73.7795 10.1746 74.024 10.3145C74.2685 10.4543 74.4682 10.661 74.5996 10.9101H74.666V8.437H75.5547V14.6977H74.7031V13.9863H74.6328C74.4912 14.2338 74.2846 14.4378 74.0353 14.5763C73.7861 14.7148 73.5037 14.7825 73.2188 14.7719C72.0732 14.772 71.3496 13.8706 71.3496 12.4443ZM72.2676 12.4443C72.2676 13.3994 72.7178 13.9741 73.4707 13.9741C74.2197 13.9741 74.6826 13.3911 74.6826 12.4482C74.6826 11.5098 74.2149 10.9185 73.4707 10.9185C72.7227 10.9185 72.2676 11.4971 72.2676 12.4443H72.2676Z" fill="white"/>
<path d="M79.2307 12.4443C79.2024 12.1484 79.2363 11.8499 79.3301 11.5678C79.424 11.2857 79.5757 11.0264 79.7757 10.8064C79.9756 10.5864 80.2193 10.4106 80.4912 10.2904C80.763 10.1701 81.057 10.108 81.3543 10.108C81.6516 10.108 81.9455 10.1701 82.2174 10.2904C82.4892 10.4106 82.7329 10.5864 82.9329 10.8064C83.1328 11.0264 83.2846 11.2857 83.3784 11.5678C83.4723 11.8499 83.5061 12.1484 83.4778 12.4443C83.5067 12.7406 83.4732 13.0395 83.3796 13.3221C83.286 13.6046 83.1344 13.8644 82.9344 14.0848C82.7344 14.3052 82.4905 14.4814 82.2184 14.6019C81.9462 14.7224 81.6519 14.7847 81.3543 14.7847C81.0567 14.7847 80.7623 14.7224 80.4902 14.6019C80.2181 14.4814 79.9742 14.3052 79.7742 14.0848C79.5742 13.8644 79.4225 13.6046 79.3289 13.3221C79.2353 13.0395 79.2019 12.7406 79.2307 12.4443ZM82.5637 12.4443C82.5637 11.4683 82.1253 10.8975 81.3557 10.8975C80.5833 10.8975 80.1487 11.4683 80.1487 12.4444C80.1487 13.4282 80.5833 13.9946 81.3557 13.9946C82.1253 13.9946 82.5637 13.4243 82.5637 12.4443Z" fill="white"/>
<path d="M84.6699 10.1948H85.5254V10.9101H85.5918C85.7045 10.6532 85.8945 10.4379 86.1353 10.2941C86.3762 10.1502 86.6559 10.0852 86.9356 10.1079C87.1547 10.0914 87.3746 10.1245 87.5792 10.2046C87.7838 10.2847 87.9678 10.4098 88.1175 10.5706C88.2672 10.7314 88.3787 10.9239 88.4439 11.1337C88.5091 11.3435 88.5263 11.5653 88.4941 11.7827V14.6977H87.6055V12.0059C87.6055 11.2822 87.291 10.9224 86.6338 10.9224C86.485 10.9154 86.3365 10.9407 86.1985 10.9966C86.0604 11.0524 85.9361 11.1374 85.8339 11.2458C85.7318 11.3542 85.6543 11.4834 85.6068 11.6245C85.5593 11.7656 85.5428 11.9154 85.5586 12.0635V14.6978H84.6699V10.1948Z" fill="white"/>
<path d="M93.5166 9.07373V10.2153H94.4922V10.9639H93.5166V13.2793C93.5166 13.751 93.7109 13.9575 94.1533 13.9575C94.2666 13.9572 94.3797 13.9503 94.4922 13.937V14.6772C94.3326 14.7058 94.1709 14.721 94.0088 14.7226C93.0205 14.7226 92.627 14.375 92.627 13.5068V10.9638H91.9121V10.2153H92.627V9.07373H93.5166Z" fill="white"/>
<path d="M95.7051 8.437H96.5859V10.9185H96.6562C96.7744 10.6591 96.9696 10.4425 97.2153 10.2982C97.461 10.1538 97.7452 10.0888 98.0292 10.1118C98.2472 10.0999 98.4651 10.1363 98.6674 10.2184C98.8697 10.3004 99.0513 10.4261 99.1995 10.5864C99.3476 10.7468 99.4585 10.9378 99.5243 11.146C99.5901 11.3541 99.6091 11.5742 99.58 11.7905V14.6978H98.6905V12.0098C98.6905 11.2905 98.3555 10.9263 97.7276 10.9263C97.5748 10.9137 97.4212 10.9347 97.2774 10.9878C97.1337 11.0408 97.0032 11.1247 96.8952 11.2334C96.7872 11.3421 96.7043 11.4732 96.6522 11.6173C96.6002 11.7614 96.5802 11.9152 96.5938 12.0679V14.6977H95.7051L95.7051 8.437Z" fill="white"/>
<path d="M104.761 13.4819C104.641 13.8935 104.379 14.2495 104.022 14.4876C103.666 14.7258 103.237 14.8309 102.81 14.7847C102.514 14.7925 102.219 14.7357 101.946 14.6181C101.674 14.5006 101.43 14.3252 101.232 14.1041C101.034 13.8829 100.887 13.6214 100.8 13.3375C100.713 13.0537 100.69 12.7544 100.73 12.4605C100.691 12.1656 100.715 11.8656 100.801 11.581C100.888 11.2963 101.035 11.0335 101.231 10.8104C101.428 10.5874 101.671 10.4092 101.943 10.288C102.214 10.1668 102.509 10.1054 102.806 10.1079C104.059 10.1079 104.815 10.9639 104.815 12.3779V12.688H101.635V12.7378C101.621 12.903 101.642 13.0694 101.696 13.2261C101.751 13.3829 101.837 13.5266 101.95 13.648C102.063 13.7695 102.2 13.866 102.352 13.9314C102.504 13.9968 102.669 14.0296 102.835 14.0278C103.047 14.0533 103.263 14.015 103.453 13.9178C103.644 13.8206 103.802 13.6689 103.906 13.4819L104.761 13.4819ZM101.635 12.0308H103.91C103.921 11.8796 103.9 11.7278 103.85 11.5851C103.799 11.4424 103.718 11.3119 103.614 11.2021C103.51 11.0922 103.383 11.0054 103.243 10.9472C103.103 10.889 102.953 10.8608 102.801 10.8643C102.648 10.8623 102.495 10.8912 102.353 10.9491C102.21 11.0071 102.081 11.0929 101.972 11.2016C101.864 11.3104 101.778 11.4397 101.72 11.5821C101.662 11.7245 101.633 11.8771 101.635 12.0308H101.635Z" fill="white"/>
</g>
<defs>
<clipPath id="clip0">
<rect width="119.664" height="40" fill="white"/>
</clipPath>
</defs>
</svg>
