<svg xmlns="http://www.w3.org/2000/svg" width="375" height="30"><path fill="#fff" d="M375 27l-4.83-.86-3.35-.43-2.01-.09c-.7.54-2.73.74-4.06.4-1.33-.35-3.35-.15-4.67-.78l-2.69-.12-4.05.4c-2.02-.1-4.7-.21-6.02-.84l-2.69-.11-3.34-.44c-2.69-.11-4.71.08-6.7-.57l-2.02-.1c-2.66-.68-3.34-.42-4.7.09l-2.7-.12-7.37-.6-4.04.1c-2.03.2-4.05.4-6.73 0-2.01-.1-2.67-.4-3.32-1l-1.97-.95-4.69-.49-4.69-.49a35.48 35.48 0 01-9.35-1.54l-3.34-.44-3.36-.14-6.67-1.43-2-.38-2.66-.68c-1.32-.63-3.3-1.57-5.3-1.66-2-.65-4.01-.74-5.37-.52l-2.01-.08-3.38.42-2.68-.4-2.67-.4a8.85 8.85 0 00-4.69-.5l-4.72.37-3.37.14-2.04.48c-1.99-.66-3.33-.72-4.7-.2l-2.03.19-6.67-1.15-3.34-.71c-1.33-.35-1.35.22-2.7.16-1.32-.34-1.98-.65-3.34-.43l-1.33-.34-4.7-.2-9.43.15-4.04.1-6.03-.54-2.67-.4-3.37.14c-2.03.2-3.37.13-5.36-.52l-4-.75-3.35-.43-4.63-1.62c-2.7-.12-4.03-.18-5.41.61-1.37.51-3.41 1-5.4.34l-6.75.56-2.69-.12c-1.33-.34-2.66-.69-4.03-.18l-6.05.02a6.09 6.09 0 01-3.35-.43l-2-.37c-2.01-.09-3.33-.71-5.36-.52-1.99-.65-4-.74-6.02-.83l-4.7.08c-.7.25-2.02-.09-2.05.48l-4.05.4-2.03.19c-1.35.22-2.04.48-3.37.13l-6.09.88-4.02-.46-6-1.12-4.03-.18-4.05.4c-1.35-.06-2.7.16-4.02-.46l-2-.38-2-.65-2.64-.97-2.67-.4-2-.38-2-.37-3.39.42c-2-.37-2.7.17-4.04.11l-3.37.14c-2.03.2-2.71.45-4.04.1l-1.34-.05c-3.36-.15-5.35-.8-8.01-1.49l-9.38-.98-3.35-.15C10 1.3 8 .92 6.66.57l-4.7.08C1.27.91 0 1.06 0 1.06V30h375v-3z"/></svg>
