<svg width="80" height="80" viewBox="0 0 80 80" fill="none" xmlns="http://www.w3.org/2000/svg">
<path d="M61.2802 79.2369H18.7198C8.38006 79.2369 0 70.9347 0 60.6957V18.5412C0 8.30219 8.38006 0 18.7198 0H61.2802C71.6199 0 80 8.30219 80 18.5412V60.6957C80 70.9347 71.6179 79.2369 61.2802 79.2369Z" fill="#BA1B02"/>
<path fill-rule="evenodd" clip-rule="evenodd" d="M41.1461 37.0145L39.9757 37.5363L38.8095 37.0145L22.7241 29.1248L30.367 26.233L46.8772 34.1722L41.1461 37.0145ZM57.2252 29.1248L51.49 31.9136L34.8236 24.554L40.0236 22.5532L57.2252 29.1248Z" fill="white"/>
<path fill-rule="evenodd" clip-rule="evenodd" d="M40.6111 17.5063L61.7403 25.6022L58.7665 27.9722L39.9759 20.7673L21.1853 27.9185L18.2115 25.5527L39.3408 17.4526H40.6132V17.5063H40.6111ZM59.2434 28.6013L62.7483 27.2874L60.1472 48.7369L59.6162 49.6816L41.0922 66.1932L40.5028 62.4061L57.013 47.7386L59.2434 28.6013ZM20.3836 49.6837L19.8525 48.739L17.2515 27.2894L20.7605 28.6033L23.0409 47.687L39.549 62.3587L38.968 66.1416L20.3836 49.6837Z" fill="white"/>
<path fill-rule="evenodd" clip-rule="evenodd" d="M51.9172 32.5941L57.2256 29.3867L55.1577 46.6326L40.0781 60.0398L40.932 39.273L47.5127 35.2261L47.09 45.4259L51.2259 42.5877L51.9172 32.5941Z" fill="#ABACAE"/>
<path fill-rule="evenodd" clip-rule="evenodd" d="M39.018 39.2739L39.8677 60.0407L24.7923 46.6334L22.7202 29.3896L39.018 39.2739Z" fill="#D6D8D8"/>
</svg>
