<?xml version="1.0" standalone="no"?>
<!DOCTYPE svg PUBLIC "-//W3C//DTD SVG 1.1//EN" "http://www.w3.org/Graphics/SVG/1.1/DTD/svg11.dtd">
<svg xmlns="http://www.w3.org/2000/svg">
<metadata>Copyright (C) 2021 by original authors @ fontello.com</metadata>
<defs>
<font id="icons" horiz-adv-x="1000" >
<font-face font-family="icons" font-weight="400" font-stretch="normal" units-per-em="1000" ascent="850" descent="-150" />
<missing-glyph horiz-adv-x="1000" />
<glyph glyph-name="menu-down" unicode="&#xe800;" d="M-6 546l92 93 409-411 408 411 92-93-455-456c-25-25-66-25-91 0l-455 456z" horiz-adv-x="1000" />

<glyph glyph-name="star" unicode="&#xe801;" d="M636 250l108-347-280 216-278-216 108 348-276 211 335 0 111 335 112-335 335 0z" horiz-adv-x="928" />

<glyph glyph-name="gift" unicode="&#xe802;" d="M1000 471l-1000 0 0 71c0 40 32 72 71 72l858 0c39 0 71-32 71-72l0-71z m-1000-72l0-437c0-35 32-63 71-63l858 0c39 0 71 28 71 63l0 437-1000 0z m408 408l92-193-193 92c-38 18-54 63-36 101 18 38 63 54 101 36 16-8 28-21 36-36m285-101l-193-92 92 193c18 38 64 54 101 36 38-18 54-64 36-101-8-17-21-29-36-36" horiz-adv-x="1000" />

<glyph glyph-name="cart" unicode="&#xe803;" d="M357 136c-69 0-125-56-125-125 0-69 56-125 125-125 69 0 125 56 125 125 0 69-56 125-125 125m572 0c-69 0-125-56-125-125 0-69 56-125 125-125 69 0 125 56 125 125 0 69-56 125-125 125m-700 714l-229 0 0-107 143 0 132-324-20-71c-10-33-3-69 18-97 21-28 53-44 89-44l709 0 0 107-713 5 25 87 611 81c85 12 149 84 149 170l0 193-914 0z" horiz-adv-x="1143" />

<glyph glyph-name="inbox" unicode="&#xe804;" d="M800-17l-667 0 0 534 200 0c0-74 60-134 134-134 73 0 133 60 133 134l200 0 0-534z m67 667l-67 0 0 133c0 37-30 67-67 67l-533 0c-37 0-67-30-67-67l0-133-66 0c-37 0-67-30-67-67l0-666c0-37 30-67 67-67l800 0c37 0 66 30 66 67l0 666c0 37-29 67-66 67l0 0z" horiz-adv-x="933" />

<glyph glyph-name="calendar" unicode="&#xe805;" d="M500 350l143 0 0 143-143 0 0-143z m214 0l143 0 0 143-143 0 0-143z m-428 0l143 0 0 143-143 0 0-143z m214-214l143 0 0 143-143 0 0-143z m214 0l143 0 0 143-143 0 0-143z m-428 0l143 0 0 143-143 0 0-143z m714-143l-857 0 0 643 143 0 71 0 429 0 71 0 143 0 0-643z m71 786l-214 0 0 71-71 0 0-71-429 0 0 71-71 0 0-71-215 0c-39 0-71-32-71-72l0-786c0-39 32-71 71-71l1000 0c40 0 72 32 72 71l0 786c0 40-32 72-72 72l0 0z" horiz-adv-x="1143" />

<glyph glyph-name="close" unicode="&#xe806;" d="M40-94l904 904 29-29-904-904z m33 900l903-903-29-29-903 903z" horiz-adv-x="1000" />

<glyph glyph-name="arrow-level-up" unicode="&#xe807;" d="M400 850l-200-267 133 0 0-266-266 0c-37 0-67-30-67-67l0-400 133 0 0 333 267 0c37 0 67 30 67 67l0 333 133 0-200 267z" horiz-adv-x="600" />

<glyph glyph-name="truck" unicode="&#xe808;" d="M318 123c-75 0-136-61-136-137 0-75 61-136 136-136 76 0 137 61 137 136 0 76-61 137-137 137m909 0c-75 0-136-61-136-137 0-75 61-136 136-136 76 0 137 61 137 136 0 76-61 137-137 137m137 273l-182 0 0 181 45 0c76 0 137-61 137-136l0-45z m-137 272l-227 0 0-454 0-91 47 0c41 55 106 91 180 91 70 0 132-33 174-83 32 15 54 46 54 83l0 227c0 126-102 227-228 227l0 0z m-409 182l-727 0c-50 0-91-41-91-91l0-545c0-50 41-91 91-91l47 0c41 55 106 91 180 91 74 0 139-36 181-91l228 0 91 0 91 0 0 91 0 545c0 50-41 91-91 91" horiz-adv-x="1455" />

<glyph glyph-name="bublina" unicode="&#xe809;" d="M143 279l214 0c22 0 43-11 56-28 14-17 19-40 13-61l-8-36 103 104c13 13 31 21 50 21l429 0 0 428-857 0 0-428z m143-429c-12 0-24 3-35 9-28 16-42 49-35 80l50 197-195 0c-39 0-71 32-71 71l0 572c0 39 32 71 71 71l1000 0c40 0 72-32 72-71l0-572c0-39-32-71-72-71l-470 0-265-265c-13-14-32-21-50-21l0 0z" horiz-adv-x="1143" />

<glyph glyph-name="share" unicode="&#xe80a;" d="M923 99l0-95-769 0 0 538 136 0c43 58 99 111 171 154l-384 0c-42 0-77-34-77-77l0-692c0-43 35-77 77-77l923 0c43 0 77 34 77 77l0 295-154-123z m-77 347l0-211 385 307-385 308 0-211c-535 0-538-481-538-481 0 0 154 288 538 288z" horiz-adv-x="1231" />

<glyph glyph-name="check_bez-boxiku" unicode="&#xe80b;" d="M1113 632l-121 124c-14 14-37 14-52 0l-502-515-213 219c-15 15-38 15-52 0l-121-123c-14-15-14-39 0-53l360-369c8-7 17-11 26-11 10 0 19 4 26 11l649 664c7 7 10 17 10 27 0 10-3 19-10 26l0 0z" horiz-adv-x="1125" />

<glyph glyph-name="vybiratko-filtry" unicode="&#xe80c;" d="M0 850l1857 0-928-1000z" horiz-adv-x="1857" />

<glyph glyph-name="compare" unicode="&#xe80d;" d="M531 850l-218-250 125 0 0-375 187 0 0 375 125 0-219 250z m-406-375l0-375-125 0 219-250 219 250-125 0 0 375-188 0z" horiz-adv-x="750" />

<glyph glyph-name="krizek-bez-kolecka" unicode="&#xe80e;" d="M938 88l-176-176-262 261-262-261-176 176 261 262-261 262 176 176 262-261 262 261 176-176-261-262z" horiz-adv-x="1000" />

<glyph glyph-name="tools" unicode="&#xe80f;" d="M174 414c14 15-20 57 0 76l24 25c22 21 69 35 90 13l77-76 96 96-77 76c-21 21-21 56 0 77l19 19c58 58 192 102 192 115 0 13-187 26-243 2-57-24-192-168-211-188-13-13 11-65 0-77l-25-24c-20-20-63 13-76 0l-39-39c-15-15 121-147 134-134l39 39z m656 39c81-21 168 12 212 88 34 60 32 130 1 186-4 7-15 7-19 0l-63-109c-15-26-48-35-74-20l-47 27c-25 15-34 48-19 74l62 109c4 7-1 16-9 16-78-1-152-50-178-135-11-35-11-72-1-106 5-18 0-38-14-52l-102-102-80 80-96-95 80-81-340-341c-11-10-11-27 0-38l57-57c11-11 28-11 38 0l341 341 337-337c13-13 34-13 47 0l48 49c13 13 13 34 0 47l-336 336 105 106c13 13 32 19 50 14" horiz-adv-x="1067" />

<glyph glyph-name="menu-right" unicode="&#xe810;" d="M303-145l-92 91 410 409-410 408 92 92 456-454c26-26 26-67 0-92l-456-454z" horiz-adv-x="1000" />

<glyph glyph-name="menu-up" unicode="&#xe811;" d="M995 163l-92-92-408 410-409-410-92 92 455 457c25 25 66 25 91 0l455-457z" horiz-adv-x="1000" />

<glyph glyph-name="favorite" unicode="&#xe812;" d="M434 628c-6 74-16 222-16 222l121 0 121 0c0 0-10-148-16-222-4-46-12-112-20-173 61 26 127 54 174 72 71 27 215 80 215 80l35-112 35-112c0 0-149-34-224-50-49-10-122-23-187-34 48-49 101-103 137-142 51-55 151-167 151-167l-97-70-96-71c0 0-85 124-125 187-28 41-65 102-99 158-33-56-71-117-98-158-41-63-125-187-125-187l-96 71-97 70c0 0 100 112 151 167 35 39 89 93 136 141-66 12-139 25-190 35-75 16-224 50-224 50l36 112 35 112c0 0 143-53 214-80 46-17 109-44 168-69-8 60-15 125-19 170" horiz-adv-x="1083" />

<glyph glyph-name="facebook" unicode="&#xe813;" d="M0 313l0 191 154 0 0 96q0 104 68 177t163 73l153 0 0-191-153 0q-15 0-27-16t-12-41l0-98 192 0 0-191-192 0 0-463-192 0 0 463-154 0z" horiz-adv-x="538" />

<glyph glyph-name="gplus" unicode="&#xe814;" d="M0 32q0 87 89 155t215 68l54 0q-42 40-42 86 0 29 16 58-10-1-29-1-104 0-170 65t-66 160q0 91 82 159t187 68l310 0-69-50-98 0q47-18 74-68t26-111q0-93-88-162-37-29-48-46t-11-42q0-19 27-48t54-49q61-43 85-88t23-113q0-90-82-157t-222-66q-133 0-225 50t-92 132z m112 33q0-69 59-118t145-48q119 0 173 44t53 117q0 19-4 32-3 11-7 21t-12 19-14 16-19 16-21 15-25 18-26 17q-39 12-77 12-90 1-157-47t-68-114z m66 559q11-79 61-136t109-58q59-2 94 52t25 133-59 134-110 57-95-51-25-131z m555-24l0 50 200 0 0 200 50 0 0-200 201 0 0-50-201 0 0-201-50 0 0 201-200 0z" horiz-adv-x="1184" />

<glyph glyph-name="twitter" unicode="&#xe815;" d="M0-37q30-3 60-3 176 0 314 108-82 1-147 50t-89 125q20-4 47-4 35 0 67 9-88 17-145 87t-58 160l0 3q53-30 115-31-52 34-82 90t-31 120q0 68 35 127 94-117 230-186t290-78q-7 33-7 58 0 104 74 178t179 74q109 0 184-80 87 18 160 62-28-91-110-140 73 9 144 40-48-75-125-131l0-33q0-101-29-202t-90-194-145-165-201-115-253-42q-209 0-387 113z" horiz-adv-x="1230" />

<glyph glyph-name="krizek-do-filtru" unicode="&#xe816;" d="M956 671l-126 126-330-330-330 330-126-126 330-330-330-330 126-126 330 330 330-330 126 126-330 330z" horiz-adv-x="1000" />

<glyph glyph-name="menu-left" unicode="&#xe817;" d="M686 855l92-92-410-408 410-409-92-91-456 454c-26 25-26 66 0 92l456 454z" horiz-adv-x="1000" />

<glyph glyph-name="info" unicode="&#xe818;" d="M688 100l-375 0 0 63 62 0 0 250-62 0 0 62 312 0 0-312 63 0 0-63z m-282 563l188 0c17 0 31-14 31-32l0-62c0-17-14-31-31-31l-188 0c-17 0-31 14-31 31l0 62c0 18 14 32 31 32l0 0z m-343-313c0-242 195-438 437-438 242 0 438 196 438 438 0 242-196 438-438 438-242 0-437-196-437-438z m937 0c0-276-224-500-500-500-276 0-500 224-500 500 0 276 224 500 500 500 276 0 500-224 500-500z" horiz-adv-x="1000" />

<glyph glyph-name="newtab" unicode="&#xe819;" d="M833 17l-666 0 0 666 83 0 167 167-339 0c-43 0-78-45-78-100l0-800c0-55 35-100 78-100l844 0c43 0 78 45 78 100l0 317-167-167 0-83z m84 833l-334 0-166-167 299 0-383-382 0-118 118 0 382 383 0-299 167 166 0 334c0 46-37 83-83 83z" horiz-adv-x="1000" />

<glyph glyph-name="clear-circle" unicode="&#xe81a;" d="M774 187l-110-111-164 164-163-164-111 111 164 163-164 164 111 110 163-163 164 163 110-110-163-164 163-163z m-274 663c-276 0-500-224-500-500 0-276 224-500 500-500 276 0 500 224 500 500 0 276-224 500-500 500l0 0z" horiz-adv-x="1000" />

<glyph glyph-name="bulb" unicode="&#xe81b;" d="M303 796c135 0 248-114 248-254 0-54-21-97-54-157-37-65-81-146-102-270-11 0-33 0-54 0-38 0-81 0-109 0-16 119-70 200-108 270-43 60-70 103-70 157 0 140 114 254 249 254m-303-254c0-151 162-227 178-476 0 0 87 0 157 0 54 0 97 0 97 0 33 265 168 325 168 476 0 173-130 308-297 308s-303-135-303-308z m416-584v54h-232v-54h232z m-32-108v54h-162v-54h162z" horiz-adv-x="600" />

<glyph glyph-name="1487806769_plus_circle" unicode="&#xe81c;" d="M723 350c0-14-11-23-25-23h-175v-175c0-14-9-25-23-25-14 0-23 11-23 25v175h-175c-14 0-25 9-25 23s11 23 25 23h175v175c0 14 9 25 23 25 14 0 23-11 23-25v-175h175c14 0 25-9 25-23z m277 0c0 276-224 500-500 500-276 0-500-224-500-500 0-276 224-500 500-500 276 0 500 224 500 500z m-50 0c0-248-202-450-450-450-248 0-450 202-450 450 0 248 202 450 450 450 248 0 450-202 450-450z" horiz-adv-x="1000" />

<glyph glyph-name="1487806806_minus_circle" unicode="&#xe81d;" d="M698 325h-396c-14 0-25 11-25 25s11 25 25 25h396c14 0 25-11 25-25s-11-25-25-25z m302 25c0 276-224 500-500 500-276 0-500-224-500-500 0-276 224-500 500-500 276 0 500 224 500 500z m-50 0c0-248-202-450-450-450-248 0-450 202-450 450 0 248 202 450 450 450 248 0 450-202 450-450z" horiz-adv-x="1000" />

<glyph glyph-name="ok" unicode="&#xe81e;" d="M0 339q0-35 24-60l246-239q24-25 60-25 36 0 60 25l505 495q25 24 25 59t-25 58q-25 25-60 25t-60-25l-445-435-185 181q-25 24-60 24t-61-24q-24-24-24-59z" horiz-adv-x="920.4" />

<glyph glyph-name="cancel-squared" unicode="&#xe81f;" d="M700 750q42 0 71-29t29-71l0-600q0-40-29-70t-71-30l-600 0q-40 0-70 30t-30 70l0 600q0 42 30 71t70 29l600 0z m-146-638l86 86-154 152 154 154-86 86-154-152-152 152-88-86 154-154-154-152 88-86 152 152z" horiz-adv-x="800" />

<glyph glyph-name="copy" unicode="&#xe820;" d="M946 636q23 0 38-16t16-38v-678q0-23-16-38t-38-16h-535q-23 0-38 16t-16 38v160h-303q-23 0-38 16t-16 38v375q0 22 11 49t27 42l228 228q15 16 42 27t49 11h232q23 0 38-16t16-38v-183q38 23 71 23h232z m-303-119l-167-167h167v167z m-357 214l-167-167h167v167z m109-361l176 176v233h-214v-233q0-22-15-37t-38-16h-233v-357h286v143q0 22 11 49t27 42z m534-449v643h-215v-232q0-22-15-38t-38-15h-232v-358h500z" horiz-adv-x="1000" />
</font>
</defs>
</svg>
