<?xml version="1.0" standalone="no"?>
<!DOCTYPE svg PUBLIC "-//W3C//DTD SVG 1.1//EN" "http://www.w3.org/Graphics/SVG/1.1/DTD/svg11.dtd" >
<svg>
<metadata>
Created by FontForge 20110222 at Tue Jan  6 19:06:20 2015
 By deploy user
Copyright (c) 2011 by Frantisek Storm. www.stormtype.com. All rights reserved.
</metadata>
<defs>
<font id="TriviaSeznam-BoldItalic" horiz-adv-x="601" >
  <font-face 
    font-family="Trivia Seznam"
    font-weight="700"
    font-style="italic"
    font-stretch="normal"
    units-per-em="1000"
    panose-1="2 0 5 6 9 0 0 2 0 3"
    ascent="800"
    descent="-200"
    x-height="525"
    cap-height="720"
    bbox="-141 -257 1456 930"
    underline-thickness="50"
    underline-position="-100"
    slope="-10"
    unicode-range="U+000D-FB06"
  />
<missing-glyph horiz-adv-x="227" 
 />
    <glyph glyph-name=".notdef" horiz-adv-x="227" 
 />
    <glyph glyph-name=".null" horiz-adv-x="0" 
 />
    <glyph glyph-name=".null" horiz-adv-x="0" 
 />
    <glyph glyph-name="nonmarkingreturn" unicode="&#xd;" horiz-adv-x="227" 
 />
    <glyph glyph-name="space" unicode=" " horiz-adv-x="227" 
 />
    <glyph glyph-name="D" unicode="D" horiz-adv-x="758" 
d="M41 0l127 720h310q72 0 125 -24.5t85 -70.5t41.5 -112t-5.5 -150q-14 -84 -46.5 -151t-79.5 -114t-107.5 -72.5t-131.5 -25.5h-318zM346 113q94 0 150 59.5t78 188.5q23 129 -14 188t-131 59h-138l-87 -495h142z" />
    <glyph glyph-name="E" unicode="E" horiz-adv-x="623" 
d="M41 0l127 720h492l-20 -112h-349l-32 -181h286l-20 -109h-285l-36 -205h357l-21 -113h-499z" />
    <glyph glyph-name="F" unicode="F" horiz-adv-x="584" 
d="M661 720l-20 -112h-350l-35 -203h286l-20 -110h-286l-52 -295h-143l127 720h493z" />
    <glyph glyph-name="G" unicode="G" horiz-adv-x="789" 
d="M488 730q65 0 115 -17.5t83.5 -49t49 -76t11.5 -98.5h-146q1 55 -34 85.5t-104 30.5q-48 0 -87 -18t-68 -50t-48 -77.5t-29 -99.5q-20 -116 13 -181t128 -65q78 0 132 44t69 130h-178l19 106h321l-69 -394h-136l23 131q-15 -29 -35.5 -54.5t-48.5 -45t-64.5 -31
t-84.5 -11.5q-57 0 -108 23.5t-86.5 70t-50 116t1.5 161.5q14 78 50.5 146t90 117.5t122 78t148.5 28.5z" />
    <glyph glyph-name="H" unicode="H" horiz-adv-x="729" 
d="M463 0l55 317h-278l-56 -317h-143l127 720h143l-52 -292h279l51 292h142l-126 -720h-142z" />
    <glyph glyph-name="I" unicode="I" horiz-adv-x="308" 
d="M41 0l127 720h143l-127 -720h-143z" />
    <glyph glyph-name="J" unicode="J" horiz-adv-x="585" 
d="M592 720l-88 -499q-10 -54 -36.5 -97t-66 -73t-91 -46t-111.5 -16q-106 0 -160 58.5t-49 155.5h149q-2 -18 1 -34t13 -29t27.5 -20.5t44.5 -7.5q63 0 94 26.5t40 80.5l89 501h144z" />
    <glyph glyph-name="K" unicode="K" horiz-adv-x="693" 
d="M41 0l127 720h143l-127 -720h-143zM474 0l-217 378l327 342h168l-329 -333l223 -387h-172z" />
    <glyph glyph-name="L" unicode="L" horiz-adv-x="562" 
d="M41 0l127 720h143l-107 -607h326l-19 -113h-470z" />
    <glyph glyph-name="M" unicode="M" horiz-adv-x="927" 
d="M391 720l63 -449q2 -19 2 -49t-2 -53q3 11 8 25t10 28.5t9.5 27t8.5 21.5l219 449h221l-126 -720h-142l89 503q2 10 4.5 24t5 29t5 28.5t5.5 24.5q-8 -23 -18 -50.5t-20 -47.5l-252 -511h-116l-74 511q-2 20 -2.5 46.5t0.5 51.5q-3 -22 -8.5 -53.5t-8.5 -51.5l-88 -504
h-143l127 720h223z" />
    <glyph glyph-name="N" unicode="N" horiz-adv-x="746" 
d="M369 720l133 -469q5 -16 8.5 -41t3.5 -48q1 9 2.5 22t3.5 26.5t4 26.5t4 22l81 461h140l-127 -720h-185l-141 507q-5 15 -7.5 41t-4.5 46q-1 -8 -2.5 -20.5l-3 -25t-3 -24.5t-2.5 -19l-89 -505h-143l127 720h201z" />
    <glyph glyph-name="O" unicode="O" horiz-adv-x="793" 
d="M462 605q-49 0 -87.5 -18t-67 -50t-47.5 -77.5t-29 -99.5q-9 -54 -6 -99t20 -77t49.5 -50t80.5 -18t86.5 18t67.5 50t48 77t28 99t6 99.5t-20 77.5t-49 50t-80 18zM484 730q79 0 137 -28.5t93.5 -78t47 -117.5t-2.5 -146q-14 -79 -49.5 -146.5t-88.5 -117.5t-120.5 -78.5
t-146.5 -28.5q-80 0 -138 28.5t-93.5 78.5t-47.5 117.5t2 146.5q14 78 49.5 146t88.5 117.5t121 78t148 28.5z" />
    <glyph glyph-name="P" unicode="P" horiz-adv-x="666" 
d="M500 720q55 0 93.5 -18t61 -49.5t29.5 -73t-1 -87.5q-8 -48 -29.5 -90.5t-56 -74t-81.5 -50t-105 -18.5h-182l-45 -259h-143l127 720h332zM291 608l-44 -246h153q60 0 92.5 35.5t42.5 90.5q4 27 2 49t-12.5 37.5t-30 24.5t-50.5 9h-153z" />
    <glyph glyph-name="Q" unicode="Q" horiz-adv-x="793" 
d="M484 730q79 0 137 -28.5t93.5 -78t47 -117.5t-2.5 -146q-17 -95 -64.5 -173t-118.5 -128l100 -171h-152l-64 115q-53 -14 -106 -14q-80 0 -138 28.5t-93.5 78.5t-47.5 117.5t2 146.5q14 78 49.5 146t88.5 117.5t121 78t148 28.5zM478 229l35 -61q35 32 58 81t34 111
q9 54 6 99.5t-20 77.5t-49 50t-80 18q-49 0 -87.5 -18t-67 -50t-47.5 -77.5t-29 -99.5q-9 -54 -6 -99t20 -77t49.5 -50t80.5 -18h11t11 1l-62 112h143z" />
    <glyph glyph-name="R" unicode="R" horiz-adv-x="701" 
d="M461 0q16 90 16.5 146t-12 87t-36 42t-55.5 11h-140l-50 -286h-143l127 720h339q57 0 96 -15.5t61 -42t28 -62t-1 -76.5q-14 -78 -64 -126t-136 -56q34 -5 62.5 -21.5t45.5 -54.5t19.5 -102t-14.5 -164h-143zM411 397q61 0 90 28.5t38 79.5q8 48 -11 75.5t-80 27.5h-157
l-38 -211h158z" />
    <glyph glyph-name="S" unicode="S" horiz-adv-x="688" 
d="M434 730q66 0 115 -16.5t80.5 -45.5t45 -69.5t7.5 -88.5h-148q2 24 -2.5 43.5t-18.5 33.5t-38.5 21.5t-63.5 7.5q-37 0 -63 -7.5t-43.5 -20.5t-27 -30t-12.5 -35q-9 -47 24.5 -65.5t102.5 -27.5q62 -6 111.5 -20t82 -38t46.5 -60.5t5 -87.5t-37 -94t-71.5 -74.5t-102 -49
t-129.5 -17.5q-66 0 -115.5 16.5t-81.5 46.5t-46 71t-9 90h149q-5 -49 23 -80t105 -31q73 0 109.5 30.5t43.5 70.5q4 26 -2.5 43t-24 28t-45.5 17.5t-65 11.5q-64 8 -111 22t-76.5 38t-40 60.5t-1.5 88.5q7 45 32.5 84.5t67 69.5t98 47t127.5 17z" />
    <glyph glyph-name="T" unicode="T" horiz-adv-x="629" 
d="M203 0l106 608h-233l20 112h609l-20 -112h-232l-108 -608h-142z" />
    <glyph glyph-name="U" unicode="U" horiz-adv-x="741" 
d="M608 720h144l-88 -499q-11 -59 -43.5 -102.5t-79.5 -72.5t-103.5 -43t-113.5 -14t-107.5 14t-86 43t-52 72.5t-5.5 102.5l88 499h143l-83 -472q-14 -73 19 -105.5t109 -32.5q78 0 120 33t56 105z" />
    <glyph glyph-name="V" unicode="V" horiz-adv-x="666" 
d="M230 720l81 -529q2 -15 3 -32t2 -35q5 17 12.5 34t15.5 33l267 529h151l-372 -720h-197l-119 720h156z" />
    <glyph glyph-name="W" unicode="W" horiz-adv-x="1002" 
d="M251 720l34 -490q1 -15 1.5 -40t-1.5 -46q8 21 16 45.5t16 40.5l205 490h131l36 -490q1 -15 1.5 -39.5t-1.5 -46.5q7 22 15.5 46.5t14.5 39.5l211 490h143l-319 -720h-176l-30 417q-2 19 -1 43t3 44q-6 -20 -14 -44t-16 -43l-176 -417h-176l-68 720h151z" />
    <glyph glyph-name="X" unicode="X" horiz-adv-x="706" 
d="M269 720l103 -200q7 -15 12.5 -33t10.5 -36q11 18 23 36.5t25 33.5l173 199h167l-318 -354l199 -366h-179l-108 207q-7 16 -13 34.5t-10 35.5q-21 -37 -51 -71l-179 -206h-165l324 363l-194 357h180z" />
    <glyph glyph-name="Y" unicode="Y" horiz-adv-x="676" 
d="M225 0l54 311l-203 409h168l133 -288l237 288h157l-348 -409l-55 -311h-143z" />
    <glyph glyph-name="Z" unicode="Z" horiz-adv-x="647" 
d="M0 0l20 113l479 495h-383l20 112h554l-20 -113l-480 -494h398l-20 -113h-568z" />
    <glyph glyph-name="AE" unicode="&#xc6;" horiz-adv-x="974" 
d="M392 0l32 185h-253l-152 -185h-160l599 720h552l-19 -112h-348l-32 -181h286l-21 -109h-285l-36 -205h355l-18 -113h-500zM444 295l52 292l-240 -292h188z" />
    <glyph glyph-name="Eng" unicode="&#x14a;" horiz-adv-x="746" 
d="M369 720l133 -469q5 -16 8.5 -41t3.5 -48q1 9 2.5 22t3.5 26.5t4 26.5t4 22l81 461h140l-127 -720h-1l-5 -31q-9 -50 -34.5 -86t-60 -60t-74.5 -35.5t-78 -11.5l19 110q19 0 35 3.5t28 13t21 27t14 46.5l4 24h-53l-141 507q-5 15 -7.5 41t-4.5 46q-1 -8 -2.5 -20.5
l-3 -25t-3 -24.5t-2.5 -19l-89 -505h-143l127 720h201z" />
    <glyph glyph-name="Eth" unicode="&#xd0;" horiz-adv-x="758" 
d="M41 0l56 319h-61l19 102h60l53 299h310q72 0 125 -24.5t85 -70.5t41.5 -112t-5.5 -150q-14 -84 -46.5 -151t-79.5 -114t-107.5 -72.5t-131.5 -25.5h-318zM346 113q94 0 150 59.5t78 188.5q23 129 -14 188t-131 59h-138l-33 -187h95l-19 -102h-94l-36 -206h142z" />
    <glyph glyph-name="IJ" unicode="&#x132;" horiz-adv-x="871" 
d="M41 0l127 720h143l-127 -720h-143zM733 720h144l-88 -499q-9 -54 -35.5 -97t-66.5 -73t-91.5 -46t-111.5 -16q-106 0 -159.5 58.5t-49.5 155.5h148q-2 -18 1.5 -34t13.5 -29t28 -20.5t46 -7.5q62 0 92.5 26.5t40.5 80.5z" />
    <glyph glyph-name="OE" unicode="&#x152;" horiz-adv-x="1083" 
d="M484 730q23 0 44 -2.5t41 -7.5h549l-18 -112h-391q32 -31 45.5 -77.5t9.5 -103.5h241l-20 -109h-237q-16 -66 -47.5 -119t-79.5 -86h398l-18 -113h-558q-22 -5 -44 -8t-45 -3q-80 0 -138 28.5t-93.5 78.5t-47.5 117.5t2 146.5q14 78 49.5 146t88.5 117.5t121 78t148 28.5
zM462 605q-49 0 -87.5 -18t-67 -50t-47.5 -77.5t-29 -99.5q-9 -54 -6 -99t20 -77t49.5 -50t80.5 -18t86.5 18t67.5 50t48 77t28 99t6 99.5t-20 77.5t-49 50t-80 18z" />
    <glyph glyph-name="Oslash" unicode="&#xd8;" horiz-adv-x="793" 
d="M803 720l-88 -99q35 -50 46.5 -116.5t-2.5 -144.5q-14 -79 -49.5 -146.5t-88.5 -117.5t-120.5 -78.5t-146.5 -28.5q-95 0 -163 42l-27 -31h-131l87 98q-35 51 -46 117.5t3 144.5t49.5 146t88.5 117.5t121 78t148 28.5q48 0 88 -10.5t72 -30.5l28 31h131zM462 605
q-49 0 -87.5 -18t-67 -50t-47.5 -77.5t-29 -99.5q-7 -40 -7.5 -74.5t6.5 -63.5l320 360q-35 23 -88 23zM605 360q14 79 0 137l-318 -359q35 -22 88 -22q48 0 86.5 18t67.5 50t48 77t28 99z" />
    <glyph glyph-name="Thorn" unicode="&#xde;" horiz-adv-x="666" 
d="M41 0l127 720h143l-21 -114h188q55 0 94 -18t61.5 -49.5t29.5 -73.5t-1 -89q-8 -48 -29.5 -90t-55.5 -73.5t-81 -50t-106 -18.5h-181l-25 -144h-143zM227 247h153q61 0 93 35.5t41 90.5q5 26 3 48t-12.5 37.5t-30.5 24.5t-51 9h-153z" />
    <glyph glyph-name="a" unicode="a" 
d="M303 535q60 0 90 -31t41 -76l17 97h135l-92 -525h-134l16 95q-27 -43 -69.5 -74.5t-99.5 -31.5q-48 0 -84.5 19.5t-58.5 55.5t-29 86.5t4 111.5q10 61 34.5 111.5t59.5 86.5t78.5 55.5t91.5 19.5zM315 422q-56 0 -89.5 -41.5t-47.5 -118.5q-14 -76 5 -117.5t76 -41.5
q31 0 55.5 12.5t42.5 33.5t30 49.5t18 60.5q14 80 -9.5 121.5t-80.5 41.5z" />
    <glyph glyph-name="b" unicode="b" 
d="M284 735l-54 -307q27 45 69 76t102 31q48 0 84.5 -19.5t58.5 -55.5t28.5 -86.5t-4.5 -111.5t-35 -111.5t-58.5 -86.5t-77.5 -55.5t-92 -19.5q-57 0 -89.5 31.5t-43.5 74.5l-17 -95h-134l129 735h134zM347 422q-57 0 -94.5 -41.5t-51.5 -121.5q-6 -32 -4.5 -60.5t12 -49.5
t31 -33.5t51.5 -12.5q57 0 90.5 41.5t47.5 117.5q14 77 -5.5 118.5t-76.5 41.5z" />
    <glyph glyph-name="c" unicode="c" horiz-adv-x="541" 
d="M338 535q46 0 84 -14.5t64.5 -41t38.5 -64t6 -83.5h-135q3 39 -17 65t-65 26q-59 0 -93.5 -43t-47.5 -118q-14 -75 5.5 -118t78.5 -43q46 0 75 26.5t39 65.5h135q-10 -46 -35 -83.5t-60.5 -64.5t-79 -41.5t-89.5 -14.5q-60 0 -103.5 19.5t-69 55.5t-33.5 86t3 112
q10 61 36 111.5t64 86.5t88.5 55.5t110.5 19.5z" />
    <glyph glyph-name="d" unicode="d" 
d="M303 535q60 0 90 -31t41 -76l55 307h134l-129 -735h-134l16 95q-27 -43 -69.5 -74.5t-99.5 -31.5q-48 0 -84.5 19.5t-58.5 55.5t-29 86.5t4 111.5q10 61 34.5 111.5t59.5 86.5t78.5 55.5t91.5 19.5zM315 422q-56 0 -89.5 -41.5t-47.5 -118.5q-14 -76 5 -117.5t76 -41.5
q31 0 55.5 12.5t42.5 33.5t30 49.5t18 60.5q14 80 -9.5 121.5t-80.5 41.5z" />
    <glyph glyph-name="e" unicode="e" horiz-adv-x="554" 
d="M352 535q49 0 84.5 -11.5t58.5 -30.5t34.5 -43.5t11.5 -50.5q0 -34 -14 -64.5t-45 -53t-81.5 -35.5t-122.5 -13h-110q-8 -69 13 -102t76 -33q40 0 69.5 18.5t39.5 51.5h135q-11 -39 -35.5 -71.5t-59.5 -56.5t-77.5 -37.5t-88.5 -13.5q-58 0 -100.5 19.5t-69 55.5
t-34.5 86.5t3 113.5q10 60 38.5 110t69.5 86t93.5 55.5t111.5 19.5zM329 434q-49 0 -85 -26.5t-56 -83.5h97q65 0 91 17t26 43q0 19 -16 34.5t-57 15.5z" />
    <glyph glyph-name="f" unicode="f" horiz-adv-x="365" 
d="M369 745q19 0 38.5 -2t40.5 -6l-19 -110q-19 5 -32.5 6.5t-30.5 1.5q-35 0 -54 -18t-26 -53l-6 -39h131l-19 -103h-130l-111 -632h-134l110 632h-75l18 103h76l6 37q16 94 75 138.5t142 44.5z" />
    <glyph glyph-name="g" unicode="g" 
d="M306 535q31 0 54 -9t38.5 -23.5t24 -34t11.5 -40.5l18 97h135l-94 -533q-20 -113 -95 -163t-205 -50q-51 0 -91 12t-66.5 36t-37.5 58.5t-4 79.5h144q-5 -38 16.5 -59.5t66.5 -21.5q56 0 91 22.5t46 85.5l18 108q-27 -48 -69 -75.5t-105 -27.5q-48 0 -83.5 18.5t-57 53
t-27.5 84t5 111.5q10 57 32 106t55.5 86t78.5 58t101 21zM315 422q-57 0 -90.5 -41.5t-46.5 -116.5q-14 -78 6 -118t77 -40q31 0 55.5 12t42 32.5t29 48.5t17.5 61q14 77 -8 119.5t-82 42.5z" />
    <glyph glyph-name="h" unicode="h" horiz-adv-x="593" 
d="M291 735l-51 -290q29 41 71 65.5t102 24.5q80 0 113.5 -48t18.5 -135l-62 -352h-135l57 323q8 48 -3.5 72t-56.5 24q-22 0 -43.5 -8t-39.5 -24.5t-31 -41t-19 -58.5l-50 -287h-134l129 735h134z" />
    <glyph glyph-name="i" unicode="i" horiz-adv-x="274" 
d="M288 713l-21 -117h-135l20 117h136zM255 525l-93 -525h-134l92 525h135z" />
    <glyph glyph-name="j" unicode="j" horiz-adv-x="274" 
d="M255 525l-97 -550q-9 -50 -35 -87t-61.5 -61.5t-76 -36.5t-78.5 -12l19 114q19 0 35 3.5t28.5 13t21 27.5t13.5 48l96 541h135zM288 713l-21 -117h-135l20 117h136z" />
    <glyph glyph-name="k" unicode="k" horiz-adv-x="558" 
d="M28 0l129 735h134l-129 -735h-134zM365 0l-146 286l225 239h158l-232 -234l155 -291h-160z" />
    <glyph glyph-name="l" unicode="l" horiz-adv-x="274" 
d="M28 0l129 735h134l-129 -735h-134z" />
    <glyph glyph-name="m" unicode="m" horiz-adv-x="898" 
d="M255 525l-15 -84q30 45 73 69.5t100 24.5q56 0 85 -32t33 -81q39 62 89 87.5t102 25.5q76 0 109 -48t19 -135l-62 -352h-135l56 321q8 48 -3 73t-53 25t-78 -31t-50 -101l-50 -287h-134l55 321q8 48 -3.5 73t-51.5 25q-42 0 -79.5 -32.5t-49.5 -104.5l-50 -282h-134
l92 525h135z" />
    <glyph glyph-name="n" unicode="n" horiz-adv-x="593" 
d="M255 525l-15 -80q29 41 69.5 65.5t100.5 24.5q78 0 114 -48t21 -135l-62 -352h-135l57 323q8 48 -4 72t-56 24q-45 0 -83 -32t-50 -100l-50 -287h-134l92 525h135z" />
    <glyph glyph-name="o" unicode="o" horiz-adv-x="560" 
d="M313 423q-56 0 -90.5 -41t-48.5 -118q-14 -80 5.5 -121.5t76.5 -41.5q55 0 89.5 41.5t48.5 121.5q14 77 -6 118t-75 41zM332 535q54 0 96 -18.5t68 -53.5t35 -85t-2 -114q-11 -65 -38 -116t-65.5 -86.5t-87 -54t-102.5 -18.5q-55 0 -97 18.5t-68 54t-35 86.5t3 116
q11 64 37.5 114t65 85t87 53.5t103.5 18.5z" />
    <glyph glyph-name="p" unicode="p" 
d="M402 535q48 0 84 -19.5t58 -55.5t28.5 -86.5t-4.5 -111.5t-35 -111.5t-58 -86.5t-77 -55.5t-91 -19.5q-57 0 -90.5 30.5t-44.5 75.5l-55 -305h-134l130 735h134l-17 -97q27 45 69.5 76t102.5 31zM347 422q-57 0 -94.5 -41.5t-51.5 -121.5q-6 -32 -4.5 -60.5t12 -49.5
t30.5 -33.5t52 -12.5q57 0 90.5 41.5t47.5 117.5q14 77 -5.5 118.5t-76.5 41.5z" />
    <glyph glyph-name="q" unicode="q" 
d="M299 535q61 0 92.5 -31t42.5 -76l18 97h135l-131 -735h-134l54 305q-27 -45 -71 -75.5t-102 -30.5q-48 0 -83.5 19.5t-57 55.5t-28 86.5t4.5 111.5q10 61 34 111.5t58.5 86.5t77 55.5t90.5 19.5zM312 422q-57 0 -88.5 -41.5t-45.5 -118.5q-14 -76 3.5 -117.5t74.5 -41.5
q31 0 56 12.5t43.5 33.5t31 49.5t18.5 60.5q14 80 -11 121.5t-82 41.5z" />
    <glyph glyph-name="r" unicode="r" horiz-adv-x="377" 
d="M255 525l-20 -112q23 55 67 88.5t118 33.5l-22 -130q-4 2 -12 3t-18 1q-26 0 -51.5 -9.5t-48 -29t-39 -50t-23.5 -71.5l-44 -249h-134l92 525h135z" />
    <glyph glyph-name="s" unicode="s" horiz-adv-x="525" 
d="M314 535q55 0 94 -12.5t63 -34.5t33.5 -52.5t5.5 -67.5h-126q5 32 -17.5 51t-65.5 19q-50 0 -72.5 -17t-26.5 -40q-5 -29 19 -41t63 -18q37 -4 75 -11.5t67.5 -24.5t45 -47t6.5 -78q-6 -36 -24.5 -67.5t-50 -55t-77.5 -36.5t-109 -13q-54 0 -93.5 12.5t-63.5 35
t-33.5 53.5t-4.5 68h126q-5 -31 18.5 -50t71.5 -19q56 0 79.5 17t26.5 39q3 17 -2.5 28t-16.5 18t-27 10.5t-35 6.5q-41 5 -79.5 12.5t-67 24t-42 46t-4.5 78.5q6 34 26 64.5t51.5 53t73.5 35.5t93 13z" />
    <glyph glyph-name="longs" unicode="&#x17f;" horiz-adv-x="294" 
d="M342 745q19 0 38.5 -2t40.5 -6l-20 -110q-18 5 -32 6.5t-30 1.5q-68 0 -80 -71l-136 -774h-134l136 772q16 94 75 138.5t142 44.5z" />
    <glyph glyph-name="germandbls" unicode="&#xdf;" horiz-adv-x="600" 
d="M396 745q48 0 88 -12t67 -35t39 -57t4 -79q-14 -76 -61.5 -117.5t-127.5 -51.5q86 -13 127.5 -57.5t26.5 -128.5q-8 -43 -32.5 -81.5t-63.5 -67.5t-91 -46t-115 -17q-14 0 -25 1t-25 3l20 112q13 -2 21.5 -3.5t21.5 -1.5q67 0 101 32t42 79q5 28 1 49t-20 35t-45 20.5
t-72 6.5l19 104q40 0 67 7t44.5 20.5t26.5 33t14 45.5q7 41 -9 68.5t-68 27.5q-53 0 -79 -23.5t-34 -68.5l-96 -542h-134l95 544q9 48 34.5 85.5t62 63t82 39t94.5 13.5z" />
    <glyph glyph-name="t" unicode="t" horiz-adv-x="368" 
d="M299 647l-21 -122h132l-19 -103h-131l-42 -239q-8 -45 6 -63t52 -18q12 0 26.5 2t32.5 7l-18 -113q-23 -4 -43.5 -6.5t-39.5 -2.5q-41 0 -73.5 10t-52.5 31.5t-27.5 55t0.5 80.5l45 256h-76l18 103h76l21 122h134z" />
    <glyph glyph-name="u" unicode="u" horiz-adv-x="593" 
d="M254 525l-58 -324q-8 -47 4 -71t56 -24q45 0 82.5 32t49.5 100l51 287h134l-92 -525h-135l14 79q-28 -41 -68.5 -65.5t-100.5 -24.5q-79 0 -115 48.5t-21 135.5l63 352h136z" />
    <glyph glyph-name="v" unicode="v" horiz-adv-x="514" 
d="M188 525l45 -322q2 -10 3 -22t1 -24.5v-24t-1 -20.5q5 17 15 44t19 47l165 322h133l-274 -525h-161l-86 525h141z" />
    <glyph glyph-name="w" unicode="w" horiz-adv-x="806" 
d="M187 525l29 -324q2 -20 2 -42t-1 -42q6 20 13.5 42t15.5 42l145 324h127l31 -324q3 -20 2.5 -42t-1.5 -42q7 20 14 42t15 42l145 324h130l-247 -525h-158l-25 274q-2 23 -2 49t2 50q-6 -24 -15.5 -50.5t-19.5 -48.5l-123 -274h-153l-61 525h135z" />
    <glyph glyph-name="x" unicode="x" horiz-adv-x="554" 
d="M216 525l66 -124q5 -10 8.5 -21.5t7.5 -21.5q6 10 13.5 21.5t16.5 21.5l109 124h142l-225 -252l153 -273h-160l-70 131q-11 23 -16 46q-8 -11 -15.5 -23.5t-18.5 -23.5l-114 -130h-151l243 267l-139 258h150z" />
    <glyph glyph-name="y" unicode="y" horiz-adv-x="514" 
d="M188 525l45 -324q1 -10 2 -22.5t1 -25t-0.5 -24t-0.5 -18.5q3 7 7 18t8.5 23.5t9.5 25.5t10 23l165 324h133l-292 -556q-33 -65 -66 -102.5t-69.5 -57t-79.5 -25t-96 -5.5l21 117q50 1 80 11.5t47 36.5l24 37l-90 544h141z" />
    <glyph glyph-name="z" unicode="z" horiz-adv-x="484" 
d="M-13 0l18 104l320 318h-250l19 103h407l-19 -103l-319 -318h269l-18 -104h-427z" />
    <glyph glyph-name="ae" unicode="&#xe6;" horiz-adv-x="922" 
d="M303 535q60 0 90 -31t41 -76l17 97h99l-14 -82q38 44 87.5 68t103.5 24q49 0 83.5 -11.5t56.5 -30.5t32.5 -43.5t10.5 -50.5q0 -34 -14 -64.5t-45.5 -53t-82 -35.5t-122.5 -13h-111q-8 -69 13.5 -102t76.5 -33q40 0 69.5 19.5t39.5 54.5h134q-10 -40 -35 -73.5t-59.5 -58
t-77.5 -38t-89 -13.5q-49 0 -83.5 19t-54.5 54l-10 -62h-99l16 95q-27 -43 -69.5 -74.5t-99.5 -31.5q-48 0 -84.5 19.5t-58.5 55.5t-29 86.5t4 111.5q10 61 34.5 111.5t59.5 86.5t78.5 55.5t91.5 19.5zM315 422q-56 0 -89.5 -41.5t-47.5 -118.5q-14 -76 5 -117.5t76 -41.5
q31 0 55.5 12.5t42.5 33.5t30 49.5t18 60.5q14 80 -9.5 121.5t-80.5 41.5zM698 434q-49 0 -85.5 -26.5t-56.5 -83.5h96q66 0 92 17t26 43q0 19 -16 34.5t-56 15.5z" />
    <glyph glyph-name="eng" unicode="&#x14b;" horiz-adv-x="594" 
d="M256 525l-14 -80q28 41 70 65.5t102 24.5q80 0 113.5 -48t17.5 -135l-65 -373q-9 -51 -35 -86.5t-61 -58.5t-75.5 -34t-78.5 -11l19 114q37 0 62.5 16t33.5 58l61 346q8 48 -4 72t-56 24q-22 0 -43.5 -8t-39 -24.5t-30.5 -41t-19 -58.5l-51 -287h-134l93 525h134z" />
    <glyph glyph-name="eth" unicode="&#xf0;" horiz-adv-x="634" 
d="M337 745q49 0 91 -12t76 -34l61 53l43 -50l-54 -47q43 -51 59 -124.5t0 -167.5q-15 -89 -46 -158.5t-75.5 -117.5t-101.5 -73t-126 -25q-68 0 -114.5 21.5t-73.5 57t-35.5 82t0.5 97.5q7 45 28.5 89t56.5 78.5t83 56t108 21.5q58 0 98.5 -25t62.5 -60q13 100 -25 160
l-69 -59l-43 50l64 55q-45 27 -113 27zM330 389q-35 0 -61.5 -12t-45 -32t-29.5 -46t-16 -55q-10 -61 12 -99t87 -38q73 0 116.5 55.5t65.5 149.5q-20 35 -52.5 56t-76.5 21z" />
    <glyph glyph-name="ij" unicode="&#x133;" horiz-adv-x="550" 
d="M255 525l-93 -525h-134l92 525h135zM288 713l-21 -117h-135l20 117h136zM530 525l-98 -557q-9 -50 -35 -86t-61.5 -59t-76 -33.5t-78.5 -10.5l20 113q19 0 35 3t28 12t20.5 25.5t13.5 43.5l97 549h135zM564 713l-21 -117h-137l22 117h136z" />
    <glyph glyph-name="oe" unicode="&#x153;" horiz-adv-x="911" 
d="M332 535q59 0 101 -21.5t66 -61.5q41 39 94 61t116 22q49 0 84.5 -11.5t58.5 -30.5t34.5 -43.5t11.5 -50.5q0 -34 -14 -64.5t-45.5 -53t-81.5 -35.5t-122 -13h-111q-8 -69 13 -102t78 -33q39 0 68.5 19.5t39.5 54.5h134q-10 -40 -35 -73.5t-59.5 -58t-77 -38t-88.5 -13.5
q-60 0 -102.5 20.5t-66.5 58.5q-38 -38 -86.5 -58.5t-105.5 -20.5q-55 0 -97 18.5t-68 54t-35 86.5t3 116q11 64 37.5 114t65 85t87 53.5t103.5 18.5zM313 423q-56 0 -90.5 -41t-48.5 -118q-14 -80 5.5 -121.5t76.5 -41.5q55 0 89.5 41.5t48.5 121.5q14 77 -6 118t-75 41z
M686 434q-49 0 -85 -26.5t-56 -83.5h96q66 0 92 17t26 43q0 19 -16.5 34.5t-56.5 15.5z" />
    <glyph glyph-name="oslash" unicode="&#xf8;" horiz-adv-x="558" 
d="M332 535q72 0 121 -29l17 19h101l-65 -72q21 -35 27.5 -82t-4.5 -107q-23 -133 -100.5 -204t-192.5 -71q-70 0 -120 28l-15 -17h-104l64 71q-21 35 -27 83.5t5 109.5q11 64 37 114.5t63.5 85.5t86.5 53t106 18zM312 419q-57 0 -93.5 -41t-48.5 -114q-7 -42 -4 -76
l197 218q-23 13 -51 13zM399 264q8 41 3 72l-196 -218q21 -12 51 -12q55 0 91.5 41t50.5 117z" />
    <glyph glyph-name="thorn" unicode="&#xfe;" horiz-adv-x="602" 
d="M403 535q48 0 84 -19.5t58 -55.5t28.5 -86.5t-4.5 -111.5t-35 -111.5t-58 -86.5t-77 -55.5t-92 -19.5q-57 0 -90 30.5t-44 75.5l-55 -305h-134l167 945h134l-54 -307q27 45 69.5 76t102.5 31zM347 422q-57 0 -94.5 -41.5t-51.5 -121.5q-6 -32 -4.5 -60.5t12 -49.5
t31 -33.5t51.5 -12.5q57 0 91 41.5t47 117.5q14 77 -5.5 118.5t-76.5 41.5z" />
    <glyph glyph-name="zero" unicode="0" horiz-adv-x="621" 
d="M374 602q-72 0 -112 -64t-60 -178q-11 -56 -12 -101t9 -76.5t32 -48t58 -16.5q72 0 113 64.5t61 177.5q10 57 10.5 101.5t-9.5 76t-32 48t-58 16.5zM397 730q58 0 105 -22.5t76 -68t38 -115.5t-8 -164q-17 -95 -50.5 -164.5t-79 -115.5t-99.5 -68.5t-112 -22.5t-104 22.5
t-75.5 68.5t-38.5 115.5t8 164.5q16 94 50 164t79 115.5t99.5 68t111.5 22.5z" />
    <glyph glyph-name="one" unicode="1" horiz-adv-x="621" 
d="M124 0l21 113h136l84 476l-175 -99l-37 99l235 131h136l-106 -607h112l-18 -113h-388z" />
    <glyph glyph-name="two" unicode="2" horiz-adv-x="621" 
d="M16 0l19 109q126 75 207.5 132t130 102t70 82.5t27.5 74.5q9 49 -11.5 81.5t-81.5 32.5q-64 0 -97.5 -28.5t-50.5 -87.5h-126q11 55 39.5 98.5t69 73t90.5 45t106 15.5q61 0 104 -17t68.5 -46.5t34 -69t0.5 -85.5q-9 -54 -35.5 -101t-75.5 -93.5t-122 -96t-176 -108.5
h339l-20 -113h-509z" />
    <glyph glyph-name="three" unicode="3" horiz-adv-x="621" 
d="M294 419q47 0 79 7t52 21t30.5 34t15.5 46q4 22 1.5 40t-13 30.5t-31 19.5t-53.5 7q-64 0 -96.5 -26t-48.5 -79h-127q11 50 38.5 89.5t67 66.5t88.5 41t104 14q60 0 104 -14t72 -38.5t38 -59t3 -75.5q-13 -78 -66 -120t-140 -54q89 -6 129 -49t26 -121q-8 -47 -34 -86
t-66 -66.5t-92 -42.5t-111 -15q-55 0 -99.5 15t-74.5 42.5t-43.5 67t-6.5 88.5h131q-4 -55 23 -80.5t91 -25.5q61 0 97 29.5t44 77.5q5 27 1 48.5t-21 36.5t-49 22.5t-82 7.5z" />
    <glyph glyph-name="four" unicode="4" horiz-adv-x="621" 
d="M312 0l32 186h-314l21 113l358 421h166l-74 -422h99l-21 -112h-99l-32 -186h-136zM415 582l-243 -284h193z" />
    <glyph glyph-name="five" unicode="5" horiz-adv-x="621" 
d="M613 720l-19 -112h-316l-34 -148q27 5 57.5 8t64.5 3q54 0 97.5 -15.5t72.5 -44.5t40.5 -72t2.5 -97q-10 -57 -39 -103.5t-71.5 -79.5t-96.5 -51.5t-114 -18.5q-55 0 -97.5 14t-70.5 41.5t-40 67.5t-4 92h123q-5 -56 21.5 -82.5t89.5 -26.5q62 0 103.5 37.5t52.5 98.5
q5 32 1 57t-19 42t-42.5 26t-69.5 9q-48 0 -104 -4t-110 -14l91 373h430z" />
    <glyph glyph-name="six" unicode="6" horiz-adv-x="621" 
d="M423 730q50 0 90.5 -15t68 -41.5t39.5 -63.5t6 -81h-126q1 50 -24.5 73.5t-72.5 23.5q-76 0 -125 -61t-73 -172q35 35 83 57t105 22q59 0 99 -19t62.5 -50.5t28.5 -71.5t-1 -83q-9 -49 -33.5 -95.5t-63.5 -83t-92 -58.5t-119 -22q-67 0 -114.5 24.5t-75 71t-34 113.5
t8.5 152t46.5 155t78 120t106.5 77.5t132 27.5zM193 301q-11 -91 13.5 -143.5t95.5 -52.5q63 0 98 37t46 96q5 27 3 51t-13 42.5t-33 29t-56 10.5q-44 0 -83 -18.5t-71 -51.5z" />
    <glyph glyph-name="seven" unicode="7" horiz-adv-x="621" 
d="M118 0l374 608h-369l19 112h507l-20 -112l-361 -608h-150z" />
    <glyph glyph-name="eight" unicode="8" horiz-adv-x="621" 
d="M378 619q-59 0 -90 -27t-39 -69q-9 -54 16.5 -78.5t77.5 -24.5q51 0 86 24.5t43 78.5q8 42 -13.5 69t-80.5 27zM325 319q-54 0 -95.5 -24t-52.5 -84q-8 -48 18 -78t92 -30q65 0 101.5 30t46.5 78q5 30 -2 50.5t-22 33.5t-37.5 18.5t-48.5 5.5zM397 730q62 0 105.5 -15
t70 -41.5t35.5 -61.5t2 -75q-11 -62 -57 -106t-123 -57q37 -3 65 -18t45.5 -39t24 -56.5t-0.5 -70.5q-16 -93 -91 -147t-206 -54t-187.5 54t-40.5 147q7 38 24.5 70t43.5 55.5t58.5 37.5t70.5 17q-66 14 -98.5 59.5t-21.5 108.5q7 40 28.5 75t57 61t84.5 41t111 15z" />
    <glyph glyph-name="nine" unicode="9" horiz-adv-x="621" 
d="M389 730q134 0 189.5 -95t26.5 -266q-15 -85 -47.5 -155t-79 -120t-106.5 -77.5t-131 -27.5q-50 0 -91 13.5t-68.5 39.5t-39.5 63.5t-6 85.5h125q-4 -50 23.5 -73.5t75.5 -23.5q76 0 124.5 61t73.5 171q-35 -35 -83.5 -56.5t-105.5 -21.5q-59 0 -98.5 19t-62 50
t-28.5 71.5t1 82.5q9 49 33.5 96t63.5 83t92 58t119 22zM362 615q-63 0 -98.5 -37t-45.5 -97q-5 -27 -3 -51t13 -42t33 -28.5t57 -10.5q42 0 81 18.5t71 51.5q6 45 3 81t-15.5 61.5t-36 39.5t-59.5 14z" />
    <glyph glyph-name="onequarter" unicode="&#xbc;" horiz-adv-x="869" 
d="M67 362l14 82h84l34 198l-105 -60l-27 70l153 85h105l-52 -293h67l-14 -82h-259zM734 373l-36 -210h55l-15 -81h-55l-14 -82h-101l14 82h-180l14 76l199 215h119zM507 163h89l21 120zM20 0l706 735h133l-707 -735h-132z" />
    <glyph glyph-name="onehalf" unicode="&#xbd;" horiz-adv-x="869" 
d="M65 362l14 82h84l34 198l-105 -60l-27 70l153 85h105l-52 -293h67l-14 -82h-259zM659 380q77 0 108 -33t23 -82q-5 -24 -16 -46t-33.5 -43.5t-57.5 -44.5t-86 -49h162l-14 -82h-323l12 70q68 34 112.5 60.5t71 47t38 37t14.5 32.5q4 21 -4.5 35t-34.5 14q-28 0 -44 -14.5
t-25 -43.5h-100q17 63 67.5 102.5t129.5 39.5zM18 0l706 735h133l-707 -735h-132z" />
    <glyph glyph-name="threequarters" unicode="&#xbe;" horiz-adv-x="869" 
d="M711 373l-36 -210h55l-15 -81h-55l-14 -82h-101l14 82h-180l14 76l199 215h119zM484 163h89l21 120zM273 742q75 0 107 -27.5t24 -72.5q-6 -36 -31.5 -58t-67.5 -31q42 -7 61.5 -30t11.5 -60q-8 -50 -55.5 -79t-124.5 -29q-70 0 -106.5 33.5t-28.5 90.5h102
q-2 -27 11 -38.5t39 -11.5q27 0 40.5 12t16.5 31q5 23 -9.5 34.5t-56.5 11.5l12 66q39 0 56 10t20 33q8 41 -38 41q-26 0 -40 -10.5t-22 -36.5h-102q13 56 61.5 88.5t119.5 32.5zM9 0l706 735h133l-707 -735h-132z" />
    <glyph glyph-name="onethird" unicode="&#x2153;" horiz-adv-x="869" 
d="M55 362l14 82h84l34 198l-105 -60l-27 70l153 85h105l-52 -293h67l-14 -82h-259zM654 380q75 0 107 -27.5t24 -72.5q-6 -36 -31.5 -58t-67.5 -31q42 -7 61.5 -30t11.5 -60q-8 -50 -55.5 -79t-124.5 -29q-70 0 -106.5 33.5t-28.5 90.5h102q-2 -27 11 -38.5t39 -11.5
q27 0 40.5 12t16.5 31q5 23 -9.5 34.5t-56.5 11.5l12 66q39 0 56 10t20 33q8 41 -38 41q-26 0 -40 -10.5t-22 -36.5h-102q13 56 61.5 88.5t119.5 32.5zM14 0l706 735h133l-707 -735h-132z" />
    <glyph glyph-name="rupee" unicode="&#x20a8;" horiz-adv-x="621" 
d="M656 720l-17 -87h-133q21 -18 28.5 -48t2.5 -62h82l-14 -87h-92q-25 -57 -70.5 -91.5t-111.5 -42.5q34 -5 64 -15.5t48 -41t21.5 -88t-14.5 -157.5h-142q13 77 12 124t-14 72.5t-37 33.5t-55 8h-161l19 110h177q50 0 78.5 25t40.5 63h-282l16 87h280q2 35 -16.5 60.5
t-66.5 25.5h-182l19 111h520z" />
    <glyph glyph-name="dollar" unicode="$" horiz-adv-x="628" 
d="M216 -94l14 85q-54 4 -94.5 22.5t-66.5 47.5t-37.5 68t-6.5 84h135q-2 -42 18.5 -71t71.5 -37l36 205q-41 8 -81 19t-69.5 32.5t-44.5 56.5t-5 91q7 42 29 79t56.5 66.5t81.5 48.5t106 25l14 79h80l-14 -79q54 -5 93.5 -23t64.5 -46.5t36 -66.5t8 -82h-134q2 41 -17 68
t-71 35l-34 -192q42 -8 83.5 -19.5t73 -32.5t47.5 -55.5t6 -89.5q-8 -46 -31.5 -86.5t-60 -71t-85.5 -50.5t-109 -25l-15 -85h-78zM456 202q3 21 -2.5 36t-18.5 26t-32 18t-41 13l-33 -191q63 8 91.5 36t35.5 62zM221 520q-6 -37 19.5 -54.5t67.5 -28.5l31 177
q-60 -8 -86 -35t-32 -59z" />
    <glyph glyph-name="cent" unicode="&#xa2;" horiz-adv-x="612" 
d="M239 7l17 98q-99 12 -141 82.5t-20 188.5q20 116 89 187t168 83l15 83h67l-15 -81q81 -8 126.5 -59.5t40.5 -141.5h-124q0 31 -14 57t-48 34l-58 -325q36 9 59.5 35t35.5 58h124q-27 -91 -90 -143t-148 -59l-17 -97h-67zM218 376q-12 -63 1.5 -106.5t55.5 -56.5l58 324
q-50 -12 -77.5 -55t-37.5 -106z" />
    <glyph glyph-name="sterling" unicode="&#xa3;" horiz-adv-x="628" 
d="M247 298q-4 -47 -19.5 -95t-58.5 -101h360l-16 -102h-494l17 102q46 56 60 103.5t13 92.5h-73l12 70h56q-2 29 -3 61t6 67q7 45 30.5 87t62.5 75t93.5 52.5t123.5 19.5q58 0 100.5 -15t70.5 -42.5t40 -65.5t8 -84h-134q1 22 -3.5 39t-17 29t-34 18.5t-54.5 6.5
q-37 0 -62 -10.5t-40.5 -26.5t-24 -35.5t-11.5 -38.5q-7 -37 -7.5 -70.5t0.5 -66.5h204l-12 -70h-193z" />
    <glyph glyph-name="yen" unicode="&#xa5;" horiz-adv-x="615" 
d="M391 304l-16 -91h105l-14 -72h-103l-25 -141h-143l24 141h-103l12 72h104l16 91h-170l13 72h129l-149 344h166l111 -280l213 280h154l-271 -344h130l-12 -72h-171z" />
    <glyph glyph-name="florin" unicode="&#x192;" horiz-adv-x="527" 
d="M466 743q36 0 79 -8l-19 -111q-18 5 -33.5 7.5t-29.5 2.5q-74 0 -86 -72l-7 -37h138l-18 -103h-138l-82 -460q-8 -47 -28.5 -81.5t-50 -57.5t-66.5 -34t-78 -11q-19 0 -38.5 2.5t-40.5 7.5l19 110q36 -9 62 -9q75 0 88 73l81 460h-76l19 103h75l6 35q8 47 28.5 81.5
t50.5 57t67 33.5t78 11z" />
    <glyph glyph-name="Euro" unicode="&#x20ac;" horiz-adv-x="648" 
d="M223 405q-2 -11 -4.5 -22.5t-4.5 -23.5q-3 -15 -4.5 -28.5t-3.5 -27.5h188l-37 -72h-150q8 -58 41.5 -90.5t97.5 -32.5q68 0 110.5 30.5t65.5 84.5h134q-18 -54 -48 -97t-71.5 -74t-94.5 -47.5t-116 -16.5q-60 0 -106 17.5t-78.5 50t-51.5 77t-24 98.5h-79l38 72h41
q1 14 2.5 28t4.5 28q2 11 4.5 23t5.5 23h-64l37 71h51q23 56 57.5 102.5t79 80t98 52t115.5 18.5q125 0 187 -63.5t59 -171.5h-134q-4 54 -35.5 85t-99.5 31q-67 0 -113 -35.5t-74 -98.5h246l-36 -71h-234z" />
    <glyph glyph-name="numbersign" unicode="#" horiz-adv-x="716" 
d="M121 0l33 188h-96l18 98h95l28 161h-94l17 99h95l33 189h125l-33 -189h141l33 189h125l-33 -189h95l-18 -99h-95l-28 -161h95l-18 -98h-94l-33 -188h-125l33 188h-141l-33 -188h-125zM296 286h141l28 161h-141z" />
    <glyph glyph-name="currency" unicode="&#xa4;" horiz-adv-x="760" 
d="M448 631q44 0 77 -12t56 -34l152 129l65 -79l-160 -137q14 -58 2 -132q-14 -77 -49 -134l112 -136l-94 -80l-106 127q-31 -21 -67.5 -32.5t-80.5 -11.5q-86 0 -134 45l-150 -128l-65 81l159 134q-16 57 -1 135q6 38 17.5 71t30.5 61l-111 136l93 80l105 -128
q32 21 68.5 33t80.5 12zM427 515q-56 0 -88 -41t-44 -108q-13 -69 6 -109.5t75 -40.5q55 0 88 40.5t46 109.5q11 67 -7.5 108t-75.5 41z" />
    <glyph glyph-name="percent" unicode="%" horiz-adv-x="921" 
d="M298 646q-36 0 -60.5 -26t-34.5 -81q-9 -54 7 -81t51 -27q78 0 96 107q10 54 -6.5 81t-52.5 27zM316 745q85 0 124.5 -56.5t22.5 -149.5q-8 -46 -27 -84.5t-47.5 -66t-65 -43t-78.5 -15.5t-73.5 15t-50.5 42t-25.5 65t1.5 84t28 84t48.5 66t64.5 43.5t78 15.5zM909 735
l-705 -735h-147l704 735h148zM703 306q-76 0 -97 -108q-8 -54 8 -81t51 -27q76 0 97 107q8 54 -8 81.5t-51 27.5zM720 404q43 0 74.5 -15t50 -42t24.5 -65t-2 -84t-27.5 -84.5t-48 -66t-64.5 -43t-78 -15.5t-73.5 15t-50.5 42t-25 65t2 85q8 46 27.5 84t48 65.5t64.5 43
t78 15.5z" />
    <glyph glyph-name="perthousand" unicode="&#x2030;" horiz-adv-x="1321" 
d="M298 646q-36 0 -60.5 -26t-34.5 -81q-9 -54 7 -81t51 -27q78 0 96 107q10 54 -6.5 81t-52.5 27zM316 745q85 0 124.5 -56.5t22.5 -149.5q-8 -46 -27 -84.5t-47.5 -66t-65 -43t-78.5 -15.5t-73.5 15t-50.5 42t-25.5 65t1.5 84t28 84t48.5 66t64.5 43.5t78 15.5zM909 735
l-705 -735h-147l704 735h148zM703 306q-76 0 -97 -108q-8 -54 8 -81t51 -27q76 0 97 107q8 54 -8 81.5t-51 27.5zM720 404q43 0 74.5 -15t50 -42t24.5 -65t-2 -84t-27.5 -84.5t-48 -66t-64.5 -43t-78 -15.5t-73.5 15t-50.5 42t-25 65t2 85q8 46 27.5 84t48 65.5t64.5 43
t78 15.5zM1103 306q-36 0 -61 -26.5t-34 -81.5q-9 -54 7 -81t51 -27q76 0 96 107q9 54 -7.5 81.5t-51.5 27.5zM1121 404q85 0 124 -56.5t23 -149.5q-8 -46 -27 -84.5t-47.5 -66t-65 -43t-78.5 -15.5t-73.5 15t-51 42t-25.5 65t2 85q8 46 27.5 84t48 65.5t65 43t78.5 15.5z
" />
    <glyph glyph-name="fraction" unicode="&#x2044;" horiz-adv-x="710" 
d="M-42 0l706 735h133l-707 -735h-132z" />
    <glyph glyph-name="fraction" unicode="&#x2215;" horiz-adv-x="710" 
d="M-42 0l706 735h133l-707 -735h-132z" />
    <glyph glyph-name="asciicircum" unicode="^" horiz-adv-x="634" 
d="M622 481l-93 -80l-152 186l-217 -185l-66 80l311 264z" />
    <glyph glyph-name="asciitilde" unicode="~" horiz-adv-x="634" 
d="M286 667q39 0 67 -12t50 -27t41 -27t40 -12q26 0 44 13t32 48l75 -45q-26 -72 -73 -104t-100 -32q-36 0 -61 12t-46.5 27t-42.5 27t-49 12q-26 0 -43.5 -13.5t-31.5 -48.5l-75 46q26 71 73 103.5t100 32.5z" />
    <glyph glyph-name="periodcentered" unicode="&#xb7;" horiz-adv-x="619" 
d="M406 404l-24 -134h-135l24 134h135z" />
    <glyph glyph-name="periodcentered" unicode="&#x2219;" horiz-adv-x="619" 
d="M406 404l-24 -134h-135l24 134h135z" />
    <glyph glyph-name="plus" unicode="+" horiz-adv-x="634" 
d="M398 387h213l-21 -112h-211l-37 -212h-113l37 212h-211l20 112h210l38 212h112z" />
    <glyph glyph-name="multiply" unicode="&#xd7;" horiz-adv-x="634" 
d="M408 550h4l-45 -245l-32 -193l-3 -1l-2 -10l-38 5l-39 -5l2 10l-3 1l40 222l37 216h3l2 11l39 -6l37 5z" />
    <glyph glyph-name="plusminus" unicode="&#xb1;" horiz-adv-x="634" 
d="M379 512h213l-21 -112h-211l-37 -212h-113l37 212h-211l20 112h210l38 212h112zM-30 24l20 112h536l-21 -112h-535z" />
    <glyph glyph-name="less" unicode="&#x3c;" horiz-adv-x="634" 
d="M220 333l335 -202l-72 -98l-416 257l15 87l507 257l36 -98z" />
    <glyph glyph-name="equal" unicode="=" horiz-adv-x="634" 
d="M32 149l21 112h535l-20 -112h-536zM78 401l19 113h535l-19 -113h-535z" />
    <glyph glyph-name="greater" unicode="&#x3e;" horiz-adv-x="619" 
d="M445 334l-335 202l72 98l416 -257l-16 -87l-506 -257l-36 98z" />
    <glyph glyph-name="approxequal" unicode="&#x2248;" horiz-adv-x="619" 
d="M267 559q39 0 66.5 -12t50 -27t41.5 -27t41 -12q26 0 43.5 13.5t31.5 48.5l75 -47q-26 -71 -73 -103t-100 -32q-36 0 -61 12t-46.5 27t-42.5 27t-49 12q-26 0 -44 -14t-31 -48l-75 46q26 71 73 103.5t100 32.5zM220 291q39 0 66.5 -12t49.5 -27t41 -27t41 -12
q27 0 44.5 13t31.5 48l74 -45q-26 -73 -72.5 -104.5t-99.5 -31.5q-36 0 -61 12t-46.5 27t-42.5 27t-49 12q-26 0 -44 -14t-32 -49l-75 46q26 72 73 104.5t101 32.5z" />
    <glyph glyph-name="notequal" unicode="&#x2260;" horiz-adv-x="634" 
d="M270 149l-79 -112h-120l79 112h-160l21 112h218l99 140h-292l19 113h353l73 103h118l-73 -103h64l-19 -113h-124l-99 -140h198l-20 -112h-256z" />
    <glyph glyph-name="lessequal" unicode="&#x2264;" horiz-adv-x="634" 
d="M255 459l316 -187l-71 -100l-397 244l14 87l484 243l36 -98zM9 13l20 112h535l-19 -112h-536z" />
    <glyph glyph-name="greaterequal" unicode="&#x2265;" horiz-adv-x="619" 
d="M458 459l-315 189l71 98l398 -243l-15 -87l-484 -244l-36 100zM9 13l20 112h535l-19 -112h-536z" />
    <glyph glyph-name="divide" unicode="&#xf7;" horiz-adv-x="634" 
d="M13 275l20 112h536l-21 -112h-535zM330 181l-24 -139h-134l24 139h134zM410 633l-24 -139h-134l24 139h134z" />
    <glyph glyph-name="minus" unicode="&#x2212;" horiz-adv-x="634" 
d="M55 275l20 112h536l-21 -112h-535z" />
    <glyph glyph-name="partialdiff" unicode="&#x2202;" horiz-adv-x="634" 
d="M337 745q75 0 133.5 -27t95 -77t49.5 -120.5t-2 -157.5q-15 -89 -46 -158.5t-75.5 -117.5t-101.5 -73t-126 -25q-68 0 -114.5 21.5t-73.5 57t-35.5 82t0.5 97.5q7 45 28.5 89t56.5 78.5t83 56t108 21.5q58 0 98.5 -25t62.5 -60q15 112 -33 172.5t-153 60.5zM330 389
q-35 0 -61.5 -12t-45 -32t-29.5 -46t-16 -55q-10 -61 12 -99t87 -38q73 0 116.5 55.5t65.5 149.5q-20 35 -52.5 56t-76.5 21z" />
    <glyph glyph-name="product" unicode="&#x220f;" horiz-adv-x="697" 
d="M441 0l107 608h-269l-107 -608h-136l127 720h542l-128 -720h-136z" />
    <glyph glyph-name="summation" unicode="&#x2211;" horiz-adv-x="620" 
d="M669 720l-19 -112h-374l152 -232l-247 -263h386l-18 -113h-551l20 113l247 263l-150 231l19 113h535z" />
    <glyph glyph-name="radical" unicode="&#x221a;" horiz-adv-x="697" 
d="M241 0l-71 412h-126l20 113h225l60 -382l309 592h126l-382 -735h-161z" />
    <glyph glyph-name="infinity" unicode="&#x221e;" horiz-adv-x="834" 
d="M629 480q-42 0 -71.5 -27.5t-55.5 -64.5q5 -27 12 -50.5t17.5 -41t26 -27.5t39.5 -10q39 0 65.5 27t36.5 84q9 55 -9.5 82.5t-60.5 27.5zM317 617q36 0 62.5 -10.5t45 -28.5t31 -42.5t21.5 -52.5q39 59 86 96.5t107 37.5q82 0 119 -63t15 -184q-11 -61 -34.5 -108
t-56 -78.5t-72 -48t-80.5 -16.5q-36 0 -62 10.5t-45 29.5t-31 43.5t-21 53.5q-39 -59 -86.5 -98t-107.5 -39q-82 0 -118.5 63t-14.5 185q10 61 34 107.5t56.5 78t71.5 48t80 16.5zM282 477q-39 0 -65.5 -27t-37.5 -83q-9 -56 10 -83t61 -27q41 0 70.5 27t54.5 64
q-5 27 -11 50.5t-16.5 41t-26 27.5t-39.5 10z" />
    <glyph glyph-name="integral" unicode="&#x222b;" horiz-adv-x="631" 
d="M305 556q17 99 86.5 147.5t184.5 34.5l-20 -116q-48 8 -81.5 -7.5t-41.5 -63.5l-104 -587q-17 -98 -86 -147t-185 -34l21 115q48 -8 81 5.5t41 60.5z" />
    <glyph glyph-name="lozenge" unicode="&#x25ca;" horiz-adv-x="514" 
d="M254 -222h-161l-78 478l250 479h161l79 -478zM202 -79l170 323l-55 348l-169 -324z" />
    <glyph glyph-name="logicalnot" unicode="&#xac;" horiz-adv-x="634" 
d="M403 0l48 275h-396l20 112h536l-68 -387h-140z" />
    <glyph glyph-name="estimated" unicode="&#x212e;" horiz-adv-x="756" 
d="M484 730q151 0 216.5 -95.5t40.5 -266.5h-512q0 -2 -0.5 -4t-0.5 -4q-9 -54 -5.5 -99t20.5 -77t49.5 -50t80.5 -18q70 0 113 30.5t66 84.5h147q-18 -54 -50 -98.5t-76 -76.5t-99.5 -49.5t-120.5 -17.5q-79 0 -138 28.5t-95 78.5t-48 117.5t2 146.5q14 78 50 146
t89.5 117.5t122 78t148.5 28.5zM457 612q-69 0 -116.5 -36.5t-76.5 -97.5h326q4 58 -29 96t-104 38z" />
    <glyph glyph-name="litre" unicode="&#x2113;" horiz-adv-x="454" 
d="M374 744q39 0 63.5 -10t38 -26.5t17 -37.5t-0.5 -42q-13 -73 -77.5 -142t-159.5 -128l-41 -232q-3 -19 3 -26.5t20 -7.5q18 0 35.5 17t25.5 52h113q-34 -89 -86 -130.5t-126 -41.5q-39 0 -63.5 10t-37 28.5t-15 43.5t3.5 55l28 160q-29 -14 -57 -24l-18 78q50 20 91 41
l32 179q8 44 27.5 78.5t48 58t63 35.5t72.5 12zM276 474q45 38 67.5 72t27.5 59q6 36 -24 36q-42 0 -54 -72z" />
    <glyph glyph-name="bar" unicode="|" horiz-adv-x="363" 
d="M30 -222l169 957h139l-169 -957h-139z" />
    <glyph glyph-name="brokenbar" unicode="&#xa6;" horiz-adv-x="363" 
d="M139 397l60 338h139l-60 -338h-139zM30 -222l59 339h140l-60 -339h-139z" />
    <glyph glyph-name="degree" unicode="&#xb0;" horiz-adv-x="457" 
d="M298 646q-36 0 -60.5 -26t-34.5 -81q-9 -54 7 -81t51 -27q78 0 96 107q10 54 -6.5 81t-52.5 27zM316 745q85 0 124.5 -56.5t22.5 -149.5q-8 -46 -27 -84.5t-47.5 -66t-65 -43t-78.5 -15.5t-73.5 15t-50.5 42t-25.5 65t1.5 84t28 84t48.5 66t64.5 43.5t78 15.5z" />
    <glyph glyph-name="minute" unicode="&#x2032;" horiz-adv-x="216" 
d="M118 503l11 256h139l-77 -256h-73z" />
    <glyph glyph-name="second" unicode="&#x2033;" horiz-adv-x="400" 
d="M118 503l11 256h139l-77 -256h-73zM302 503l11 256h140l-77 -256h-74z" />
    <glyph glyph-name="ordfeminine" unicode="&#xaa;" 
d="M303 756q60 0 90 -31t41 -76l17 97h135l-92 -525h-134l16 95q-27 -43 -69.5 -74.5t-99.5 -31.5q-48 0 -84.5 19.5t-58.5 55.5t-29 86.5t4 111.5q10 61 34.5 111.5t59.5 86.5t78.5 55.5t91.5 19.5zM315 643q-56 0 -89.5 -41.5t-47.5 -118.5q-14 -76 5 -117.5t76 -41.5
q31 0 55.5 12.5t42.5 33.5t30 49.5t18 60.5q14 80 -9.5 121.5t-80.5 41.5z" />
    <glyph glyph-name="ordmasculine" unicode="&#xba;" horiz-adv-x="560" 
d="M313 644q-56 0 -90.5 -41t-48.5 -118q-14 -80 5.5 -121.5t76.5 -41.5q55 0 89.5 41.5t48.5 121.5q14 77 -6 118t-75 41zM332 756q54 0 96 -18.5t68 -53.5t35 -85t-2 -114q-11 -65 -38 -116t-65.5 -86.5t-87 -54t-102.5 -18.5q-55 0 -97 18.5t-68 54t-35 86.5t3 116
q11 64 37.5 114t65 85t87 53.5t103.5 18.5z" />
    <glyph glyph-name="underscore" unicode="_" horiz-adv-x="634" 
d="M-34 -174l20 113h555l-19 -113h-556z" />
    <glyph glyph-name="emdash" unicode="&#x2014;" horiz-adv-x="1038" 
d="M60 274l20 113h931l-21 -113h-930z" />
    <glyph glyph-name="endash" unicode="&#x2013;" horiz-adv-x="663" 
d="M60 274l20 113h556l-20 -113h-556z" />
    <glyph glyph-name="hyphen" unicode="-" horiz-adv-x="367" 
d="M58 274l21 113h261l-20 -113h-262z" />
    <glyph glyph-name="hyphen" unicode="&#xad;" horiz-adv-x="367" 
d="M58 274l21 113h261l-20 -113h-262z" />
    <glyph glyph-name="guillemotleft" unicode="&#xab;" horiz-adv-x="651" 
d="M376 472l-195 -183l130 -184l-67 -58l-192 195l17 93l260 195zM640 472l-195 -183l130 -184l-68 -58l-191 195l17 93l259 195z" />
    <glyph glyph-name="guilsinglleft" unicode="&#x2039;" horiz-adv-x="387" 
d="M376 472l-195 -183l130 -184l-67 -58l-192 195l17 93l260 195z" />
    <glyph glyph-name="guilsinglright" unicode="&#x203a;" horiz-adv-x="387" 
d="M352 335l-17 -93l-260 -195l-47 58l196 184l-131 183l67 58z" />
    <glyph glyph-name="guillemotright" unicode="&#xbb;" horiz-adv-x="651" 
d="M616 335l-17 -93l-260 -195l-47 58l196 184l-131 183l67 58zM352 335l-17 -93l-260 -195l-47 58l196 184l-131 183l67 58z" />
    <glyph glyph-name="quotesingle" unicode="'" horiz-adv-x="216" 
d="M118 503l11 256h139l-77 -256h-73z" />
    <glyph glyph-name="quotedbl" unicode="&#x22;" horiz-adv-x="400" 
d="M118 503l11 256h139l-77 -256h-73zM302 503l11 256h140l-77 -256h-74z" />
    <glyph glyph-name="quotedblleft" unicode="&#x201c;" horiz-adv-x="426" 
d="M213 507h-129l139 255h79zM390 507h-129l139 255h80z" />
    <glyph glyph-name="quotesinglbase" unicode="&#x201a;" horiz-adv-x="248" 
d="M61 123h128l-137 -254h-81z" />
    <glyph glyph-name="quotedblbase" unicode="&#x201e;" horiz-adv-x="426" 
d="M61 123h128l-137 -254h-81zM239 123h128l-138 -254h-80z" />
    <glyph glyph-name="quotedblright" unicode="&#x201d;" horiz-adv-x="426" 
d="M173 759h128l-139 -256h-79zM351 759h128l-139 -256h-79z" />
    <glyph glyph-name="quoteright" unicode="&#x2019;" horiz-adv-x="245" 
d="M173 759h128l-139 -256h-79z" />
    <glyph glyph-name="quoteleft" unicode="&#x2018;" horiz-adv-x="248" 
d="M214 507h-129l139 255h79z" />
    <glyph glyph-name="comma" unicode="," horiz-adv-x="265" 
d="M67 143h142l-153 -295h-87z" />
    <glyph glyph-name="period" unicode="." horiz-adv-x="261" 
d="M179 139l-24 -139h-134l24 139h134z" />
    <glyph glyph-name="colon" unicode=":" horiz-adv-x="261" 
d="M179 139l-24 -139h-134l24 139h134zM247 525l-25 -140h-134l26 140h133z" />
    <glyph glyph-name="semicolon" unicode=";" horiz-adv-x="266" 
d="M247 525l-25 -140h-134l26 140h133zM25 143h142l-153 -295h-87z" />
    <glyph glyph-name="ellipsis" unicode="&#x2026;" horiz-adv-x="981" 
d="M802 139l-24 -139h-134l24 139h134zM193 139l-24 -139h-134l24 139h134zM497 139l-24 -139h-134l24 139h134z" />
    <glyph glyph-name="question" unicode="?" horiz-adv-x="584" 
d="M385 730q59 0 100.5 -15.5t66 -42.5t32.5 -62.5t1 -75.5q-8 -46 -30 -80.5t-50.5 -62t-60.5 -50.5t-60 -46t-48.5 -48t-25.5 -56h-125q8 45 29.5 79t49.5 62t58.5 51.5t57.5 46.5t46.5 48t25.5 56q3 16 0 31t-13.5 26.5t-29 18.5t-46.5 7q-59 0 -87.5 -26t-43.5 -75h-131
q28 97 98.5 155.5t185.5 58.5zM302 128l-23 -128h-129l22 128h130z" />
    <glyph glyph-name="questiondown" unicode="&#xbf;" horiz-adv-x="584" 
d="M405 322q-8 -45 -29 -79t-49 -61.5t-58.5 -51t-57 -46.5t-46.5 -48t-25 -56q-3 -16 -0.5 -31t13 -27t29 -19t46.5 -7q59 0 87.5 26.5t43.5 74.5h131q-14 -48 -38.5 -87t-60 -67.5t-82 -44t-103.5 -15.5q-59 0 -100.5 15.5t-66 42.5t-32.5 63t-1 76q8 46 30 80.5t51 62
t60.5 50.5t59.5 46t48 47.5t25 55.5h125zM441 514l-23 -129h-129l23 129h129z" />
    <glyph glyph-name="exclam" unicode="!" horiz-adv-x="343" 
d="M335 720l-109 -522h-123l75 522h157zM217 128l-22 -128h-129l21 128h130z" />
    <glyph glyph-name="exclamdown" unicode="&#xa1;" horiz-adv-x="343" 
d="M247 316l-75 -522h-157l108 522h124zM285 514l-22 -129h-131l24 129h129z" />
    <glyph glyph-name="parenleft" unicode="(" horiz-adv-x="386" 
d="M445 696q-72 -7 -128 -113.5t-91 -301.5q-35 -194 -12 -300.5t92 -112.5l-16 -90q-63 3 -111.5 39.5t-77.5 101.5t-36.5 156.5t12.5 205.5t58.5 206t89.5 157t111.5 101.5t124.5 39.5z" />
    <glyph glyph-name="parenright" unicode=")" horiz-adv-x="386" 
d="M103 785q63 -3 111.5 -39.5t78 -101.5t36.5 -156t-12 -205q-21 -114 -59.5 -206t-89.5 -157.5t-111 -102t-124 -39.5l15 90q72 6 128 113.5t91 301.5t12.5 300t-92.5 113l16 89v0z" />
    <glyph glyph-name="bracketleft" unicode="[" horiz-adv-x="375" 
d="M9 -222l169 997h260l-13 -80h-135l-140 -837h134l-15 -80h-260z" />
    <glyph glyph-name="bracketright" unicode="]" horiz-adv-x="375" 
d="M372 775l-169 -997h-260l14 80h133l140 837h-133l14 80h261z" />
    <glyph glyph-name="braceleft" unicode="{" horiz-adv-x="420" 
d="M462 696q-36 0 -59 -9.5t-37.5 -26t-22.5 -39t-13 -48.5q-6 -38 -6 -84.5t-7 -84.5q-9 -52 -37.5 -81.5t-72.5 -37.5q42 -9 60 -41t8 -87q-7 -38 -18.5 -83t-19.5 -82q-4 -27 -4 -49.5t8 -39.5t27.5 -26.5t54.5 -9.5l-23 -89q-66 0 -107 16.5t-63 43.5t-27.5 62t1.5 72
q3 16 7 36.5t8 42.5t8 42t7 34q8 48 -2 75t-46 27h-32l18 106h32q37 0 56 26.5t28 74.5q3 15 5 35t4 42t4 43t5 37q7 36 24.5 70.5t49 61.5t78.5 43.5t113 16.5z" />
    <glyph glyph-name="braceright" unicode="}" horiz-adv-x="420" 
d="M128 785q65 0 106.5 -16.5t63 -43.5t27 -62t-1.5 -72q-3 -16 -7 -36.5t-8 -42t-8 -41.5l-7 -35q-8 -48 1.5 -75t47.5 -27h31l-19 -106h-31q-37 0 -56.5 -26.5t-27.5 -74.5q-3 -15 -5 -35t-4 -42t-4 -42.5t-5 -36.5q-6 -37 -23.5 -71.5t-49 -61.5t-78.5 -43.5t-113 -16.5
l8 89q36 0 59 9.5t37.5 26t22 39t12.5 48.5q4 19 5.5 40.5t2 43.5t2 43.5t4.5 40.5q10 53 38.5 83t71.5 37q-42 9 -59.5 41t-8.5 87q7 37 18.5 83t18.5 82q5 27 5.5 49.5t-8 39.5t-27.5 26.5t-54 9.5z" />
    <glyph glyph-name="slash" unicode="/" horiz-adv-x="528" 
d="M602 735l-491 -735h-139l490 735h140z" />
    <glyph glyph-name="backslash" unicode="\" horiz-adv-x="496" 
d="M241 735l232 -735h-141l-231 735h140z" />
    <glyph glyph-name="asterisk" unicode="*" horiz-adv-x="514" 
d="M397 735l-32 -132l137 47l15 -100l-138 -32l66 -112l-97 -62l-51 116l-95 -116l-74 62l109 112l-130 32l50 100l119 -47l13 132h108z" />
    <glyph glyph-name="bullet" unicode="&#x2022;" horiz-adv-x="415" 
d="M188 133q-32 0 -57.5 12t-42.5 32.5t-24 48t-1 59.5t23 59.5t41 48t53.5 32.5t61.5 12q31 0 56.5 -12t42.5 -32.5t23.5 -48t0.5 -59.5q-5 -32 -21.5 -59.5t-40.5 -48t-54 -32.5t-61 -12z" />
    <glyph glyph-name="section" unicode="&#xa7;" horiz-adv-x="630" 
d="M401 730q63 0 109 -16.5t75.5 -45.5t42.5 -69.5t10 -88.5h-138q2 48 -25.5 77.5t-96.5 29.5q-31 0 -52 -5.5t-35 -15.5t-22 -24t-11 -30q-5 -29 21.5 -45t69 -28t91.5 -25t89 -36.5t62.5 -63t11.5 -103.5q-8 -45 -34 -81.5t-61 -62.5q15 -20 21 -46t0 -61
q-7 -41 -28.5 -75.5t-56.5 -59.5t-83 -39.5t-107 -14.5q-64 0 -110 16.5t-75.5 46t-42 70t-9.5 89.5h138q-2 -49 24.5 -79t95.5 -30q63 0 89 21.5t32 54.5q4 22 -11 36t-41.5 24.5t-61.5 18.5t-71 18.5t-69.5 25.5t-58 38.5t-36 57t-2.5 82.5q8 45 35 83t63 63
q-14 20 -19 45.5t1 59.5q7 40 28.5 74.5t57 59.5t83.5 39.5t107 14.5zM476 221q7 41 -18 64t-66.5 38t-91 27.5t-91.5 33.5q-14 -15 -24 -34t-13 -39q-5 -27 5 -46t30 -32.5t48.5 -23.5t59.5 -19t63.5 -18.5t60.5 -22.5q14 14 23.5 32.5t13.5 39.5z" />
    <glyph glyph-name="dagger" unicode="&#x2020;" horiz-adv-x="494" 
d="M415 735l-48 -164l167 20l-24 -132l-159 19l-10 -164h-132l49 164l-168 -19l24 132l160 -20l9 164h132z" />
    <glyph glyph-name="daggerdbl" unicode="&#x2021;" horiz-adv-x="526" 
d="M415 735l-48 -164l167 20l-24 -132l-159 19l-40 -221l168 19l-23 -131l-161 19l-9 -164h-132l48 164l-166 -19l22 131l161 -19l39 221l-168 -19l24 132l160 -20l9 164h132z" />
    <glyph glyph-name="paragraph" unicode="&#xb6;" horiz-adv-x="583" 
d="M569 525l-98 -557q-9 -50 -35 -87t-60.5 -61.5t-74.5 -36.5t-79 -12l19 107q18 0 34.5 3.5t29.5 12.5t22 25t14 43l8 38h-122q-57 0 -96.5 22t-63 59t-30.5 85t2 100q9 51 32.5 98t58.5 83t81.5 57t101.5 21h256z" />
    <glyph glyph-name="copyright" unicode="&#xa9;" horiz-adv-x="871" 
d="M504 660q-64 0 -118.5 -21.5t-96.5 -60.5t-70 -93t-40 -118q-11 -64 -2 -117.5t37.5 -92.5t75.5 -60.5t111 -21.5q66 0 121 21.5t97 60.5t69.5 92.5t38.5 117.5t2.5 117.5t-36.5 92.5t-75.5 61t-113.5 22zM520 745q81 0 147 -27t110 -76.5t62.5 -119.5t3.5 -155
q-15 -87 -58.5 -157t-105 -119t-137.5 -75.5t-156 -26.5q-78 0 -143.5 26.5t-109.5 75.5t-63 119t-4 157q15 88 59 158t106 119t137 75t152 26zM498 606q81 0 126.5 -46t42.5 -130h-118q2 35 -16 57.5t-55 22.5q-54 0 -84 -38.5t-41 -105.5q-13 -66 4 -104.5t70 -38.5
q37 0 63 22.5t38 57.5h117q-26 -84 -88 -130t-143 -46q-105 0 -151 63t-26 176q20 115 88 177.5t173 62.5z" />
    <glyph glyph-name="publish" horiz-adv-x="871" 
d="M504 660q-64 0 -118.5 -21.5t-96.5 -60.5t-70 -93t-40 -118q-11 -64 -2 -117.5t37.5 -92.5t75.5 -60.5t111 -21.5q66 0 121 21.5t97 60.5t69.5 92.5t38.5 117.5t2.5 117.5t-36.5 92.5t-75.5 61t-113.5 22zM520 745q81 0 147 -27t110 -76.5t62.5 -119.5t3.5 -155
q-15 -87 -58.5 -157t-105 -119t-137.5 -75.5t-156 -26.5q-78 0 -143.5 26.5t-109.5 75.5t-63 119t-4 157q15 88 59 158t106 119t137 75t152 26zM560 586q36 0 61 -11.5t40 -31t19.5 -45.5t-1.5 -56q-5 -31 -19 -58t-36 -47t-52 -31.5t-69 -11.5h-108l-24 -146h-106l77 438
h218zM409 367h86q34 0 53 19.5t25 52.5q5 30 -6.5 48t-46.5 18h-87z" />
    <glyph glyph-name="registered" unicode="&#xae;" horiz-adv-x="541" 
d="M343 695q-33 0 -63 -11t-54 -32t-41 -51.5t-24 -69.5q-13 -73 20 -118t105 -45q75 0 122.5 45.5t60.5 117.5q12 74 -19.5 119t-106.5 45zM353 745q47 0 85 -15t62.5 -43t34.5 -67.5t1 -88.5q-9 -50 -33.5 -89t-59 -67t-77.5 -42.5t-89 -14.5q-45 0 -82 14.5t-62.5 42
t-36 67t-1.5 89.5q9 49 33.5 89t59.5 67.5t77.5 42.5t87.5 15zM363 655q42 0 58 -18.5t11 -46.5q-5 -24 -21 -41t-42 -22q11 -2 19 -7.5t11.5 -18.5t3 -34.5t-6.5 -55.5h-61q6 32 7 51t-1.5 29t-9 13t-15.5 3h-38l-17 -96h-61l44 244h119zM285 549h43q20 0 28.5 8.5
t10.5 22.5t-3.5 20.5t-25.5 6.5h-42z" />
    <glyph glyph-name="trademark" unicode="&#x2122;" horiz-adv-x="824" 
d="M574 735l33 -229l113 229h125l-61 -347h-84l43 244l-121 -244h-72l-36 244l-43 -244h-82l48 278h-124l-49 -278h-86l48 278h-113l12 69h449z" />
    <glyph glyph-name="at" unicode="@" horiz-adv-x="903" 
d="M460 396q-33 0 -56.5 -17t-39.5 -44t-23.5 -59t-7.5 -62q0 -80 73 -80q33 0 58 16t42 41.5t25.5 56.5t8.5 61q0 45 -20.5 66t-59.5 21zM508 639q88 0 152 -24t105.5 -64.5t61.5 -94.5t20 -115q0 -60 -17.5 -115t-49.5 -97t-77.5 -67t-101.5 -25q-35 0 -59.5 15t-24.5 54
q0 8 0.5 15t2.5 18q-23 -48 -64.5 -70.5t-92.5 -22.5q-63 0 -104 40t-41 110q0 49 15 100.5t43.5 93.5t71 69t98.5 27q52 0 81 -26t37 -63l15 70h96l-55 -270q-3 -11 -4 -20t-1 -16q0 -16 6 -22t19 -6q20 0 39 16.5t33.5 44.5t23 65t8.5 78q0 45 -13 85t-42 69t-74.5 46
t-109.5 17q-85 0 -149.5 -30.5t-107.5 -80t-64.5 -112.5t-21.5 -129q0 -51 14.5 -93t43.5 -72t72 -46.5t100 -16.5q26 0 54 6.5t48 13.5l2 -91q-26 -9 -56 -15t-65 -6q-77 0 -136.5 24.5t-100 68t-61.5 103t-21 128.5q0 82 30.5 160t88.5 139t142 97.5t191 36.5z" />
    <glyph glyph-name="acute" unicode="&#xb4;" horiz-adv-x="332" 
d="M378 737l-185 -155h-92l141 171z" />
    <glyph glyph-name="grave" unicode="`" horiz-adv-x="332" 
d="M272 753l77 -171h-91l-128 155z" />
    <glyph glyph-name="caron" unicode="&#x2c7;" horiz-adv-x="463" 
d="M227 747l76 -84l110 84l91 -16l-152 -149h-123l-98 149z" />
    <glyph glyph-name="circumflex" unicode="&#x2c6;" horiz-adv-x="463" 
d="M381 741l97 -147l-96 -17l-76 84l-109 -84l-91 17l152 147h123z" />
    <glyph glyph-name="caron.alt" horiz-adv-x="215" 
d="M259 745l-81 -164h-66l30 164h117z" />
    <glyph glyph-name="breve" unicode="&#x2d8;" horiz-adv-x="373" 
d="M205 734q-5 -34 8.5 -53t47.5 -19q38 0 57 21.5t24 50.5l81 -9q-6 -34 -23 -60.5t-41 -45t-53 -28t-60 -9.5q-30 0 -55.5 9.5t-42.5 28t-24.5 45t-1.5 60.5z" />
    <glyph glyph-name="dieresis" unicode="&#xa8;" horiz-adv-x="429" 
d="M131 606l18 103h99l-18 -103h-99zM328 606l18 103h99l-18 -103h-99z" />
    <glyph glyph-name="dotaccent" unicode="&#x2d9;" horiz-adv-x="232" 
d="M116 606l21 118h128l-20 -118h-129z" />
    <glyph glyph-name="hungarumlaut" unicode="&#x2dd;" horiz-adv-x="479" 
d="M341 737l-156 -146h-73l125 162zM514 737l-155 -146h-73l125 162z" />
    <glyph glyph-name="macron" unicode="&#xaf;" horiz-adv-x="383" 
d="M116 601l15 86h279l-16 -86h-278z" />
    <glyph glyph-name="macron" unicode="&#x2c9;" horiz-adv-x="383" 
d="M116 601l15 86h279l-16 -86h-278z" />
    <glyph glyph-name="ring" unicode="&#x2da;" horiz-adv-x="362" 
d="M273 777q27 0 49.5 -7t38.5 -20.5t22.5 -33t2.5 -45.5q-5 -26 -19 -45.5t-34 -33t-45.5 -20t-52.5 -6.5q-26 0 -49 6.5t-38.5 20t-23 33t-2.5 45.5q4 26 18.5 45.5t35 33t45.5 20.5t52 7zM261 713q-24 0 -40 -12t-18 -29q-4 -22 9 -32t35 -10q49 0 57 40q4 21 -9.5 32
t-33.5 11z" />
    <glyph glyph-name="tilde" unicode="&#x2dc;" horiz-adv-x="455" 
d="M243 730q26 0 45 -9t34 -20.5t27.5 -20.5t26.5 -9q16 0 28 8t20 34l56 -9q-15 -55 -44.5 -86.5t-71.5 -31.5q-24 0 -42 9.5t-33.5 21.5t-30.5 21.5t-33 9.5q-37 0 -49 -48l-54 13q12 54 42.5 85.5t78.5 31.5z" />
    <glyph glyph-name="ogonek" unicode="&#x2db;" horiz-adv-x="281" 
d="M166 0q-28 -19 -47.5 -45.5t-24.5 -51.5q-6 -46 43 -46q5 0 11.5 0.5t11.5 1.5l-14 -84q-25 -5 -48 -5q-60 0 -89.5 28.5t-21.5 73.5q7 35 34.5 68.5t73.5 59.5h71z" />
    <glyph glyph-name="cedilla" unicode="&#xb8;" horiz-adv-x="372" 
d="M179 0l-51 -58q8 2 17 2.5t17 0.5q46 0 72.5 -21.5t18.5 -62.5q-5 -26 -20 -46t-38 -33.5t-51.5 -21t-58.5 -7.5q-35 0 -65 9.5t-47 29.5l46 45q8 -11 27 -18t41 -7q28 0 44.5 11t20.5 30q4 21 -13.5 34t-61.5 13q-12 0 -26.5 -1.5t-31.5 -3.5l78 105h82z" />
    <glyph glyph-name="commaaccent" unicode="&#xf6c3;" horiz-adv-x="244" 
d="M141 -43l-12 -66q-9 -56 -48 -90.5t-90 -57.5l-10 45q36 12 54.5 32t23.5 49h-50l15 88h117z" />
    <glyph glyph-name="acute.case" horiz-adv-x="332" 
d="M408 908l-189 -149h-86l153 163z" />
    <glyph glyph-name="grave.case" horiz-adv-x="332" 
d="M287 922l95 -163h-85l-138 149z" />
    <glyph glyph-name="caron.case" horiz-adv-x="463" 
d="M251 922l85 -83l115 83l84 -14l-157 -149h-109l-106 149z" />
    <glyph glyph-name="circumflex.case" horiz-adv-x="463" 
d="M422 759l-84 85l-115 -85l-83 15l157 148h109l105 -148z" />
    <glyph glyph-name="breve.case" horiz-adv-x="373" 
d="M231 900q-5 -31 11 -47t50 -16q38 0 58 17.5t25 45.5l69 -8q-6 -30 -21 -54t-37 -40.5t-49.5 -25.5t-57.5 -9q-61 0 -95.5 34t-23.5 95z" />
    <glyph glyph-name="dieresis.case" horiz-adv-x="429" 
d="M154 785l18 98h100l-18 -98h-100zM366 785l18 98h99l-18 -98h-99z" />
    <glyph glyph-name="dotaccent.case" horiz-adv-x="232" 
d="M148 785l19 105h127l-19 -105h-127z" />
    <glyph glyph-name="hungarumlaut.case" horiz-adv-x="479" 
d="M363 908l-152 -141h-72l120 155zM551 908l-152 -141h-73l122 155z" />
    <glyph glyph-name="macron.case" horiz-adv-x="383" 
d="M147 779l14 78h277l-12 -78h-279z" />
    <glyph glyph-name="ring.case" horiz-adv-x="362" 
d="M302 930q54 0 87 -23.5t25 -69.5q-4 -23 -17 -40.5t-32.5 -28.5t-43.5 -16.5t-51 -5.5t-49 5.5t-37.5 16.5t-22.5 28.5t-3 40.5q8 46 49 69.5t95 23.5zM292 876q-26 0 -42.5 -11t-20.5 -28q-4 -23 11 -31.5t38 -8.5q26 0 42.5 10t19.5 30t-11.5 29.5t-36.5 9.5z" />
    <glyph glyph-name="tilde.case" horiz-adv-x="455" 
d="M272 897q26 0 45.5 -8.5t34.5 -18.5t27.5 -18.5t26.5 -8.5q16 0 28 7.5t20 32.5l57 -9q-15 -51 -44 -79.5t-71 -28.5q-24 0 -42 9t-33.5 20t-31 20t-33.5 9t-30.5 -10.5t-17.5 -34.5l-55 13q11 48 41 76.5t78 28.5z" />
    <glyph glyph-name="arrowleft" unicode="&#x2190;" horiz-adv-x="737" 
d="M405 617l64 -80l-175 -150h416l-19 -112h-418l124 -150l-94 -80l-235 285z" />
    <glyph glyph-name="arrowright" unicode="&#x2192;" horiz-adv-x="737" 
d="M700 330l-336 -285l-66 80l177 149h-417l21 113h416l-124 150l95 80z" />
    <glyph glyph-name="arrowup" unicode="&#x2191;" horiz-adv-x="676" 
d="M643 347l-94 -80l-123 149l-73 -416h-113l73 416l-177 -149l-66 80l337 285z" />
    <glyph glyph-name="arrowdown" unicode="&#x2193;" horiz-adv-x="676" 
d="M456 588l-74 -417l176 151l66 -80l-336 -286l-235 286l93 80l123 -150l74 416h113z" />
    <glyph glyph-name="arrowupleft" unicode="&#x2196;" horiz-adv-x="626" 
d="M138 525h404l-20 -113h-213l243 -295l-93 -79l-243 295l-38 -212h-112z" />
    <glyph glyph-name="arrowupright" unicode="&#x2197;" horiz-adv-x="626" 
d="M517 121h-113l38 212l-346 -295l-66 79l347 295h-212l20 113h404z" />
    <glyph glyph-name="arrowdownleft" unicode="&#x2199;" horiz-adv-x="626" 
d="M117 404h112l-38 -212l347 295l66 -80l-348 -295h212l-19 -112h-403z" />
    <glyph glyph-name="arrowdownright" unicode="&#x2198;" horiz-adv-x="626" 
d="M496 0h-404l19 112h213l-242 295l92 80l243 -295l37 212h113z" />
    <glyph glyph-name="afii00208" unicode="&#x2015;" horiz-adv-x="1038" 
d="M60 274l20 113h931l-21 -113h-930z" />
    <glyph glyph-name="Aacute" unicode="&#xc1;" horiz-adv-x="690" 
d="M529 720l117 -720h-158l-27 185h-270l-92 -185h-151l372 720h209zM405 627q-10 -23 -23.5 -54t-24.5 -54l-114 -224h203l-33 226q-3 23 -5 53t-3 53zM619 908l-189 -149h-86l153 163z" />
    <glyph glyph-name="Abreve" unicode="&#x102;" horiz-adv-x="690" 
d="M529 720l117 -720h-158l-27 185h-270l-92 -185h-151l372 720h209zM405 627q-10 -23 -23.5 -54t-24.5 -54l-114 -224h203l-33 226q-3 23 -5 53t-3 53zM383 900q-5 -31 11 -47t50 -16q38 0 58 17.5t25 45.5l69 -8q-6 -30 -21 -54t-37 -40.5t-49.5 -25.5t-57.5 -9
q-61 0 -95.5 34t-23.5 95z" />
    <glyph glyph-name="Acircumflex" unicode="&#xc2;" horiz-adv-x="690" 
d="M529 720l117 -720h-158l-27 185h-270l-92 -185h-151l372 720h209zM405 627q-10 -23 -23.5 -54t-24.5 -54l-114 -224h203l-33 226q-3 23 -5 53t-3 53zM530 759l-84 85l-115 -85l-83 15l157 148h109l105 -148z" />
    <glyph glyph-name="Adieresis" unicode="&#xc4;" horiz-adv-x="690" 
d="M529 720l117 -720h-158l-27 185h-270l-92 -185h-151l372 720h209zM405 627q-10 -23 -23.5 -54t-24.5 -54l-114 -224h203l-33 226q-3 23 -5 53t-3 53zM279 785l18 98h100l-18 -98h-100zM491 785l18 98h99l-18 -98h-99z" />
    <glyph glyph-name="Agrave" unicode="&#xc0;" horiz-adv-x="690" 
d="M529 720l117 -720h-158l-27 185h-270l-92 -185h-151l372 720h209zM405 627q-10 -23 -23.5 -54t-24.5 -54l-114 -224h203l-33 226q-3 23 -5 53t-3 53zM429 922l95 -163h-85l-138 149z" />
    <glyph glyph-name="Amacron" unicode="&#x100;" horiz-adv-x="690" 
d="M529 720l117 -720h-158l-27 185h-270l-92 -185h-151l372 720h209zM405 627q-10 -23 -23.5 -54t-24.5 -54l-114 -224h203l-33 226q-3 23 -5 53t-3 53zM295 779l14 78h277l-12 -78h-279z" />
    <glyph glyph-name="Aogonek" unicode="&#x104;" horiz-adv-x="690" 
d="M488 0l-27 185h-270l-92 -185h-151l372 720h209l117 -720h-34q-28 -19 -47.5 -45.5t-24.5 -51.5q-6 -46 43 -46q5 0 11.5 0.5t11.5 1.5l-14 -84q-25 -5 -48 -5q-60 0 -89.5 28.5t-21.5 73.5q7 35 34.5 68.5t73.5 59.5h-53zM405 627q-10 -23 -23.5 -54t-24.5 -54
l-114 -224h203l-33 226q-3 23 -5 53t-3 53z" />
    <glyph glyph-name="Aring" unicode="&#xc5;" horiz-adv-x="690" 
d="M529 720l117 -720h-158l-27 185h-270l-92 -185h-151l372 720h209zM405 627q-10 -23 -23.5 -54t-24.5 -54l-114 -224h203l-33 226q-3 23 -5 53t-3 53zM460 930q54 0 87 -23.5t25 -69.5q-4 -23 -17 -40.5t-32.5 -28.5t-43.5 -16.5t-51 -5.5t-49 5.5t-37.5 16.5t-22.5 28.5
t-3 40.5q8 46 49 69.5t95 23.5zM450 876q-26 0 -42.5 -11t-20.5 -28q-4 -23 11 -31.5t38 -8.5q26 0 42.5 10t19.5 30t-11.5 29.5t-36.5 9.5z" />
    <glyph glyph-name="Atilde" unicode="&#xc3;" horiz-adv-x="690" 
d="M529 720l117 -720h-158l-27 185h-270l-92 -185h-151l372 720h209zM405 627q-10 -23 -23.5 -54t-24.5 -54l-114 -224h203l-33 226q-3 23 -5 53t-3 53zM384 897q26 0 45.5 -8.5t34.5 -18.5t27.5 -18.5t26.5 -8.5q16 0 28 7.5t20 32.5l57 -9q-15 -51 -44 -79.5t-71 -28.5
q-24 0 -42 9t-33.5 20t-31 20t-33.5 9t-30.5 -10.5t-17.5 -34.5l-55 13q11 48 41 76.5t78 28.5z" />
    <glyph glyph-name="Cacute" unicode="&#x106;" horiz-adv-x="748" 
d="M702 231q-15 -54 -47 -98.5t-77 -76.5t-102 -49.5t-122 -17.5q-79 0 -137.5 28.5t-94 78.5t-47.5 117.5t2 146.5q14 78 50 146t89 117.5t121 78t148 28.5q65 0 115.5 -17.5t84.5 -49.5t50 -76.5t12 -98.5h-147q1 55 -34 86t-104 31q-48 0 -86.5 -18t-67.5 -50t-48 -77.5
t-29 -99.5q-9 -54 -6 -99t20.5 -77t50 -50t80.5 -18q69 0 114 30.5t65 84.5h147zM669 908l-189 -149h-86l153 163z" />
    <glyph glyph-name="Ccaron" unicode="&#x10c;" horiz-adv-x="748" 
d="M702 231q-15 -54 -47 -98.5t-77 -76.5t-102 -49.5t-122 -17.5q-79 0 -137.5 28.5t-94 78.5t-47.5 117.5t2 146.5q14 78 50 146t89 117.5t121 78t148 28.5q65 0 115.5 -17.5t84.5 -49.5t50 -76.5t12 -98.5h-147q1 55 -34 86t-104 31q-48 0 -86.5 -18t-67.5 -50t-48 -77.5
t-29 -99.5q-9 -54 -6 -99t20.5 -77t50 -50t80.5 -18q69 0 114 30.5t65 84.5h147zM428 922l85 -83l115 83l84 -14l-157 -149h-109l-106 149z" />
    <glyph glyph-name="Ccircumflex" unicode="&#x108;" horiz-adv-x="748" 
d="M702 231q-15 -54 -47 -98.5t-77 -76.5t-102 -49.5t-122 -17.5q-79 0 -137.5 28.5t-94 78.5t-47.5 117.5t2 146.5q14 78 50 146t89 117.5t121 78t148 28.5q65 0 115.5 -17.5t84.5 -49.5t50 -76.5t12 -98.5h-147q1 55 -34 86t-104 31q-48 0 -86.5 -18t-67.5 -50t-48 -77.5
t-29 -99.5q-9 -54 -6 -99t20.5 -77t50 -50t80.5 -18q69 0 114 30.5t65 84.5h147zM597 759l-84 85l-115 -85l-83 15l157 148h109l105 -148z" />
    <glyph glyph-name="Cdotaccent" unicode="&#x10a;" horiz-adv-x="748" 
d="M702 231q-15 -54 -47 -98.5t-77 -76.5t-102 -49.5t-122 -17.5q-79 0 -137.5 28.5t-94 78.5t-47.5 117.5t2 146.5q14 78 50 146t89 117.5t121 78t148 28.5q65 0 115.5 -17.5t84.5 -49.5t50 -76.5t12 -98.5h-147q1 55 -34 86t-104 31q-48 0 -86.5 -18t-67.5 -50t-48 -77.5
t-29 -99.5q-9 -54 -6 -99t20.5 -77t50 -50t80.5 -18q69 0 114 30.5t65 84.5h147zM439 785l19 105h127l-19 -105h-127z" />
    <glyph glyph-name="Ccedilla" unicode="&#xc7;" horiz-adv-x="748" 
d="M702 231q-14 -50 -43 -92.5t-69.5 -74t-91.5 -51t-110 -23.5l-42 -48q8 2 17 2.5t17 0.5q46 0 72.5 -21.5t18.5 -62.5q-5 -26 -20 -46t-38 -33.5t-51.5 -21t-58.5 -7.5q-35 0 -65 9.5t-47 29.5l46 45q8 -11 27 -18t41 -7q28 0 44.5 11t20.5 30q4 21 -13.5 34t-61.5 13
q-12 0 -26.5 -1.5t-31.5 -3.5l71 97q-68 8 -117 39t-78.5 79.5t-39 112.5t3.5 137q14 78 50 146t89 117.5t121 78t148 28.5q65 0 115.5 -17.5t84.5 -49.5t50 -76.5t12 -98.5h-147q1 55 -34 86t-104 31q-48 0 -86.5 -18t-67.5 -50t-48 -77.5t-29 -99.5q-9 -54 -6 -99
t20.5 -77t50 -50t80.5 -18q69 0 114 30.5t65 84.5h147z" />
    <glyph glyph-name="Dcroat" unicode="&#x110;" horiz-adv-x="773" 
d="M41 0l60 343h-49l15 86h49l52 291h310q72 0 125 -24.5t85 -70.5t41.5 -112t-5.5 -150q-14 -84 -46.5 -151t-79.5 -114t-107.5 -72.5t-131.5 -25.5h-318zM346 113q94 0 150 59.5t78 188.5q23 129 -14 188t-131 59h-138l-32 -179h87l-16 -86h-86l-40 -230h142z" />
    <glyph glyph-name="Dcaron" unicode="&#x10e;" horiz-adv-x="773" 
d="M41 0l127 720h310q72 0 125 -24.5t85 -70.5t41.5 -112t-5.5 -150q-14 -84 -46.5 -151t-79.5 -114t-107.5 -72.5t-131.5 -25.5h-318zM346 113q94 0 150 59.5t78 188.5q23 129 -14 188t-131 59h-138l-87 -495h142zM370 922l85 -83l115 83l84 -14l-157 -149h-109l-106 149z
" />
    <glyph glyph-name="Eacute" unicode="&#xc9;" horiz-adv-x="636" 
d="M41 0l127 720h492l-20 -112h-349l-32 -181h286l-20 -109h-285l-36 -205h357l-21 -113h-499zM637 908l-189 -149h-86l153 163z" />
    <glyph glyph-name="Ebreve" unicode="&#x114;" horiz-adv-x="636" 
d="M41 0l127 720h492l-20 -112h-349l-32 -181h286l-20 -109h-285l-36 -205h357l-21 -113h-499zM391 900q-5 -31 11 -47t50 -16q38 0 58 17.5t25 45.5l69 -8q-6 -30 -21 -54t-37 -40.5t-49.5 -25.5t-57.5 -9q-61 0 -95.5 34t-23.5 95z" />
    <glyph glyph-name="Ecaron" unicode="&#x11a;" horiz-adv-x="636" 
d="M41 0l127 720h492l-20 -112h-349l-32 -181h286l-20 -109h-285l-36 -205h357l-21 -113h-499zM372 922l85 -83l115 83l84 -14l-157 -149h-109l-106 149z" />
    <glyph glyph-name="Ecircumflex" unicode="&#xca;" horiz-adv-x="636" 
d="M41 0l127 720h492l-20 -112h-349l-32 -181h286l-20 -109h-285l-36 -205h357l-21 -113h-499zM539 759l-84 85l-115 -85l-83 15l157 148h109l105 -148z" />
    <glyph glyph-name="Edieresis" unicode="&#xcb;" horiz-adv-x="636" 
d="M41 0l127 720h492l-20 -112h-349l-32 -181h286l-20 -109h-285l-36 -205h357l-21 -113h-499zM288 785l18 98h100l-18 -98h-100zM500 785l18 98h99l-18 -98h-99z" />
    <glyph glyph-name="Edotaccent" unicode="&#x116;" horiz-adv-x="636" 
d="M41 0l127 720h492l-20 -112h-349l-32 -181h286l-20 -109h-285l-36 -205h357l-21 -113h-499zM380 785l19 105h127l-19 -105h-127z" />
    <glyph glyph-name="Egrave" unicode="&#xc8;" horiz-adv-x="636" 
d="M41 0l127 720h492l-20 -112h-349l-32 -181h286l-20 -109h-285l-36 -205h357l-21 -113h-499zM423 922l95 -163h-85l-138 149z" />
    <glyph glyph-name="Emacron" unicode="&#x112;" horiz-adv-x="636" 
d="M41 0l127 720h492l-20 -112h-349l-32 -181h286l-20 -109h-285l-36 -205h357l-21 -113h-499zM300 779l14 78h277l-12 -78h-279z" />
    <glyph glyph-name="Eogonek" unicode="&#x118;" horiz-adv-x="636" 
d="M41 0l127 720h492l-20 -112h-349l-32 -181h286l-20 -109h-285l-36 -205h357l-21 -113h-28q-28 -19 -47.5 -45.5t-24.5 -51.5q-6 -46 43 -46q5 0 11.5 0.5t11.5 1.5l-14 -84q-25 -5 -48 -5q-60 0 -89.5 28.5t-21.5 73.5q7 35 34.5 68.5t73.5 59.5h-400z" />
    <glyph glyph-name="Gbreve" unicode="&#x11e;" horiz-adv-x="805" 
d="M488 730q65 0 115 -17.5t83.5 -49t49 -76t11.5 -98.5h-146q1 55 -34 85.5t-104 30.5q-48 0 -87 -18t-68 -50t-48 -77.5t-29 -99.5q-20 -116 13 -181t128 -65q78 0 132 44t69 130h-178l19 106h321l-69 -394h-136l23 131q-15 -29 -35.5 -54.5t-48.5 -45t-64.5 -31
t-84.5 -11.5q-57 0 -108 23.5t-86.5 70t-50 116t1.5 161.5q14 78 50.5 146t90 117.5t122 78t148.5 28.5zM449 900q-5 -31 11 -47t50 -16q38 0 58 17.5t25 45.5l69 -8q-6 -30 -21 -54t-37 -40.5t-49.5 -25.5t-57.5 -9q-61 0 -95.5 34t-23.5 95z" />
    <glyph glyph-name="Gcircumflex" unicode="&#x11c;" horiz-adv-x="805" 
d="M488 730q65 0 115 -17.5t83.5 -49t49 -76t11.5 -98.5h-146q1 55 -34 85.5t-104 30.5q-48 0 -87 -18t-68 -50t-48 -77.5t-29 -99.5q-20 -116 13 -181t128 -65q78 0 132 44t69 130h-178l19 106h321l-69 -394h-136l23 131q-15 -29 -35.5 -54.5t-48.5 -45t-64.5 -31
t-84.5 -11.5q-57 0 -108 23.5t-86.5 70t-50 116t1.5 161.5q14 78 50.5 146t90 117.5t122 78t148.5 28.5zM594 759l-84 85l-115 -85l-83 15l157 148h109l105 -148z" />
    <glyph glyph-name="Gcommaaccent" unicode="&#x122;" horiz-adv-x="805" 
d="M488 730q65 0 115 -17.5t83.5 -49t49 -76t11.5 -98.5h-146q1 55 -34 85.5t-104 30.5q-48 0 -87 -18t-68 -50t-48 -77.5t-29 -99.5q-20 -116 13 -181t128 -65q78 0 132 44t69 130h-178l19 106h321l-69 -394h-136l23 131q-15 -29 -35.5 -54.5t-48.5 -45t-64.5 -31
t-84.5 -11.5q-57 0 -108 23.5t-86.5 70t-50 116t1.5 161.5q14 78 50.5 146t90 117.5t122 78t148.5 28.5zM413 -43l-12 -66q-9 -56 -48 -90.5t-90 -57.5l-10 45q36 12 54.5 32t23.5 49h-50l15 88h117z" />
    <glyph glyph-name="Gdotaccent" unicode="&#x120;" horiz-adv-x="805" 
d="M488 730q65 0 115 -17.5t83.5 -49t49 -76t11.5 -98.5h-146q1 55 -34 85.5t-104 30.5q-48 0 -87 -18t-68 -50t-48 -77.5t-29 -99.5q-20 -116 13 -181t128 -65q78 0 132 44t69 130h-178l19 106h321l-69 -394h-136l23 131q-15 -29 -35.5 -54.5t-48.5 -45t-64.5 -31
t-84.5 -11.5q-57 0 -108 23.5t-86.5 70t-50 116t1.5 161.5q14 78 50.5 146t90 117.5t122 78t148.5 28.5zM429 785l19 105h127l-19 -105h-127z" />
    <glyph glyph-name="Hcircumflex" unicode="&#x124;" horiz-adv-x="744" 
d="M463 0l55 317h-278l-56 -317h-143l127 720h143l-52 -292h279l51 292h142l-126 -720h-142zM560 759l-84 85l-115 -85l-83 15l157 148h109l105 -148z" />
    <glyph glyph-name="Hbar" unicode="&#x126;" horiz-adv-x="744" 
d="M463 0l55 317h-278l-56 -317h-143l97 550h-57l14 84h58l15 86h143l-16 -86h279l15 86h142l-15 -86h64l-15 -84h-64l-96 -550h-142zM538 428l21 122h-279l-21 -122h279z" />
    <glyph glyph-name="Iacute" unicode="&#xcd;" horiz-adv-x="314" 
d="M41 0l127 720h143l-127 -720h-143zM440 908l-189 -149h-86l153 163z" />
    <glyph glyph-name="Ibreve" unicode="&#x12c;" horiz-adv-x="314" 
d="M41 0l127 720h143l-127 -720h-143zM202 900q-5 -31 11 -47t50 -16q38 0 58 17.5t25 45.5l69 -8q-6 -30 -21 -54t-37 -40.5t-49.5 -25.5t-57.5 -9q-61 0 -95.5 34t-23.5 95z" />
    <glyph glyph-name="Icircumflex" unicode="&#xce;" horiz-adv-x="314" 
d="M41 0l127 720h143l-127 -720h-143zM349 759l-84 85l-115 -85l-83 15l157 148h109l105 -148z" />
    <glyph glyph-name="Idieresis" unicode="&#xcf;" horiz-adv-x="314" 
d="M41 0l127 720h143l-127 -720h-143zM97 785l18 98h100l-18 -98h-100zM309 785l18 98h99l-18 -98h-99z" />
    <glyph glyph-name="Idotaccent" unicode="&#x130;" horiz-adv-x="314" 
d="M41 0l127 720h143l-127 -720h-143zM188 785l19 105h127l-19 -105h-127z" />
    <glyph glyph-name="Igrave" unicode="&#xcc;" horiz-adv-x="314" 
d="M41 0l127 720h143l-127 -720h-143zM230 922l95 -163h-85l-138 149z" />
    <glyph glyph-name="Imacron" unicode="&#x12a;" horiz-adv-x="314" 
d="M41 0l127 720h143l-127 -720h-143zM112 779l14 78h277l-12 -78h-279z" />
    <glyph glyph-name="Iogonek" unicode="&#x12e;" horiz-adv-x="314" 
d="M41 0l127 720h143l-127 -720h-8q-28 -19 -47.5 -45.5t-24.5 -51.5q-6 -46 43 -46q5 0 11.5 0.5t11.5 1.5l-14 -84q-25 -5 -48 -5q-60 0 -89.5 28.5t-21.5 73.5q7 35 34.5 68.5t73.5 59.5h-64z" />
    <glyph glyph-name="Itilde" unicode="&#x128;" horiz-adv-x="314" 
d="M41 0l127 720h143l-127 -720h-143zM201 897q26 0 45.5 -8.5t34.5 -18.5t27.5 -18.5t26.5 -8.5q16 0 28 7.5t20 32.5l57 -9q-15 -51 -44 -79.5t-71 -28.5q-24 0 -42 9t-33.5 20t-31 20t-33.5 9t-30.5 -10.5t-17.5 -34.5l-55 13q11 48 41 76.5t78 28.5z" />
    <glyph glyph-name="Jcircumflex" unicode="&#x134;" horiz-adv-x="597" 
d="M592 720l-88 -499q-10 -54 -36.5 -97t-66 -73t-91 -46t-111.5 -16q-106 0 -160 58.5t-49 155.5h149q-2 -18 1 -34t13 -29t27.5 -20.5t44.5 -7.5q63 0 94 26.5t40 80.5l89 501h144zM629 759l-84 85l-115 -85l-83 15l157 148h109l105 -148z" />
    <glyph glyph-name="Kcommaaccent" unicode="&#x136;" horiz-adv-x="707" 
d="M41 0l127 720h143l-127 -720h-143zM474 0l-217 378l327 342h168l-329 -333l223 -387h-172zM368 -43l-12 -66q-9 -56 -48 -90.5t-90 -57.5l-10 45q36 12 54.5 32t23.5 49h-50l15 88h117z" />
    <glyph glyph-name="Lacute" unicode="&#x139;" horiz-adv-x="573" 
d="M41 0l127 720h143l-107 -607h326l-19 -113h-470zM472 908l-189 -149h-86l153 163z" />
    <glyph glyph-name="Lcaron" unicode="&#x13d;" horiz-adv-x="573" 
d="M41 0l127 720h143l-107 -607h326l-19 -113h-470zM501 745l-81 -164h-66l30 164h117z" />
    <glyph glyph-name="Lcommaaccent" unicode="&#x13b;" horiz-adv-x="573" 
d="M41 0l127 720h143l-107 -607h326l-19 -113h-470zM332 -43l-12 -66q-9 -56 -48 -90.5t-90 -57.5l-10 45q36 12 54.5 32t23.5 49h-50l15 88h117z" />
    <glyph glyph-name="Lslash" unicode="&#x141;" horiz-adv-x="573" 
d="M41 0l35 201l-37 -32l-55 66l116 98l68 387h143l-43 -244l101 86l54 -66l-178 -152l-41 -231h326l-19 -113h-470z" />
    <glyph glyph-name="Nacute" unicode="&#x143;" horiz-adv-x="761" 
d="M369 720l133 -469q5 -16 8.5 -41t3.5 -48q1 9 2.5 22t3.5 26.5t4 26.5t4 22l81 461h140l-127 -720h-185l-141 507q-5 15 -7.5 41t-4.5 46q-1 -8 -2.5 -20.5l-3 -25t-3 -24.5t-2.5 -19l-89 -505h-143l127 720h201zM660 908l-189 -149h-86l153 163z" />
    <glyph glyph-name="Ncaron" unicode="&#x147;" horiz-adv-x="761" 
d="M369 720l133 -469q5 -16 8.5 -41t3.5 -48q1 9 2.5 22t3.5 26.5t4 26.5t4 22l81 461h140l-127 -720h-185l-141 507q-5 15 -7.5 41t-4.5 46q-1 -8 -2.5 -20.5l-3 -25t-3 -24.5t-2.5 -19l-89 -505h-143l127 720h201zM396 922l85 -83l115 83l84 -14l-157 -149h-109l-106 149z
" />
    <glyph glyph-name="Ncommaaccent" unicode="&#x145;" horiz-adv-x="761" 
d="M369 720l133 -469q5 -16 8.5 -41t3.5 -48q1 9 2.5 22t3.5 26.5t4 26.5t4 22l81 461h140l-127 -720h-185l-141 507q-5 15 -7.5 41t-4.5 46q-1 -8 -2.5 -20.5l-3 -25t-3 -24.5t-2.5 -19l-89 -505h-143l127 720h201zM407 -43l-12 -66q-9 -56 -48 -90.5t-90 -57.5l-10 45
q36 12 54.5 32t23.5 49h-50l15 88h117z" />
    <glyph glyph-name="Ntilde" unicode="&#xd1;" horiz-adv-x="761" 
d="M369 720l133 -469q5 -16 8.5 -41t3.5 -48q1 9 2.5 22t3.5 26.5t4 26.5t4 22l81 461h140l-127 -720h-185l-141 507q-5 15 -7.5 41t-4.5 46q-1 -8 -2.5 -20.5l-3 -25t-3 -24.5t-2.5 -19l-89 -505h-143l127 720h201zM420 897q26 0 45.5 -8.5t34.5 -18.5t27.5 -18.5
t26.5 -8.5q16 0 28 7.5t20 32.5l57 -9q-15 -51 -44 -79.5t-71 -28.5q-24 0 -42 9t-33.5 20t-31 20t-33.5 9t-30.5 -10.5t-17.5 -34.5l-55 13q11 48 41 76.5t78 28.5z" />
    <glyph glyph-name="Oacute" unicode="&#xd3;" horiz-adv-x="809" 
d="M462 605q-49 0 -87.5 -18t-67 -50t-47.5 -77.5t-29 -99.5q-9 -54 -6 -99t20 -77t49.5 -50t80.5 -18t86.5 18t67.5 50t48 77t28 99t6 99.5t-20 77.5t-49 50t-80 18zM484 730q79 0 137 -28.5t93.5 -78t47 -117.5t-2.5 -146q-14 -79 -49.5 -146.5t-88.5 -117.5t-120.5 -78.5
t-146.5 -28.5q-80 0 -138 28.5t-93.5 78.5t-47.5 117.5t2 146.5q14 78 49.5 146t88.5 117.5t121 78t148 28.5zM667 908l-189 -149h-86l153 163z" />
    <glyph glyph-name="Obreve" unicode="&#x14e;" horiz-adv-x="809" 
d="M462 605q-49 0 -87.5 -18t-67 -50t-47.5 -77.5t-29 -99.5q-9 -54 -6 -99t20 -77t49.5 -50t80.5 -18t86.5 18t67.5 50t48 77t28 99t6 99.5t-20 77.5t-49 50t-80 18zM484 730q79 0 137 -28.5t93.5 -78t47 -117.5t-2.5 -146q-14 -79 -49.5 -146.5t-88.5 -117.5t-120.5 -78.5
t-146.5 -28.5q-80 0 -138 28.5t-93.5 78.5t-47.5 117.5t2 146.5q14 78 49.5 146t88.5 117.5t121 78t148 28.5zM448 900q-5 -31 11 -47t50 -16q38 0 58 17.5t25 45.5l69 -8q-6 -30 -21 -54t-37 -40.5t-49.5 -25.5t-57.5 -9q-61 0 -95.5 34t-23.5 95z" />
    <glyph glyph-name="Ocircumflex" unicode="&#xd4;" horiz-adv-x="809" 
d="M462 605q-49 0 -87.5 -18t-67 -50t-47.5 -77.5t-29 -99.5q-9 -54 -6 -99t20 -77t49.5 -50t80.5 -18t86.5 18t67.5 50t48 77t28 99t6 99.5t-20 77.5t-49 50t-80 18zM484 730q79 0 137 -28.5t93.5 -78t47 -117.5t-2.5 -146q-14 -79 -49.5 -146.5t-88.5 -117.5t-120.5 -78.5
t-146.5 -28.5q-80 0 -138 28.5t-93.5 78.5t-47.5 117.5t2 146.5q14 78 49.5 146t88.5 117.5t121 78t148 28.5zM595 759l-84 85l-115 -85l-83 15l157 148h109l105 -148z" />
    <glyph glyph-name="Odieresis" unicode="&#xd6;" horiz-adv-x="809" 
d="M462 605q-49 0 -87.5 -18t-67 -50t-47.5 -77.5t-29 -99.5q-9 -54 -6 -99t20 -77t49.5 -50t80.5 -18t86.5 18t67.5 50t48 77t28 99t6 99.5t-20 77.5t-49 50t-80 18zM484 730q79 0 137 -28.5t93.5 -78t47 -117.5t-2.5 -146q-14 -79 -49.5 -146.5t-88.5 -117.5t-120.5 -78.5
t-146.5 -28.5q-80 0 -138 28.5t-93.5 78.5t-47.5 117.5t2 146.5q14 78 49.5 146t88.5 117.5t121 78t148 28.5zM344 785l18 98h100l-18 -98h-100zM556 785l18 98h99l-18 -98h-99z" />
    <glyph glyph-name="Ograve" unicode="&#xd2;" horiz-adv-x="809" 
d="M462 605q-49 0 -87.5 -18t-67 -50t-47.5 -77.5t-29 -99.5q-9 -54 -6 -99t20 -77t49.5 -50t80.5 -18t86.5 18t67.5 50t48 77t28 99t6 99.5t-20 77.5t-49 50t-80 18zM484 730q79 0 137 -28.5t93.5 -78t47 -117.5t-2.5 -146q-14 -79 -49.5 -146.5t-88.5 -117.5t-120.5 -78.5
t-146.5 -28.5q-80 0 -138 28.5t-93.5 78.5t-47.5 117.5t2 146.5q14 78 49.5 146t88.5 117.5t121 78t148 28.5zM501 922l95 -163h-85l-138 149z" />
    <glyph glyph-name="Ohungarumlaut" unicode="&#x150;" horiz-adv-x="809" 
d="M462 605q-49 0 -87.5 -18t-67 -50t-47.5 -77.5t-29 -99.5q-9 -54 -6 -99t20 -77t49.5 -50t80.5 -18t86.5 18t67.5 50t48 77t28 99t6 99.5t-20 77.5t-49 50t-80 18zM484 730q79 0 137 -28.5t93.5 -78t47 -117.5t-2.5 -146q-14 -79 -49.5 -146.5t-88.5 -117.5t-120.5 -78.5
t-146.5 -28.5q-80 0 -138 28.5t-93.5 78.5t-47.5 117.5t2 146.5q14 78 49.5 146t88.5 117.5t121 78t148 28.5zM557 908l-152 -141h-72l120 155zM745 908l-152 -141h-73l122 155z" />
    <glyph glyph-name="Omacron" unicode="&#x14c;" horiz-adv-x="809" 
d="M462 605q-49 0 -87.5 -18t-67 -50t-47.5 -77.5t-29 -99.5q-9 -54 -6 -99t20 -77t49.5 -50t80.5 -18t86.5 18t67.5 50t48 77t28 99t6 99.5t-20 77.5t-49 50t-80 18zM484 730q79 0 137 -28.5t93.5 -78t47 -117.5t-2.5 -146q-14 -79 -49.5 -146.5t-88.5 -117.5t-120.5 -78.5
t-146.5 -28.5q-80 0 -138 28.5t-93.5 78.5t-47.5 117.5t2 146.5q14 78 49.5 146t88.5 117.5t121 78t148 28.5zM359 779l14 78h277l-12 -78h-279z" />
    <glyph glyph-name="Otilde" unicode="&#xd5;" horiz-adv-x="809" 
d="M462 605q-49 0 -87.5 -18t-67 -50t-47.5 -77.5t-29 -99.5q-9 -54 -6 -99t20 -77t49.5 -50t80.5 -18t86.5 18t67.5 50t48 77t28 99t6 99.5t-20 77.5t-49 50t-80 18zM484 730q79 0 137 -28.5t93.5 -78t47 -117.5t-2.5 -146q-14 -79 -49.5 -146.5t-88.5 -117.5t-120.5 -78.5
t-146.5 -28.5q-80 0 -138 28.5t-93.5 78.5t-47.5 117.5t2 146.5q14 78 49.5 146t88.5 117.5t121 78t148 28.5zM448 897q26 0 45.5 -8.5t34.5 -18.5t27.5 -18.5t26.5 -8.5q16 0 28 7.5t20 32.5l57 -9q-15 -51 -44 -79.5t-71 -28.5q-24 0 -42 9t-33.5 20t-31 20t-33.5 9
t-30.5 -10.5t-17.5 -34.5l-55 13q11 48 41 76.5t78 28.5z" />
    <glyph glyph-name="Racute" unicode="&#x154;" horiz-adv-x="715" 
d="M461 0q16 90 16.5 146t-12 87t-36 42t-55.5 11h-140l-50 -286h-143l127 720h339q57 0 96 -15.5t61 -42t28 -62t-1 -76.5q-14 -78 -64 -126t-136 -56q34 -5 62.5 -21.5t45.5 -54.5t19.5 -102t-14.5 -164h-143zM411 397q61 0 90 28.5t38 79.5q8 48 -11 75.5t-80 27.5h-157
l-38 -211h158zM635 908l-189 -149h-86l153 163z" />
    <glyph glyph-name="Rcaron" unicode="&#x158;" horiz-adv-x="715" 
d="M461 0q16 90 16.5 146t-12 87t-36 42t-55.5 11h-140l-50 -286h-143l127 720h339q57 0 96 -15.5t61 -42t28 -62t-1 -76.5q-14 -78 -64 -126t-136 -56q34 -5 62.5 -21.5t45.5 -54.5t19.5 -102t-14.5 -164h-143zM411 397q61 0 90 28.5t38 79.5q8 48 -11 75.5t-80 27.5h-157
l-38 -211h158zM378 922l85 -83l115 83l84 -14l-157 -149h-109l-106 149z" />
    <glyph glyph-name="Rcommaaccent" unicode="&#x156;" horiz-adv-x="715" 
d="M461 0q16 90 16.5 146t-12 87t-36 42t-55.5 11h-140l-50 -286h-143l127 720h339q57 0 96 -15.5t61 -42t28 -62t-1 -76.5q-14 -78 -64 -126t-136 -56q34 -5 62.5 -21.5t45.5 -54.5t19.5 -102t-14.5 -164h-143zM411 397q61 0 90 28.5t38 79.5q8 48 -11 75.5t-80 27.5h-157
l-38 -211h158zM373 -43l-12 -66q-9 -56 -48 -90.5t-90 -57.5l-10 45q36 12 54.5 32t23.5 49h-50l15 88h117z" />
    <glyph glyph-name="Sacute" unicode="&#x15a;" horiz-adv-x="702" 
d="M434 730q66 0 115 -16.5t80.5 -45.5t45 -69.5t7.5 -88.5h-148q2 24 -2.5 43.5t-18.5 33.5t-38.5 21.5t-63.5 7.5q-37 0 -63 -7.5t-43.5 -20.5t-27 -30t-12.5 -35q-9 -47 24.5 -65.5t102.5 -27.5q62 -6 111.5 -20t82 -38t46.5 -60.5t5 -87.5t-37 -94t-71.5 -74.5t-102 -49
t-129.5 -17.5q-66 0 -115.5 16.5t-81.5 46.5t-46 71t-9 90h149q-5 -49 23 -80t105 -31q73 0 109.5 30.5t43.5 70.5q4 26 -2.5 43t-24 28t-45.5 17.5t-65 11.5q-64 8 -111 22t-76.5 38t-40 60.5t-1.5 88.5q7 45 32.5 84.5t67 69.5t98 47t127.5 17zM622 908l-189 -149h-86
l153 163z" />
    <glyph glyph-name="Scaron" unicode="&#x160;" horiz-adv-x="702" 
d="M434 730q66 0 115 -16.5t80.5 -45.5t45 -69.5t7.5 -88.5h-148q2 24 -2.5 43.5t-18.5 33.5t-38.5 21.5t-63.5 7.5q-37 0 -63 -7.5t-43.5 -20.5t-27 -30t-12.5 -35q-9 -47 24.5 -65.5t102.5 -27.5q62 -6 111.5 -20t82 -38t46.5 -60.5t5 -87.5t-37 -94t-71.5 -74.5t-102 -49
t-129.5 -17.5q-66 0 -115.5 16.5t-81.5 46.5t-46 71t-9 90h149q-5 -49 23 -80t105 -31q73 0 109.5 30.5t43.5 70.5q4 26 -2.5 43t-24 28t-45.5 17.5t-65 11.5q-64 8 -111 22t-76.5 38t-40 60.5t-1.5 88.5q7 45 32.5 84.5t67 69.5t98 47t127.5 17zM371 922l85 -83l115 83
l84 -14l-157 -149h-109l-106 149z" />
    <glyph glyph-name="Scedilla" unicode="&#x15e;" horiz-adv-x="702" 
d="M434 730q66 0 115 -16.5t80.5 -45.5t45 -69.5t7.5 -88.5h-148q2 24 -2.5 43.5t-18.5 33.5t-38.5 21.5t-63.5 7.5q-37 0 -63 -7.5t-43.5 -20.5t-27 -30t-12.5 -35q-9 -47 24.5 -65.5t102.5 -27.5q62 -6 111.5 -20t82 -38t46.5 -60.5t5 -87.5q-9 -48 -33.5 -88.5
t-63.5 -71.5t-91 -50.5t-115 -23.5l-42 -48q8 2 17 2.5t17 0.5q46 0 72.5 -21.5t18.5 -62.5q-5 -26 -20 -46t-38 -33.5t-51.5 -21t-58.5 -7.5q-35 0 -65 9.5t-47 29.5l46 45q8 -11 27 -18t41 -7q28 0 44.5 11t20.5 30q4 21 -13.5 34t-61.5 13q-12 0 -26.5 -1.5t-31.5 -3.5
l71 96q-111 11 -165 71.5t-44 150.5h149q-5 -49 23 -80t105 -31q73 0 109.5 30.5t43.5 70.5q4 26 -2.5 43t-24 28t-45.5 17.5t-65 11.5q-64 8 -111 22t-76.5 38t-40 60.5t-1.5 88.5q7 45 32.5 84.5t67 69.5t98 47t127.5 17z" />
    <glyph glyph-name="Scedilla" unicode="&#xf6c1;" horiz-adv-x="702" 
d="M434 730q66 0 115 -16.5t80.5 -45.5t45 -69.5t7.5 -88.5h-148q2 24 -2.5 43.5t-18.5 33.5t-38.5 21.5t-63.5 7.5q-37 0 -63 -7.5t-43.5 -20.5t-27 -30t-12.5 -35q-9 -47 24.5 -65.5t102.5 -27.5q62 -6 111.5 -20t82 -38t46.5 -60.5t5 -87.5q-9 -48 -33.5 -88.5
t-63.5 -71.5t-91 -50.5t-115 -23.5l-42 -48q8 2 17 2.5t17 0.5q46 0 72.5 -21.5t18.5 -62.5q-5 -26 -20 -46t-38 -33.5t-51.5 -21t-58.5 -7.5q-35 0 -65 9.5t-47 29.5l46 45q8 -11 27 -18t41 -7q28 0 44.5 11t20.5 30q4 21 -13.5 34t-61.5 13q-12 0 -26.5 -1.5t-31.5 -3.5
l71 96q-111 11 -165 71.5t-44 150.5h149q-5 -49 23 -80t105 -31q73 0 109.5 30.5t43.5 70.5q4 26 -2.5 43t-24 28t-45.5 17.5t-65 11.5q-64 8 -111 22t-76.5 38t-40 60.5t-1.5 88.5q7 45 32.5 84.5t67 69.5t98 47t127.5 17z" />
    <glyph glyph-name="Scircumflex" unicode="&#x15c;" horiz-adv-x="702" 
d="M434 730q66 0 115 -16.5t80.5 -45.5t45 -69.5t7.5 -88.5h-148q2 24 -2.5 43.5t-18.5 33.5t-38.5 21.5t-63.5 7.5q-37 0 -63 -7.5t-43.5 -20.5t-27 -30t-12.5 -35q-9 -47 24.5 -65.5t102.5 -27.5q62 -6 111.5 -20t82 -38t46.5 -60.5t5 -87.5t-37 -94t-71.5 -74.5t-102 -49
t-129.5 -17.5q-66 0 -115.5 16.5t-81.5 46.5t-46 71t-9 90h149q-5 -49 23 -80t105 -31q73 0 109.5 30.5t43.5 70.5q4 26 -2.5 43t-24 28t-45.5 17.5t-65 11.5q-64 8 -111 22t-76.5 38t-40 60.5t-1.5 88.5q7 45 32.5 84.5t67 69.5t98 47t127.5 17zM545 759l-84 85l-115 -85
l-83 15l157 148h109l105 -148z" />
    <glyph glyph-name="Scommaaccent" unicode="&#x218;" horiz-adv-x="702" 
d="M434 730q66 0 115 -16.5t80.5 -45.5t45 -69.5t7.5 -88.5h-148q2 24 -2.5 43.5t-18.5 33.5t-38.5 21.5t-63.5 7.5q-37 0 -63 -7.5t-43.5 -20.5t-27 -30t-12.5 -35q-9 -47 24.5 -65.5t102.5 -27.5q62 -6 111.5 -20t82 -38t46.5 -60.5t5 -87.5t-37 -94t-71.5 -74.5t-102 -49
t-129.5 -17.5q-66 0 -115.5 16.5t-81.5 46.5t-46 71t-9 90h149q-5 -49 23 -80t105 -31q73 0 109.5 30.5t43.5 70.5q4 26 -2.5 43t-24 28t-45.5 17.5t-65 11.5q-64 8 -111 22t-76.5 38t-40 60.5t-1.5 88.5q7 45 32.5 84.5t67 69.5t98 47t127.5 17zM362 -43l-12 -66
q-9 -56 -48 -90.5t-90 -57.5l-10 45q36 12 54.5 32t23.5 49h-50l15 88h117z" />
    <glyph glyph-name="Tbar" unicode="&#x166;" horiz-adv-x="642" 
d="M203 0l52 298h-92l14 86h93l39 224h-233l20 112h609l-20 -112h-232l-40 -224h99l-15 -86h-99l-53 -298h-142z" />
    <glyph glyph-name="Tcaron" unicode="&#x164;" horiz-adv-x="642" 
d="M203 0l106 608h-233l20 112h609l-20 -112h-232l-108 -608h-142zM341 922l85 -83l115 83l84 -14l-157 -149h-109l-106 149z" />
    <glyph glyph-name="Tcommaaccent" unicode="&#x162;" horiz-adv-x="642" 
d="M203 0l106 608h-233l20 112h609l-20 -112h-232l-108 -608h-142zM332 -43l-12 -66q-9 -56 -48 -90.5t-90 -57.5l-10 45q36 12 54.5 32t23.5 49h-50l15 88h117z" />
    <glyph glyph-name="Tcommaaccent" unicode="&#x21a;" horiz-adv-x="642" 
d="M203 0l106 608h-233l20 112h609l-20 -112h-232l-108 -608h-142zM332 -43l-12 -66q-9 -56 -48 -90.5t-90 -57.5l-10 45q36 12 54.5 32t23.5 49h-50l15 88h117z" />
    <glyph glyph-name="Uacute" unicode="&#xda;" horiz-adv-x="756" 
d="M608 720h144l-88 -499q-11 -59 -43.5 -102.5t-79.5 -72.5t-103.5 -43t-113.5 -14t-107.5 14t-86 43t-52 72.5t-5.5 102.5l88 499h143l-83 -472q-14 -73 19 -105.5t109 -32.5q78 0 120 33t56 105zM654 908l-189 -149h-86l153 163z" />
    <glyph glyph-name="Ubreve" unicode="&#x16c;" horiz-adv-x="756" 
d="M608 720h144l-88 -499q-11 -59 -43.5 -102.5t-79.5 -72.5t-103.5 -43t-113.5 -14t-107.5 14t-86 43t-52 72.5t-5.5 102.5l88 499h143l-83 -472q-14 -73 19 -105.5t109 -32.5q78 0 120 33t56 105zM422 900q-5 -31 11 -47t50 -16q38 0 58 17.5t25 45.5l69 -8
q-6 -30 -21 -54t-37 -40.5t-49.5 -25.5t-57.5 -9q-61 0 -95.5 34t-23.5 95z" />
    <glyph glyph-name="Ucircumflex" unicode="&#xdb;" horiz-adv-x="756" 
d="M608 720h144l-88 -499q-11 -59 -43.5 -102.5t-79.5 -72.5t-103.5 -43t-113.5 -14t-107.5 14t-86 43t-52 72.5t-5.5 102.5l88 499h143l-83 -472q-14 -73 19 -105.5t109 -32.5q78 0 120 33t56 105zM569 759l-84 85l-115 -85l-83 15l157 148h109l105 -148z" />
    <glyph glyph-name="Udieresis" unicode="&#xdc;" horiz-adv-x="756" 
d="M608 720h144l-88 -499q-11 -59 -43.5 -102.5t-79.5 -72.5t-103.5 -43t-113.5 -14t-107.5 14t-86 43t-52 72.5t-5.5 102.5l88 499h143l-83 -472q-14 -73 19 -105.5t109 -32.5q78 0 120 33t56 105zM317 785l18 98h100l-18 -98h-100zM529 785l18 98h99l-18 -98h-99z" />
    <glyph glyph-name="Ugrave" unicode="&#xd9;" horiz-adv-x="756" 
d="M608 720h144l-88 -499q-11 -59 -43.5 -102.5t-79.5 -72.5t-103.5 -43t-113.5 -14t-107.5 14t-86 43t-52 72.5t-5.5 102.5l88 499h143l-83 -472q-14 -73 19 -105.5t109 -32.5q78 0 120 33t56 105zM486 922l95 -163h-85l-138 149z" />
    <glyph glyph-name="Uhungarumlaut" unicode="&#x170;" horiz-adv-x="756" 
d="M608 720h144l-88 -499q-11 -59 -43.5 -102.5t-79.5 -72.5t-103.5 -43t-113.5 -14t-107.5 14t-86 43t-52 72.5t-5.5 102.5l88 499h143l-83 -472q-14 -73 19 -105.5t109 -32.5q78 0 120 33t56 105zM545 908l-152 -141h-72l120 155zM733 908l-152 -141h-73l122 155z" />
    <glyph glyph-name="Umacron" unicode="&#x16a;" horiz-adv-x="756" 
d="M608 720h144l-88 -499q-11 -59 -43.5 -102.5t-79.5 -72.5t-103.5 -43t-113.5 -14t-107.5 14t-86 43t-52 72.5t-5.5 102.5l88 499h143l-83 -472q-14 -73 19 -105.5t109 -32.5q78 0 120 33t56 105zM333 779l14 78h277l-12 -78h-279z" />
    <glyph glyph-name="Uogonek" unicode="&#x172;" horiz-adv-x="756" 
d="M608 720h144l-88 -499q-9 -50 -34.5 -89t-62.5 -67.5t-82 -46t-94 -24.5q-25 -19 -42 -43.5t-21 -47.5q-6 -46 43 -46q5 0 11.5 0.5t11.5 1.5l-14 -84q-25 -5 -48 -5q-60 0 -89.5 28.5t-21.5 73.5q6 32 29 62t61 55q-55 1 -103 16t-81.5 44t-49 72t-4.5 100l88 499h143
l-83 -472q-14 -73 19 -105.5t109 -32.5q78 0 120 33t56 105z" />
    <glyph glyph-name="Uring" unicode="&#x16e;" horiz-adv-x="756" 
d="M608 720h144l-88 -499q-11 -59 -43.5 -102.5t-79.5 -72.5t-103.5 -43t-113.5 -14t-107.5 14t-86 43t-52 72.5t-5.5 102.5l88 499h143l-83 -472q-14 -73 19 -105.5t109 -32.5q78 0 120 33t56 105zM498 930q54 0 87 -23.5t25 -69.5q-4 -23 -17 -40.5t-32.5 -28.5
t-43.5 -16.5t-51 -5.5t-49 5.5t-37.5 16.5t-22.5 28.5t-3 40.5q8 46 49 69.5t95 23.5zM488 876q-26 0 -42.5 -11t-20.5 -28q-4 -23 11 -31.5t38 -8.5q26 0 42.5 10t19.5 30t-11.5 29.5t-36.5 9.5z" />
    <glyph glyph-name="Utilde" unicode="&#x168;" horiz-adv-x="756" 
d="M608 720h144l-88 -499q-11 -59 -43.5 -102.5t-79.5 -72.5t-103.5 -43t-113.5 -14t-107.5 14t-86 43t-52 72.5t-5.5 102.5l88 499h143l-83 -472q-14 -73 19 -105.5t109 -32.5q78 0 120 33t56 105zM421 897q26 0 45.5 -8.5t34.5 -18.5t27.5 -18.5t26.5 -8.5q16 0 28 7.5
t20 32.5l57 -9q-15 -51 -44 -79.5t-71 -28.5q-24 0 -42 9t-33.5 20t-31 20t-33.5 9t-30.5 -10.5t-17.5 -34.5l-55 13q11 48 41 76.5t78 28.5z" />
    <glyph glyph-name="Wcircumflex" unicode="&#x174;" horiz-adv-x="1022" 
d="M251 720l34 -490q1 -15 1.5 -40t-1.5 -46q8 21 16 45.5t16 40.5l205 490h131l36 -490q1 -15 1.5 -39.5t-1.5 -46.5q7 22 15.5 46.5t14.5 39.5l211 490h143l-319 -720h-176l-30 417q-2 19 -1 43t3 44q-6 -20 -14 -44t-16 -43l-176 -417h-176l-68 720h151zM701 759l-84 85
l-115 -85l-83 15l157 148h109l105 -148z" />
    <glyph glyph-name="Wacute" unicode="&#x1e82;" horiz-adv-x="1022" 
d="M251 720l34 -490q1 -15 1.5 -40t-1.5 -46q8 21 16 45.5t16 40.5l205 490h131l36 -490q1 -15 1.5 -39.5t-1.5 -46.5q7 22 15.5 46.5t14.5 39.5l211 490h143l-319 -720h-176l-30 417q-2 19 -1 43t3 44q-6 -20 -14 -44t-16 -43l-176 -417h-176l-68 720h151zM787 908
l-189 -149h-86l153 163z" />
    <glyph glyph-name="Wgrave" unicode="&#x1e80;" horiz-adv-x="1022" 
d="M251 720l34 -490q1 -15 1.5 -40t-1.5 -46q8 21 16 45.5t16 40.5l205 490h131l36 -490q1 -15 1.5 -39.5t-1.5 -46.5q7 22 15.5 46.5t14.5 39.5l211 490h143l-319 -720h-176l-30 417q-2 19 -1 43t3 44q-6 -20 -14 -44t-16 -43l-176 -417h-176l-68 720h151zM600 922l95 -163
h-85l-138 149z" />
    <glyph glyph-name="Wdieresis" unicode="&#x1e84;" horiz-adv-x="1022" 
d="M251 720l34 -490q1 -15 1.5 -40t-1.5 -46q8 21 16 45.5t16 40.5l205 490h131l36 -490q1 -15 1.5 -39.5t-1.5 -46.5q7 22 15.5 46.5t14.5 39.5l211 490h143l-319 -720h-176l-30 417q-2 19 -1 43t3 44q-6 -20 -14 -44t-16 -43l-176 -417h-176l-68 720h151zM449 785l18 98
h100l-18 -98h-100zM661 785l18 98h99l-18 -98h-99z" />
    <glyph glyph-name="Yacute" unicode="&#xdd;" horiz-adv-x="690" 
d="M225 0l54 311l-203 409h168l133 -288l237 288h157l-348 -409l-55 -311h-143zM628 908l-189 -149h-86l153 163z" />
    <glyph glyph-name="Ycircumflex" unicode="&#x176;" horiz-adv-x="690" 
d="M225 0l54 311l-203 409h168l133 -288l237 288h157l-348 -409l-55 -311h-143zM535 759l-84 85l-115 -85l-83 15l157 148h109l105 -148z" />
    <glyph glyph-name="Ydieresis" unicode="&#x178;" horiz-adv-x="690" 
d="M225 0l54 311l-203 409h168l133 -288l237 288h157l-348 -409l-55 -311h-143zM287 785l18 98h100l-18 -98h-100zM499 785l18 98h99l-18 -98h-99z" />
    <glyph glyph-name="Ygrave" unicode="&#x1ef2;" horiz-adv-x="690" 
d="M225 0l54 311l-203 409h168l133 -288l237 288h157l-348 -409l-55 -311h-143zM439 922l95 -163h-85l-138 149z" />
    <glyph glyph-name="Zacute" unicode="&#x179;" horiz-adv-x="660" 
d="M0 0l20 113l479 495h-383l20 112h554l-20 -113l-480 -494h398l-20 -113h-568zM621 908l-189 -149h-86l153 163z" />
    <glyph glyph-name="Zcaron" unicode="&#x17d;" horiz-adv-x="660" 
d="M0 0l20 113l479 495h-383l20 112h554l-20 -113l-480 -494h398l-20 -113h-568zM355 922l85 -83l115 83l84 -14l-157 -149h-109l-106 149z" />
    <glyph glyph-name="Zdotaccent" unicode="&#x17b;" horiz-adv-x="660" 
d="M0 0l20 113l479 495h-383l20 112h554l-20 -113l-480 -494h398l-20 -113h-568zM361 785l19 105h127l-19 -105h-127z" />
    <glyph glyph-name="AEacute" unicode="&#x1fc;" horiz-adv-x="994" 
d="M392 0l32 185h-253l-152 -185h-160l599 720h552l-19 -112h-348l-32 -181h286l-21 -109h-285l-36 -205h355l-18 -113h-500zM444 295l52 292l-240 -292h188zM852 908l-189 -149h-86l153 163z" />
    <glyph glyph-name="Oslashacute" unicode="&#x1fe;" horiz-adv-x="809" 
d="M803 720l-88 -99q35 -50 46.5 -116.5t-2.5 -144.5q-14 -79 -49.5 -146.5t-88.5 -117.5t-120.5 -78.5t-146.5 -28.5q-95 0 -163 42l-27 -31h-131l87 98q-35 51 -46 117.5t3 144.5t49.5 146t88.5 117.5t121 78t148 28.5q48 0 88 -10.5t72 -30.5l28 31h131zM462 605
q-49 0 -87.5 -18t-67 -50t-47.5 -77.5t-29 -99.5q-7 -40 -7.5 -74.5t6.5 -63.5l320 360q-35 23 -88 23zM605 360q14 79 0 137l-318 -359q35 -22 88 -22q48 0 86.5 18t67.5 50t48 77t28 99zM666 908l-189 -149h-86l153 163z" />
    <glyph glyph-name="aacute" unicode="&#xe1;" 
d="M303 535q60 0 90 -31t41 -76l17 97h135l-92 -525h-134l16 95q-27 -43 -69.5 -74.5t-99.5 -31.5q-48 0 -84.5 19.5t-58.5 55.5t-29 86.5t4 111.5q10 61 34.5 111.5t59.5 86.5t78.5 55.5t91.5 19.5zM315 422q-56 0 -89.5 -41.5t-47.5 -118.5q-14 -76 5 -117.5t76 -41.5
q31 0 55.5 12.5t42.5 33.5t30 49.5t18 60.5q14 80 -9.5 121.5t-80.5 41.5zM566 737l-185 -155h-92l141 171z" />
    <glyph glyph-name="abreve" unicode="&#x103;" 
d="M303 535q60 0 90 -31t41 -76l17 97h135l-92 -525h-134l16 95q-27 -43 -69.5 -74.5t-99.5 -31.5q-48 0 -84.5 19.5t-58.5 55.5t-29 86.5t4 111.5q10 61 34.5 111.5t59.5 86.5t78.5 55.5t91.5 19.5zM315 422q-56 0 -89.5 -41.5t-47.5 -118.5q-14 -76 5 -117.5t76 -41.5
q31 0 55.5 12.5t42.5 33.5t30 49.5t18 60.5q14 80 -9.5 121.5t-80.5 41.5zM329 734q-5 -34 8.5 -53t47.5 -19q38 0 57 21.5t24 50.5l81 -9q-6 -34 -23 -60.5t-41 -45t-53 -28t-60 -9.5q-30 0 -55.5 9.5t-42.5 28t-24.5 45t-1.5 60.5z" />
    <glyph glyph-name="acircumflex" unicode="&#xe2;" 
d="M303 535q60 0 90 -31t41 -76l17 97h135l-92 -525h-134l16 95q-27 -43 -69.5 -74.5t-99.5 -31.5q-48 0 -84.5 19.5t-58.5 55.5t-29 86.5t4 111.5q10 61 34.5 111.5t59.5 86.5t78.5 55.5t91.5 19.5zM315 422q-56 0 -89.5 -41.5t-47.5 -118.5q-14 -76 5 -117.5t76 -41.5
q31 0 55.5 12.5t42.5 33.5t30 49.5t18 60.5q14 80 -9.5 121.5t-80.5 41.5zM454 741l97 -147l-96 -17l-76 84l-109 -84l-91 17l152 147h123z" />
    <glyph glyph-name="adieresis" unicode="&#xe4;" 
d="M303 535q60 0 90 -31t41 -76l17 97h135l-92 -525h-134l16 95q-27 -43 -69.5 -74.5t-99.5 -31.5q-48 0 -84.5 19.5t-58.5 55.5t-29 86.5t4 111.5q10 61 34.5 111.5t59.5 86.5t78.5 55.5t91.5 19.5zM315 422q-56 0 -89.5 -41.5t-47.5 -118.5q-14 -76 5 -117.5t76 -41.5
q31 0 55.5 12.5t42.5 33.5t30 49.5t18 60.5q14 80 -9.5 121.5t-80.5 41.5zM226 606l18 103h99l-18 -103h-99zM423 606l18 103h99l-18 -103h-99z" />
    <glyph glyph-name="agrave" unicode="&#xe0;" 
d="M303 535q60 0 90 -31t41 -76l17 97h135l-92 -525h-134l16 95q-27 -43 -69.5 -74.5t-99.5 -31.5q-48 0 -84.5 19.5t-58.5 55.5t-29 86.5t4 111.5q10 61 34.5 111.5t59.5 86.5t78.5 55.5t91.5 19.5zM315 422q-56 0 -89.5 -41.5t-47.5 -118.5q-14 -76 5 -117.5t76 -41.5
q31 0 55.5 12.5t42.5 33.5t30 49.5t18 60.5q14 80 -9.5 121.5t-80.5 41.5zM389 753l77 -171h-91l-128 155z" />
    <glyph glyph-name="amacron" unicode="&#x101;" 
d="M303 535q60 0 90 -31t41 -76l17 97h135l-92 -525h-134l16 95q-27 -43 -69.5 -74.5t-99.5 -31.5q-48 0 -84.5 19.5t-58.5 55.5t-29 86.5t4 111.5q10 61 34.5 111.5t59.5 86.5t78.5 55.5t91.5 19.5zM315 422q-56 0 -89.5 -41.5t-47.5 -118.5q-14 -76 5 -117.5t76 -41.5
q31 0 55.5 12.5t42.5 33.5t30 49.5t18 60.5q14 80 -9.5 121.5t-80.5 41.5zM239 601l15 86h279l-16 -86h-278z" />
    <glyph glyph-name="aogonek" unicode="&#x105;" 
d="M360 0l16 95q-27 -43 -69.5 -74.5t-99.5 -31.5q-48 0 -84.5 19.5t-58.5 55.5t-29 86.5t4 111.5q10 61 34.5 111.5t59.5 86.5t78.5 55.5t91.5 19.5q60 0 90 -31t41 -76l17 97h135l-92 -525h-39q-28 -19 -47.5 -45.5t-24.5 -51.5q-6 -46 43 -46q5 0 11.5 0.5t11.5 1.5
l-14 -84q-25 -5 -48 -5q-60 0 -89.5 28.5t-21.5 73.5q7 35 34.5 68.5t73.5 59.5h-24zM315 422q-56 0 -89.5 -41.5t-47.5 -118.5q-14 -76 5 -117.5t76 -41.5q31 0 55.5 12.5t42.5 33.5t30 49.5t18 60.5q14 80 -9.5 121.5t-80.5 41.5z" />
    <glyph glyph-name="aring" unicode="&#xe5;" 
d="M303 535q60 0 90 -31t41 -76l17 97h135l-92 -525h-134l16 95q-27 -43 -69.5 -74.5t-99.5 -31.5q-48 0 -84.5 19.5t-58.5 55.5t-29 86.5t4 111.5q10 61 34.5 111.5t59.5 86.5t78.5 55.5t91.5 19.5zM315 422q-56 0 -89.5 -41.5t-47.5 -118.5q-14 -76 5 -117.5t76 -41.5
q31 0 55.5 12.5t42.5 33.5t30 49.5t18 60.5q14 80 -9.5 121.5t-80.5 41.5zM405 777q27 0 49.5 -7t38.5 -20.5t22.5 -33t2.5 -45.5q-5 -26 -19 -45.5t-34 -33t-45.5 -20t-52.5 -6.5q-26 0 -49 6.5t-38.5 20t-23 33t-2.5 45.5q4 26 18.5 45.5t35 33t45.5 20.5t52 7zM393 713
q-24 0 -40 -12t-18 -29q-4 -22 9 -32t35 -10q49 0 57 40q4 21 -9.5 32t-33.5 11z" />
    <glyph glyph-name="atilde" unicode="&#xe3;" 
d="M303 535q60 0 90 -31t41 -76l17 97h135l-92 -525h-134l16 95q-27 -43 -69.5 -74.5t-99.5 -31.5q-48 0 -84.5 19.5t-58.5 55.5t-29 86.5t4 111.5q10 61 34.5 111.5t59.5 86.5t78.5 55.5t91.5 19.5zM315 422q-56 0 -89.5 -41.5t-47.5 -118.5q-14 -76 5 -117.5t76 -41.5
q31 0 55.5 12.5t42.5 33.5t30 49.5t18 60.5q14 80 -9.5 121.5t-80.5 41.5zM324 730q26 0 45 -9t34 -20.5t27.5 -20.5t26.5 -9q16 0 28 8t20 34l56 -9q-15 -55 -44.5 -86.5t-71.5 -31.5q-24 0 -42 9.5t-33.5 21.5t-30.5 21.5t-33 9.5q-37 0 -49 -48l-54 13q12 54 42.5 85.5
t78.5 31.5z" />
    <glyph glyph-name="ccedilla" unicode="&#xe7;" horiz-adv-x="541" 
d="M338 535q46 0 84 -14.5t64.5 -41t38.5 -64t6 -83.5h-135q3 39 -17 65t-65 26q-59 0 -93.5 -43t-47.5 -118q-14 -75 5.5 -118t78.5 -43q46 0 75 26.5t39 65.5h135q-9 -42 -30.5 -76.5t-52 -60.5t-68 -42.5t-78.5 -21.5l-43 -50q8 2 17 2.5t17 0.5q46 0 72.5 -21.5
t18.5 -62.5q-5 -26 -20 -46t-38 -33.5t-51.5 -21t-58.5 -7.5q-35 0 -65 9.5t-47 29.5l46 45q8 -11 27 -18t41 -7q28 0 44.5 11t20.5 30q4 21 -13.5 34t-61.5 13q-12 0 -26.5 -1.5t-31.5 -3.5l72 97q-97 14 -137.5 86.5t-20.5 183.5q10 61 36 111.5t64 86.5t88.5 55.5
t110.5 19.5z" />
    <glyph glyph-name="cacute" unicode="&#x107;" horiz-adv-x="541" 
d="M338 535q46 0 84 -14.5t64.5 -41t38.5 -64t6 -83.5h-135q3 39 -17 65t-65 26q-59 0 -93.5 -43t-47.5 -118q-14 -75 5.5 -118t78.5 -43q46 0 75 26.5t39 65.5h135q-10 -46 -35 -83.5t-60.5 -64.5t-79 -41.5t-89.5 -14.5q-60 0 -103.5 19.5t-69 55.5t-33.5 86t3 112
q10 61 36 111.5t64 86.5t88.5 55.5t110.5 19.5zM524 737l-185 -155h-92l141 171z" />
    <glyph glyph-name="ccaron" unicode="&#x10d;" horiz-adv-x="541" 
d="M338 535q46 0 84 -14.5t64.5 -41t38.5 -64t6 -83.5h-135q3 39 -17 65t-65 26q-59 0 -93.5 -43t-47.5 -118q-14 -75 5.5 -118t78.5 -43q46 0 75 26.5t39 65.5h135q-10 -46 -35 -83.5t-60.5 -64.5t-79 -41.5t-89.5 -14.5q-60 0 -103.5 19.5t-69 55.5t-33.5 86t3 112
q10 61 36 111.5t64 86.5t88.5 55.5t110.5 19.5zM283 747l76 -84l110 84l91 -16l-152 -149h-123l-98 149z" />
    <glyph glyph-name="ccircumflex" unicode="&#x109;" horiz-adv-x="541" 
d="M338 535q46 0 84 -14.5t64.5 -41t38.5 -64t6 -83.5h-135q3 39 -17 65t-65 26q-59 0 -93.5 -43t-47.5 -118q-14 -75 5.5 -118t78.5 -43q46 0 75 26.5t39 65.5h135q-10 -46 -35 -83.5t-60.5 -64.5t-79 -41.5t-89.5 -14.5q-60 0 -103.5 19.5t-69 55.5t-33.5 86t3 112
q10 61 36 111.5t64 86.5t88.5 55.5t110.5 19.5zM433 741l97 -147l-96 -17l-76 84l-109 -84l-91 17l152 147h123z" />
    <glyph glyph-name="cdotaccent" unicode="&#x10b;" horiz-adv-x="541" 
d="M338 535q46 0 84 -14.5t64.5 -41t38.5 -64t6 -83.5h-135q3 39 -17 65t-65 26q-59 0 -93.5 -43t-47.5 -118q-14 -75 5.5 -118t78.5 -43q46 0 75 26.5t39 65.5h135q-10 -46 -35 -83.5t-60.5 -64.5t-79 -41.5t-89.5 -14.5q-60 0 -103.5 19.5t-69 55.5t-33.5 86t3 112
q10 61 36 111.5t64 86.5t88.5 55.5t110.5 19.5zM285 606l21 118h128l-20 -118h-129z" />
    <glyph glyph-name="dcroat" unicode="&#x111;" 
d="M303 535q60 0 90 -31t41 -76l28 157h-84l14 78h84l13 72h134l-13 -72h69l-13 -78h-70l-102 -585h-134l16 95q-27 -43 -69.5 -74.5t-99.5 -31.5q-48 0 -84.5 19.5t-58.5 55.5t-29 86.5t4 111.5q10 61 34.5 111.5t59.5 86.5t78.5 55.5t91.5 19.5zM315 422
q-56 0 -89.5 -41.5t-47.5 -118.5q-14 -76 5 -117.5t76 -41.5q31 0 55.5 12.5t42.5 33.5t30 49.5t18 60.5q14 80 -9.5 121.5t-80.5 41.5z" />
    <glyph glyph-name="dcaron" unicode="&#x10f;" 
d="M303 535q60 0 90 -31t41 -76l55 307h134l-129 -735h-134l16 95q-27 -43 -69.5 -74.5t-99.5 -31.5q-48 0 -84.5 19.5t-58.5 55.5t-29 86.5t4 111.5q10 61 34.5 111.5t59.5 86.5t78.5 55.5t91.5 19.5zM315 422q-56 0 -89.5 -41.5t-47.5 -118.5q-14 -76 5 -117.5t76 -41.5
q31 0 55.5 12.5t42.5 33.5t30 49.5t18 60.5q14 80 -9.5 121.5t-80.5 41.5zM785 745l-81 -164h-66l30 164h117z" />
    <glyph glyph-name="eacute" unicode="&#xe9;" horiz-adv-x="554" 
d="M352 535q49 0 84.5 -11.5t58.5 -30.5t34.5 -43.5t11.5 -50.5q0 -34 -14 -64.5t-45 -53t-81.5 -35.5t-122.5 -13h-110q-8 -69 13 -102t76 -33q40 0 69.5 18.5t39.5 51.5h135q-11 -39 -35.5 -71.5t-59.5 -56.5t-77.5 -37.5t-88.5 -13.5q-58 0 -100.5 19.5t-69 55.5
t-34.5 86.5t3 113.5q10 60 38.5 110t69.5 86t93.5 55.5t111.5 19.5zM536 737l-185 -155h-92l141 171zM329 434q-49 0 -85 -26.5t-56 -83.5h97q65 0 91 17t26 43q0 19 -16 34.5t-57 15.5z" />
    <glyph glyph-name="ebreve" unicode="&#x115;" horiz-adv-x="554" 
d="M352 535q49 0 84.5 -11.5t58.5 -30.5t34.5 -43.5t11.5 -50.5q0 -34 -14 -64.5t-45 -53t-81.5 -35.5t-122.5 -13h-110q-8 -69 13 -102t76 -33q40 0 69.5 18.5t39.5 51.5h135q-11 -39 -35.5 -71.5t-59.5 -56.5t-77.5 -37.5t-88.5 -13.5q-58 0 -100.5 19.5t-69 55.5
t-34.5 86.5t3 113.5q10 60 38.5 110t69.5 86t93.5 55.5t111.5 19.5zM305 734q-5 -34 8.5 -53t47.5 -19q38 0 57 21.5t24 50.5l81 -9q-6 -34 -23 -60.5t-41 -45t-53 -28t-60 -9.5q-30 0 -55.5 9.5t-42.5 28t-24.5 45t-1.5 60.5zM329 434q-49 0 -85 -26.5t-56 -83.5h97
q65 0 91 17t26 43q0 19 -16 34.5t-57 15.5z" />
    <glyph glyph-name="ecaron" unicode="&#x11b;" horiz-adv-x="554" 
d="M352 535q49 0 84.5 -11.5t58.5 -30.5t34.5 -43.5t11.5 -50.5q0 -34 -14 -64.5t-45 -53t-81.5 -35.5t-122.5 -13h-110q-8 -69 13 -102t76 -33q40 0 69.5 18.5t39.5 51.5h135q-11 -39 -35.5 -71.5t-59.5 -56.5t-77.5 -37.5t-88.5 -13.5q-58 0 -100.5 19.5t-69 55.5
t-34.5 86.5t3 113.5q10 60 38.5 110t69.5 86t93.5 55.5t111.5 19.5zM282 747l76 -84l110 84l91 -16l-152 -149h-123l-98 149zM329 434q-49 0 -85 -26.5t-56 -83.5h97q65 0 91 17t26 43q0 19 -16 34.5t-57 15.5z" />
    <glyph glyph-name="ecircumflex" unicode="&#xea;" horiz-adv-x="554" 
d="M352 535q49 0 84.5 -11.5t58.5 -30.5t34.5 -43.5t11.5 -50.5q0 -34 -14 -64.5t-45 -53t-81.5 -35.5t-122.5 -13h-110q-8 -69 13 -102t76 -33q40 0 69.5 18.5t39.5 51.5h135q-11 -39 -35.5 -71.5t-59.5 -56.5t-77.5 -37.5t-88.5 -13.5q-58 0 -100.5 19.5t-69 55.5
t-34.5 86.5t3 113.5q10 60 38.5 110t69.5 86t93.5 55.5t111.5 19.5zM443 741l97 -147l-96 -17l-76 84l-109 -84l-91 17l152 147h123zM329 434q-49 0 -85 -26.5t-56 -83.5h97q65 0 91 17t26 43q0 19 -16 34.5t-57 15.5z" />
    <glyph glyph-name="edieresis" unicode="&#xeb;" horiz-adv-x="554" 
d="M352 535q49 0 84.5 -11.5t58.5 -30.5t34.5 -43.5t11.5 -50.5q0 -34 -14 -64.5t-45 -53t-81.5 -35.5t-122.5 -13h-110q-8 -69 13 -102t76 -33q40 0 69.5 18.5t39.5 51.5h135q-11 -39 -35.5 -71.5t-59.5 -56.5t-77.5 -37.5t-88.5 -13.5q-58 0 -100.5 19.5t-69 55.5
t-34.5 86.5t3 113.5q10 60 38.5 110t69.5 86t93.5 55.5t111.5 19.5zM329 434q-49 0 -85 -26.5t-56 -83.5h97q65 0 91 17t26 43q0 19 -16 34.5t-57 15.5zM205 606l18 103h99l-18 -103h-99zM402 606l18 103h99l-18 -103h-99z" />
    <glyph glyph-name="edotaccent" unicode="&#x117;" horiz-adv-x="554" 
d="M352 535q49 0 84.5 -11.5t58.5 -30.5t34.5 -43.5t11.5 -50.5q0 -34 -14 -64.5t-45 -53t-81.5 -35.5t-122.5 -13h-110q-8 -69 13 -102t76 -33q40 0 69.5 18.5t39.5 51.5h135q-11 -39 -35.5 -71.5t-59.5 -56.5t-77.5 -37.5t-88.5 -13.5q-58 0 -100.5 19.5t-69 55.5
t-34.5 86.5t3 113.5q10 60 38.5 110t69.5 86t93.5 55.5t111.5 19.5zM329 434q-49 0 -85 -26.5t-56 -83.5h97q65 0 91 17t26 43q0 19 -16 34.5t-57 15.5zM284 606l21 118h128l-20 -118h-129z" />
    <glyph glyph-name="egrave" unicode="&#xe8;" horiz-adv-x="554" 
d="M352 535q49 0 84.5 -11.5t58.5 -30.5t34.5 -43.5t11.5 -50.5q0 -34 -14 -64.5t-45 -53t-81.5 -35.5t-122.5 -13h-110q-8 -69 13 -102t76 -33q40 0 69.5 18.5t39.5 51.5h135q-11 -39 -35.5 -71.5t-59.5 -56.5t-77.5 -37.5t-88.5 -13.5q-58 0 -100.5 19.5t-69 55.5
t-34.5 86.5t3 113.5q10 60 38.5 110t69.5 86t93.5 55.5t111.5 19.5zM369 753l77 -171h-91l-128 155zM329 434q-49 0 -85 -26.5t-56 -83.5h97q65 0 91 17t26 43q0 19 -16 34.5t-57 15.5z" />
    <glyph glyph-name="emacron" unicode="&#x113;" horiz-adv-x="554" 
d="M352 535q49 0 84.5 -11.5t58.5 -30.5t34.5 -43.5t11.5 -50.5q0 -34 -14 -64.5t-45 -53t-81.5 -35.5t-122.5 -13h-110q-8 -69 13 -102t76 -33q40 0 69.5 18.5t39.5 51.5h135q-11 -39 -35.5 -71.5t-59.5 -56.5t-77.5 -37.5t-88.5 -13.5q-58 0 -100.5 19.5t-69 55.5
t-34.5 86.5t3 113.5q10 60 38.5 110t69.5 86t93.5 55.5t111.5 19.5zM212 601l15 86h279l-16 -86h-278zM329 434q-49 0 -85 -26.5t-56 -83.5h97q65 0 91 17t26 43q0 19 -16 34.5t-57 15.5z" />
    <glyph glyph-name="eogonek" unicode="&#x119;" horiz-adv-x="554" 
d="M352 535q49 0 84.5 -11.5t58.5 -30.5t34.5 -43.5t11.5 -50.5q0 -34 -14 -64.5t-45 -53t-81.5 -35.5t-122.5 -13h-110q-8 -69 13 -102t76 -33q40 0 69.5 18.5t39.5 51.5h135q-9 -32 -27.5 -60t-44.5 -50.5t-58.5 -38.5t-68.5 -23q-26 -19 -43.5 -44.5t-21.5 -48.5
q-6 -46 43 -46q5 0 11.5 0.5t11.5 1.5l-14 -84q-25 -5 -48 -5q-60 0 -89.5 28.5t-21.5 73.5q13 67 91 118q-53 3 -92.5 23.5t-63 56.5t-30.5 85t4 109q10 60 38.5 110t69.5 86t93.5 55.5t111.5 19.5zM329 434q-49 0 -85 -26.5t-56 -83.5h97q65 0 91 17t26 43q0 19 -16 34.5
t-57 15.5z" />
    <glyph glyph-name="gacute" unicode="&#x1f5;" 
d="M306 535q31 0 54 -9t38.5 -23.5t24 -34t11.5 -40.5l18 97h135l-94 -533q-20 -113 -95 -163t-205 -50q-51 0 -91 12t-66.5 36t-37.5 58.5t-4 79.5h144q-5 -38 16.5 -59.5t66.5 -21.5q56 0 91 22.5t46 85.5l18 108q-27 -48 -69 -75.5t-105 -27.5q-48 0 -83.5 18.5t-57 53
t-27.5 84t5 111.5q10 57 32 106t55.5 86t78.5 58t101 21zM315 422q-57 0 -90.5 -41.5t-46.5 -116.5q-14 -78 6 -118t77 -40q31 0 55.5 12t42 32.5t29 48.5t17.5 61q14 77 -8 119.5t-82 42.5zM554 737l-185 -155h-92l141 171z" />
    <glyph glyph-name="gbreve" unicode="&#x11f;" 
d="M306 535q31 0 54 -9t38.5 -23.5t24 -34t11.5 -40.5l18 97h135l-94 -533q-20 -113 -95 -163t-205 -50q-51 0 -91 12t-66.5 36t-37.5 58.5t-4 79.5h144q-5 -38 16.5 -59.5t66.5 -21.5q56 0 91 22.5t46 85.5l18 108q-27 -48 -69 -75.5t-105 -27.5q-48 0 -83.5 18.5t-57 53
t-27.5 84t5 111.5q10 57 32 106t55.5 86t78.5 58t101 21zM315 422q-57 0 -90.5 -41.5t-46.5 -116.5q-14 -78 6 -118t77 -40q31 0 55.5 12t42 32.5t29 48.5t17.5 61q14 77 -8 119.5t-82 42.5zM320 734q-5 -34 8.5 -53t47.5 -19q38 0 57 21.5t24 50.5l81 -9q-6 -34 -23 -60.5
t-41 -45t-53 -28t-60 -9.5q-30 0 -55.5 9.5t-42.5 28t-24.5 45t-1.5 60.5z" />
    <glyph glyph-name="gcircumflex" unicode="&#x11d;" 
d="M306 535q31 0 54 -9t38.5 -23.5t24 -34t11.5 -40.5l18 97h135l-94 -533q-20 -113 -95 -163t-205 -50q-51 0 -91 12t-66.5 36t-37.5 58.5t-4 79.5h144q-5 -38 16.5 -59.5t66.5 -21.5q56 0 91 22.5t46 85.5l18 108q-27 -48 -69 -75.5t-105 -27.5q-48 0 -83.5 18.5t-57 53
t-27.5 84t5 111.5q10 57 32 106t55.5 86t78.5 58t101 21zM315 422q-57 0 -90.5 -41.5t-46.5 -116.5q-14 -78 6 -118t77 -40q31 0 55.5 12t42 32.5t29 48.5t17.5 61q14 77 -8 119.5t-82 42.5zM457 741l97 -147l-96 -17l-76 84l-109 -84l-91 17l152 147h123z" />
    <glyph glyph-name="gcommaaccent" unicode="&#x123;" 
d="M306 535q31 0 54 -9t38.5 -23.5t24 -34t11.5 -40.5l18 97h135l-94 -533q-20 -113 -95 -163t-205 -50q-51 0 -91 12t-66.5 36t-37.5 58.5t-4 79.5h144q-5 -38 16.5 -59.5t66.5 -21.5q56 0 91 22.5t46 85.5l18 108q-27 -48 -69 -75.5t-105 -27.5q-48 0 -83.5 18.5t-57 53
t-27.5 84t5 111.5q10 57 32 106t55.5 86t78.5 58t101 21zM315 422q-57 0 -90.5 -41.5t-46.5 -116.5q-14 -78 6 -118t77 -40q31 0 55.5 12t42 32.5t29 48.5t17.5 61q14 77 -8 119.5t-82 42.5zM419 556h-121l130 189h74z" />
    <glyph glyph-name="gdotaccent" unicode="&#x121;" 
d="M306 535q31 0 54 -9t38.5 -23.5t24 -34t11.5 -40.5l18 97h135l-94 -533q-20 -113 -95 -163t-205 -50q-51 0 -91 12t-66.5 36t-37.5 58.5t-4 79.5h144q-5 -38 16.5 -59.5t66.5 -21.5q56 0 91 22.5t46 85.5l18 108q-27 -48 -69 -75.5t-105 -27.5q-48 0 -83.5 18.5t-57 53
t-27.5 84t5 111.5q10 57 32 106t55.5 86t78.5 58t101 21zM315 422q-57 0 -90.5 -41.5t-46.5 -116.5q-14 -78 6 -118t77 -40q31 0 55.5 12t42 32.5t29 48.5t17.5 61q14 77 -8 119.5t-82 42.5zM308 606l21 118h128l-20 -118h-129z" />
    <glyph glyph-name="hcircumflex" unicode="&#x125;" horiz-adv-x="593" 
d="M291 735l-51 -290q29 41 71 65.5t102 24.5q80 0 113.5 -48t18.5 -135l-62 -352h-135l57 323q8 48 -3.5 72t-56.5 24q-22 0 -43.5 -8t-39.5 -24.5t-31 -41t-19 -58.5l-50 -287h-134l129 735h134zM434 759l-84 85l-115 -85l-83 15l157 148h109l105 -148z" />
    <glyph glyph-name="hbar" unicode="&#x127;" horiz-adv-x="593" 
d="M291 735l-13 -72h96l-12 -78h-98l-24 -140q29 41 71 65.5t102 24.5q80 0 113.5 -48t18.5 -135l-62 -352h-135l57 323q8 48 -3.5 72t-56.5 24q-22 0 -43.5 -8t-39.5 -24.5t-31 -41t-19 -58.5l-50 -287h-134l102 585h-56l14 78h56l13 72h134z" />
    <glyph glyph-name="iacute" unicode="&#xed;" horiz-adv-x="275" 
d="M388 737l-185 -155h-92l141 171zM28 0l92 525h135l-93 -525h-134z" />
    <glyph glyph-name="ibreve" unicode="&#x12d;" horiz-adv-x="275" 
d="M154 734q-5 -34 8.5 -53t47.5 -19q38 0 57 21.5t24 50.5l81 -9q-6 -34 -23 -60.5t-41 -45t-53 -28t-60 -9.5q-30 0 -55.5 9.5t-42.5 28t-24.5 45t-1.5 60.5zM28 0l92 525h135l-93 -525h-134z" />
    <glyph glyph-name="icircumflex" unicode="&#xee;" horiz-adv-x="275" 
d="M28 0l92 525h135l-93 -525h-134zM285 741l97 -147l-96 -17l-76 84l-109 -84l-91 17l152 147h123z" />
    <glyph glyph-name="idieresis" unicode="&#xef;" horiz-adv-x="275" 
d="M53 606l18 103h99l-18 -103h-99zM250 606l18 103h99l-18 -103h-99zM28 0l92 525h135l-93 -525h-134z" />
    <glyph glyph-name="igrave" unicode="&#xec;" horiz-adv-x="275" 
d="M208 753l77 -171h-91l-128 155zM28 0l92 525h135l-93 -525h-134z" />
    <glyph glyph-name="imacron" unicode="&#x12b;" horiz-adv-x="275" 
d="M60 601l15 86h279l-16 -86h-278zM28 0l92 525h135l-93 -525h-134z" />
    <glyph glyph-name="iogonek" unicode="&#x12f;" horiz-adv-x="274" 
d="M28 0l92 525h135l-93 -525h-18q-28 -19 -47.5 -45.5t-24.5 -51.5q-6 -46 43 -46q5 0 11.5 0.5t11.5 1.5l-14 -84q-25 -5 -48 -5q-60 0 -89.5 28.5t-21.5 73.5q7 35 34.5 68.5t73.5 59.5h-45zM288 713l-21 -117h-135l20 117h136z" />
    <glyph glyph-name="itilde" unicode="&#x129;" horiz-adv-x="275" 
d="M151 730q26 0 45 -9t34 -20.5t27.5 -20.5t26.5 -9q16 0 28 8t20 34l56 -9q-15 -55 -44.5 -86.5t-71.5 -31.5q-24 0 -42 9.5t-33.5 21.5t-30.5 21.5t-33 9.5q-37 0 -49 -48l-54 13q12 54 42.5 85.5t78.5 31.5zM28 0l92 525h135l-93 -525h-134z" />
    <glyph glyph-name="dotlessi" unicode="&#x131;" horiz-adv-x="275" 
d="M28 0l92 525h135l-93 -525h-134z" />
    <glyph glyph-name="dotlessj" unicode="&#xf6be;" horiz-adv-x="269" 
d="M247 525l-98 -557q-9 -50 -34 -87t-59 -61.5t-73.5 -36.5t-76.5 -12l18 106q19 0 35 4.5t28.5 15.5t21.5 30.5t14 48.5l97 549h127z" />
    <glyph glyph-name="jcircumflex" unicode="&#x135;" horiz-adv-x="269" 
d="M205 525l-98 -557q-9 -50 -34 -87t-59 -61.5t-73.5 -36.5t-76.5 -12l18 106q19 0 35 4.5t28.5 15.5t21.5 30.5t14 48.5l97 549h127zM241 741l97 -147l-96 -17l-76 84l-109 -84l-91 17l152 147h123z" />
    <glyph glyph-name="kcommaaccent" unicode="&#x137;" horiz-adv-x="558" 
d="M28 0l129 735h134l-129 -735h-134zM365 0l-146 286l225 239h158l-232 -234l155 -291h-160zM308 -43l-12 -66q-9 -56 -48 -90.5t-90 -57.5l-10 45q36 12 54.5 32t23.5 49h-50l15 88h117z" />
    <glyph glyph-name="lacute" unicode="&#x13a;" horiz-adv-x="274" 
d="M28 0l129 735h134l-129 -735h-134zM426 908l-189 -149h-86l153 163z" />
    <glyph glyph-name="lcaron" unicode="&#x13e;" horiz-adv-x="274" 
d="M28 0l129 735h134l-129 -735h-134zM453 745l-81 -164h-66l30 164h117z" />
    <glyph glyph-name="lcommaaccent" unicode="&#x13c;" horiz-adv-x="274" 
d="M28 0l129 735h134l-129 -735h-134zM141 -43l-12 -66q-9 -56 -48 -90.5t-90 -57.5l-10 45q36 12 54.5 32t23.5 49h-50l15 88h117z" />
    <glyph glyph-name="lslash" unicode="&#x142;" horiz-adv-x="274" 
d="M28 0l62 356l-44 -38l-49 60l114 97l46 260h134l-22 -126l38 33l50 -60l-109 -93l-86 -489h-134z" />
    <glyph glyph-name="nacute" unicode="&#x144;" horiz-adv-x="593" 
d="M255 525l-15 -80q29 41 69.5 65.5t100.5 24.5q78 0 114 -48t21 -135l-62 -352h-135l57 323q8 48 -4 72t-56 24q-45 0 -83 -32t-50 -100l-50 -287h-134l92 525h135zM548 737l-185 -155h-92l141 171z" />
    <glyph glyph-name="napostrophe" unicode="&#x149;" horiz-adv-x="593" 
d="M255 525l-15 -80q29 41 69.5 65.5t100.5 24.5q78 0 114 -48t21 -135l-62 -352h-135l57 323q8 48 -4 72t-56 24q-45 0 -83 -32t-50 -100l-50 -287h-134l92 525h135zM283 766l-12 -66q-9 -56 -48 -90.5t-90 -57.5l-10 45q36 12 54.5 32t23.5 49h-50l15 88h117z" />
    <glyph glyph-name="ncaron" unicode="&#x148;" horiz-adv-x="593" 
d="M255 525l-15 -80q29 41 69.5 65.5t100.5 24.5q78 0 114 -48t21 -135l-62 -352h-135l57 323q8 48 -4 72t-56 24q-45 0 -83 -32t-50 -100l-50 -287h-134l92 525h135zM294 747l76 -84l110 84l91 -16l-152 -149h-123l-98 149z" />
    <glyph glyph-name="ncommaaccent" unicode="&#x146;" horiz-adv-x="593" 
d="M255 525l-15 -80q29 41 69.5 65.5t100.5 24.5q78 0 114 -48t21 -135l-62 -352h-135l57 323q8 48 -4 72t-56 24q-45 0 -83 -32t-50 -100l-50 -287h-134l92 525h135zM305 -43l-12 -66q-9 -56 -48 -90.5t-90 -57.5l-10 45q36 12 54.5 32t23.5 49h-50l15 88h117z" />
    <glyph glyph-name="ntilde" unicode="&#xf1;" horiz-adv-x="593" 
d="M255 525l-15 -80q29 41 69.5 65.5t100.5 24.5q78 0 114 -48t21 -135l-62 -352h-135l57 323q8 48 -4 72t-56 24q-45 0 -83 -32t-50 -100l-50 -287h-134l92 525h135zM311 730q26 0 45 -9t34 -20.5t27.5 -20.5t26.5 -9q16 0 28 8t20 34l56 -9q-15 -55 -44.5 -86.5
t-71.5 -31.5q-24 0 -42 9.5t-33.5 21.5t-30.5 21.5t-33 9.5q-37 0 -49 -48l-54 13q12 54 42.5 85.5t78.5 31.5z" />
    <glyph glyph-name="oacute" unicode="&#xf3;" horiz-adv-x="560" 
d="M313 423q-56 0 -90.5 -41t-48.5 -118q-14 -80 5.5 -121.5t76.5 -41.5q55 0 89.5 41.5t48.5 121.5q14 77 -6 118t-75 41zM332 535q54 0 96 -18.5t68 -53.5t35 -85t-2 -114q-11 -65 -38 -116t-65.5 -86.5t-87 -54t-102.5 -18.5q-55 0 -97 18.5t-68 54t-35 86.5t3 116
q11 64 37.5 114t65 85t87 53.5t103.5 18.5zM514 737l-185 -155h-92l141 171z" />
    <glyph glyph-name="obreve" unicode="&#x14f;" horiz-adv-x="560" 
d="M313 423q-56 0 -90.5 -41t-48.5 -118q-14 -80 5.5 -121.5t76.5 -41.5q55 0 89.5 41.5t48.5 121.5q14 77 -6 118t-75 41zM332 535q54 0 96 -18.5t68 -53.5t35 -85t-2 -114q-11 -65 -38 -116t-65.5 -86.5t-87 -54t-102.5 -18.5q-55 0 -97 18.5t-68 54t-35 86.5t3 116
q11 64 37.5 114t65 85t87 53.5t103.5 18.5zM298 734q-5 -34 8.5 -53t47.5 -19q38 0 57 21.5t24 50.5l81 -9q-6 -34 -23 -60.5t-41 -45t-53 -28t-60 -9.5q-30 0 -55.5 9.5t-42.5 28t-24.5 45t-1.5 60.5z" />
    <glyph glyph-name="ocircumflex" unicode="&#xf4;" horiz-adv-x="560" 
d="M313 423q-56 0 -90.5 -41t-48.5 -118q-14 -80 5.5 -121.5t76.5 -41.5q55 0 89.5 41.5t48.5 121.5q14 77 -6 118t-75 41zM332 535q54 0 96 -18.5t68 -53.5t35 -85t-2 -114q-11 -65 -38 -116t-65.5 -86.5t-87 -54t-102.5 -18.5q-55 0 -97 18.5t-68 54t-35 86.5t3 116
q11 64 37.5 114t65 85t87 53.5t103.5 18.5zM429 741l97 -147l-96 -17l-76 84l-109 -84l-91 17l152 147h123z" />
    <glyph glyph-name="odieresis" unicode="&#xf6;" horiz-adv-x="560" 
d="M313 423q-56 0 -90.5 -41t-48.5 -118q-14 -80 5.5 -121.5t76.5 -41.5q55 0 89.5 41.5t48.5 121.5q14 77 -6 118t-75 41zM332 535q54 0 96 -18.5t68 -53.5t35 -85t-2 -114q-11 -65 -38 -116t-65.5 -86.5t-87 -54t-102.5 -18.5q-55 0 -97 18.5t-68 54t-35 86.5t3 116
q11 64 37.5 114t65 85t87 53.5t103.5 18.5zM196 606l18 103h99l-18 -103h-99zM393 606l18 103h99l-18 -103h-99z" />
    <glyph glyph-name="ograve" unicode="&#xf2;" horiz-adv-x="560" 
d="M313 423q-56 0 -90.5 -41t-48.5 -118q-14 -80 5.5 -121.5t76.5 -41.5q55 0 89.5 41.5t48.5 121.5q14 77 -6 118t-75 41zM332 535q54 0 96 -18.5t68 -53.5t35 -85t-2 -114q-11 -65 -38 -116t-65.5 -86.5t-87 -54t-102.5 -18.5q-55 0 -97 18.5t-68 54t-35 86.5t3 116
q11 64 37.5 114t65 85t87 53.5t103.5 18.5zM373 753l77 -171h-91l-128 155z" />
    <glyph glyph-name="ohungarumlaut" unicode="&#x151;" horiz-adv-x="560" 
d="M313 423q-56 0 -90.5 -41t-48.5 -118q-14 -80 5.5 -121.5t76.5 -41.5q55 0 89.5 41.5t48.5 121.5q14 77 -6 118t-75 41zM332 535q54 0 96 -18.5t68 -53.5t35 -85t-2 -114q-11 -65 -38 -116t-65.5 -86.5t-87 -54t-102.5 -18.5q-55 0 -97 18.5t-68 54t-35 86.5t3 116
q11 64 37.5 114t65 85t87 53.5t103.5 18.5zM419 737l-156 -146h-73l125 162zM592 737l-155 -146h-73l125 162z" />
    <glyph glyph-name="omacron" unicode="&#x14d;" horiz-adv-x="560" 
d="M313 423q-56 0 -90.5 -41t-48.5 -118q-14 -80 5.5 -121.5t76.5 -41.5q55 0 89.5 41.5t48.5 121.5q14 77 -6 118t-75 41zM332 535q54 0 96 -18.5t68 -53.5t35 -85t-2 -114q-11 -65 -38 -116t-65.5 -86.5t-87 -54t-102.5 -18.5q-55 0 -97 18.5t-68 54t-35 86.5t3 116
q11 64 37.5 114t65 85t87 53.5t103.5 18.5zM204 601l15 86h279l-16 -86h-278z" />
    <glyph glyph-name="otilde" unicode="&#xf5;" horiz-adv-x="560" 
d="M313 423q-56 0 -90.5 -41t-48.5 -118q-14 -80 5.5 -121.5t76.5 -41.5q55 0 89.5 41.5t48.5 121.5q14 77 -6 118t-75 41zM332 535q54 0 96 -18.5t68 -53.5t35 -85t-2 -114q-11 -65 -38 -116t-65.5 -86.5t-87 -54t-102.5 -18.5q-55 0 -97 18.5t-68 54t-35 86.5t3 116
q11 64 37.5 114t65 85t87 53.5t103.5 18.5zM294 730q26 0 45 -9t34 -20.5t27.5 -20.5t26.5 -9q16 0 28 8t20 34l56 -9q-15 -55 -44.5 -86.5t-71.5 -31.5q-24 0 -42 9.5t-33.5 21.5t-30.5 21.5t-33 9.5q-37 0 -49 -48l-54 13q12 54 42.5 85.5t78.5 31.5z" />
    <glyph glyph-name="racute" unicode="&#x155;" horiz-adv-x="377" 
d="M255 525l-20 -112q23 55 67 88.5t118 33.5l-22 -130q-4 2 -12 3t-18 1q-26 0 -51.5 -9.5t-48 -29t-39 -50t-23.5 -71.5l-44 -249h-134l92 525h135zM482 737l-185 -155h-92l141 171z" />
    <glyph glyph-name="rcaron" unicode="&#x159;" horiz-adv-x="377" 
d="M255 525l-20 -112q23 55 67 88.5t118 33.5l-22 -130q-4 2 -12 3t-18 1q-26 0 -51.5 -9.5t-48 -29t-39 -50t-23.5 -71.5l-44 -249h-134l92 525h135zM223 747l76 -84l110 84l91 -16l-152 -149h-123l-98 149z" />
    <glyph glyph-name="rcommaaccent" unicode="&#x157;" horiz-adv-x="377" 
d="M255 525l-20 -112q23 55 67 88.5t118 33.5l-22 -130q-4 2 -12 3t-18 1q-26 0 -51.5 -9.5t-48 -29t-39 -50t-23.5 -71.5l-44 -249h-134l92 525h135zM145 -43l-12 -66q-9 -56 -48 -90.5t-90 -57.5l-10 45q36 12 54.5 32t23.5 49h-50l15 88h117z" />
    <glyph glyph-name="sacute" unicode="&#x15b;" horiz-adv-x="525" 
d="M314 535q55 0 94 -12.5t63 -34.5t33.5 -52.5t5.5 -67.5h-126q5 32 -17.5 51t-65.5 19q-50 0 -72.5 -17t-26.5 -40q-5 -29 19 -41t63 -18q37 -4 75 -11.5t67.5 -24.5t45 -47t6.5 -78q-6 -36 -24.5 -67.5t-50 -55t-77.5 -36.5t-109 -13q-54 0 -93.5 12.5t-63.5 35
t-33.5 53.5t-4.5 68h126q-5 -31 18.5 -50t71.5 -19q56 0 79.5 17t26.5 39q3 17 -2.5 28t-16.5 18t-27 10.5t-35 6.5q-41 5 -79.5 12.5t-67 24t-42 46t-4.5 78.5q6 34 26 64.5t51.5 53t73.5 35.5t93 13zM501 737l-185 -155h-92l141 171z" />
    <glyph glyph-name="scaron" unicode="&#x161;" horiz-adv-x="525" 
d="M314 535q55 0 94 -12.5t63 -34.5t33.5 -52.5t5.5 -67.5h-126q5 32 -17.5 51t-65.5 19q-50 0 -72.5 -17t-26.5 -40q-5 -29 19 -41t63 -18q37 -4 75 -11.5t67.5 -24.5t45 -47t6.5 -78q-6 -36 -24.5 -67.5t-50 -55t-77.5 -36.5t-109 -13q-54 0 -93.5 12.5t-63.5 35
t-33.5 53.5t-4.5 68h126q-5 -31 18.5 -50t71.5 -19q56 0 79.5 17t26.5 39q3 17 -2.5 28t-16.5 18t-27 10.5t-35 6.5q-41 5 -79.5 12.5t-67 24t-42 46t-4.5 78.5q6 34 26 64.5t51.5 53t73.5 35.5t93 13zM263 747l76 -84l110 84l91 -16l-152 -149h-123l-98 149z" />
    <glyph glyph-name="scedilla" unicode="&#x15f;" horiz-adv-x="525" 
d="M314 535q55 0 94 -12.5t63 -34.5t33.5 -52.5t5.5 -67.5h-126q5 32 -17.5 51t-65.5 19q-50 0 -72.5 -17t-26.5 -40q-5 -29 19 -41t63 -18q37 -4 75 -11.5t67.5 -24.5t45 -47t6.5 -78q-6 -34 -22.5 -64t-44.5 -52.5t-68.5 -37t-94.5 -17.5l-42 -48q8 2 17 2.5t17 0.5
q46 0 72.5 -21.5t18.5 -62.5q-5 -26 -20 -46t-38 -33.5t-51.5 -21t-58.5 -7.5q-35 0 -65 9.5t-47 29.5l46 45q8 -11 27 -18t41 -7q28 0 44.5 11t20.5 30q4 21 -13.5 34t-61.5 13q-12 0 -26.5 -1.5t-31.5 -3.5l72 97q-84 11 -120.5 55.5t-26.5 110.5h126q-5 -31 18.5 -50
t71.5 -19q56 0 79.5 17t26.5 39q3 17 -2.5 28t-16.5 18t-27 10.5t-35 6.5q-41 5 -79.5 12.5t-67 24t-42 46t-4.5 78.5q6 34 26 64.5t51.5 53t73.5 35.5t93 13z" />
    <glyph glyph-name="scedilla" unicode="&#xf6c2;" horiz-adv-x="525" 
d="M314 535q55 0 94 -12.5t63 -34.5t33.5 -52.5t5.5 -67.5h-126q5 32 -17.5 51t-65.5 19q-50 0 -72.5 -17t-26.5 -40q-5 -29 19 -41t63 -18q37 -4 75 -11.5t67.5 -24.5t45 -47t6.5 -78q-6 -34 -22.5 -64t-44.5 -52.5t-68.5 -37t-94.5 -17.5l-42 -48q8 2 17 2.5t17 0.5
q46 0 72.5 -21.5t18.5 -62.5q-5 -26 -20 -46t-38 -33.5t-51.5 -21t-58.5 -7.5q-35 0 -65 9.5t-47 29.5l46 45q8 -11 27 -18t41 -7q28 0 44.5 11t20.5 30q4 21 -13.5 34t-61.5 13q-12 0 -26.5 -1.5t-31.5 -3.5l72 97q-84 11 -120.5 55.5t-26.5 110.5h126q-5 -31 18.5 -50
t71.5 -19q56 0 79.5 17t26.5 39q3 17 -2.5 28t-16.5 18t-27 10.5t-35 6.5q-41 5 -79.5 12.5t-67 24t-42 46t-4.5 78.5q6 34 26 64.5t51.5 53t73.5 35.5t93 13z" />
    <glyph glyph-name="scircumflex" unicode="&#x15d;" horiz-adv-x="525" 
d="M314 535q55 0 94 -12.5t63 -34.5t33.5 -52.5t5.5 -67.5h-126q5 32 -17.5 51t-65.5 19q-50 0 -72.5 -17t-26.5 -40q-5 -29 19 -41t63 -18q37 -4 75 -11.5t67.5 -24.5t45 -47t6.5 -78q-6 -36 -24.5 -67.5t-50 -55t-77.5 -36.5t-109 -13q-54 0 -93.5 12.5t-63.5 35
t-33.5 53.5t-4.5 68h126q-5 -31 18.5 -50t71.5 -19q56 0 79.5 17t26.5 39q3 17 -2.5 28t-16.5 18t-27 10.5t-35 6.5q-41 5 -79.5 12.5t-67 24t-42 46t-4.5 78.5q6 34 26 64.5t51.5 53t73.5 35.5t93 13zM421 741l97 -147l-96 -17l-76 84l-109 -84l-91 17l152 147h123z" />
    <glyph glyph-name="scommaaccent" unicode="&#x219;" horiz-adv-x="525" 
d="M314 535q55 0 94 -12.5t63 -34.5t33.5 -52.5t5.5 -67.5h-126q5 32 -17.5 51t-65.5 19q-50 0 -72.5 -17t-26.5 -40q-5 -29 19 -41t63 -18q37 -4 75 -11.5t67.5 -24.5t45 -47t6.5 -78q-6 -36 -24.5 -67.5t-50 -55t-77.5 -36.5t-109 -13q-54 0 -93.5 12.5t-63.5 35
t-33.5 53.5t-4.5 68h126q-5 -31 18.5 -50t71.5 -19q56 0 79.5 17t26.5 39q3 17 -2.5 28t-16.5 18t-27 10.5t-35 6.5q-41 5 -79.5 12.5t-67 24t-42 46t-4.5 78.5q6 34 26 64.5t51.5 53t73.5 35.5t93 13zM274 -43l-12 -66q-9 -56 -48 -90.5t-90 -57.5l-10 45q36 12 54.5 32
t23.5 49h-50l15 88h117z" />
    <glyph glyph-name="tbar" unicode="&#x167;" horiz-adv-x="368" 
d="M299 647l-21 -122h132l-19 -103h-131l-18 -103h97l-15 -78h-96l-10 -58q-8 -45 6 -63t52 -18q12 0 26.5 2t32.5 7l-18 -113q-23 -4 -43.5 -6.5t-39.5 -2.5q-41 0 -73.5 10t-52.5 31.5t-27.5 55t0.5 80.5l13 75h-57l14 78h57l18 103h-76l18 103h76l21 122h134z" />
    <glyph glyph-name="tcaron" unicode="&#x165;" horiz-adv-x="368" 
d="M299 647l-21 -122h132l-19 -103h-131l-42 -239q-8 -45 6 -63t52 -18q12 0 26.5 2t32.5 7l-18 -113q-23 -4 -43.5 -6.5t-39.5 -2.5q-41 0 -73.5 10t-52.5 31.5t-27.5 55t0.5 80.5l45 256h-76l18 103h76l21 122h134zM486 745l-81 -164h-66l30 164h117z" />
    <glyph glyph-name="tcommaaccent" unicode="&#x163;" horiz-adv-x="368" 
d="M299 647l-21 -122h132l-19 -103h-131l-42 -239q-8 -45 6 -63t52 -18q12 0 26.5 2t32.5 7l-18 -113q-23 -4 -43.5 -6.5t-39.5 -2.5q-41 0 -73.5 10t-52.5 31.5t-27.5 55t0.5 80.5l45 256h-76l18 103h76l21 122h134zM234 -43l-12 -66q-9 -56 -48 -90.5t-90 -57.5l-10 45
q36 12 54.5 32t23.5 49h-50l15 88h117z" />
    <glyph glyph-name="tcommaaccent" unicode="&#x21b;" horiz-adv-x="368" 
d="M299 647l-21 -122h132l-19 -103h-131l-42 -239q-8 -45 6 -63t52 -18q12 0 26.5 2t32.5 7l-18 -113q-23 -4 -43.5 -6.5t-39.5 -2.5q-41 0 -73.5 10t-52.5 31.5t-27.5 55t0.5 80.5l45 256h-76l18 103h76l21 122h134zM234 -43l-12 -66q-9 -56 -48 -90.5t-90 -57.5l-10 45
q36 12 54.5 32t23.5 49h-50l15 88h117z" />
    <glyph glyph-name="uacute" unicode="&#xfa;" horiz-adv-x="593" 
d="M254 525l-58 -324q-8 -47 4 -71t56 -24q45 0 82.5 32t49.5 100l51 287h134l-92 -525h-135l14 79q-28 -41 -68.5 -65.5t-100.5 -24.5q-79 0 -115 48.5t-21 135.5l63 352h136zM543 737l-185 -155h-92l141 171z" />
    <glyph glyph-name="ubreve" unicode="&#x16d;" horiz-adv-x="593" 
d="M254 525l-58 -324q-8 -47 4 -71t56 -24q45 0 82.5 32t49.5 100l51 287h134l-92 -525h-135l14 79q-28 -41 -68.5 -65.5t-100.5 -24.5q-79 0 -115 48.5t-21 135.5l63 352h136zM311 734q-5 -34 8.5 -53t47.5 -19q38 0 57 21.5t24 50.5l81 -9q-6 -34 -23 -60.5t-41 -45
t-53 -28t-60 -9.5q-30 0 -55.5 9.5t-42.5 28t-24.5 45t-1.5 60.5z" />
    <glyph glyph-name="ucircumflex" unicode="&#xfb;" horiz-adv-x="593" 
d="M254 525l-58 -324q-8 -47 4 -71t56 -24q45 0 82.5 32t49.5 100l51 287h134l-92 -525h-135l14 79q-28 -41 -68.5 -65.5t-100.5 -24.5q-79 0 -115 48.5t-21 135.5l63 352h136zM440 741l97 -147l-96 -17l-76 84l-109 -84l-91 17l152 147h123z" />
    <glyph glyph-name="udieresis" unicode="&#xfc;" horiz-adv-x="593" 
d="M254 525l-58 -324q-8 -47 4 -71t56 -24q45 0 82.5 32t49.5 100l51 287h134l-92 -525h-135l14 79q-28 -41 -68.5 -65.5t-100.5 -24.5q-79 0 -115 48.5t-21 135.5l63 352h136zM206 606l18 103h99l-18 -103h-99zM403 606l18 103h99l-18 -103h-99z" />
    <glyph glyph-name="ugrave" unicode="&#xf9;" horiz-adv-x="593" 
d="M254 525l-58 -324q-8 -47 4 -71t56 -24q45 0 82.5 32t49.5 100l51 287h134l-92 -525h-135l14 79q-28 -41 -68.5 -65.5t-100.5 -24.5q-79 0 -115 48.5t-21 135.5l63 352h136zM371 753l77 -171h-91l-128 155z" />
    <glyph glyph-name="uhungarumlaut" unicode="&#x171;" horiz-adv-x="593" 
d="M254 525l-58 -324q-8 -47 4 -71t56 -24q45 0 82.5 32t49.5 100l51 287h134l-92 -525h-135l14 79q-28 -41 -68.5 -65.5t-100.5 -24.5q-79 0 -115 48.5t-21 135.5l63 352h136zM427 737l-156 -146h-73l125 162zM600 737l-155 -146h-73l125 162z" />
    <glyph glyph-name="umacron" unicode="&#x16b;" horiz-adv-x="593" 
d="M254 525l-58 -324q-8 -47 4 -71t56 -24q45 0 82.5 32t49.5 100l51 287h134l-92 -525h-135l14 79q-28 -41 -68.5 -65.5t-100.5 -24.5q-79 0 -115 48.5t-21 135.5l63 352h136zM217 601l15 86h279l-16 -86h-278z" />
    <glyph glyph-name="uogonek" unicode="&#x173;" horiz-adv-x="593" 
d="M346 0l14 79q-28 -41 -68.5 -65.5t-100.5 -24.5q-79 0 -115 48.5t-21 135.5l63 352h136l-58 -324q-8 -47 4 -71t56 -24q45 0 82.5 32t49.5 100l51 287h134l-92 -525h-28q-28 -19 -47.5 -45.5t-24.5 -51.5q-6 -46 43 -46q5 0 11.5 0.5t11.5 1.5l-14 -84q-25 -5 -48 -5
q-60 0 -89.5 28.5t-21.5 73.5q7 35 34.5 68.5t73.5 59.5h-36z" />
    <glyph glyph-name="uring" unicode="&#x16f;" horiz-adv-x="593" 
d="M254 525l-58 -324q-8 -47 4 -71t56 -24q45 0 82.5 32t49.5 100l51 287h134l-92 -525h-135l14 79q-28 -41 -68.5 -65.5t-100.5 -24.5q-79 0 -115 48.5t-21 135.5l63 352h136zM385 777q27 0 49.5 -7t38.5 -20.5t22.5 -33t2.5 -45.5q-5 -26 -19 -45.5t-34 -33t-45.5 -20
t-52.5 -6.5q-26 0 -49 6.5t-38.5 20t-23 33t-2.5 45.5q4 26 18.5 45.5t35 33t45.5 20.5t52 7zM373 713q-24 0 -40 -12t-18 -29q-4 -22 9 -32t35 -10q49 0 57 40q4 21 -9.5 32t-33.5 11z" />
    <glyph glyph-name="utilde" unicode="&#x169;" horiz-adv-x="593" 
d="M254 525l-58 -324q-8 -47 4 -71t56 -24q45 0 82.5 32t49.5 100l51 287h134l-92 -525h-135l14 79q-28 -41 -68.5 -65.5t-100.5 -24.5q-79 0 -115 48.5t-21 135.5l63 352h136zM305 730q26 0 45 -9t34 -20.5t27.5 -20.5t26.5 -9q16 0 28 8t20 34l56 -9q-15 -55 -44.5 -86.5
t-71.5 -31.5q-24 0 -42 9.5t-33.5 21.5t-30.5 21.5t-33 9.5q-37 0 -49 -48l-54 13q12 54 42.5 85.5t78.5 31.5z" />
    <glyph glyph-name="wcircumflex" unicode="&#x175;" horiz-adv-x="806" 
d="M187 525l29 -324q2 -20 2 -42t-1 -42q6 20 13.5 42t15.5 42l145 324h127l31 -324q3 -20 2.5 -42t-1.5 -42q7 20 14 42t15 42l145 324h130l-247 -525h-158l-25 274q-2 23 -2 49t2 50q-6 -24 -15.5 -50.5t-19.5 -48.5l-123 -274h-153l-61 525h135zM551 741l97 -147l-96 -17
l-76 84l-109 -84l-91 17l152 147h123z" />
    <glyph glyph-name="wacute" unicode="&#x1e83;" horiz-adv-x="806" 
d="M187 525l29 -324q2 -20 2 -42t-1 -42q6 20 13.5 42t15.5 42l145 324h127l31 -324q3 -20 2.5 -42t-1.5 -42q7 20 14 42t15 42l145 324h130l-247 -525h-158l-25 274q-2 23 -2 49t2 50q-6 -24 -15.5 -50.5t-19.5 -48.5l-123 -274h-153l-61 525h135zM646 737l-185 -155h-92
l141 171z" />
    <glyph glyph-name="wgrave" unicode="&#x1e81;" horiz-adv-x="806" 
d="M187 525l29 -324q2 -20 2 -42t-1 -42q6 20 13.5 42t15.5 42l145 324h127l31 -324q3 -20 2.5 -42t-1.5 -42q7 20 14 42t15 42l145 324h130l-247 -525h-158l-25 274q-2 23 -2 49t2 50q-6 -24 -15.5 -50.5t-19.5 -48.5l-123 -274h-153l-61 525h135zM483 753l77 -171h-91
l-128 155z" />
    <glyph glyph-name="wdieresis" unicode="&#x1e85;" horiz-adv-x="806" 
d="M187 525l29 -324q2 -20 2 -42t-1 -42q6 20 13.5 42t15.5 42l145 324h127l31 -324q3 -20 2.5 -42t-1.5 -42q7 20 14 42t15 42l145 324h130l-247 -525h-158l-25 274q-2 23 -2 49t2 50q-6 -24 -15.5 -50.5t-19.5 -48.5l-123 -274h-153l-61 525h135zM319 606l18 103h99
l-18 -103h-99zM516 606l18 103h99l-18 -103h-99z" />
    <glyph glyph-name="yacute" unicode="&#xfd;" horiz-adv-x="514" 
d="M188 525l45 -324q1 -10 2 -22.5t1 -25t-0.5 -24t-0.5 -18.5q3 7 7 18t8.5 23.5t9.5 25.5t10 23l165 324h133l-292 -556q-33 -65 -66 -102.5t-69.5 -57t-79.5 -25t-96 -5.5l21 117q50 1 80 11.5t47 36.5l24 37l-90 544h141zM516 737l-185 -155h-92l141 171z" />
    <glyph glyph-name="ycircumflex" unicode="&#x177;" horiz-adv-x="514" 
d="M188 525l45 -324q1 -10 2 -22.5t1 -25t-0.5 -24t-0.5 -18.5q3 7 7 18t8.5 23.5t9.5 25.5t10 23l165 324h133l-292 -556q-33 -65 -66 -102.5t-69.5 -57t-79.5 -25t-96 -5.5l21 117q50 1 80 11.5t47 36.5l24 37l-90 544h141zM410 741l97 -147l-96 -17l-76 84l-109 -84
l-91 17l152 147h123z" />
    <glyph glyph-name="ydieresis" unicode="&#xff;" horiz-adv-x="514" 
d="M188 525l45 -324q1 -10 2 -22.5t1 -25t-0.5 -24t-0.5 -18.5q3 7 7 18t8.5 23.5t9.5 25.5t10 23l165 324h133l-292 -556q-33 -65 -66 -102.5t-69.5 -57t-79.5 -25t-96 -5.5l21 117q50 1 80 11.5t47 36.5l24 37l-90 544h141zM176 606l18 103h99l-18 -103h-99zM373 606
l18 103h99l-18 -103h-99z" />
    <glyph glyph-name="ygrave" unicode="&#x1ef3;" horiz-adv-x="514" 
d="M188 525l45 -324q1 -10 2 -22.5t1 -25t-0.5 -24t-0.5 -18.5q3 7 7 18t8.5 23.5t9.5 25.5t10 23l165 324h133l-292 -556q-33 -65 -66 -102.5t-69.5 -57t-79.5 -25t-96 -5.5l21 117q50 1 80 11.5t47 36.5l24 37l-90 544h141zM346 753l77 -171h-91l-128 155z" />
    <glyph glyph-name="zacute" unicode="&#x17a;" horiz-adv-x="484" 
d="M-13 0l18 104l320 318h-250l19 103h407l-19 -103l-319 -318h269l-18 -104h-427zM495 737l-185 -155h-92l141 171z" />
    <glyph glyph-name="zcaron" unicode="&#x17e;" horiz-adv-x="484" 
d="M-13 0l18 104l320 318h-250l19 103h407l-19 -103l-319 -318h269l-18 -104h-427zM238 747l76 -84l110 84l91 -16l-152 -149h-123l-98 149z" />
    <glyph glyph-name="zdotaccent" unicode="&#x17c;" horiz-adv-x="484" 
d="M-13 0l18 104l320 318h-250l19 103h407l-19 -103l-319 -318h269l-18 -104h-427zM247 606l21 118h128l-20 -118h-129z" />
    <glyph glyph-name="aeacute" unicode="&#x1fd;" horiz-adv-x="922" 
d="M303 535q60 0 90 -31t41 -76l17 97h99l-14 -82q38 44 87.5 68t103.5 24q49 0 83.5 -11.5t56.5 -30.5t32.5 -43.5t10.5 -50.5q0 -34 -14 -64.5t-45.5 -53t-82 -35.5t-122.5 -13h-111q-8 -69 13.5 -102t76.5 -33q40 0 69.5 19.5t39.5 54.5h134q-10 -40 -35 -73.5t-59.5 -58
t-77.5 -38t-89 -13.5q-49 0 -83.5 19t-54.5 54l-10 -62h-99l16 95q-27 -43 -69.5 -74.5t-99.5 -31.5q-48 0 -84.5 19.5t-58.5 55.5t-29 86.5t4 111.5q10 61 34.5 111.5t59.5 86.5t78.5 55.5t91.5 19.5zM315 422q-56 0 -89.5 -41.5t-47.5 -118.5q-14 -76 5 -117.5t76 -41.5
q31 0 55.5 12.5t42.5 33.5t30 49.5t18 60.5q14 80 -9.5 121.5t-80.5 41.5zM701 737l-185 -155h-92l141 171zM698 434q-49 0 -85.5 -26.5t-56.5 -83.5h96q66 0 92 17t26 43q0 19 -16 34.5t-56 15.5z" />
    <glyph glyph-name="iacute_jacute" horiz-adv-x="537" 
d="M28 0l92 525h127l-92 -525h-127zM516 525l-98 -557q-9 -50 -33.5 -86t-58.5 -59t-73 -34t-78 -11l19 107q19 0 35 3t28 13t21 28t14 47l97 549h127zM366 737l-185 -155h-92l141 171zM636 737l-185 -155h-92l141 171z" />
    <glyph glyph-name="oslashacute" unicode="&#x1ff;" horiz-adv-x="558" 
d="M332 535q72 0 121 -29l17 19h101l-65 -72q21 -35 27.5 -82t-4.5 -107q-23 -133 -100.5 -204t-192.5 -71q-70 0 -120 28l-15 -17h-104l64 71q-21 35 -27 83.5t5 109.5q11 64 37 114.5t63.5 85.5t86.5 53t106 18zM525 737l-185 -155h-92l141 171zM312 419q-57 0 -93.5 -41
t-48.5 -114q-7 -42 -4 -76l197 218q-23 13 -51 13zM399 264q8 41 3 72l-196 -218q21 -12 51 -12q55 0 91.5 41t50.5 117z" />
    <glyph glyph-name="f_f" unicode="&#xfb00;" horiz-adv-x="669" 
d="M369 745q19 0 38.5 -2t40.5 -6l-19 -110q-19 5 -32.5 6.5t-30.5 1.5q-35 0 -54 -18t-26 -53l-6 -39h171l7 37q16 94 75 138.5t142 44.5q18 0 38 -2t41 -6l-20 -110q-18 5 -32 6.5t-30 1.5q-36 0 -55 -18t-25 -53l-6 -39h130l-18 -103h-131l-109 -632h-136l110 632h-170
l-110 -632h-134l109 632h-75l18 103h76l6 37q16 94 75 138.5t142 44.5z" />
    <glyph glyph-name="f_b" horiz-adv-x="939" 
d="M683 422q-57 0 -94 -41.5t-51 -121.5q-6 -32 -4.5 -60.5t12 -49.5t30.5 -33.5t51 -12.5q57 0 89.5 41.5t46.5 117.5q14 77 -4.5 118.5t-75.5 41.5zM409 745q51 0 106.5 -5.5t104.5 -15.5l-53 -296q29 45 71 76t102 31q48 0 84 -19.5t58 -55.5t28.5 -86.5t-4.5 -111.5
t-35 -111.5t-58 -86.5t-77 -55.5t-92 -19.5q-57 0 -90 29.5t-44 73.5l-17 -92h-134l110 627q-18 4 -37 6t-44 2q-88 0 -102 -71l-6 -39h117l-19 -103h-116l-109 -632h-135l109 632h-75l18 103h76l6 37q8 47 31 81.5t57.5 57t77.5 33.5t91 11z" />
    <glyph glyph-name="f_h" horiz-adv-x="917" 
d="M409 745q51 0 106.5 -5.5t104.5 -15.5l-50 -279q29 41 68.5 65.5t98.5 24.5q79 0 113 -48t19 -135l-62 -352h-135l56 323q9 48 -3 72t-56 24q-45 0 -79.5 -32t-45.5 -100l-51 -287h-134l110 627q-18 4 -37 6t-44 2q-88 0 -102 -71l-6 -39h117l-19 -103h-116l-111 -632
h-134l110 632h-75l18 103h76l6 37q8 47 31 81.5t57.5 57t77.5 33.5t91 11z" />
    <glyph glyph-name="f_i" unicode="&#xfb01;" horiz-adv-x="599" 
d="M369 745q12 0 27 -1.5t27 -3.5l-20 -110q-8 2 -19.5 3.5t-19.5 1.5q-36 0 -53.5 -18t-24.5 -53l-6 -39h298l-92 -525h-134l74 422h-164l-110 -632h-134l109 632h-75l18 103h76l6 37q16 94 75 138.5t142 44.5zM612 713l-20 -117h-137l22 117h135z" />
    <glyph glyph-name="f_j" horiz-adv-x="599" 
d="M369 745q12 0 27 -1.5t27 -3.5l-20 -110q-8 2 -19.5 3.5t-19.5 1.5q-36 0 -53.5 -18t-24.5 -53l-6 -39h298l-98 -557q-9 -50 -34.5 -86t-60.5 -59t-75.5 -33.5t-78.5 -10.5l18 106q19 0 35 3.5t28.5 13t21 27.5t13.5 47l79 446h-164l-74 -422h-135l74 422h-75l18 103h76
l6 37q16 94 75 138.5t142 44.5zM612 713l-20 -117h-137l22 117h135z" />
    <glyph glyph-name="f_k" horiz-adv-x="903" 
d="M409 745q51 0 106.5 -5.5t104.5 -15.5l-127 -724h-134l110 627q-18 4 -37 6t-44 2q-88 0 -102 -71l-6 -39h117l-19 -103h-116l-110 -632h-134l109 632h-75l18 103h76l6 37q8 47 31 81.5t57.5 57t77.5 33.5t91 11zM933 525l-232 -234l155 -291h-160l-147 286l226 239h158z
" />
    <glyph glyph-name="f_l" unicode="&#xfb02;" horiz-adv-x="599" 
d="M409 745q51 0 103 -5.5t102 -15.5l-128 -724h-134l109 627q-17 4 -34 6t-43 2q-45 0 -68 -18t-30 -53l-6 -39h114l-19 -103h-113l-111 -632h-134l110 632h-75l18 103h76l6 37q8 47 31 81.5t57.5 57t77.5 33.5t91 11z" />
    <glyph glyph-name="f_t" horiz-adv-x="671" 
d="M373 745q11 0 26 -1.5t27 -3.5l-20 -110q-8 2 -20 3.5t-20 1.5q-35 0 -54 -18t-26 -53l-6 -39h164l21 122h135l-22 -122h138l-18 -103h-138l-42 -236q-8 -45 8 -64.5t54 -19.5q13 0 29 2.5t34 7.5l-19 -114q-23 -4 -45.5 -6.5t-41.5 -2.5q-41 0 -73.5 11t-53.5 33.5
t-28.5 57t0.5 81.5l44 250h-164l-110 -632h-134l109 632h-75l18 103h76l6 37q8 47 28 81.5t49 57t66 33.5t78 11z" />
    <glyph glyph-name="f_f_b" horiz-adv-x="1244" 
d="M369 745q19 0 38.5 -2t40.5 -6l-19 -110q-19 5 -32.5 6.5t-30.5 1.5q-35 0 -54 -18t-26 -53l-6 -39h171l7 37q8 47 31 81.5t57.5 57t77.5 33.5t91 11q50 0 105 -5.5t105 -15.5l-52 -296q27 45 69.5 76t102.5 31q48 0 84 -19.5t58 -55.5t28 -86.5t-4 -111.5
q-11 -61 -35 -111.5t-58 -86.5t-77 -55.5t-91 -19.5q-58 0 -91.5 29.5t-44.5 73.5l-15 -92h-135l109 627q-17 4 -35.5 6t-44.5 2q-89 0 -101 -71l-6 -39h116l-19 -103h-116l-109 -632h-136l110 632h-170l-110 -632h-134l109 632h-75l18 103h76l6 37q16 94 75 138.5t142 44.5
zM991 422q-57 0 -95 -41.5t-52 -121.5q-6 -32 -4 -60.5t13 -49.5t31.5 -33.5t51.5 -12.5q57 0 87.5 41.5t44.5 117.5q14 77 -3 118.5t-74 41.5z" />
    <glyph glyph-name="f_f_h" horiz-adv-x="1222" 
d="M369 745q19 0 38.5 -2t40.5 -6l-19 -110q-19 5 -32.5 6.5t-30.5 1.5q-35 0 -54 -18t-26 -53l-6 -39h171l7 37q8 47 31 81.5t57.5 57t77.5 33.5t91 11q50 0 105 -5.5t105 -15.5l-49 -279q29 41 69.5 65.5t99.5 24.5q80 0 112 -48t17 -135l-62 -352h-135l57 323q8 48 -4 72
t-56 24q-45 0 -79.5 -32t-46.5 -100l-49 -287h-135l109 627q-17 4 -35.5 6t-44.5 2q-89 0 -101 -71l-6 -39h116l-19 -103h-116l-109 -632h-135l109 632h-170l-109 -632h-135l109 632h-75l18 103h76l6 37q16 94 75 138.5t142 44.5z" />
    <glyph glyph-name="f_f_i" unicode="&#xfb03;" horiz-adv-x="905" 
d="M369 745q19 0 38.5 -2t40.5 -6l-19 -110q-19 5 -32.5 6.5t-30.5 1.5q-35 0 -54 -18t-26 -53l-6 -39h171l7 37q16 94 75 138.5t142 44.5q11 0 26 -1.5t27 -3.5l-19 -110q-22 5 -41 5q-35 0 -52.5 -18t-23.5 -53l-6 -39h298l-93 -525h-134l73 422h-163l-109 -632h-136
l110 632h-170l-110 -632h-134l109 632h-75l18 103h76l6 37q16 94 75 138.5t142 44.5zM761 596l20 117h136l-21 -117h-135z" />
    <glyph glyph-name="f_f_j" horiz-adv-x="905" 
d="M369 745q19 0 38.5 -2t40.5 -6l-19 -110q-19 5 -32.5 6.5t-30.5 1.5q-35 0 -54 -18t-26 -53l-6 -39h171l7 37q16 94 75 138.5t142 44.5q11 0 26 -1.5t27 -3.5l-19 -110q-22 5 -41 5q-35 0 -52.5 -18t-23.5 -53l-6 -39h298l-99 -557q-9 -50 -34.5 -86t-60.5 -59t-75.5 -34
t-79.5 -11l19 107q19 0 35 3t28 13t21 28t14 47l78 446h-163l-74 -422h-134l73 422h-170l-109 -632h-135l109 632h-75l18 103h76l6 37q16 94 75 138.5t142 44.5zM917 713l-21 -117h-135l20 117h136z" />
    <glyph glyph-name="f_f_k" horiz-adv-x="1208" 
d="M369 745q19 0 38.5 -2t40.5 -6l-19 -110q-19 5 -32.5 6.5t-30.5 1.5q-35 0 -54 -18t-26 -53l-6 -39h171l7 37q8 47 31 81.5t57.5 57t77.5 33.5t91 11q50 0 105 -5.5t105 -15.5l-126 -724h-135l109 627q-35 8 -83 8q-45 0 -68.5 -18t-29.5 -53l-6 -39h116l-19 -103h-116
l-109 -632h-135l109 632h-170l-109 -632h-135l109 632h-75l18 103h76l6 37q16 94 75 138.5t142 44.5zM1238 525l-237 -234l159 -291h-158l-148 286l224 239h160z" />
    <glyph glyph-name="f_f_l" unicode="&#xfb04;" horiz-adv-x="905" 
d="M369 745q19 0 38.5 -2t40.5 -6l-19 -110q-19 5 -32.5 6.5t-30.5 1.5q-35 0 -54 -18t-26 -53l-6 -39h171l7 37q8 47 31 81.5t57.5 57t77.5 33.5t91 11q50 0 102 -5.5t101 -15.5l-127 -724h-134l110 627q-18 4 -33.5 6t-40.5 2q-89 0 -101 -71l-6 -39h112l-18 -103h-113
l-109 -632h-136l110 632h-170l-110 -632h-134l109 632h-75l18 103h76l6 37q16 94 75 138.5t142 44.5z" />
    <glyph glyph-name="f_f_t" horiz-adv-x="977" 
d="M369 745q19 0 38.5 -2t40.5 -6l-19 -110q-19 5 -32.5 6.5t-30.5 1.5q-35 0 -54 -18t-26 -53l-6 -39h171l7 37q16 94 75 138.5t142 44.5q11 0 26 -1.5t27 -3.5l-19 -110q-22 5 -41 5q-35 0 -52.5 -18t-23.5 -53l-6 -39h164l21 122h134l-21 -122h138l-20 -103h-137
l-42 -236q-7 -45 8.5 -64.5t54.5 -19.5q12 0 28 2.5t35 7.5l-19 -114q-23 -4 -44 -6.5t-39 -2.5q-41 0 -74.5 11t-55.5 33.5t-30 57t1 81.5l42 250h-163l-109 -632h-135l109 632h-170l-109 -632h-135l109 632h-75l18 103h76l6 37q16 94 75 138.5t142 44.5z" />
    <glyph glyph-name="s_p" horiz-adv-x="1114" 
d="M317 535q51 0 95 -1.5t93.5 -3.5t110 -3.5t145.5 -1.5l-17 -97q27 45 69.5 76t102.5 31q48 0 84 -19.5t57.5 -55.5t28 -86.5t-3.5 -111.5q-11 -61 -35 -111.5t-58.5 -86.5t-77.5 -55.5t-91 -19.5q-57 0 -90.5 30.5t-44.5 75.5l-53 -305h-134l111 637q-85 2 -163.5 6.5
t-140.5 4.5q-25 0 -43 -5t-30 -13t-18 -18.5t-8 -21.5q-2 -15 3.5 -25t16.5 -16t27.5 -10t35.5 -7q36 -5 73.5 -12.5t66 -24t43.5 -45.5t6 -77q-6 -37 -24.5 -68.5t-50 -55t-77.5 -37t-109 -13.5q-54 0 -92.5 12.5t-62.5 35t-33.5 53.5t-6.5 68h123q-2 -31 21.5 -50
t71.5 -19q56 0 79 18.5t27 43.5q3 15 -2 25t-16 16.5t-27 10t-35 6.5q-33 4 -70 11.5t-67 24t-46.5 45.5t-7.5 78q6 34 26 64.5t51.5 53t73.5 36t93 13.5zM859 422q-57 0 -93.5 -41.5t-50.5 -121.5q-6 -32 -5 -60.5t11.5 -49.5t30.5 -33.5t51 -12.5q57 0 89.5 41.5
t46.5 117.5q13 77 -5 118.5t-75 41.5z" />
    <glyph glyph-name="s_t" unicode="&#xfb06;" horiz-adv-x="853" 
d="M317 535q42 0 79.5 -1.5t74 -3.5t74 -3.5t81.5 -1.5l22 122h134l-22 -122h139l-19 -103h-138l-42 -236q-8 -45 7.5 -64.5t54.5 -19.5q13 0 29 2.5t34 7.5l-19 -114q-23 -4 -43.5 -6.5t-39.5 -2.5q-41 0 -74 11t-55 33.5t-30 57t0 81.5l44 255q-87 2 -164 6.5t-139 4.5
q-25 0 -43 -5t-30 -13t-18 -18.5t-8 -21.5q-2 -15 3.5 -25t16.5 -16t27.5 -10t35.5 -7q34 -5 71 -12.5t66 -24t45 -45.5t7 -77q-6 -37 -24.5 -68.5t-50 -55t-77.5 -37t-109 -13.5q-54 0 -92.5 12.5t-62.5 35t-33.5 53.5t-6.5 68h123q-2 -31 21.5 -50t71.5 -19q56 0 79 18.5
t27 43.5q3 15 -2 25t-16 16.5t-27 10t-35 6.5q-33 4 -70 11.5t-67 24t-46.5 45.5t-7.5 78q6 34 26 64.5t51.5 53t73.5 36t93 13.5z" />
    <glyph glyph-name="c_t" horiz-adv-x="907" 
d="M338 535q63 0 107.5 -27t63.5 -78q28 4 59.5 25.5t59 53.5t48 71.5t27.5 79.5h134l-24 -135h139l-19 -103h-138l-42 -236q-7 -45 8.5 -64.5t53.5 -19.5q28 0 64 10l-19 -114q-23 -4 -43.5 -6.5t-39.5 -2.5q-41 0 -74.5 11t-55 33.5t-30 57t0.5 81.5l48 276
q-17 -21 -36 -42t-42 -37.5t-50 -26.5t-59 -10h-83q0 39 -18.5 65t-63.5 26q-59 0 -93.5 -43t-47.5 -118q-14 -75 5.5 -118t78.5 -43q46 0 73 26.5t42 65.5h134q-14 -45 -39.5 -82.5t-60 -64.5t-76.5 -42t-88 -15q-60 0 -103.5 19.5t-69 55.5t-33.5 86t3 112q10 61 36 111.5
t64 86.5t88.5 55.5t110.5 19.5z" />
    <glyph glyph-name="T_i" horiz-adv-x="804" 
d="M819 720l-19 -112h-347l-108 -608h-142l106 608h-233l20 112h723zM561 0l90 514h132l-91 -514h-131z" />
    <glyph glyph-name="T_h" horiz-adv-x="1138" 
d="M849 720l-51 -284q28 40 68 64t98 24q78 0 109 -47t17 -132l-61 -345h-132l56 317q8 46 -4 70t-55 24q-45 0 -78.5 -32t-44.5 -98l-50 -281h-131l107 608h-244l-108 -608h-142l106 608h-233l20 112h753z" />
    <glyph glyph-name="o_f" horiz-adv-x="903" 
d="M332 535q20 0 39 -2.5t36 -7.5h278l6 37q17 94 76 138.5t141 44.5q36 0 79 -8l-19 -110q-19 5 -32.5 6.5t-29.5 1.5q-36 0 -55 -18t-26 -53l-6 -39h131l-19 -103h-131l-110 -632h-134l110 632h-162q20 -28 27 -68.5t-2 -89.5q-11 -66 -38 -117t-65.5 -86.5t-87 -53.5
t-102.5 -18q-55 0 -97 18t-68 53.5t-35 86.5t3 117q11 64 38 114.5t65 85.5t86.5 53t103.5 18zM312 419q-57 0 -91 -39.5t-48 -115.5q-26 -158 84 -158q111 0 138 158q14 76 -6.5 115.5t-76.5 39.5z" />
    <glyph glyph-name="o_f_f" horiz-adv-x="1212" 
d="M332 535q20 0 39 -2.5t36 -7.5h278l6 37q17 94 76 138.5t141 44.5q36 0 79 -8l-19 -110q-19 5 -32.5 6.5t-29.5 1.5q-36 0 -55 -18t-26 -53l-6 -39h171l6 37q17 94 76 138.5t142 44.5q19 0 38 -2t40 -6l-19 -110q-19 5 -32.5 6.5t-29.5 1.5q-35 0 -54.5 -18t-26.5 -53
l-6 -39h132l-19 -103h-131l-110 -632h-134l110 632h-172l-110 -632h-134l110 632h-162q20 -28 27 -68.5t-2 -89.5q-11 -66 -38 -117t-65.5 -86.5t-87 -53.5t-102.5 -18q-55 0 -97 18t-68 53.5t-35 86.5t3 117q11 64 38 114.5t65 85.5t86.5 53t103.5 18zM312 419
q-57 0 -91 -39.5t-48 -115.5q-26 -158 84 -158q111 0 138 158q14 76 -6.5 115.5t-76.5 39.5z" />
    <glyph glyph-name="o_f_i" horiz-adv-x="1138" 
d="M332 535q20 0 39 -2.5t36 -7.5h278l6 37q17 94 76 138.5t141 44.5q11 0 26 -1.5t28 -3.5l-19 -110q-22 5 -40 5q-35 0 -53 -18t-25 -53l-6 -39h298l-92 -525h-134l73 422h-164l-109 -632h-134l109 632h-162q20 -28 27 -68.5t-2 -89.5q-11 -66 -38 -117t-65.5 -86.5
t-87 -53.5t-102.5 -18q-55 0 -97 18t-68 53.5t-35 86.5t3 117q11 64 38 114.5t65 85.5t86.5 53t103.5 18zM312 419q-57 0 -91 -39.5t-48 -115.5q-26 -158 84 -158q111 0 138 158q14 76 -6.5 115.5t-76.5 39.5zM994 596l21 117h136l-21 -117h-136z" />
    <glyph glyph-name="o_f_f_i" horiz-adv-x="1443" 
d="M332 535q20 0 39 -2.5t36 -7.5h271l6 37q17 94 75.5 138.5t141.5 44.5q19 0 38.5 -2t41.5 -6l-20 -110q-19 5 -33.5 6.5t-30.5 1.5q-36 0 -54 -18t-25 -53l-6 -39h171l6 37q17 94 75.5 138.5t141.5 44.5q11 0 26 -1.5t28 -3.5l-19 -110q-9 2 -20.5 3.5t-19.5 1.5
q-35 0 -53 -18t-25 -53l-6 -39h305l-92 -525h-134l74 422h-171l-110 -632h-135l110 632h-171l-110 -632h-133l109 632h-155q20 -28 27 -68.5t-2 -89.5q-11 -66 -38 -117t-65.5 -86.5t-87 -53.5t-102.5 -18q-55 0 -97 18t-68 53.5t-35 86.5t3 117q11 64 38 114.5t65 85.5
t86.5 53t103.5 18zM312 419q-57 0 -91 -39.5t-48 -115.5q-26 -158 84 -158q111 0 138 158q14 76 -6.5 115.5t-76.5 39.5zM1299 596l22 117h135l-20 -117h-137z" />
    <glyph glyph-name="C" unicode="C" horiz-adv-x="733" 
d="M702 231q-15 -54 -47 -98.5t-77 -76.5t-102 -49.5t-122 -17.5q-79 0 -137.5 28.5t-94 78.5t-47.5 117.5t2 146.5q14 78 50 146t89 117.5t121 78t148 28.5q65 0 115.5 -17.5t84.5 -49.5t50 -76.5t12 -98.5h-147q1 55 -34 86t-104 31q-48 0 -86.5 -18t-67.5 -50t-48 -77.5
t-29 -99.5q-9 -54 -6 -99t20.5 -77t50 -50t80.5 -18q69 0 114 30.5t65 84.5h147z" />
    <glyph glyph-name="Germandbls" horiz-adv-x="748" 
d="M466 730q42 0 82 -8t76 -23.5t65 -38.5t48 -54l-181 -184q34 -12 62.5 -30t47 -42t25.5 -55t0 -69q-8 -45 -33 -87.5t-65.5 -76t-96.5 -53.5t-125 -20q-9 0 -21.5 0.5t-25.5 1.5t-25 2t-20 3l20 114q15 -4 36.5 -5.5t34.5 -1.5q67 0 110.5 32t54.5 92q6 36 -5.5 62
t-35.5 43.5t-58 27t-73 12.5l194 201q-19 20 -55 31t-74 11q-24 0 -49.5 -5t-47 -16t-37 -28.5t-19.5 -41.5l-91 -524h-143l92 526q9 51 38 89t73 63.5t100.5 38.5t121.5 13z" />
    <glyph glyph-name="ampersand" unicode="&#x26;" horiz-adv-x="711" 
d="M422 730q127 0 184.5 -58.5t51.5 -155.5h-135q1 24 -3.5 43.5t-17.5 32.5t-37 20t-62 7q-63 0 -97.5 -29.5t-41.5 -71.5q-8 -48 18 -70.5t72 -22.5h380l-18 -97h-102l-57 -328h-289q-126 0 -185 51t-43 145q13 71 64.5 122t144.5 62q-76 20 -99.5 59.5t-14.5 94.5
q7 40 31 75.5t61.5 62.5t86.5 42.5t108 15.5zM454 113l38 215h-163q-58 0 -99.5 -23.5t-52.5 -83.5q-4 -24 -0.5 -44t16 -34.5t36 -22t58.5 -7.5h167z" />
    <glyph glyph-name="nonbreakingspace" unicode="&#xa0;" horiz-adv-x="227" 
 />
    <glyph glyph-name="A" unicode="A" horiz-adv-x="676" 
d="M529 720l117 -720h-158l-27 185h-270l-92 -185h-151l372 720h209zM405 627q-10 -23 -23.5 -54t-24.5 -54l-114 -224h203l-33 226q-3 23 -5 53t-3 53z" />
    <glyph glyph-name="B" unicode="B" horiz-adv-x="701" 
d="M404 421q61 0 89 28t36 68q4 21 1 37.5t-13.5 28.5t-30.5 18.5t-51 6.5h-144l-33 -187h146zM41 0l127 720h328q55 0 93.5 -14t61 -37.5t30.5 -55t2 -66.5q-13 -66 -54.5 -109.5t-122.5 -59.5q83 -11 116.5 -60.5t21.5 -120.5q-8 -41 -29.5 -77t-55 -62.5t-78.5 -42
t-100 -15.5h-340zM358 113q69 0 103 28.5t42 74.5q4 22 0 42t-16.5 34t-35 22.5t-56.5 8.5h-155l-36 -210h154z" />
    </font>
</defs>
</svg>
