<?xml version="1.0" standalone="no"?>
<!DOCTYPE svg PUBLIC "-//W3C//DTD SVG 1.1//EN" "http://www.w3.org/Graphics/SVG/1.1/DTD/svg11.dtd" >
<svg>
<metadata>
Created by FontForge 20110222 at Tue Jan  6 19:06:59 2015
 By deploy user
Copyright (c) 2011 by Frantisek Storm. www.stormtype.com. All rights reserved.
</metadata>
<defs>
<font id="TriviaSeznam-Bold" horiz-adv-x="676" >
  <font-face 
    font-family="Trivia Seznam"
    font-weight="700"
    font-stretch="normal"
    units-per-em="1000"
    panose-1="2 0 5 6 9 0 0 2 0 3"
    ascent="800"
    descent="-200"
    x-height="525"
    cap-height="720"
    bbox="-100 -257 1373 930"
    underline-thickness="50"
    underline-position="-100"
    unicode-range="U+000D-FB06"
  />
<missing-glyph horiz-adv-x="227" 
 />
    <glyph glyph-name=".notdef" horiz-adv-x="227" 
 />
    <glyph glyph-name=".null" horiz-adv-x="0" 
 />
    <glyph glyph-name=".null" horiz-adv-x="0" 
 />
    <glyph glyph-name="nonmarkingreturn" unicode="&#xd;" horiz-adv-x="227" 
 />
    <glyph glyph-name="space" unicode=" " horiz-adv-x="227" 
 />
    <glyph glyph-name="D" unicode="D" horiz-adv-x="758" 
d="M82 0v720h311q72 0 129 -24.5t97.5 -70.5t62 -112t21.5 -150t-21 -151t-60 -114t-95 -72.5t-127 -25.5h-318zM368 113q94 0 139.5 59.5t45.5 188.5t-47.5 188t-141.5 59h-139v-495h143z" />
    <glyph glyph-name="E" unicode="E" horiz-adv-x="623" 
d="M82 0v720h492v-112h-349v-181h287v-109h-287v-205h356v-113h-499z" />
    <glyph glyph-name="F" unicode="F" horiz-adv-x="584" 
d="M575 720v-112h-350v-203h288v-110h-288v-295h-143v720h493z" />
    <glyph glyph-name="G" unicode="G" horiz-adv-x="789" 
d="M400 730q64 0 117.5 -17.5t92.5 -49t63 -76t29 -98.5h-146q-9 55 -49 85.5t-109 30.5q-48 0 -83.5 -18t-59 -50t-34.5 -77.5t-11 -99.5q0 -116 44.5 -181t139.5 -65q78 0 123.5 44t46.5 130h-178v106h322v-394h-137v131q-10 -29 -26 -54.5t-40.5 -45t-58.5 -31t-81 -11.5
q-58 0 -113.5 23.5t-99 70t-70 116t-26.5 161.5q0 78 24 146t68.5 117.5t108 78t143.5 28.5z" />
    <glyph glyph-name="H" unicode="H" horiz-adv-x="729" 
d="M504 0v317h-279v-317h-143v720h143v-292h279v292h142v-720h-142z" />
    <glyph glyph-name="I" unicode="I" horiz-adv-x="308" 
d="M82 0v720h143v-720h-143z" />
    <glyph glyph-name="J" unicode="J" horiz-adv-x="585" 
d="M506 720v-499q0 -54 -18.5 -97t-53 -73t-83.5 -46t-109 -16q-106 0 -169.5 58.5t-76.5 155.5h148q1 -18 7 -34t18 -29t31.5 -20.5t46.5 -7.5q62 0 89 26.5t27 80.5v501h143z" />
    <glyph glyph-name="K" unicode="K" horiz-adv-x="693" 
d="M82 0v720h143v-720h-143zM515 0l-283 378l267 342h166l-267 -333l289 -387h-172z" />
    <glyph glyph-name="L" unicode="L" horiz-adv-x="562" 
d="M82 0v720h143v-607h327v-113h-470z" />
    <glyph glyph-name="M" unicode="M" horiz-adv-x="927" 
d="M306 720l142 -449q5 -19 10.5 -48t7.5 -52q1 11 3 25t4.5 27.5t5 26t5.5 21.5l139 449h222v-720h-142v503v24t0.5 29t1 28.5t1.5 24.5q-4 -23 -9.5 -50.5t-12.5 -47.5l-162 -511h-116l-163 511q-6 20 -11 46.5t-10 51.5q2 -22 2.5 -53.5t0.5 -51.5v-504h-143v720h224z
" />
    <glyph glyph-name="N" unicode="N" horiz-adv-x="746" 
d="M284 720l216 -469q7 -16 15 -41.5t13 -48.5q-1 8 -2 21t-1.5 27.5t-1 27.5t-0.5 22v461h140v-720h-185l-230 507q-7 16 -14.5 42.5t-12.5 46.5q1 -8 1.5 -20.5t1 -25.5t1 -25.5t0.5 -19.5v-505h-143v720h202z" />
    <glyph glyph-name="O" unicode="O" horiz-adv-x="793" 
d="M397 605q-48 0 -83.5 -18t-58.5 -50t-34 -77.5t-11 -99.5t11 -99t34 -77t58.5 -50t83.5 -18t83 18t58 50t34 77t11 99t-11 99.5t-34 77.5t-58 50t-83 18zM397 730q79 0 142 -28.5t107 -78t67.5 -117.5t23.5 -146q0 -79 -23.5 -146.5t-67.5 -117.5t-107 -78.5t-142 -28.5
q-80 0 -143 28.5t-107 78.5t-67.5 117.5t-23.5 146.5q0 78 23.5 146t67.5 117.5t107 78t143 28.5z" />
    <glyph glyph-name="P" unicode="P" horiz-adv-x="666" 
d="M415 720q55 0 96.5 -18t69.5 -49.5t42 -73t14 -87.5q0 -48 -14 -90.5t-42.5 -74t-72 -50t-101.5 -18.5h-182v-259h-143v720h333zM225 608v-246h153q61 0 86.5 35.5t25.5 90.5q0 53 -25 86.5t-87 33.5h-153z" />
    <glyph glyph-name="Q" unicode="Q" horiz-adv-x="793" 
d="M397 730q79 0 142 -28.5t107 -78t67.5 -117.5t23.5 -146q0 -95 -33 -173t-96 -128l130 -171h-152l-85 115q-50 -14 -104 -14q-80 0 -143 28.5t-107 78.5t-67.5 117.5t-23.5 146.5q0 78 23.5 146t67.5 117.5t107 78t143 28.5zM480 229l45 -61q29 32 43.5 81.5t14.5 110.5
q0 54 -11 99.5t-34 77.5t-58 50t-83 18t-83.5 -18t-58.5 -50t-34 -77.5t-11 -99.5t11 -99t34 -77t58.5 -50t83.5 -18h11t11 1l-82 112h143z" />
    <glyph glyph-name="R" unicode="R" horiz-adv-x="701" 
d="M502 0q0 90 -9.5 146t-27 87t-42.5 42t-57 11h-141v-286h-143v720h339q57 0 98.5 -15.5t68.5 -42t40 -62t13 -76.5q0 -78 -42.5 -126t-126.5 -56q36 -5 67.5 -21.5t55 -54.5t37 -102t13.5 -164h-143zM383 397q61 0 84.5 28.5t23.5 79.5q0 48 -23.5 75.5t-84.5 27.5h-158
v-211h158z" />
    <glyph glyph-name="S" unicode="S" horiz-adv-x="688" 
d="M347 730q66 0 117.5 -16.5t88.5 -45.5t57.5 -69.5t23.5 -88.5h-148q-3 24 -10.5 43.5t-24 33.5t-43 21.5t-65.5 7.5q-37 0 -61.5 -7.5t-39.5 -20.5t-21.5 -30t-6.5 -35q0 -47 36.5 -65.5t107.5 -27.5q63 -6 114.5 -20t88 -38t57 -60.5t20.5 -87.5t-20 -94t-58 -74.5
t-93.5 -49t-126.5 -17.5q-66 0 -118 16.5t-89 46.5t-58.5 71t-24.5 90h149q4 -49 36.5 -80t110.5 -31q37 0 62.5 8.5t41.5 22.5t23.5 32t7.5 38q0 26 -9.5 43t-29 28t-48.5 17.5t-68 11.5q-65 8 -115 22t-83.5 38t-50.5 60.5t-17 88.5q0 45 18.5 84.5t54.5 69.5t89.5 47
t124.5 17z" />
    <glyph glyph-name="T" unicode="T" horiz-adv-x="629" 
d="M244 0v608h-233v112h608v-112h-233v-608h-142z" />
    <glyph glyph-name="U" unicode="U" horiz-adv-x="741" 
d="M522 720h144v-499q0 -59 -25 -102.5t-67 -72.5t-95.5 -43t-110.5 -14q-58 0 -111 14t-93.5 43t-65 72.5t-24.5 102.5v499h145v-472q0 -73 37.5 -105.5t113.5 -32.5q78 0 115 33t37 105v472z" />
    <glyph glyph-name="V" unicode="V" horiz-adv-x="666" 
d="M145 720l173 -529q4 -15 8.5 -32t8.5 -35q6 33 17 67l173 529h152l-246 -720h-197l-245 720h156z" />
    <glyph glyph-name="W" unicode="W" horiz-adv-x="1002" 
d="M166 720l120 -490q5 -15 9.5 -39t6.5 -45q2 20 6.5 44t9.5 40l119 490h130l123 -490q4 -15 8.5 -39.5t7.5 -46.5q2 22 6 46.5t8 39.5l125 490h142l-192 -720h-176l-104 417q-4 18 -7.5 41.5t-5.5 43.5q-2 -20 -5.5 -43.5t-8.5 -41.5l-103 -417h-176l-194 720h151z" />
    <glyph glyph-name="X" unicode="X" horiz-adv-x="706" 
d="M183 720l138 -200q22 -31 36 -69q7 18 16.5 36.5t20.5 33.5l137 199h167l-257 -354l265 -366h-180l-144 207q-11 16 -20 34.5t-16 35.5q-7 -18 -16.5 -36t-20.5 -35l-143 -206h-166l262 363l-258 357h179z" />
    <glyph glyph-name="Y" unicode="Y" 
d="M267 0v311l-277 409h169l184 -288l186 288h156l-275 -409v-311h-143z" />
    <glyph glyph-name="Z" unicode="Z" horiz-adv-x="647" 
d="M41 0v113l393 495h-384v112h555v-113l-393 -494h398v-113h-569z" />
    <glyph glyph-name="AE" unicode="&#xc6;" horiz-adv-x="974" 
d="M433 0v185h-254l-119 -185h-160l472 720h553v-112h-348v-181h285v-109h-285v-205h356v-113h-500zM433 295v292l-188 -292h188z" />
    <glyph glyph-name="Eng" unicode="&#x14a;" horiz-adv-x="746" 
d="M284 720l216 -469q7 -16 15 -41.5t13 -48.5q-1 8 -2 21t-1.5 27.5t-1 27.5t-0.5 22v461h140v-751q0 -50 -19 -86t-49.5 -60t-68.5 -35.5t-75 -11.5v110q19 0 34 3.5t25.5 13t16 27t5.5 46.5v24h-54l-230 507q-7 16 -14.5 42.5t-12.5 46.5q1 -8 1.5 -20.5t1 -25.5t1 -25.5
t0.5 -19.5v-505h-143v720h202z" />
    <glyph glyph-name="Eth" unicode="&#xd0;" horiz-adv-x="758" 
d="M82 0v319h-60v102h60v299h311q72 0 129 -24.5t97.5 -70.5t62 -112t21.5 -150t-21 -151t-60 -114t-95 -72.5t-127 -25.5h-318zM368 113q94 0 139.5 59.5t45.5 188.5t-47.5 188t-141.5 59h-139v-187h94v-102h-94v-206h143z" />
    <glyph glyph-name="IJ" unicode="&#x132;" horiz-adv-x="871" 
d="M82 0v720h143v-720h-143zM648 720h144v-499q0 -54 -19 -97t-53.5 -73t-83.5 -46t-109 -16q-106 0 -169 58.5t-77 155.5h149q1 -18 7 -34t18 -29t31.5 -20.5t46.5 -7.5q62 0 88.5 26.5t26.5 80.5v501z" />
    <glyph glyph-name="OE" unicode="&#x152;" horiz-adv-x="1083" 
d="M397 730q23 0 45 -2.5t42 -7.5h549v-112h-390q38 -31 59.5 -77.5t27.5 -103.5h240v-109h-237q-3 -66 -25.5 -119t-64.5 -86h399v-113h-558q-20 -5 -42 -8t-45 -3q-80 0 -143 28.5t-107 78.5t-67.5 117.5t-23.5 146.5q0 78 23.5 146t67.5 117.5t107 78t143 28.5zM397 605
q-48 0 -83.5 -18t-58.5 -50t-34 -77.5t-11 -99.5t11 -99t34 -77t58.5 -50t83.5 -18t83 18t58 50t34 77t11 99t-11 99.5t-34 77.5t-58 50t-83 18z" />
    <glyph glyph-name="Oslash" unicode="&#xd8;" horiz-adv-x="793" 
d="M716 720l-69 -98q44 -50 67 -117t23 -145q0 -79 -23.5 -146.5t-67.5 -117.5t-107 -78.5t-142 -28.5q-49 0 -91.5 11t-78.5 31l-22 -31h-131l70 99q-43 50 -65.5 116.5t-22.5 144.5t23.5 146t67.5 117.5t107 78t143 28.5q48 0 90 -10.5t78 -30.5l22 31h129zM583 360
q0 81 -24 138l-256 -359q40 -23 94 -23q48 0 83 18t58 50t34 77t11 99zM397 605q-48 0 -83.5 -18t-58.5 -50t-34 -77.5t-11 -99.5q0 -78 23 -136l256 358q-38 23 -92 23z" />
    <glyph glyph-name="Thorn" unicode="&#xde;" horiz-adv-x="666" 
d="M82 0v720h143v-114h190q55 0 96.5 -18t69.5 -49.5t42 -73.5t14 -89q0 -48 -14 -90t-42.5 -73.5t-72 -50t-101.5 -18.5h-182v-144h-143zM225 247h153q61 0 86.5 35.5t25.5 90.5q0 26 -6 48t-19 37.5t-34.5 24.5t-52.5 9h-153v-245z" />
    <glyph glyph-name="a" unicode="a" horiz-adv-x="566" 
d="M290 535q60 0 99.5 -13t63.5 -35.5t34 -54t10 -67.5v-365h-134v84q-22 -46 -60.5 -69t-101.5 -23q-75 0 -118 39t-43 106q0 89 64.5 137t210.5 48q11 0 24 -0.5t24 -1.5v45q0 32 -17 50.5t-64 18.5q-49 0 -73 -16.5t-29 -50.5h-125q10 81 70 124.5t165 43.5zM319 237
q-69 0 -105 -18t-36 -61q0 -63 67 -63q51 0 84.5 30.5t33.5 82.5v28q-11 1 -22 1h-22z" />
    <glyph glyph-name="b" unicode="b" horiz-adv-x="601" 
d="M197 735v-307q20 45 56 76t96 31q49 0 88.5 -19.5t67.5 -55.5t43.5 -86.5t15.5 -111.5t-15.5 -111.5t-43.5 -86.5t-67.5 -55.5t-88.5 -19.5q-57 0 -94.5 31.5t-57.5 74.5v-95h-134v735h134zM316 422q-57 0 -88 -41.5t-31 -121.5q0 -32 7 -60.5t21.5 -49.5t37 -33.5
t53.5 -12.5q57 0 83 41.5t26 117.5q0 77 -26 118.5t-83 41.5z" />
    <glyph glyph-name="c" unicode="c" horiz-adv-x="541" 
d="M287 535q46 0 86.5 -14.5t71.5 -41t49.5 -64t20.5 -83.5h-136q-2 39 -27 65t-71 26q-59 0 -85.5 -43t-26.5 -118t26.5 -118t85.5 -43q46 0 71 26.5t27 65.5h136q-2 -46 -20.5 -83.5t-49.5 -64.5t-71.5 -41.5t-86.5 -14.5q-60 0 -107 19.5t-79.5 55.5t-49 86t-16.5 112
q0 61 16.5 111.5t49 86.5t79.5 55.5t107 19.5z" />
    <glyph glyph-name="d" unicode="d" horiz-adv-x="601" 
d="M251 535q60 0 95.5 -31t55.5 -76v307h134v-735h-134v95q-20 -43 -57 -74.5t-94 -31.5q-48 0 -88 19.5t-68.5 55.5t-44 86.5t-15.5 111.5t15.5 111.5t44 86.5t68.5 55.5t88 19.5zM285 422q-57 0 -84 -41.5t-27 -118.5q0 -76 27 -117.5t84 -41.5q31 0 53 12.5t36 33.5
t21 49.5t7 60.5q0 80 -30.5 121.5t-86.5 41.5z" />
    <glyph glyph-name="e" unicode="e" horiz-adv-x="554" 
d="M289 535q64 0 109.5 -24.5t73.5 -65.5t40 -95t8 -113h-352q4 -71 31 -105t84 -34q39 0 63.5 16t31.5 48h134q-5 -38 -24.5 -70t-49.5 -55t-69 -35.5t-85 -12.5q-58 0 -104 19.5t-78.5 55.5t-50 86.5t-17.5 113.5q0 60 17.5 110t50.5 86t80.5 55.5t106.5 19.5zM284 434
q-49 0 -76 -26.5t-36 -83.5h211q-2 48 -26 79t-73 31z" />
    <glyph glyph-name="f" unicode="f" horiz-adv-x="365" 
d="M280 745q35 0 81 -8v-110q-20 5 -33.5 6.5t-29.5 1.5q-36 0 -52 -18t-16 -53v-39h131v-103h-131v-422h-135v422h-75v103h75v37q0 47 13.5 81.5t38 57t58.5 33.5t75 11z" />
    <glyph glyph-name="g" unicode="g" horiz-adv-x="582" 
d="M283 535q37 0 77.5 -1.5t79 -3.5t73 -3.5t61.5 -1.5v-103q-22 0 -55.5 3t-62.5 7q25 -13 38 -39t13 -57q0 -76 -57 -122t-171 -46q-40 0 -72 7q-13 -6 -21 -18.5t-8 -26.5q0 -20 13.5 -28t39.5 -8h152q92 0 132 -36.5t40 -102.5q0 -78 -66 -127t-205 -49q-65 0 -110 8
t-73.5 23.5t-41.5 38.5t-13 53q0 39 22.5 66t57.5 42q-31 11 -49 31.5t-18 57.5q0 33 21 63t52 44q-34 22 -53.5 56.5t-19.5 82.5q0 85 56.5 137.5t167.5 52.5zM376 345q0 43 -20.5 69t-71.5 26q-48 0 -69 -25t-21 -70q0 -38 21.5 -63t68.5 -25q48 0 70 23.5t22 64.5z
M237 -3q-6 0 -13 0.5t-13 0.5q-34 -23 -34 -61q0 -34 24.5 -49t86.5 -15q72 0 101 19t29 54q0 25 -17 38t-55 13h-109z" />
    <glyph glyph-name="h" unicode="h" horiz-adv-x="593" 
d="M204 735v-290q21 41 59.5 65.5t98.5 24.5q79 0 121 -48t42 -135v-352h-135v323q0 48 -16.5 72t-59.5 24q-45 0 -77.5 -32t-32.5 -100v-287h-134v735h134z" />
    <glyph glyph-name="i" unicode="i" horiz-adv-x="274" 
d="M204 525v-525h-134v525h134zM205 713v-117h-135v117h135z" />
    <glyph glyph-name="j" unicode="j" horiz-adv-x="274" 
d="M204 525v-549q0 -51 -19.5 -88t-50.5 -61t-70 -36t-77 -12v113q39 0 61 16.5t22 68.5v548h134zM205 713v-117h-135v117h135z" />
    <glyph glyph-name="k" unicode="k" horiz-adv-x="558" 
d="M70 0v735h134v-735h-134zM407 0l-196 286l183 239h157l-190 -234l206 -291h-160z" />
    <glyph glyph-name="l" unicode="l" horiz-adv-x="274" 
d="M70 0v735h134v-735h-134z" />
    <glyph glyph-name="m" unicode="m" horiz-adv-x="898" 
d="M204 525v-84q23 45 61.5 69.5t96.5 24.5q55 0 90 -32t47 -81q29 62 74 87.5t98 25.5q76 0 117.5 -48t41.5 -135v-352h-135v321q0 48 -16 73t-58 25q-20 0 -39 -7.5t-33 -23.5t-23 -41t-9 -60v-287h-134v321q0 48 -16.5 73t-57.5 25q-42 0 -73.5 -32.5t-31.5 -104.5v-282
h-134v525h134z" />
    <glyph glyph-name="n" unicode="n" horiz-adv-x="593" 
d="M204 525v-80q21 41 57.5 65.5t96.5 24.5q79 0 123 -48t44 -135v-352h-135v323q0 48 -16.5 72t-60.5 24q-45 0 -77 -32t-32 -100v-287h-134v525h134z" />
    <glyph glyph-name="o" unicode="o" horiz-adv-x="560" 
d="M280 423q-56 0 -83 -41t-27 -118q0 -80 27 -121.5t83 -41.5q55 0 82.5 41.5t27.5 121.5q0 77 -27.5 118t-82.5 41zM280 535q54 0 99.5 -18.5t77.5 -53.5t50 -85t18 -114q0 -65 -18 -116t-50 -86.5t-77.5 -54t-99.5 -18.5q-55 0 -100 18.5t-77.5 54t-50 86.5t-17.5 116
q0 64 17.5 114t50 85t77.5 53.5t100 18.5z" />
    <glyph glyph-name="p" unicode="p" horiz-adv-x="601" 
d="M351 535q48 0 87.5 -19.5t67.5 -55.5t43 -86.5t15 -111.5t-15 -111.5t-43 -86.5t-67.5 -55.5t-87.5 -19.5q-57 0 -95.5 30.5t-58.5 75.5v-305h-134v735h134v-97q20 45 57 76t97 31zM315 422q-57 0 -87.5 -41.5t-30.5 -121.5q0 -32 7 -60.5t21 -49.5t36.5 -33.5
t53.5 -12.5q57 0 83.5 41.5t26.5 117.5q0 77 -26.5 118.5t-83.5 41.5z" />
    <glyph glyph-name="q" unicode="q" horiz-adv-x="601" 
d="M248 535q60 0 97 -31t57 -76v97h134v-735h-134v305q-20 -45 -58.5 -75.5t-95.5 -30.5q-48 0 -87.5 19.5t-67 55.5t-43 86.5t-15.5 111.5t15.5 111.5t43 86.5t67 55.5t87.5 19.5zM280 422q-57 0 -81.5 -41.5t-24.5 -118.5q0 -76 24.5 -117.5t81.5 -41.5q31 0 54 12.5
t38 33.5t22.5 49.5t7.5 60.5q0 80 -32.5 121.5t-89.5 41.5z" />
    <glyph glyph-name="r" unicode="r" horiz-adv-x="377" 
d="M204 525v-112q14 55 52.5 88.5t112.5 33.5v-130q-4 2 -12.5 3t-17.5 1q-26 0 -50.5 -9.5t-43 -29t-30 -50t-11.5 -71.5v-249h-134v525h134z" />
    <glyph glyph-name="s" unicode="s" horiz-adv-x="525" 
d="M262 535q55 0 96.5 -12.5t69.5 -34.5t42.5 -52.5t15.5 -67.5h-125q-1 32 -26.5 51t-67.5 19q-25 0 -42 -5t-27.5 -13t-15 -18.5t-4.5 -21.5q0 -30 26.5 -41t66.5 -17q37 -4 76 -11.5t71.5 -24t53 -46t20.5 -77.5q0 -37 -12.5 -68.5t-40 -55t-71.5 -37t-106 -13.5
q-55 0 -96.5 12.5t-69.5 35t-43 53.5t-16 68h126q1 -31 28 -50t75 -19q55 0 75 17.5t20 40.5q0 33 -27 44.5t-66 16.5q-42 5 -81.5 12.5t-70.5 24t-50 45.5t-19 78q0 34 14.5 64.5t42.5 53t67.5 36t90.5 13.5z" />
    <glyph glyph-name="longs" unicode="&#x17f;" horiz-adv-x="294" 
d="M253 745q19 0 39 -2t41 -6v-110q-20 5 -33 6.5t-30 1.5q-36 0 -52 -18t-16 -53v-564h-134v562q0 47 13.5 81.5t38 57t58.5 33.5t75 11z" />
    <glyph glyph-name="germandbls" unicode="&#xdf;" horiz-adv-x="600" 
d="M306 745q48 0 90.5 -12t73.5 -35t49 -57t18 -79q0 -76 -40.5 -117.5t-117.5 -51.5q88 -13 137 -57.5t49 -128.5q0 -43 -18 -81.5t-52 -67.5t-83 -46t-112 -17q-14 0 -24.5 1t-25.5 3v112q13 -2 21.5 -3.5t22.5 -1.5q33 0 56.5 8.5t38.5 23.5t21.5 35.5t6.5 43.5
q0 57 -34 84t-121 27v104q40 0 66 7t41 20.5t21 33t6 45.5q0 41 -21.5 68.5t-73.5 27.5t-74.5 -23.5t-22.5 -68.5v-542h-134v544q0 48 18.5 85.5t51 63t75.5 39t91 13.5z" />
    <glyph glyph-name="t" unicode="t" horiz-adv-x="368" 
d="M228 647v-122h131v-103h-131v-237q0 -45 17.5 -64.5t55.5 -19.5q25 0 58 10v-113q-22 -4 -41.5 -6.5t-38.5 -2.5q-42 0 -76 10t-58 31.5t-37.5 55t-13.5 80.5v256h-76v103h76v122h134z" />
    <glyph glyph-name="u" unicode="u" horiz-adv-x="593" 
d="M203 525v-324q0 -47 16.5 -71t59.5 -24q46 0 77.5 32t31.5 100v287h135v-525h-135v79q-21 -41 -57 -65.5t-96 -24.5q-79 0 -123 48.5t-44 135.5v352h135z" />
    <glyph glyph-name="v" unicode="v" horiz-adv-x="514" 
d="M138 525l103 -322q3 -10 5.5 -22t5 -24.5t4 -24t2.5 -20.5q3 17 8 44t11 47l108 322h132l-181 -525h-161l-178 525h141z" />
    <glyph glyph-name="w" unicode="w" horiz-adv-x="806" 
d="M137 525l86 -324q5 -20 9 -42t7 -42q2 20 5.5 42t8.5 42l87 324h128l89 -324q5 -20 8.5 -42t6.5 -42q2 20 5.5 42t8.5 42l87 324h131l-155 -525h-158l-73 274q-5 23 -10 49t-7 50q-3 -24 -7.5 -50.5t-10.5 -48.5l-75 -274h-153l-154 525h136z" />
    <glyph glyph-name="x" unicode="x" horiz-adv-x="554" 
d="M166 525l88 -124q7 -10 12.5 -21.5t9.5 -21.5q5 10 11 21.5t13 21.5l87 124h142l-181 -252l201 -273h-160l-92 131q-15 21 -25 46q-5 -11 -11 -23.5t-14 -23.5l-92 -130h-151l196 267l-184 258h150z" />
    <glyph glyph-name="y" unicode="y" horiz-adv-x="514" 
d="M138 525l103 -316q5 -20 10 -47t7 -43q1 7 3.5 18.5t4.5 24t5 25t6 22.5l108 316h132l-193 -549q-23 -68 -49.5 -107t-60 -59t-75 -25.5t-94.5 -5.5v117q50 1 78.5 12.5t42.5 42.5l17 38l-186 536h141z" />
    <glyph glyph-name="z" unicode="z" horiz-adv-x="484" 
d="M29 0v104l264 318h-249v103h406v-103l-263 -318h269v-104h-427z" />
    <glyph glyph-name="ae" unicode="&#xe6;" horiz-adv-x="885" 
d="M288 535q65 0 105 -14.5t63 -42.5q31 27 71.5 42t91.5 15q59 0 103.5 -23.5t74 -63.5t43 -94t9.5 -115h-354q4 -70 31 -105.5t84 -35.5q42 0 68.5 20.5t32.5 52.5h130q-3 -41 -22 -74.5t-50 -57.5t-71 -37t-83 -13q-74 0 -127.5 29.5t-83.5 86.5q-29 -54 -78.5 -84
t-127.5 -30q-75 0 -116 39.5t-41 106.5q0 89 64 137.5t210 48.5h50v42q0 32 -22 50.5t-66 18.5q-42 0 -71 -18.5t-30 -58.5h-120q3 85 62.5 131.5t169.5 46.5zM241 95q25 0 48 8.5t39.5 23.5t26.5 36t10 47v29h-48q-68 0 -106.5 -19t-38.5 -62q0 -31 18.5 -47t50.5 -16z
M612 435q-92 0 -112 -112h218q-3 48 -29 80t-77 32z" />
    <glyph glyph-name="eng" unicode="&#x14b;" horiz-adv-x="594" 
d="M205 525v-80q21 41 59.5 65.5t98.5 24.5q79 0 121 -48t42 -135v-365q0 -51 -19.5 -88t-50.5 -61.5t-70 -36.5t-77 -12v114q18 0 33 3t26 11.5t17 24.5t6 43v338q0 48 -16.5 72t-60.5 24q-45 0 -77 -32t-32 -100v-287h-134v525h134z" />
    <glyph glyph-name="eth" unicode="&#xf0;" horiz-adv-x="634" 
d="M251 745q48 0 91.5 -11.5t80.5 -33.5l51 52l53 -50l-46 -46q53 -51 82.5 -126t29.5 -169q0 -180 -73.5 -276t-211.5 -96q-67 0 -117.5 21t-84 56.5t-50 82t-16.5 98.5q0 45 14 89t42.5 78.5t72.5 56t104 21.5q59 0 103.5 -24t73.5 -62q-5 103 -54 163l-59 -61l-52 50
l55 57q-48 25 -114 25zM303 389q-35 0 -59 -12t-38.5 -32t-21 -46t-6.5 -55q0 -63 30 -100t93 -37q73 0 107.5 52.5t39.5 149.5q-27 37 -63.5 58.5t-81.5 21.5z" />
    <glyph glyph-name="ij" unicode="&#x133;" horiz-adv-x="550" 
d="M204 525v-525h-134v525h134zM205 713v-117h-135v117h135zM478 525v-549q0 -51 -19.5 -88t-50.5 -61t-70 -36t-77 -12v113q39 0 61 16.5t22 68.5v548h134zM479 713v-117h-135v117h135z" />
    <glyph glyph-name="oe" unicode="&#x153;" horiz-adv-x="913" 
d="M647 535q61 0 106.5 -25t74.5 -67t42 -96.5t9 -113.5h-355q5 -69 32.5 -100.5t84.5 -31.5q38 0 63 19.5t33 51.5h133q-19 -88 -79.5 -135.5t-148.5 -47.5q-58 0 -104 19.5t-78 54.5q-63 -74 -180 -74q-115 0 -180 71t-65 204q0 130 65 200.5t180 70.5q59 0 104.5 -19.5
t76.5 -55.5q32 35 79 55t107 20zM280 421q-56 0 -83.5 -42t-27.5 -115q0 -76 27.5 -117.5t83.5 -41.5q55 0 83 41.5t28 117.5q0 73 -28 115t-83 42zM640 433q-95 0 -113 -111h217q-2 47 -28.5 79t-75.5 32z" />
    <glyph glyph-name="oslash" unicode="&#xf8;" horiz-adv-x="558" 
d="M280 535q72 0 125 -29l14 19h102l-52 -72q27 -35 41.5 -82t14.5 -107q0 -133 -65 -204t-180 -71q-71 0 -125 28l-12 -17h-104l52 71q-27 35 -41.5 83t-14.5 110q0 130 65 200.5t180 70.5zM280 419q-56 0 -85 -41t-29 -114q0 -43 9 -76l158 218q-24 13 -53 13zM395 264
q0 20 -2.5 38t-7.5 34l-157 -218q22 -12 52 -12q55 0 85 41t30 117z" />
    <glyph glyph-name="thorn" unicode="&#xfe;" horiz-adv-x="602" 
d="M352 535q48 0 87.5 -19.5t67.5 -55.5t43 -86.5t15 -111.5t-15 -111.5t-43 -86.5t-67.5 -55.5t-87.5 -19.5q-57 0 -96 30.5t-58 75.5v-309h-134v949h134v-307q19 45 56.5 76t97.5 31zM316 422q-57 0 -87.5 -41.5t-30.5 -121.5q0 -32 6.5 -60.5t21 -49.5t36.5 -33.5
t54 -12.5q57 0 83 41.5t26 117.5q0 77 -26 118.5t-83 41.5z" />
    <glyph glyph-name="zero" unicode="0" horiz-adv-x="621" 
d="M310 602q-36 0 -60.5 -16.5t-40 -48t-22.5 -76t-7 -101.5q0 -113 29.5 -177.5t100.5 -64.5q36 0 61 16.5t40.5 48t22.5 76.5t7 101q0 114 -29.5 178t-101.5 64zM310 730q58 0 108.5 -22.5t87.5 -68t58.5 -115.5t21.5 -164q0 -95 -21.5 -164.5t-58.5 -115.5t-87.5 -68.5
t-108.5 -22.5t-108 22.5t-87 68.5t-58.5 115.5t-21.5 164.5q0 94 21.5 164t58.5 115.5t87 68t108 22.5z" />
    <glyph glyph-name="one" unicode="1" horiz-adv-x="621" 
d="M166 0v113h137v476l-157 -99l-56 99l213 131h136v-607h114v-113h-387z" />
    <glyph glyph-name="two" unicode="2" horiz-adv-x="621" 
d="M57 0v109q114 75 185.5 132t112 102t55 82.5t14.5 74.5q0 49 -26 81.5t-87 32.5q-65 0 -93.5 -28.5t-35.5 -87.5h-125q1 55 21.5 98.5t56 73t82.5 45t103 15.5q61 0 107 -17t77 -46.5t46.5 -69t15.5 -85.5q0 -54 -18.5 -101t-59.5 -93.5t-106 -96t-157 -108.5h341v-113
h-509z" />
    <glyph glyph-name="three" unicode="3" horiz-adv-x="621" 
d="M262 419q47 0 77.5 7t48.5 21t25 34t7 46q0 44 -24.5 70.5t-88.5 26.5q-65 0 -92.5 -25.5t-34.5 -79.5h-127q2 50 22.5 89.5t55.5 66.5t81.5 41t101.5 14q60 0 106.5 -14t78.5 -38.5t48.5 -59t16.5 -75.5q0 -78 -45 -120t-131 -54q91 -6 138.5 -49t47.5 -121
q0 -47 -19.5 -86t-54.5 -66.5t-84 -42.5t-109 -15q-55 0 -102 15t-81.5 42.5t-55 67t-22.5 88.5h129q8 -55 39 -80.5t96 -25.5q60 0 90.5 29.5t30.5 77.5q0 27 -7.5 48.5t-27 36.5t-52 22.5t-82.5 7.5v101z" />
    <glyph glyph-name="four" unicode="4" horiz-adv-x="621" 
d="M353 0v186h-314v113l284 421h166v-422h99v-112h-99v-186h-136zM353 582l-193 -284h193v284z" />
    <glyph glyph-name="five" unicode="5" horiz-adv-x="621" 
d="M528 720v-112h-315l-8 -148q26 5 56 8t63 3q54 0 100 -15.5t80 -44.5t53.5 -72t19.5 -97q0 -57 -20.5 -103.5t-57 -79.5t-87 -51.5t-111.5 -18.5q-54 0 -99 14t-78 41.5t-51.5 67.5t-20.5 92h123q5 -56 36 -82.5t95 -26.5q60 0 95 37.5t35 98.5q0 64 -35 99t-118 35
q-47 0 -102.5 -4t-107.5 -14l25 373h430z" />
    <glyph glyph-name="six" unicode="6" horiz-adv-x="621" 
d="M336 730q50 0 93 -15t75 -41.5t51 -63.5t21 -81h-127q-8 50 -37.5 73.5t-77.5 23.5q-75 0 -112.5 -61t-42.5 -172q29 35 72.5 57t101.5 22q59 0 102 -19t71 -50.5t41.5 -71.5t13.5 -83q0 -49 -16.5 -95.5t-49 -83t-81.5 -58.5t-115 -22q-67 0 -119 24.5t-88 71
t-54.5 113.5t-18.5 152t19.5 155t57.5 120t93 77.5t127 27.5zM181 301q5 -91 39 -143.5t105 -52.5q63 0 92 37t29 96q0 27 -6.5 51t-20.5 42.5t-38 29t-58 10.5q-44 0 -80 -18.5t-62 -51.5z" />
    <glyph glyph-name="seven" unicode="7" horiz-adv-x="621" 
d="M159 0l267 608h-369v112h506v-112l-254 -608h-150z" />
    <glyph glyph-name="eight" unicode="8" horiz-adv-x="621" 
d="M310 619q-59 0 -85.5 -27t-26.5 -69q0 -54 30.5 -78.5t81.5 -24.5t81 24.5t30 78.5q0 42 -26.5 69t-84.5 27zM310 319q-27 0 -50 -5.5t-40.5 -18.5t-27.5 -33.5t-10 -50.5q0 -48 31 -78t97 -30t97.5 30t31.5 78q0 30 -10 50.5t-27.5 33.5t-41 18.5t-50.5 5.5zM310 730
q61 0 107.5 -15t77.5 -41.5t46.5 -61.5t15.5 -75q0 -62 -37.5 -106t-112.5 -57q75 -7 120 -57t45 -127q0 -92 -66 -146.5t-196 -54.5t-196.5 54.5t-66.5 146.5q0 38 12 70t34 55.5t52.5 37.5t68.5 17q-70 14 -110.5 59.5t-40.5 108.5q0 40 15.5 75t46.5 61t77 41t108 15z
" />
    <glyph glyph-name="nine" unicode="9" horiz-adv-x="621" 
d="M302 730q67 0 119 -24.5t87.5 -70.5t54 -113.5t18.5 -152.5t-19.5 -155t-57.5 -120t-93.5 -77.5t-126.5 -27.5q-50 0 -93 13.5t-75 39.5t-51 63.5t-21 85.5h126q4 -50 35.5 -73.5t79.5 -23.5q76 0 113.5 61t42.5 171q-29 -35 -72.5 -56.5t-100.5 -21.5q-59 0 -102.5 19
t-71.5 50t-41.5 71.5t-13.5 82.5q0 49 16.5 96t49 83t82 58t115.5 22zM295 615q-62 0 -91.5 -37t-29.5 -97q0 -27 6.5 -51t21 -42t38 -28.5t57.5 -10.5q44 0 80 18.5t62 51.5q-5 90 -39 143t-105 53z" />
    <glyph glyph-name="onequarter" unicode="&#xbc;" horiz-adv-x="869" 
d="M89 362v82h83v198l-94 -60l-39 70l136 85h106v-293h67v-82h-259zM753 373v-210h56v-81h-56v-82h-101v82h-180v76l162 215h119zM563 163h89v120zM104 0l577 735h133l-578 -735h-132z" />
    <glyph glyph-name="onehalf" unicode="&#xbd;" horiz-adv-x="869" 
d="M87 362v82h83v198l-94 -60l-39 70l136 85h106v-293h67v-82h-259zM677 380q76 0 113.5 -33t37.5 -82q0 -24 -7.5 -46t-26 -43.5t-49.5 -44.5t-78 -49h162v-82h-323v70q62 34 101.5 60.5t62.5 47t32 37t9 32.5q0 21 -11 35t-37 14q-28 0 -41.5 -14.5t-17.5 -43.5h-99
q5 63 49 102.5t123 39.5zM102 0l577 735h133l-578 -735h-132z" />
    <glyph glyph-name="threequarters" unicode="&#xbe;" horiz-adv-x="869" 
d="M730 373v-210h56v-81h-56v-82h-101v82h-180v76l162 215h119zM540 163h89v120zM227 742q75 0 112 -27.5t37 -72.5q0 -36 -21.5 -58t-62.5 -31q44 -7 67.5 -30t23.5 -60q0 -50 -42 -79t-119 -29q-71 0 -114 33.5t-45 90.5h103q4 -27 17.5 -38.5t40.5 -11.5t38.5 12t11.5 31
q0 23 -16 34.5t-59 11.5v66q40 0 55 10t15 33q0 20 -10.5 30.5t-35.5 10.5q-26 0 -38 -10.5t-15 -36.5h-102q2 56 45 88.5t114 32.5zM93 0l577 735h133l-578 -735h-132z" />
    <glyph glyph-name="onethird" unicode="&#x2153;" horiz-adv-x="869" 
d="M77 362v82h83v198l-94 -60l-39 70l136 85h106v-293h67v-82h-259zM671 380q75 0 112 -27.5t37 -72.5q0 -36 -21.5 -58t-62.5 -31q44 -7 67.5 -30t23.5 -60q0 -50 -42 -79t-119 -29q-71 0 -114 33.5t-45 90.5h103q4 -27 17.5 -38.5t40.5 -11.5t38.5 12t11.5 31
q0 23 -16 34.5t-59 11.5v66q40 0 55 10t15 33q0 20 -10.5 30.5t-35.5 10.5q-26 0 -38 -10.5t-15 -36.5h-102q2 56 45 88.5t114 32.5zM98 0l577 735h133l-578 -735h-132z" />
    <glyph glyph-name="rupee" unicode="&#x20a8;" horiz-adv-x="621" 
d="M570 720v-87h-135q24 -18 37 -48t15 -62h83v-87h-94q-13 -57 -51.5 -91.5t-104.5 -42.5q36 -5 67 -15.5t54 -41t36.5 -88t13.5 -157.5h-142q0 77 -9.5 124t-27 72.5t-42.5 33.5t-57 8h-162v110h178q50 0 73.5 25t28.5 63h-280v87h282q-5 35 -29 60.5t-72 25.5h-181v111
h519z" />
    <glyph glyph-name="dollar" unicode="$" horiz-adv-x="628" 
d="M273 -94v85q-56 4 -99.5 22.5t-74.5 47.5t-48.5 68t-20.5 84h135q5 -42 29.5 -71t78.5 -37v205q-42 8 -84 19t-75.5 32.5t-54 56.5t-20.5 91q0 42 15 79t44 66.5t73 48.5t102 25v79h79v-79q55 -5 97.5 -23t72.5 -46.5t48 -66.5t23 -82h-133q-7 41 -30.5 68t-77.5 35v-192
q43 -8 87 -19t79.5 -32t57.5 -56t22 -90q0 -46 -16.5 -86.5t-48 -71t-77 -50.5t-104.5 -25v-85h-79zM462 202q0 42 -31.5 62t-78.5 31v-191q61 8 85.5 36t24.5 62zM172 520q0 -37 28.5 -54.5t72.5 -28.5v176q-30 -4 -49.5 -13t-31 -21.5t-16 -27.5t-4.5 -31z" />
    <glyph glyph-name="cent" unicode="&#xa2;" horiz-adv-x="612" 
d="M280 7v98q-101 13 -155.5 83t-54.5 188q0 58 15 105t42 81.5t66 56t87 27.5v83h67v-81q83 -8 137.5 -59.5t66.5 -141.5h-125q-6 31 -25 57t-54 34v-326q35 9 53.5 35.5t25.5 58.5h125q-12 -91 -66.5 -143t-137.5 -59v-97h-67zM194 376q0 -63 20.5 -106t65.5 -56v323
q-47 -13 -66.5 -55.5t-19.5 -105.5z" />
    <glyph glyph-name="sterling" unicode="&#xa3;" horiz-adv-x="628" 
d="M236 298q5 -47 -2.5 -95t-40.5 -101h361v-102h-494v102q37 56 42 103.5t-4 92.5h-73v70h56q-8 29 -14 61t-6 67q0 45 16 87t49 75t83.5 52.5t119.5 19.5q58 0 103.5 -15t78 -42.5t51 -65.5t23.5 -84h-134q-5 43 -32.5 68t-92.5 25q-37 0 -60 -10.5t-36 -26.5t-18 -35.5
t-5 -38.5q0 -36 5.5 -70t12.5 -67h204v-70h-193z" />
    <glyph glyph-name="yen" unicode="&#xa5;" horiz-adv-x="615" 
d="M379 304v-91h105v-72h-105v-141h-143v141h-104v72h104v91h-169v72h129l-211 344h167l161 -280l162 280h155l-211 -344h131v-72h-171z" />
    <glyph glyph-name="florin" unicode="&#x192;" horiz-adv-x="527" 
d="M378 743q19 0 39 -2t41 -6v-111q-19 5 -35 7.5t-29 2.5q-74 0 -74 -72v-37h138v-103h-138v-460q0 -47 -14.5 -81.5t-40 -57.5t-60.5 -34t-77 -11q-18 0 -38 2.5t-43 7.5v110q39 -9 65 -9q73 0 73 73v460h-74v103h74v35q0 47 14.5 81.5t40.5 57t61.5 33.5t76.5 11z" />
    <glyph glyph-name="Euro" unicode="&#x20ac;" horiz-adv-x="648" 
d="M193 405q-1 -11 -1 -22.5v-23.5q0 -15 0.5 -29t1.5 -27h189l-25 -72h-150q17 -58 56 -90.5t104 -32.5q68 0 105 30.5t50 84.5h134q-8 -54 -30.5 -97t-58.5 -74t-85.5 -47.5t-112.5 -16.5q-60 0 -109.5 17.5t-88 50t-65 77t-40.5 98.5h-78l25 72h41q-3 27 -3 56
q0 11 0.5 23t1.5 23h-65l25 71h51q13 56 39.5 102.5t65 80t88.5 52t112 18.5q125 0 198 -63.5t89 -171.5h-134q-13 54 -50 85t-105 31t-107 -35.5t-56 -98.5h246l-25 -71h-233z" />
    <glyph glyph-name="numbersign" unicode="#" horiz-adv-x="716" 
d="M163 0v188h-95v98h95v161h-95v99h95v189h125v-189h141v189h125v-189h94v-99h-94v-161h94v-98h-94v-188h-125v188h-141v-188h-125zM288 286h141v161h-141v-161z" />
    <glyph glyph-name="currency" unicode="&#xa4;" horiz-adv-x="760" 
d="M380 631q43 0 78 -12t62 -34l129 129l79 -79l-136 -137q26 -57 26 -132q0 -76 -25 -134l135 -136l-79 -80l-128 127q-28 -21 -62.5 -32.5t-78.5 -11.5q-86 0 -142 45l-127 -128l-80 81l135 134q-25 57 -25 135q0 38 6 71t19 61l-135 136l80 80l127 -128q27 21 62.5 33
t79.5 12zM380 515q-56 0 -82 -41t-26 -108q0 -69 26 -109.5t82 -40.5q55 0 81 40.5t26 109.5q0 67 -26 108t-81 41z" />
    <glyph glyph-name="percent" unicode="%" horiz-adv-x="921" 
d="M227 646q-36 0 -56 -26t-20 -81q0 -54 20.5 -81t55.5 -27q78 0 78 107q0 54 -21 81t-57 27zM227 745q42 0 76 -15t58 -42t37 -65t13 -84t-12.5 -84.5t-36.5 -66t-57.5 -43t-75.5 -15.5t-76 15t-58 42t-37 65t-13 84t13 84t36.5 66t57 43.5t75.5 15.5zM822 735l-576 -735
h-147l575 735h148zM692 306q-37 0 -57 -26.5t-20 -81.5q0 -54 21 -81t56 -27q77 0 77 107q0 54 -20.5 81.5t-56.5 27.5zM692 404q42 0 76 -15t57.5 -42t36.5 -65t13 -84t-12.5 -84.5t-36.5 -66t-57.5 -43t-75.5 -15.5t-76 15t-58 42t-37 65t-13 85q0 46 13 84t36.5 65.5
t57.5 43t76 15.5z" />
    <glyph glyph-name="perthousand" unicode="&#x2030;" horiz-adv-x="1321" 
d="M227 646q-36 0 -56 -26t-20 -81q0 -54 20.5 -81t55.5 -27q78 0 78 107q0 54 -21 81t-57 27zM227 745q42 0 76 -15t58 -42t37 -65t13 -84t-12.5 -84.5t-36.5 -66t-57.5 -43t-75.5 -15.5t-76 15t-58 42t-37 65t-13 84t13 84t36.5 66t57 43.5t75.5 15.5zM822 735l-576 -735
h-147l575 735h148zM692 306q-37 0 -57 -26.5t-20 -81.5q0 -54 21 -81t56 -27q77 0 77 107q0 54 -20.5 81.5t-56.5 27.5zM692 404q42 0 76 -15t57.5 -42t36.5 -65t13 -84t-12.5 -84.5t-36.5 -66t-57.5 -43t-75.5 -15.5t-76 15t-58 42t-37 65t-13 85q0 46 13 84t36.5 65.5
t57.5 43t76 15.5zM1092 306q-37 0 -57 -26.5t-20 -81.5q0 -54 21 -81t56 -27q78 0 78 107q0 54 -21 81.5t-57 27.5zM1092 404q42 0 76 -15t58 -42t37 -65t13 -84t-12.5 -84.5t-36.5 -66t-57.5 -43t-75.5 -15.5t-76.5 15t-58.5 42t-37 65t-13 85q0 46 13 84t37 65.5t57.5 43
t75.5 15.5z" />
    <glyph glyph-name="fraction" unicode="&#x2044;" horiz-adv-x="710" 
d="M0 0l577 735h133l-578 -735h-132z" />
    <glyph glyph-name="fraction" unicode="&#x2215;" horiz-adv-x="710" 
d="M0 0l577 735h133l-578 -735h-132z" />
    <glyph glyph-name="asciicircum" unicode="^" horiz-adv-x="634" 
d="M580 481l-79 -80l-185 186l-184 -185l-80 80l264 264z" />
    <glyph glyph-name="asciitilde" unicode="~" horiz-adv-x="634" 
d="M211 667q39 0 69 -12t54.5 -27t46 -27t42.5 -12q27 0 42 13t23 48l83 -45q-14 -72 -55 -104t-95 -32q-36 0 -63 12t-51 27t-47 27t-51 12q-26 0 -41.5 -13.5t-23.5 -48.5l-82 46q14 72 55 104t94 32z" />
    <glyph glyph-name="periodcentered" unicode="&#xb7;" horiz-adv-x="619" 
d="M376 404v-134h-134v134h134z" />
    <glyph glyph-name="periodcentered" unicode="&#x2219;" horiz-adv-x="619" 
d="M376 404v-134h-134v134h134z" />
    <glyph glyph-name="plus" unicode="+" horiz-adv-x="634" 
d="M372 387h213v-112h-213v-212h-112v212h-212v112h212v212h112v-212z" />
    <glyph glyph-name="multiply" unicode="&#xd7;" horiz-adv-x="634" 
d="M316 410l185 186l79 -80l-185 -185l185 -185l-79 -80l-185 185l-184 -184l-80 79l184 184l-184 185l80 80z" />
    <glyph glyph-name="plusminus" unicode="&#xb1;" horiz-adv-x="634" 
d="M372 512h213v-112h-213v-212h-112v212h-212v112h212v212h112v-212zM48 24v112h537v-112h-537z" />
    <glyph glyph-name="less" unicode="&#x3c;" horiz-adv-x="634" 
d="M204 333l370 -202l-54 -98l-461 257v87l461 257l54 -98z" />
    <glyph glyph-name="equal" unicode="=" horiz-adv-x="634" 
d="M48 149v112h537v-112h-537zM48 401v113h537v-113h-537z" />
    <glyph glyph-name="greater" unicode="&#x3e;" horiz-adv-x="619" 
d="M428 334l-369 202l54 98l461 -257v-87l-461 -257l-54 98z" />
    <glyph glyph-name="approxequal" unicode="&#x2248;" horiz-adv-x="619" 
d="M211 559q39 0 69 -12t54.5 -27t46 -27t42.5 -12q27 0 42 13.5t23 48.5l83 -47q-14 -72 -55 -103.5t-95 -31.5q-36 0 -63 12t-51 27t-47 27t-51 12q-26 0 -41.5 -14t-23.5 -48l-82 46q14 72 55 104t94 32zM211 291q39 0 69 -12t54.5 -27t46 -27t42.5 -12q27 0 42 13t23 48
l83 -45q-14 -73 -55 -104.5t-95 -31.5q-36 0 -63 12t-51 27t-47 27t-51 12q-26 0 -41.5 -14t-23.5 -49l-82 46q14 72 55 104.5t94 32.5z" />
    <glyph glyph-name="notequal" unicode="&#x2260;" horiz-adv-x="634" 
d="M285 149l-59 -112h-119l59 112h-118v112h177l74 140h-251v113h311l55 103h119l-55 -103h107v-113h-167l-74 -140h241v-112h-300z" />
    <glyph glyph-name="lessequal" unicode="&#x2264;" horiz-adv-x="634" 
d="M216 459l349 -187l-54 -100l-440 244v87l440 243l54 -98zM48 13v112h537v-112h-537z" />
    <glyph glyph-name="greaterequal" unicode="&#x2265;" horiz-adv-x="619" 
d="M420 459l-349 189l54 98l440 -243v-87l-440 -244l-54 100zM48 13v112h537v-112h-537z" />
    <glyph glyph-name="divide" unicode="&#xf7;" horiz-adv-x="634" 
d="M48 275v112h537v-112h-537zM383 181v-139h-134v139h134zM383 633v-139h-134v139h134z" />
    <glyph glyph-name="minus" unicode="&#x2212;" horiz-adv-x="634" 
d="M48 275v112h537v-112h-537z" />
    <glyph glyph-name="partialdiff" unicode="&#x2202;" horiz-adv-x="634" 
d="M251 745q75 0 138 -27.5t108.5 -78t70.5 -121t25 -157.5q0 -180 -73.5 -276t-211.5 -96q-67 0 -117.5 21t-84 56.5t-50 82t-16.5 98.5q0 45 14 89t42.5 78.5t72.5 56t104 21.5q59 0 103.5 -24t73.5 -62q-5 112 -62 173t-162 61zM303 389q-35 0 -59 -12t-38.5 -32t-21 -46
t-6.5 -55q0 -63 30 -100t93 -37q73 0 107.5 52.5t39.5 149.5q-27 37 -63.5 58.5t-81.5 21.5z" />
    <glyph glyph-name="product" unicode="&#x220f;" horiz-adv-x="697" 
d="M482 0v608h-268v-608h-137v720h541v-720h-136z" />
    <glyph glyph-name="summation" unicode="&#x2211;" horiz-adv-x="620" 
d="M583 720v-112h-371l191 -232l-200 -263h387v-113h-551v113l200 263l-191 231v113h535z" />
    <glyph glyph-name="radical" unicode="&#x221a;" horiz-adv-x="697" 
d="M283 0l-142 412h-127v113h225l127 -382l205 592h126l-253 -735h-161z" />
    <glyph glyph-name="infinity" unicode="&#x221e;" horiz-adv-x="834" 
d="M587 480q-41 0 -66 -27.5t-44 -64.5q10 -27 20.5 -50.5t24 -41t31 -27.5t40.5 -10q39 0 61 27t22 84q0 55 -23.5 82.5t-65.5 27.5zM251 617q36 0 64 -10.5t50 -28.5t39 -42.5t31 -52.5q29 59 69 96.5t100 37.5q82 0 129.5 -63t47.5 -184q0 -61 -15.5 -108t-42.5 -78.5
t-63 -48t-76 -16.5q-36 0 -64.5 10.5t-50.5 29.5t-39 43.5t-31 53.5q-14 -29 -31 -54t-37.5 -43.5t-45.5 -29t-55 -10.5q-82 0 -130 63t-48 185q0 61 15.5 107.5t42.5 78t63.5 48t77.5 16.5zM240 477q-39 0 -60.5 -27t-21.5 -83t23.5 -83t65.5 -27q21 0 37 7.5t29 20
t23.5 29t20.5 34.5q-10 27 -21 50.5t-24.5 41t-30.5 27.5t-41 10z" />
    <glyph glyph-name="integral" unicode="&#x222b;" horiz-adv-x="631" 
d="M250 556q0 99 60 147.5t179 34.5v-116q-50 8 -81 -7.5t-31 -63.5v-587q0 -98 -60 -147t-178 -34v115q49 -8 80 5.5t31 60.5v592z" />
    <glyph glyph-name="lozenge" unicode="&#x25ca;" horiz-adv-x="514" 
d="M336 -222h-161l-163 478l166 479h161l162 -478zM258 -79l114 323l-116 348l-114 -324z" />
    <glyph glyph-name="logicalnot" unicode="&#xac;" horiz-adv-x="634" 
d="M445 0v275h-397v112h537v-387h-140z" />
    <glyph glyph-name="estimated" unicode="&#x212e;" horiz-adv-x="756" 
d="M396 730q76 0 135 -24.5t99.5 -71t62.5 -114t24 -152.5h-510v-8q0 -54 11 -99t34.5 -77t59 -50t83.5 -18q69 0 106 30.5t52 84.5h147q-9 -54 -33 -98.5t-62.5 -76.5t-91 -49.5t-117.5 -17.5q-79 0 -142.5 28.5t-108 78.5t-68.5 117.5t-24 146.5q0 78 24 146t68.5 117.5
t108 78t142.5 28.5zM390 612q-69 0 -109.5 -36.5t-58.5 -97.5h325q-7 58 -46 96t-111 38z" />
    <glyph glyph-name="litre" unicode="&#x2113;" horiz-adv-x="454" 
d="M285 744q39 0 65.5 -10t43 -26.5t23.5 -37.5t7 -42q0 -36 -14 -72t-39 -70t-60 -66.5t-77 -61.5v-232q0 -19 7.5 -26.5t21.5 -7.5q18 0 32.5 17t16.5 52h113q-18 -89 -62.5 -130.5t-119.5 -41.5q-39 0 -65 10t-41.5 28.5t-22.5 43.5t-7 55v160q-14 -7 -26.5 -13
t-26.5 -11l-32 78q23 10 44 20t41 21v179q0 44 13.5 78.5t37.5 58t56.5 35.5t70.5 12zM234 472q39 39 56 73.5t17 59.5q0 19 -8 27.5t-22 8.5q-43 0 -43 -72v-97z" />
    <glyph glyph-name="bar" unicode="|" horiz-adv-x="363" 
d="M111 -222v957h140v-957h-140z" />
    <glyph glyph-name="brokenbar" unicode="&#xa6;" horiz-adv-x="363" 
d="M111 397v338h140v-338h-140zM111 -222v339h140v-339h-140z" />
    <glyph glyph-name="degree" unicode="&#xb0;" horiz-adv-x="457" 
d="M227 646q-36 0 -56 -26t-20 -81q0 -54 20.5 -81t55.5 -27q78 0 78 107q0 54 -21 81t-57 27zM227 745q42 0 76 -15t58 -42t37 -65t13 -84t-12.5 -84.5t-36.5 -66t-57.5 -43t-75.5 -15.5t-76 15t-58 42t-37 65t-13 84t13 84t36.5 66t57 43.5t75.5 15.5z" />
    <glyph glyph-name="minute" unicode="&#x2032;" horiz-adv-x="216" 
d="M71 503l-33 256h139l-32 -256h-74z" />
    <glyph glyph-name="second" unicode="&#x2033;" horiz-adv-x="400" 
d="M71 503l-33 256h139l-32 -256h-74zM256 503l-34 256h139l-31 -256h-74z" />
    <glyph glyph-name="ordfeminine" unicode="&#xaa;" horiz-adv-x="566" 
d="M290 756q60 0 99.5 -13t63.5 -35.5t34 -54t10 -67.5v-365h-134v84q-22 -46 -60.5 -69t-101.5 -23q-75 0 -118 39t-43 106q0 89 64.5 137t210.5 48q11 0 24 -0.5t24 -1.5v45q0 32 -17 50.5t-64 18.5q-49 0 -73 -16.5t-29 -50.5h-125q10 81 70 124.5t165 43.5zM319 458
q-69 0 -105 -18t-36 -61q0 -63 67 -63q51 0 84.5 30.5t33.5 82.5v28q-11 1 -22 1h-22z" />
    <glyph glyph-name="ordmasculine" unicode="&#xba;" horiz-adv-x="543" 
d="M280 644q-56 0 -83 -41t-27 -118q0 -80 27 -121.5t83 -41.5q55 0 82.5 41.5t27.5 121.5q0 77 -27.5 118t-82.5 41zM280 756q54 0 99.5 -18.5t77.5 -53.5t50 -85t18 -114q0 -65 -18 -116t-50 -86.5t-77.5 -54t-99.5 -18.5q-55 0 -100 18.5t-77.5 54t-50 86.5t-17.5 116
q0 64 17.5 114t50 85t77.5 53.5t100 18.5z" />
    <glyph glyph-name="underscore" unicode="_" horiz-adv-x="634" 
d="M39 -174v113h555v-113h-555z" />
    <glyph glyph-name="emdash" unicode="&#x2014;" horiz-adv-x="1038" 
d="M54 274v113h930v-113h-930z" />
    <glyph glyph-name="endash" unicode="&#x2013;" horiz-adv-x="663" 
d="M54 274v113h556v-113h-556z" />
    <glyph glyph-name="hyphen" unicode="-" horiz-adv-x="367" 
d="M52 274v113h262v-113h-262z" />
    <glyph glyph-name="hyphen" unicode="&#xad;" horiz-adv-x="367" 
d="M52 274v113h262v-113h-262z" />
    <glyph glyph-name="guillemotleft" unicode="&#xab;" horiz-adv-x="651" 
d="M334 472l-162 -183l162 -184l-57 -58l-225 195v93l225 195zM599 472l-163 -183l163 -184l-57 -58l-226 195v93l226 195z" />
    <glyph glyph-name="guilsinglleft" unicode="&#x2039;" horiz-adv-x="387" 
d="M334 472l-162 -183l162 -184l-57 -58l-225 195v93l225 195z" />
    <glyph glyph-name="guilsinglright" unicode="&#x203a;" horiz-adv-x="387" 
d="M334 335v-93l-224 -195l-58 58l164 184l-164 183l58 58z" />
    <glyph glyph-name="guillemotright" unicode="&#xbb;" horiz-adv-x="651" 
d="M599 335v-93l-225 -195l-58 58l163 184l-163 183l58 58zM334 335v-93l-224 -195l-58 58l164 184l-164 183l58 58z" />
    <glyph glyph-name="quotesingle" unicode="'" horiz-adv-x="216" 
d="M71 503l-33 256h139l-32 -256h-74z" />
    <glyph glyph-name="quotedbl" unicode="&#x22;" horiz-adv-x="400" 
d="M71 503l-33 256h139l-32 -256h-74zM256 503l-34 256h139l-31 -256h-74z" />
    <glyph glyph-name="quotedblleft" unicode="&#x201c;" horiz-adv-x="426" 
d="M165 507h-128l93 255h80zM342 507h-128l94 255h80z" />
    <glyph glyph-name="quotesinglbase" unicode="&#x201a;" horiz-adv-x="248" 
d="M82 123h128l-93 -254h-80z" />
    <glyph glyph-name="quotedblbase" unicode="&#x201e;" horiz-adv-x="426" 
d="M82 123h128l-93 -254h-80zM259 123h129l-94 -254h-80z" />
    <glyph glyph-name="quotedblright" unicode="&#x201d;" horiz-adv-x="426" 
d="M82 759h128l-93 -256h-80zM259 759h129l-94 -256h-80z" />
    <glyph glyph-name="quoteright" unicode="&#x2019;" horiz-adv-x="245" 
d="M82 759h128l-93 -256h-80z" />
    <glyph glyph-name="quoteleft" unicode="&#x2018;" horiz-adv-x="248" 
d="M166 507h-128l94 255h80z" />
    <glyph glyph-name="comma" unicode="," horiz-adv-x="265" 
d="M85 143h141l-101 -295h-88z" />
    <glyph glyph-name="period" unicode="." horiz-adv-x="261" 
d="M197 139v-139h-134v139h134z" />
    <glyph glyph-name="colon" unicode=":" horiz-adv-x="261" 
d="M197 139v-139h-134v139h134zM197 525v-140h-134v140h134z" />
    <glyph glyph-name="semicolon" unicode=";" horiz-adv-x="266" 
d="M197 525v-140h-134v140h134zM85 143h141l-101 -295h-88z" />
    <glyph glyph-name="ellipsis" unicode="&#x2026;" horiz-adv-x="981" 
d="M862 139v-139h-134v139h134zM253 139v-139h-134v139h134zM557 139v-139h-134v139h134z" />
    <glyph glyph-name="question" unicode="?" horiz-adv-x="584" 
d="M298 730q59 0 103 -15.5t73 -42.5t43.5 -62.5t14.5 -75.5q0 -46 -16 -80.5t-39.5 -62t-51 -50.5t-51 -46t-39.5 -48t-16 -56h-125q0 45 15 79t38 62t49.5 51.5t49.5 46.5t38 48t15 56q0 16 -5.5 31t-18 26.5t-32.5 18.5t-48 7q-58 0 -82 -26t-31 -75h-131q6 48 23.5 87.5
t48 67.5t74.5 43.5t101 15.5zM320 128v-128h-129v128h129z" />
    <glyph glyph-name="questiondown" unicode="&#xbf;" horiz-adv-x="584" 
d="M390 322q0 -45 -15.5 -79t-38 -61.5t-49.5 -51t-49.5 -46.5t-38 -48t-15.5 -56q0 -16 6 -31t18.5 -27t32.5 -19t48 -7q29 0 49 7t33 19.5t20 31.5t10 43h131q-5 -48 -23 -87t-48.5 -67.5t-74 -44t-100.5 -15.5q-59 0 -103.5 15.5t-73.5 42.5t-43.5 63t-14.5 76
q0 46 16 80.5t40 62t51.5 50.5t51.5 46t40 47.5t16 55.5h124zM392 514v-129h-129v129h129z" />
    <glyph glyph-name="exclam" unicode="!" horiz-adv-x="343" 
d="M250 720l-17 -522h-124l-17 522h158zM236 128v-128h-129v128h129z" />
    <glyph glyph-name="exclamdown" unicode="&#xa1;" horiz-adv-x="343" 
d="M233 316l17 -522h-158l17 522h124zM236 514v-129h-129v129h129z" />
    <glyph glyph-name="parenleft" unicode="(" horiz-adv-x="386" 
d="M372 696q-72 -7 -111 -113.5t-39 -301.5q0 -194 39 -300.5t111 -112.5v-90q-63 3 -117.5 39.5t-94.5 101.5t-63 156.5t-23 205.5t23 206t63 157t94.5 101.5t117.5 39.5v-89z" />
    <glyph glyph-name="parenright" unicode=")" horiz-adv-x="386" 
d="M14 785q63 -3 117.5 -39.5t94.5 -101.5t63 -156t23 -205t-23 -206t-63 -157.5t-94.5 -102t-117.5 -39.5v90q71 6 110 113t39 302q0 194 -39 300t-110 113v89v0z" />
    <glyph glyph-name="bracketleft" unicode="[" horiz-adv-x="375" 
d="M90 -222v997h261v-80h-133v-837h133v-80h-261z" />
    <glyph glyph-name="bracketright" unicode="]" horiz-adv-x="375" 
d="M285 775v-997h-261v80h133v837h-133v80h261z" />
    <glyph glyph-name="braceleft" unicode="{" horiz-adv-x="420" 
d="M389 696q-36 0 -57.5 -9.5t-33 -26t-15.5 -39t-4 -48.5q0 -38 6 -84.5t6 -84.5q0 -52 -23 -81.5t-65 -37.5q43 -9 66.5 -41t23.5 -87q0 -38 -5.5 -83t-5.5 -82q0 -27 3.5 -49.5t15 -39.5t32.5 -26.5t56 -9.5l-7 -89q-66 0 -110 16.5t-71 43.5t-38.5 62t-11.5 72
q0 16 1 36.5t2.5 42.5t2.5 42t1 34q0 48 -14.5 75t-51.5 27h-32v106h32q36 0 50.5 26.5t14.5 74.5q0 15 -1 35t-2 42t-2 43t-1 37q0 36 11.5 70.5t38 61.5t71 43.5t110.5 16.5z" />
    <glyph glyph-name="braceright" unicode="}" horiz-adv-x="420" 
d="M39 785q65 0 109 -16.5t70.5 -43.5t38 -62t11.5 -72q0 -16 -1 -36.5t-2 -42t-2 -41.5t-1 -35q0 -48 14.5 -75t51.5 -27h33v-106h-33q-36 0 -50.5 -26.5t-14.5 -74.5q0 -15 1 -35t1.5 -42t1.5 -42.5t1 -36.5q0 -37 -11 -71.5t-37.5 -61.5t-70.5 -43.5t-110 -16.5l-8 89
q36 0 57.5 9.5t33 26t15.5 39t4 48.5q0 38 -6.5 84t-6.5 84q0 53 23.5 83t65.5 37q-43 9 -66.5 41t-23.5 87q0 18 1.5 39.5t4 43.5t4 43t1.5 39q0 27 -3.5 49.5t-15 39.5t-32.5 26.5t-56 9.5z" />
    <glyph glyph-name="slash" unicode="/" horiz-adv-x="528" 
d="M515 735l-362 -735h-139l361 735h140z" />
    <glyph glyph-name="backslash" unicode="\" horiz-adv-x="496" 
d="M153 735l362 -735h-141l-360 735h139z" />
    <glyph glyph-name="asterisk" unicode="*" horiz-adv-x="514" 
d="M309 735l-8 -132l129 47l32 -100l-132 -32l85 -112l-85 -62l-71 116l-76 -116l-84 62l90 112l-137 32l33 100l127 -47l-10 132h107z" />
    <glyph glyph-name="bullet" unicode="&#x2022;" horiz-adv-x="415" 
d="M207 133q-32 0 -59.5 12t-47.5 32.5t-32 48t-12 59.5t12 59.5t32 48t47.5 32.5t59.5 12q31 0 59 -12t48 -32.5t32 -48t12 -59.5t-12 -59.5t-32 -48t-48 -32.5t-59 -12z" />
    <glyph glyph-name="section" unicode="&#xa7;" horiz-adv-x="630" 
d="M313 730q63 0 112.5 -16.5t84 -45.5t55 -69.5t25.5 -88.5h-139q-6 48 -38 77.5t-101 29.5q-31 0 -51.5 -5.5t-33 -15.5t-17.5 -24t-5 -30q0 -29 29.5 -45t73.5 -28t95.5 -25t95.5 -36.5t73.5 -63t29.5 -103.5q0 -45 -19.5 -81.5t-50.5 -62.5q19 -20 29.5 -46t10.5 -61
q0 -41 -15.5 -75.5t-46 -59.5t-75.5 -39.5t-104 -14.5q-63 0 -112.5 16.5t-84.5 46t-55 70t-26 89.5h140q5 -49 37.5 -79t100.5 -30q32 0 53 5.5t33 16t17 24t5 30.5q0 30 -30 45.5t-74.5 27.5t-97 24.5t-97 36.5t-74.5 63t-30 104q0 46 20 83.5t52 62.5q-17 20 -26.5 45.5
t-9.5 59.5q0 40 15.5 74.5t46 59.5t75.5 39.5t104 14.5zM479 221q0 41 -29.5 64t-73.5 38t-96 27.5t-97 33.5q-11 -15 -18 -34t-7 -39q0 -41 29 -64t73 -38t96 -27.5t98 -32.5q11 14 18 32.5t7 39.5z" />
    <glyph glyph-name="dagger" unicode="&#x2020;" horiz-adv-x="494" 
d="M328 735l-20 -164l165 20v-132l-165 19l20 -164h-132l20 164l-164 -19v132l164 -20l-20 164h132z" />
    <glyph glyph-name="daggerdbl" unicode="&#x2021;" horiz-adv-x="526" 
d="M328 735l-20 -164l165 20v-132l-165 19v-221l165 19v-131l-165 19l20 -164h-132l20 164l-164 -19v131l164 -19v221l-164 -19v132l164 -20l-20 164h132z" />
    <glyph glyph-name="paragraph" unicode="&#xb6;" horiz-adv-x="583" 
d="M519 525v-557q0 -50 -19 -87t-49.5 -61.5t-69 -36.5t-76.5 -12v107q18 0 33.5 3.5t27.5 12.5t18.5 25t6.5 43v38h-122q-57 0 -100.5 22t-73 59t-45 85t-15.5 100q0 51 15 98t43.5 83t71 57t97.5 21h257z" />
    <glyph glyph-name="copyright" unicode="&#xa9;" horiz-adv-x="865" 
d="M430 660q-64 0 -114.5 -21.5t-86 -60.5t-54 -93t-18.5 -118t18.5 -117.5t54 -92.5t86 -60.5t114.5 -21.5q66 0 117.5 21.5t86.5 60.5t53 92.5t18 117.5t-18 117.5t-53 92.5t-86.5 61t-117.5 22zM430 745q81 0 152 -27t124.5 -76.5t84 -119.5t30.5 -155q0 -87 -31 -157
t-84.5 -119t-124.5 -75.5t-151 -26.5q-78 0 -148 26.5t-123 75.5t-84 119t-31 157q0 88 31.5 158t84.5 119t123 75t147 26zM439 605q82 0 136 -46.5t65 -131.5h-123q-5 33 -26 56t-56 23q-52 0 -74 -37.5t-22 -103.5q0 -65 22 -102t74 -37q35 0 55.5 22t26.5 57h123
q-11 -85 -65 -132t-136 -47q-106 0 -163 62.5t-57 176.5q0 115 57 177.5t163 62.5z" />
    <glyph glyph-name="publish" horiz-adv-x="865" 
d="M430 660q-64 0 -114.5 -21.5t-86 -60.5t-54 -93t-18.5 -118t18.5 -117.5t54 -92.5t86 -60.5t114.5 -21.5q66 0 117.5 21.5t86.5 60.5t53 92.5t18 117.5t-18 117.5t-53 92.5t-86.5 61t-117.5 22zM430 745q81 0 152 -27t124.5 -76.5t84 -119.5t30.5 -155q0 -87 -31 -157
t-84.5 -119t-124.5 -75.5t-151 -26.5q-78 0 -148 26.5t-123 75.5t-84 119t-31 157q0 88 31.5 158t84.5 119t123 75t147 26zM495 584q37 0 64.5 -11.5t46.5 -31t28.5 -46t9.5 -56.5q0 -32 -9.5 -59t-28 -47t-47.5 -31.5t-68 -11.5h-103v-143h-112v437h219zM388 367h81
q32 0 46.5 18t14.5 50q0 30 -14 47.5t-47 17.5h-81v-133z" />
    <glyph glyph-name="registered" unicode="&#xae;" horiz-adv-x="541" 
d="M264 695q-68 0 -111 -43t-43 -121q0 -73 41 -118t113 -45q74 0 114 45.5t40 117.5q0 74 -40 119t-114 45zM264 745q46 0 86.5 -15t70.5 -43t47 -67.5t17 -88.5q0 -50 -17.5 -89t-47.5 -67t-70 -42.5t-86 -14.5q-45 0 -85 14.5t-70 42t-47.5 67t-17.5 89.5q0 49 17.5 89
t47.5 67.5t70 42.5t85 15zM290 655q42 0 61.5 -18.5t19.5 -46.5q0 -24 -13.5 -41t-39.5 -22q12 -2 20.5 -7.5t14.5 -18.5t9 -34.5t3 -55.5h-60q0 32 -2 51t-6.5 29t-11 13t-15.5 3h-39v-96h-61v244h120zM231 549h42q20 0 27 8.5t7 22.5t-7 20.5t-27 6.5h-42v-58z" />
    <glyph glyph-name="trademark" unicode="&#x2122;" horiz-adv-x="824" 
d="M487 735l73 -229l73 229h124v-347h-83v244l-78 -244h-72l-79 244v-244h-82v278h-125v-278h-86v278h-114v69h449z" />
    <glyph glyph-name="ampersand" unicode="&#x26;" horiz-adv-x="753" 
d="M746 -9q-53 0 -116 23.5t-129 63.5q-48 -40 -104.5 -63.5t-122.5 -23.5q-59 0 -103.5 17.5t-74 47t-44.5 68.5t-15 81q0 35 9.5 68.5t28 62t46.5 50.5t64 34q-22 55 -22 103q0 42 13 80t41 66t72.5 44.5t106.5 16.5q53 0 95.5 -15t73 -41t47 -61.5t18.5 -76.5h-131
q-3 16 -10 30t-19.5 24.5t-32 16.5t-46.5 6q-53 0 -77 -26t-24 -60q0 -32 16.5 -69.5t45 -77t66.5 -78t80 -72.5q29 47 44 100.5t17 104.5h146q-12 -65 -42 -134.5t-77 -131.5q44 -26 84.5 -41t75.5 -15v-122zM294 106q34 0 63.5 9t54.5 26q-56 45 -104 96t-83 106
q-29 -17 -43.5 -46t-14.5 -61q0 -26 7.5 -49.5t23.5 -41.5t40 -28.5t56 -10.5z" />
    <glyph glyph-name="at" unicode="@" horiz-adv-x="903" 
d="M460 396q-33 0 -56.5 -17t-39.5 -44t-23.5 -59t-7.5 -62q0 -80 73 -80q33 0 58 16t42 41.5t25.5 56.5t8.5 61q0 45 -20.5 66t-59.5 21zM508 639q88 0 152 -24t105.5 -64.5t61.5 -94.5t20 -115q0 -60 -17.5 -115t-49.5 -97t-77.5 -67t-101.5 -25q-35 0 -59.5 15t-24.5 54
q0 8 0.5 15t2.5 18q-23 -48 -64.5 -70.5t-92.5 -22.5q-63 0 -104 40t-41 110q0 49 15 100.5t43.5 93.5t71 69t98.5 27q52 0 81 -26t37 -63l15 70h96l-55 -270q-3 -11 -4 -20t-1 -16q0 -16 6 -22t19 -6q20 0 39 16.5t33.5 44.5t23 65t8.5 78q0 45 -13 85t-42 69t-74.5 46
t-109.5 17q-85 0 -149.5 -30.5t-107.5 -80t-64.5 -112.5t-21.5 -129q0 -51 14.5 -93t43.5 -72t72 -46.5t100 -16.5q26 0 54 6.5t48 13.5l2 -91q-26 -9 -56 -15t-65 -6q-77 0 -136.5 24.5t-100 68t-61.5 103t-21 128.5q0 82 30.5 160t88.5 139t142 97.5t191 36.5z" />
    <glyph glyph-name="acute" unicode="&#xb4;" horiz-adv-x="332" 
d="M290 737l-156 -155h-93l110 171z" />
    <glyph glyph-name="grave" unicode="`" horiz-adv-x="332" 
d="M181 753l109 -171h-91l-157 155z" />
    <glyph glyph-name="caron" unicode="&#x2c7;" horiz-adv-x="463" 
d="M138 747l93 -84l93 84l94 -16l-125 -149h-123l-125 149z" />
    <glyph glyph-name="circumflex" unicode="&#x2c6;" horiz-adv-x="463" 
d="M293 741l125 -147l-94 -17l-92 84l-94 -84l-93 17l125 147h123z" />
    <glyph glyph-name="caron.alt" horiz-adv-x="215" 
d="M170 745l-52 -164h-66l2 164h116z" />
    <glyph glyph-name="breve" unicode="&#x2d8;" horiz-adv-x="373" 
d="M117 734q1 -34 18 -53t51 -19q38 0 53.5 21.5t15.5 50.5l82 -9q0 -34 -12 -60.5t-33 -45t-48.5 -28t-57.5 -9.5t-57 9.5t-48 28t-33 45t-12 60.5z" />
    <glyph glyph-name="dieresis" unicode="&#xa8;" horiz-adv-x="429" 
d="M66 606v103h100v-103h-100zM263 606v103h99v-103h-99z" />
    <glyph glyph-name="dotaccent" unicode="&#x2d9;" horiz-adv-x="232" 
d="M51 606v118h129v-118h-129z" />
    <glyph glyph-name="hungarumlaut" unicode="&#x2dd;" horiz-adv-x="479" 
d="M252 737l-127 -146h-73l94 162zM426 737l-127 -146h-73l94 162z" />
    <glyph glyph-name="macron" unicode="&#xaf;" horiz-adv-x="383" 
d="M52 601v86h278v-86h-278z" />
    <glyph glyph-name="macron" unicode="&#x2c9;" horiz-adv-x="383" 
d="M52 601v86h278v-86h-278z" />
    <glyph glyph-name="ring" unicode="&#x2da;" horiz-adv-x="362" 
d="M180 777q27 0 51 -7t42 -20.5t28.5 -33t10.5 -45.5t-10.5 -45.5t-28.5 -33t-42 -20t-51 -6.5t-51 6.5t-42 20t-28.5 33t-10.5 45.5t10.5 45.5t28.5 33t42 20.5t51 7zM180 713q-25 0 -38 -12t-13 -29q0 -22 14.5 -32.5t36.5 -10.5q23 0 36.5 10.5t13.5 30.5q0 21 -15 32
t-35 11z" />
    <glyph glyph-name="tilde" unicode="&#x2dc;" horiz-adv-x="455" 
d="M156 730q27 0 47.5 -9t37.5 -20.5t31.5 -20.5t28.5 -9t25 8t14 34l58 -9q-5 -55 -29 -86.5t-66 -31.5q-24 0 -43.5 9.5t-37.5 21.5t-35 21.5t-35 9.5q-17 0 -27 -11.5t-12 -36.5l-56 13q3 54 27 85.5t72 31.5z" />
    <glyph glyph-name="ogonek" unicode="&#x2db;" horiz-adv-x="281" 
d="M208 0q-25 -19 -39.5 -45.5t-14.5 -51.5q0 -22 13.5 -34t36.5 -12q6 0 12 0.5t12 1.5v-84q-23 -5 -47 -5q-60 0 -94.5 28.5t-34.5 73.5q0 35 21.5 68.5t63.5 59.5h71z" />
    <glyph glyph-name="cedilla" unicode="&#xb8;" horiz-adv-x="372" 
d="M222 0l-40 -57q8 2 16 3t16 1q19 0 38 -5t34 -15.5t24 -26.5t9 -39q0 -25 -11.5 -45t-32 -33.5t-47.5 -20.5t-57 -7q-35 0 -66.5 9.5t-52.5 29.5l39 45q8 -11 28.5 -18t42.5 -7q28 0 42.5 10.5t14.5 28.5q0 27 -23 37.5t-60 10.5q-12 0 -26 -1t-28 -3l58 103h82z" />
    <glyph glyph-name="commaaccent" unicode="&#xf6c3;" horiz-adv-x="244" 
d="M191 -43v-66q0 -28 -8.5 -50.5t-23.5 -40.5t-35.5 -32t-44.5 -25l-18 45q34 12 48.5 32t14.5 49h-50v88h117z" />
    <glyph glyph-name="acute.case" horiz-adv-x="332" 
d="M290 908l-163 -149h-86l124 163z" />
    <glyph glyph-name="grave.case" horiz-adv-x="332" 
d="M167 922l123 -163h-85l-164 149z" />
    <glyph glyph-name="caron.case" horiz-adv-x="463" 
d="M132 922l99 -83l100 83l87 -14l-133 -149h-109l-131 149z" />
    <glyph glyph-name="circumflex.case" horiz-adv-x="463" 
d="M331 759l-99 85l-100 -85l-87 15l131 148h109l133 -148z" />
    <glyph glyph-name="breve.case" horiz-adv-x="373" 
d="M115 900q0 -31 18.5 -47t52.5 -16q38 0 55 17.5t17 45.5l71 -8q-1 -61 -41.5 -95t-101.5 -34q-30 0 -56 9t-45 25.5t-30 40.5t-11 54z" />
    <glyph glyph-name="dieresis.case" horiz-adv-x="429" 
d="M60 785v98h98v-98h-98zM270 785v98h100v-98h-100z" />
    <glyph glyph-name="dotaccent.case" horiz-adv-x="232" 
d="M52 785v105h127v-105h-127z" />
    <glyph glyph-name="hungarumlaut.case" horiz-adv-x="479" 
d="M245 908l-127 -141h-73l94 155zM434 908l-129 -141h-71l93 155z" />
    <glyph glyph-name="macron.case" horiz-adv-x="383" 
d="M52 779v78h278v-78h-278z" />
    <glyph glyph-name="ring.case" horiz-adv-x="362" 
d="M181 930q27 0 50 -6t40.5 -17.5t27.5 -29t10 -40.5t-10 -40.5t-27.5 -28.5t-40.5 -16.5t-50 -5.5t-50.5 5.5t-41 16.5t-27.5 28.5t-10 40.5t10 40.5t27.5 29t41 17.5t50.5 6zM180 876q-26 0 -40.5 -11t-14.5 -28q0 -23 16 -31.5t39 -8.5q26 0 40.5 10t14.5 30t-16.5 29.5
t-38.5 9.5z" />
    <glyph glyph-name="tilde.case" horiz-adv-x="455" 
d="M156 897q27 0 47.5 -8.5t37.5 -18.5t31.5 -18.5t28.5 -8.5t25 7.5t14 32.5l58 -9q-5 -51 -29 -79.5t-66 -28.5q-24 0 -43.5 9t-37.5 20t-35 20t-35 9q-17 0 -27 -10.5t-12 -34.5l-56 13q3 48 27 76.5t72 28.5z" />
    <glyph glyph-name="arrowleft" unicode="&#x2190;" horiz-adv-x="737" 
d="M338 617l80 -80l-150 -150h416v-112h-417l151 -150l-80 -80l-286 285z" />
    <glyph glyph-name="arrowright" unicode="&#x2192;" horiz-adv-x="737" 
d="M684 330l-285 -285l-80 80l150 149h-417v113h417l-150 150l80 80z" />
    <glyph glyph-name="arrowup" unicode="&#x2191;" 
d="M624 347l-80 -80l-149 149v-416h-113v416l-150 -149l-80 80l286 285z" />
    <glyph glyph-name="arrowdown" unicode="&#x2193;" 
d="M394 588v-417l150 151l80 -80l-286 -286l-286 286l80 80l150 -150v416h112z" />
    <glyph glyph-name="arrowupleft" unicode="&#x2196;" horiz-adv-x="626" 
d="M88 525h403v-113h-212l294 -295l-78 -79l-295 295v-212h-112v404z" />
    <glyph glyph-name="arrowupright" unicode="&#x2197;" horiz-adv-x="626" 
d="M538 121h-113v212l-294 -295l-79 79l295 295h-213v113h404v-404z" />
    <glyph glyph-name="arrowdownleft" unicode="&#x2199;" horiz-adv-x="626" 
d="M88 404h112v-212l295 295l78 -80l-294 -295h212v-112h-403v404z" />
    <glyph glyph-name="arrowdownright" unicode="&#x2198;" horiz-adv-x="626" 
d="M538 0h-404v112h213l-295 295l79 80l294 -295v212h113v-404z" />
    <glyph glyph-name="afii00208" unicode="&#x2015;" horiz-adv-x="1038" 
d="M54 274v113h930v-113h-930z" />
    <glyph glyph-name="Aacute" unicode="&#xc1;" 
d="M443 720l244 -720h-158l-60 185h-269l-60 -185h-151l246 720h208zM335 627q-5 -23 -12.5 -54t-15.5 -54l-74 -224h203l-73 226q-8 23 -15.5 53t-12.5 53zM506 908l-163 -149h-86l124 163z" />
    <glyph glyph-name="Abreve" unicode="&#x102;" 
d="M443 720l244 -720h-158l-60 185h-269l-60 -185h-151l246 720h208zM335 627q-5 -23 -12.5 -54t-15.5 -54l-74 -224h203l-73 226q-8 23 -15.5 53t-12.5 53zM267 900q0 -31 18.5 -47t52.5 -16q38 0 55 17.5t17 45.5l71 -8q-1 -61 -41.5 -95t-101.5 -34q-30 0 -56 9t-45 25.5
t-30 40.5t-11 54z" />
    <glyph glyph-name="Acircumflex" unicode="&#xc2;" 
d="M443 720l244 -720h-158l-60 185h-269l-60 -185h-151l246 720h208zM335 627q-5 -23 -12.5 -54t-15.5 -54l-74 -224h203l-73 226q-8 23 -15.5 53t-12.5 53zM435 759l-99 85l-100 -85l-87 15l131 148h109l133 -148z" />
    <glyph glyph-name="Adieresis" unicode="&#xc4;" 
d="M443 720l244 -720h-158l-60 185h-269l-60 -185h-151l246 720h208zM335 627q-5 -23 -12.5 -54t-15.5 -54l-74 -224h203l-73 226q-8 23 -15.5 53t-12.5 53zM180 785v98h98v-98h-98zM390 785v98h100v-98h-100z" />
    <glyph glyph-name="Agrave" unicode="&#xc0;" 
d="M443 720l244 -720h-158l-60 185h-269l-60 -185h-151l246 720h208zM335 627q-5 -23 -12.5 -54t-15.5 -54l-74 -224h203l-73 226q-8 23 -15.5 53t-12.5 53zM301 922l123 -163h-85l-164 149z" />
    <glyph glyph-name="Amacron" unicode="&#x100;" 
d="M443 720l244 -720h-158l-60 185h-269l-60 -185h-151l246 720h208zM335 627q-5 -23 -12.5 -54t-15.5 -54l-74 -224h203l-73 226q-8 23 -15.5 53t-12.5 53zM199 779v78h278v-78h-278z" />
    <glyph glyph-name="Aogonek" unicode="&#x104;" 
d="M529 0l-60 185h-269l-60 -185h-151l246 720h208l244 -720h-39q-25 -19 -39.5 -45.5t-14.5 -51.5q0 -22 13.5 -34t36.5 -12q6 0 12 0.5t12 1.5v-84q-23 -5 -47 -5q-60 0 -94.5 28.5t-34.5 73.5q0 35 21.5 68.5t63.5 59.5h-48zM335 627q-5 -23 -12.5 -54t-15.5 -54
l-74 -224h203l-73 226q-8 23 -15.5 53t-12.5 53z" />
    <glyph glyph-name="Aring" unicode="&#xc5;" 
d="M443 720l244 -720h-158l-60 185h-269l-60 -185h-151l246 720h208zM335 627q-5 -23 -12.5 -54t-15.5 -54l-74 -224h203l-73 226q-8 23 -15.5 53t-12.5 53zM337 930q27 0 50 -6t40.5 -17.5t27.5 -29t10 -40.5t-10 -40.5t-27.5 -28.5t-40.5 -16.5t-50 -5.5t-50.5 5.5
t-41 16.5t-27.5 28.5t-10 40.5t10 40.5t27.5 29t41 17.5t50.5 6zM336 876q-26 0 -40.5 -11t-14.5 -28q0 -23 16 -31.5t39 -8.5q26 0 40.5 10t14.5 30t-16.5 29.5t-38.5 9.5z" />
    <glyph glyph-name="Atilde" unicode="&#xc3;" 
d="M443 720l244 -720h-158l-60 185h-269l-60 -185h-151l246 720h208zM335 627q-5 -23 -12.5 -54t-15.5 -54l-74 -224h203l-73 226q-8 23 -15.5 53t-12.5 53zM266 897q27 0 47.5 -8.5t37.5 -18.5t31.5 -18.5t28.5 -8.5t25 7.5t14 32.5l58 -9q-5 -51 -29 -79.5t-66 -28.5
q-24 0 -43.5 9t-37.5 20t-35 20t-35 9q-17 0 -27 -10.5t-12 -34.5l-56 13q3 48 27 76.5t72 28.5z" />
    <glyph glyph-name="Cacute" unicode="&#x106;" horiz-adv-x="733" 
d="M702 231q-6 -54 -29.5 -98.5t-63 -76.5t-93.5 -49.5t-119 -17.5q-79 0 -142 28.5t-107.5 78.5t-68 117.5t-23.5 146.5q0 78 23.5 146t68 117.5t107.5 78t142 28.5q65 0 119 -17.5t93.5 -49.5t63 -76.5t29.5 -98.5h-146q-10 55 -50 86t-109 31q-48 0 -83 -18t-58.5 -50
t-34.5 -77.5t-11 -99.5t11 -99t34.5 -77t58.5 -50t83 -18q69 0 109 30.5t50 84.5h146zM551 908l-163 -149h-86l124 163z" />
    <glyph glyph-name="Ccaron" unicode="&#x10c;" horiz-adv-x="733" 
d="M702 231q-6 -54 -29.5 -98.5t-63 -76.5t-93.5 -49.5t-119 -17.5q-79 0 -142 28.5t-107.5 78.5t-68 117.5t-23.5 146.5q0 78 23.5 146t68 117.5t107.5 78t142 28.5q65 0 119 -17.5t93.5 -49.5t63 -76.5t29.5 -98.5h-146q-10 55 -50 86t-109 31q-48 0 -83 -18t-58.5 -50
t-34.5 -77.5t-11 -99.5t11 -99t34.5 -77t58.5 -50t83 -18q69 0 109 30.5t50 84.5h146zM302 922l99 -83l100 83l87 -14l-133 -149h-109l-131 149z" />
    <glyph glyph-name="Ccircumflex" unicode="&#x108;" horiz-adv-x="733" 
d="M702 231q-6 -54 -29.5 -98.5t-63 -76.5t-93.5 -49.5t-119 -17.5q-79 0 -142 28.5t-107.5 78.5t-68 117.5t-23.5 146.5q0 78 23.5 146t68 117.5t107.5 78t142 28.5q65 0 119 -17.5t93.5 -49.5t63 -76.5t29.5 -98.5h-146q-10 55 -50 86t-109 31q-48 0 -83 -18t-58.5 -50
t-34.5 -77.5t-11 -99.5t11 -99t34.5 -77t58.5 -50t83 -18q69 0 109 30.5t50 84.5h146zM497 759l-99 85l-100 -85l-87 15l131 148h109l133 -148z" />
    <glyph glyph-name="Cdotaccent" unicode="&#x10a;" horiz-adv-x="733" 
d="M702 231q-6 -54 -29.5 -98.5t-63 -76.5t-93.5 -49.5t-119 -17.5q-79 0 -142 28.5t-107.5 78.5t-68 117.5t-23.5 146.5q0 78 23.5 146t68 117.5t107.5 78t142 28.5q65 0 119 -17.5t93.5 -49.5t63 -76.5t29.5 -98.5h-146q-10 55 -50 86t-109 31q-48 0 -83 -18t-58.5 -50
t-34.5 -77.5t-11 -99.5t11 -99t34.5 -77t58.5 -50t83 -18q69 0 109 30.5t50 84.5h146zM336 785v105h127v-105h-127z" />
    <glyph glyph-name="Ccedilla" unicode="&#xc7;" horiz-adv-x="733" 
d="M702 231q-5 -51 -27 -94t-58 -74.5t-85 -50.5t-109 -22l-32 -47q8 2 16 3t16 1q19 0 38 -5t34 -15.5t24 -26.5t9 -39q0 -25 -11.5 -45t-32 -33.5t-47.5 -20.5t-57 -7q-35 0 -66.5 9.5t-52.5 29.5l39 45q8 -11 28.5 -18t42.5 -7q28 0 42.5 10.5t14.5 28.5q0 27 -23 37.5
t-60 10.5q-12 0 -26 -1t-28 -3l53 96q-68 9 -121 40.5t-90.5 80t-57 111.5t-19.5 135q0 78 23.5 146t68 117.5t107.5 78t142 28.5q65 0 119 -17.5t93.5 -49.5t63 -76.5t29.5 -98.5h-146q-10 55 -50 86t-109 31q-48 0 -83 -18t-58.5 -50t-34.5 -77.5t-11 -99.5t11 -99
t34.5 -77t58.5 -50t83 -18q69 0 109 30.5t50 84.5h146z" />
    <glyph glyph-name="Dcroat" unicode="&#x110;" horiz-adv-x="758" 
d="M82 0v343h-49v86h49v291h311q72 0 129 -24.5t97.5 -70.5t62 -112t21.5 -150t-21 -151t-60 -114t-95 -72.5t-127 -25.5h-318zM368 113q94 0 139.5 59.5t45.5 188.5t-47.5 188t-141.5 59h-139v-179h86v-86h-86v-230h143z" />
    <glyph glyph-name="Dcaron" unicode="&#x10e;" horiz-adv-x="758" 
d="M82 0v720h311q72 0 129 -24.5t97.5 -70.5t62 -112t21.5 -150t-21 -151t-60 -114t-95 -72.5t-127 -25.5h-318zM368 113q94 0 139.5 59.5t45.5 188.5t-47.5 188t-141.5 59h-139v-495h143zM249 922l99 -83l100 83l87 -14l-133 -149h-109l-131 149z" />
    <glyph glyph-name="Eacute" unicode="&#xc9;" horiz-adv-x="623" 
d="M82 0v720h492v-112h-349v-181h287v-109h-287v-205h356v-113h-499zM514 908l-163 -149h-86l124 163z" />
    <glyph glyph-name="Ebreve" unicode="&#x114;" horiz-adv-x="623" 
d="M82 0v720h492v-112h-349v-181h287v-109h-287v-205h356v-113h-499zM270 900q0 -31 18.5 -47t52.5 -16q38 0 55 17.5t17 45.5l71 -8q-1 -61 -41.5 -95t-101.5 -34q-30 0 -56 9t-45 25.5t-30 40.5t-11 54z" />
    <glyph glyph-name="Ecaron" unicode="&#x11a;" horiz-adv-x="623" 
d="M82 0v720h492v-112h-349v-181h287v-109h-287v-205h356v-113h-499zM244 922l99 -83l100 83l87 -14l-133 -149h-109l-131 149z" />
    <glyph glyph-name="Ecircumflex" unicode="&#xca;" horiz-adv-x="623" 
d="M82 0v720h492v-112h-349v-181h287v-109h-287v-205h356v-113h-499zM436 759l-99 85l-100 -85l-87 15l131 148h109l133 -148z" />
    <glyph glyph-name="Edieresis" unicode="&#xcb;" horiz-adv-x="623" 
d="M82 0v720h492v-112h-349v-181h287v-109h-287v-205h356v-113h-499zM179 785v98h98v-98h-98zM389 785v98h100v-98h-100z" />
    <glyph glyph-name="Edotaccent" unicode="&#x116;" horiz-adv-x="623" 
d="M82 0v720h492v-112h-349v-181h287v-109h-287v-205h356v-113h-499zM277 785v105h127v-105h-127z" />
    <glyph glyph-name="Egrave" unicode="&#xc8;" horiz-adv-x="623" 
d="M82 0v720h492v-112h-349v-181h287v-109h-287v-205h356v-113h-499zM296 922l123 -163h-85l-164 149z" />
    <glyph glyph-name="Emacron" unicode="&#x112;" horiz-adv-x="623" 
d="M82 0v720h492v-112h-349v-181h287v-109h-287v-205h356v-113h-499zM199 779v78h278v-78h-278z" />
    <glyph glyph-name="Eogonek" unicode="&#x118;" horiz-adv-x="623" 
d="M82 0v720h492v-112h-349v-181h287v-109h-287v-205h356v-113h-34q-25 -19 -39.5 -45.5t-14.5 -51.5q0 -22 13.5 -34t36.5 -12q6 0 12 0.5t12 1.5v-84q-23 -5 -47 -5q-60 0 -94.5 28.5t-34.5 73.5q0 35 21.5 68.5t63.5 59.5h-394z" />
    <glyph glyph-name="Gbreve" unicode="&#x11e;" horiz-adv-x="789" 
d="M400 730q64 0 117.5 -17.5t92.5 -49t63 -76t29 -98.5h-146q-9 55 -49 85.5t-109 30.5q-48 0 -83.5 -18t-59 -50t-34.5 -77.5t-11 -99.5q0 -116 44.5 -181t139.5 -65q78 0 123.5 44t46.5 130h-178v106h322v-394h-137v131q-10 -29 -26 -54.5t-40.5 -45t-58.5 -31t-81 -11.5
q-58 0 -113.5 23.5t-99 70t-70 116t-26.5 161.5q0 78 24 146t68.5 117.5t108 78t143.5 28.5zM330 900q0 -31 18.5 -47t52.5 -16q38 0 55 17.5t17 45.5l71 -8q-1 -61 -41.5 -95t-101.5 -34q-30 0 -56 9t-45 25.5t-30 40.5t-11 54z" />
    <glyph glyph-name="Gcircumflex" unicode="&#x11c;" horiz-adv-x="789" 
d="M400 730q64 0 117.5 -17.5t92.5 -49t63 -76t29 -98.5h-146q-9 55 -49 85.5t-109 30.5q-48 0 -83.5 -18t-59 -50t-34.5 -77.5t-11 -99.5q0 -116 44.5 -181t139.5 -65q78 0 123.5 44t46.5 130h-178v106h322v-394h-137v131q-10 -29 -26 -54.5t-40.5 -45t-58.5 -31t-81 -11.5
q-58 0 -113.5 23.5t-99 70t-70 116t-26.5 161.5q0 78 24 146t68.5 117.5t108 78t143.5 28.5zM499 759l-99 85l-100 -85l-87 15l131 148h109l133 -148z" />
    <glyph glyph-name="Gcommaaccent" unicode="&#x122;" horiz-adv-x="789" 
d="M400 730q64 0 117.5 -17.5t92.5 -49t63 -76t29 -98.5h-146q-9 55 -49 85.5t-109 30.5q-48 0 -83.5 -18t-59 -50t-34.5 -77.5t-11 -99.5q0 -116 44.5 -181t139.5 -65q78 0 123.5 44t46.5 130h-178v106h322v-394h-137v131q-10 -29 -26 -54.5t-40.5 -45t-58.5 -31t-81 -11.5
q-58 0 -113.5 23.5t-99 70t-70 116t-26.5 161.5q0 78 24 146t68.5 117.5t108 78t143.5 28.5zM454 -43v-66q0 -28 -8.5 -50.5t-23.5 -40.5t-35.5 -32t-44.5 -25l-18 45q34 12 48.5 32t14.5 49h-50v88h117z" />
    <glyph glyph-name="Gdotaccent" unicode="&#x120;" horiz-adv-x="789" 
d="M400 730q64 0 117.5 -17.5t92.5 -49t63 -76t29 -98.5h-146q-9 55 -49 85.5t-109 30.5q-48 0 -83.5 -18t-59 -50t-34.5 -77.5t-11 -99.5q0 -116 44.5 -181t139.5 -65q78 0 123.5 44t46.5 130h-178v106h322v-394h-137v131q-10 -29 -26 -54.5t-40.5 -45t-58.5 -31t-81 -11.5
q-58 0 -113.5 23.5t-99 70t-70 116t-26.5 161.5q0 78 24 146t68.5 117.5t108 78t143.5 28.5zM337 785v105h127v-105h-127z" />
    <glyph glyph-name="Hcircumflex" unicode="&#x124;" horiz-adv-x="729" 
d="M504 0v317h-279v-317h-143v720h143v-292h279v292h142v-720h-142zM464 759l-99 85l-100 -85l-87 15l131 148h109l133 -148z" />
    <glyph glyph-name="Hbar" unicode="&#x126;" horiz-adv-x="729" 
d="M504 0v317h-279v-317h-143v550h-60v84h60v86h143v-86h279v86h142v-86h61v-84h-61v-550h-142zM504 428v122h-279v-122h279z" />
    <glyph glyph-name="Iacute" unicode="&#xcd;" horiz-adv-x="308" 
d="M82 0v720h143v-720h-143zM331 908l-163 -149h-86l124 163z" />
    <glyph glyph-name="Ibreve" unicode="&#x12c;" horiz-adv-x="308" 
d="M82 0v720h143v-720h-143zM83 900q0 -31 18.5 -47t52.5 -16q38 0 55 17.5t17 45.5l71 -8q-1 -61 -41.5 -95t-101.5 -34q-30 0 -56 9t-45 25.5t-30 40.5t-11 54z" />
    <glyph glyph-name="Icircumflex" unicode="&#xce;" horiz-adv-x="308" 
d="M82 0v720h143v-720h-143zM254 759l-99 85l-100 -85l-87 15l131 148h109l133 -148z" />
    <glyph glyph-name="Idieresis" unicode="&#xcf;" horiz-adv-x="308" 
d="M82 0v720h143v-720h-143zM-1 785v98h98v-98h-98zM209 785v98h100v-98h-100z" />
    <glyph glyph-name="Idotaccent" unicode="&#x130;" horiz-adv-x="308" 
d="M82 0v720h143v-720h-143zM91 785v105h127v-105h-127z" />
    <glyph glyph-name="Igrave" unicode="&#xcc;" horiz-adv-x="308" 
d="M82 0v720h143v-720h-143zM105 922l123 -163h-85l-164 149z" />
    <glyph glyph-name="Imacron" unicode="&#x12a;" horiz-adv-x="308" 
d="M82 0v720h143v-720h-143zM15 779v78h278v-78h-278z" />
    <glyph glyph-name="Iogonek" unicode="&#x12e;" horiz-adv-x="308" 
d="M82 0v720h143v-720h-17q-25 -19 -39.5 -45.5t-14.5 -51.5q0 -22 13.5 -34t36.5 -12q6 0 12 0.5t12 1.5v-84q-23 -5 -47 -5q-60 0 -94.5 28.5t-34.5 73.5q0 35 21.5 68.5t63.5 59.5h-55z" />
    <glyph glyph-name="Itilde" unicode="&#x128;" horiz-adv-x="308" 
d="M82 0v720h143v-720h-143zM83 897q27 0 47.5 -8.5t37.5 -18.5t31.5 -18.5t28.5 -8.5t25 7.5t14 32.5l58 -9q-5 -51 -29 -79.5t-66 -28.5q-24 0 -43.5 9t-37.5 20t-35 20t-35 9q-17 0 -27 -10.5t-12 -34.5l-56 13q3 48 27 76.5t72 28.5z" />
    <glyph glyph-name="Jcircumflex" unicode="&#x134;" horiz-adv-x="585" 
d="M506 720v-499q0 -54 -18.5 -97t-53 -73t-83.5 -46t-109 -16q-106 0 -169.5 58.5t-76.5 155.5h148q1 -18 7 -34t18 -29t31.5 -20.5t46.5 -7.5q62 0 89 26.5t27 80.5v501h143zM529 759l-99 85l-100 -85l-87 15l131 148h109l133 -148z" />
    <glyph glyph-name="Kcommaaccent" unicode="&#x136;" horiz-adv-x="693" 
d="M82 0v720h143v-720h-143zM515 0l-283 378l267 342h166l-267 -333l289 -387h-172zM409 -43v-66q0 -28 -8.5 -50.5t-23.5 -40.5t-35.5 -32t-44.5 -25l-18 45q34 12 48.5 32t14.5 49h-50v88h117z" />
    <glyph glyph-name="Lacute" unicode="&#x139;" horiz-adv-x="562" 
d="M82 0v720h143v-607h327v-113h-470zM354 908l-163 -149h-86l124 163z" />
    <glyph glyph-name="Lcaron" unicode="&#x13d;" horiz-adv-x="562" 
d="M82 0v720h143v-607h327v-113h-470zM412 745l-52 -164h-66l2 164h116z" />
    <glyph glyph-name="Lcommaaccent" unicode="&#x13b;" horiz-adv-x="562" 
d="M82 0v720h143v-607h327v-113h-470zM382 -43v-66q0 -28 -8.5 -50.5t-23.5 -40.5t-35.5 -32t-44.5 -25l-18 45q34 12 48.5 32t14.5 49h-50v88h117z" />
    <glyph glyph-name="Lslash" unicode="&#x141;" horiz-adv-x="562" 
d="M82 0v200l-31 -31l-65 66l96 96v389h143v-245l87 87l67 -66l-154 -154v-229h327v-113h-470z" />
    <glyph glyph-name="Nacute" unicode="&#x143;" horiz-adv-x="746" 
d="M284 720l216 -469q7 -16 15 -41.5t13 -48.5q-1 8 -2 21t-1.5 27.5t-1 27.5t-0.5 22v461h140v-720h-185l-230 507q-7 16 -14.5 42.5t-12.5 46.5q1 -8 1.5 -20.5t1 -25.5t1 -25.5t0.5 -19.5v-505h-143v720h202zM546 908l-163 -149h-86l124 163z" />
    <glyph glyph-name="Ncaron" unicode="&#x147;" horiz-adv-x="746" 
d="M284 720l216 -469q7 -16 15 -41.5t13 -48.5q-1 8 -2 21t-1.5 27.5t-1 27.5t-0.5 22v461h140v-720h-185l-230 507q-7 16 -14.5 42.5t-12.5 46.5q1 -8 1.5 -20.5t1 -25.5t1 -25.5t0.5 -19.5v-505h-143v720h202zM274 922l99 -83l100 83l87 -14l-133 -149h-109l-131 149z" />
    <glyph glyph-name="Ncommaaccent" unicode="&#x145;" horiz-adv-x="746" 
d="M284 720l216 -469q7 -16 15 -41.5t13 -48.5q-1 8 -2 21t-1.5 27.5t-1 27.5t-0.5 22v461h140v-720h-185l-230 507q-7 16 -14.5 42.5t-12.5 46.5q1 -8 1.5 -20.5t1 -25.5t1 -25.5t0.5 -19.5v-505h-143v720h202zM436 -43v-66q0 -28 -8.5 -50.5t-23.5 -40.5t-35.5 -32
t-44.5 -25l-18 45q34 12 48.5 32t14.5 49h-50v88h117z" />
    <glyph glyph-name="Ntilde" unicode="&#xd1;" horiz-adv-x="746" 
d="M284 720l216 -469q7 -16 15 -41.5t13 -48.5q-1 8 -2 21t-1.5 27.5t-1 27.5t-0.5 22v461h140v-720h-185l-230 507q-7 16 -14.5 42.5t-12.5 46.5q1 -8 1.5 -20.5t1 -25.5t1 -25.5t0.5 -19.5v-505h-143v720h202zM302 897q27 0 47.5 -8.5t37.5 -18.5t31.5 -18.5t28.5 -8.5
t25 7.5t14 32.5l58 -9q-5 -51 -29 -79.5t-66 -28.5q-24 0 -43.5 9t-37.5 20t-35 20t-35 9q-17 0 -27 -10.5t-12 -34.5l-56 13q3 48 27 76.5t72 28.5z" />
    <glyph glyph-name="Oacute" unicode="&#xd3;" horiz-adv-x="793" 
d="M397 605q-48 0 -83.5 -18t-58.5 -50t-34 -77.5t-11 -99.5t11 -99t34 -77t58.5 -50t83.5 -18t83 18t58 50t34 77t11 99t-11 99.5t-34 77.5t-58 50t-83 18zM397 730q79 0 142 -28.5t107 -78t67.5 -117.5t23.5 -146q0 -79 -23.5 -146.5t-67.5 -117.5t-107 -78.5t-142 -28.5
q-80 0 -143 28.5t-107 78.5t-67.5 117.5t-23.5 146.5q0 78 23.5 146t67.5 117.5t107 78t143 28.5zM558 908l-163 -149h-86l124 163z" />
    <glyph glyph-name="Obreve" unicode="&#x14e;" horiz-adv-x="793" 
d="M397 605q-48 0 -83.5 -18t-58.5 -50t-34 -77.5t-11 -99.5t11 -99t34 -77t58.5 -50t83.5 -18t83 18t58 50t34 77t11 99t-11 99.5t-34 77.5t-58 50t-83 18zM397 730q79 0 142 -28.5t107 -78t67.5 -117.5t23.5 -146q0 -79 -23.5 -146.5t-67.5 -117.5t-107 -78.5t-142 -28.5
q-80 0 -143 28.5t-107 78.5t-67.5 117.5t-23.5 146.5q0 78 23.5 146t67.5 117.5t107 78t143 28.5zM325 900q0 -31 18.5 -47t52.5 -16q38 0 55 17.5t17 45.5l71 -8q-1 -61 -41.5 -95t-101.5 -34q-30 0 -56 9t-45 25.5t-30 40.5t-11 54z" />
    <glyph glyph-name="Ocircumflex" unicode="&#xd4;" horiz-adv-x="793" 
d="M397 605q-48 0 -83.5 -18t-58.5 -50t-34 -77.5t-11 -99.5t11 -99t34 -77t58.5 -50t83.5 -18t83 18t58 50t34 77t11 99t-11 99.5t-34 77.5t-58 50t-83 18zM397 730q79 0 142 -28.5t107 -78t67.5 -117.5t23.5 -146q0 -79 -23.5 -146.5t-67.5 -117.5t-107 -78.5t-142 -28.5
q-80 0 -143 28.5t-107 78.5t-67.5 117.5t-23.5 146.5q0 78 23.5 146t67.5 117.5t107 78t143 28.5zM496 759l-99 85l-100 -85l-87 15l131 148h109l133 -148z" />
    <glyph glyph-name="Odieresis" unicode="&#xd6;" horiz-adv-x="793" 
d="M397 605q-48 0 -83.5 -18t-58.5 -50t-34 -77.5t-11 -99.5t11 -99t34 -77t58.5 -50t83.5 -18t83 18t58 50t34 77t11 99t-11 99.5t-34 77.5t-58 50t-83 18zM397 730q79 0 142 -28.5t107 -78t67.5 -117.5t23.5 -146q0 -79 -23.5 -146.5t-67.5 -117.5t-107 -78.5t-142 -28.5
q-80 0 -143 28.5t-107 78.5t-67.5 117.5t-23.5 146.5q0 78 23.5 146t67.5 117.5t107 78t143 28.5zM241 785v98h98v-98h-98zM451 785v98h100v-98h-100z" />
    <glyph glyph-name="Ograve" unicode="&#xd2;" horiz-adv-x="793" 
d="M397 605q-48 0 -83.5 -18t-58.5 -50t-34 -77.5t-11 -99.5t11 -99t34 -77t58.5 -50t83.5 -18t83 18t58 50t34 77t11 99t-11 99.5t-34 77.5t-58 50t-83 18zM397 730q79 0 142 -28.5t107 -78t67.5 -117.5t23.5 -146q0 -79 -23.5 -146.5t-67.5 -117.5t-107 -78.5t-142 -28.5
q-80 0 -143 28.5t-107 78.5t-67.5 117.5t-23.5 146.5q0 78 23.5 146t67.5 117.5t107 78t143 28.5zM364 922l123 -163h-85l-164 149z" />
    <glyph glyph-name="Ohungarumlaut" unicode="&#x150;" horiz-adv-x="793" 
d="M397 605q-48 0 -83.5 -18t-58.5 -50t-34 -77.5t-11 -99.5t11 -99t34 -77t58.5 -50t83.5 -18t83 18t58 50t34 77t11 99t-11 99.5t-34 77.5t-58 50t-83 18zM397 730q79 0 142 -28.5t107 -78t67.5 -117.5t23.5 -146q0 -79 -23.5 -146.5t-67.5 -117.5t-107 -78.5t-142 -28.5
q-80 0 -143 28.5t-107 78.5t-67.5 117.5t-23.5 146.5q0 78 23.5 146t67.5 117.5t107 78t143 28.5zM449 908l-127 -141h-73l94 155zM638 908l-129 -141h-71l93 155z" />
    <glyph glyph-name="Omacron" unicode="&#x14c;" horiz-adv-x="793" 
d="M397 605q-48 0 -83.5 -18t-58.5 -50t-34 -77.5t-11 -99.5t11 -99t34 -77t58.5 -50t83.5 -18t83 18t58 50t34 77t11 99t-11 99.5t-34 77.5t-58 50t-83 18zM397 730q79 0 142 -28.5t107 -78t67.5 -117.5t23.5 -146q0 -79 -23.5 -146.5t-67.5 -117.5t-107 -78.5t-142 -28.5
q-80 0 -143 28.5t-107 78.5t-67.5 117.5t-23.5 146.5q0 78 23.5 146t67.5 117.5t107 78t143 28.5zM257 779v78h278v-78h-278z" />
    <glyph glyph-name="Otilde" unicode="&#xd5;" horiz-adv-x="793" 
d="M397 605q-48 0 -83.5 -18t-58.5 -50t-34 -77.5t-11 -99.5t11 -99t34 -77t58.5 -50t83.5 -18t83 18t58 50t34 77t11 99t-11 99.5t-34 77.5t-58 50t-83 18zM397 730q79 0 142 -28.5t107 -78t67.5 -117.5t23.5 -146q0 -79 -23.5 -146.5t-67.5 -117.5t-107 -78.5t-142 -28.5
q-80 0 -143 28.5t-107 78.5t-67.5 117.5t-23.5 146.5q0 78 23.5 146t67.5 117.5t107 78t143 28.5zM325 897q27 0 47.5 -8.5t37.5 -18.5t31.5 -18.5t28.5 -8.5t25 7.5t14 32.5l58 -9q-5 -51 -29 -79.5t-66 -28.5q-24 0 -43.5 9t-37.5 20t-35 20t-35 9q-17 0 -27 -10.5
t-12 -34.5l-56 13q3 48 27 76.5t72 28.5z" />
    <glyph glyph-name="Racute" unicode="&#x154;" horiz-adv-x="701" 
d="M502 0q0 90 -9.5 146t-27 87t-42.5 42t-57 11h-141v-286h-143v720h339q57 0 98.5 -15.5t68.5 -42t40 -62t13 -76.5q0 -78 -42.5 -126t-126.5 -56q36 -5 67.5 -21.5t55 -54.5t37 -102t13.5 -164h-143zM383 397q61 0 84.5 28.5t23.5 79.5q0 48 -23.5 75.5t-84.5 27.5h-158
v-211h158zM517 908l-163 -149h-86l124 163z" />
    <glyph glyph-name="Rcaron" unicode="&#x158;" horiz-adv-x="701" 
d="M502 0q0 90 -9.5 146t-27 87t-42.5 42t-57 11h-141v-286h-143v720h339q57 0 98.5 -15.5t68.5 -42t40 -62t13 -76.5q0 -78 -42.5 -126t-126.5 -56q36 -5 67.5 -21.5t55 -54.5t37 -102t13.5 -164h-143zM383 397q61 0 84.5 28.5t23.5 79.5q0 48 -23.5 75.5t-84.5 27.5h-158
v-211h158zM248 922l99 -83l100 83l87 -14l-133 -149h-109l-131 149z" />
    <glyph glyph-name="Rcommaaccent" unicode="&#x156;" horiz-adv-x="701" 
d="M502 0q0 90 -9.5 146t-27 87t-42.5 42t-57 11h-141v-286h-143v720h339q57 0 98.5 -15.5t68.5 -42t40 -62t13 -76.5q0 -78 -42.5 -126t-126.5 -56q36 -5 67.5 -21.5t55 -54.5t37 -102t13.5 -164h-143zM383 397q61 0 84.5 28.5t23.5 79.5q0 48 -23.5 75.5t-84.5 27.5h-158
v-211h158zM415 -43v-66q0 -28 -8.5 -50.5t-23.5 -40.5t-35.5 -32t-44.5 -25l-18 45q34 12 48.5 32t14.5 49h-50v88h117z" />
    <glyph glyph-name="Sacute" unicode="&#x15a;" horiz-adv-x="688" 
d="M347 730q66 0 117.5 -16.5t88.5 -45.5t57.5 -69.5t23.5 -88.5h-148q-3 24 -10.5 43.5t-24 33.5t-43 21.5t-65.5 7.5q-37 0 -61.5 -7.5t-39.5 -20.5t-21.5 -30t-6.5 -35q0 -47 36.5 -65.5t107.5 -27.5q63 -6 114.5 -20t88 -38t57 -60.5t20.5 -87.5t-20 -94t-58 -74.5
t-93.5 -49t-126.5 -17.5q-66 0 -118 16.5t-89 46.5t-58.5 71t-24.5 90h149q4 -49 36.5 -80t110.5 -31q37 0 62.5 8.5t41.5 22.5t23.5 32t7.5 38q0 26 -9.5 43t-29 28t-48.5 17.5t-68 11.5q-65 8 -115 22t-83.5 38t-50.5 60.5t-17 88.5q0 45 18.5 84.5t54.5 69.5t89.5 47
t124.5 17zM511 908l-163 -149h-86l124 163z" />
    <glyph glyph-name="Scaron" unicode="&#x160;" horiz-adv-x="688" 
d="M347 730q66 0 117.5 -16.5t88.5 -45.5t57.5 -69.5t23.5 -88.5h-148q-3 24 -10.5 43.5t-24 33.5t-43 21.5t-65.5 7.5q-37 0 -61.5 -7.5t-39.5 -20.5t-21.5 -30t-6.5 -35q0 -47 36.5 -65.5t107.5 -27.5q63 -6 114.5 -20t88 -38t57 -60.5t20.5 -87.5t-20 -94t-58 -74.5
t-93.5 -49t-126.5 -17.5q-66 0 -118 16.5t-89 46.5t-58.5 71t-24.5 90h149q4 -49 36.5 -80t110.5 -31q37 0 62.5 8.5t41.5 22.5t23.5 32t7.5 38q0 26 -9.5 43t-29 28t-48.5 17.5t-68 11.5q-65 8 -115 22t-83.5 38t-50.5 60.5t-17 88.5q0 45 18.5 84.5t54.5 69.5t89.5 47
t124.5 17zM250 922l99 -83l100 83l87 -14l-133 -149h-109l-131 149z" />
    <glyph glyph-name="Scedilla" unicode="&#x15e;" horiz-adv-x="688" 
d="M347 730q66 0 117.5 -16.5t88.5 -45.5t57.5 -69.5t23.5 -88.5h-148q-3 24 -10.5 43.5t-24 33.5t-43 21.5t-65.5 7.5q-37 0 -61.5 -7.5t-39.5 -20.5t-21.5 -30t-6.5 -35q0 -47 36.5 -65.5t107.5 -27.5q63 -6 114.5 -20t88 -38t57 -60.5t20.5 -87.5q0 -49 -18 -90.5
t-52.5 -72t-85 -49.5t-115.5 -22l-32 -47q8 2 16 3t16 1q19 0 38 -5t34 -15.5t24 -26.5t9 -39q0 -25 -11.5 -45t-32 -33.5t-47.5 -20.5t-57 -7q-35 0 -66.5 9.5t-52.5 29.5l39 45q8 -11 28.5 -18t42.5 -7q28 0 42.5 10.5t14.5 28.5q0 27 -23 37.5t-60 10.5q-12 0 -26 -1
t-28 -3l53 95q-54 6 -97 25t-73 48t-47.5 66.5t-20.5 81.5h149q4 -49 36.5 -80t110.5 -31q37 0 62.5 8.5t41.5 22.5t23.5 32t7.5 38q0 26 -9.5 43t-29 28t-48.5 17.5t-68 11.5q-65 8 -115 22t-83.5 38t-50.5 60.5t-17 88.5q0 45 18.5 84.5t54.5 69.5t89.5 47t124.5 17z" />
    <glyph glyph-name="Scedilla" unicode="&#xf6c1;" horiz-adv-x="688" 
d="M347 730q66 0 117.5 -16.5t88.5 -45.5t57.5 -69.5t23.5 -88.5h-148q-3 24 -10.5 43.5t-24 33.5t-43 21.5t-65.5 7.5q-37 0 -61.5 -7.5t-39.5 -20.5t-21.5 -30t-6.5 -35q0 -47 36.5 -65.5t107.5 -27.5q63 -6 114.5 -20t88 -38t57 -60.5t20.5 -87.5q0 -49 -18 -90.5
t-52.5 -72t-85 -49.5t-115.5 -22l-32 -47q8 2 16 3t16 1q19 0 38 -5t34 -15.5t24 -26.5t9 -39q0 -25 -11.5 -45t-32 -33.5t-47.5 -20.5t-57 -7q-35 0 -66.5 9.5t-52.5 29.5l39 45q8 -11 28.5 -18t42.5 -7q28 0 42.5 10.5t14.5 28.5q0 27 -23 37.5t-60 10.5q-12 0 -26 -1
t-28 -3l53 95q-54 6 -97 25t-73 48t-47.5 66.5t-20.5 81.5h149q4 -49 36.5 -80t110.5 -31q37 0 62.5 8.5t41.5 22.5t23.5 32t7.5 38q0 26 -9.5 43t-29 28t-48.5 17.5t-68 11.5q-65 8 -115 22t-83.5 38t-50.5 60.5t-17 88.5q0 45 18.5 84.5t54.5 69.5t89.5 47t124.5 17z" />
    <glyph glyph-name="Scircumflex" unicode="&#x15c;" horiz-adv-x="688" 
d="M347 730q66 0 117.5 -16.5t88.5 -45.5t57.5 -69.5t23.5 -88.5h-148q-3 24 -10.5 43.5t-24 33.5t-43 21.5t-65.5 7.5q-37 0 -61.5 -7.5t-39.5 -20.5t-21.5 -30t-6.5 -35q0 -47 36.5 -65.5t107.5 -27.5q63 -6 114.5 -20t88 -38t57 -60.5t20.5 -87.5t-20 -94t-58 -74.5
t-93.5 -49t-126.5 -17.5q-66 0 -118 16.5t-89 46.5t-58.5 71t-24.5 90h149q4 -49 36.5 -80t110.5 -31q37 0 62.5 8.5t41.5 22.5t23.5 32t7.5 38q0 26 -9.5 43t-29 28t-48.5 17.5t-68 11.5q-65 8 -115 22t-83.5 38t-50.5 60.5t-17 88.5q0 45 18.5 84.5t54.5 69.5t89.5 47
t124.5 17zM453 759l-99 85l-100 -85l-87 15l131 148h109l133 -148z" />
    <glyph glyph-name="Scommaaccent" unicode="&#x218;" horiz-adv-x="688" 
d="M347 730q66 0 117.5 -16.5t88.5 -45.5t57.5 -69.5t23.5 -88.5h-148q-3 24 -10.5 43.5t-24 33.5t-43 21.5t-65.5 7.5q-37 0 -61.5 -7.5t-39.5 -20.5t-21.5 -30t-6.5 -35q0 -47 36.5 -65.5t107.5 -27.5q63 -6 114.5 -20t88 -38t57 -60.5t20.5 -87.5t-20 -94t-58 -74.5
t-93.5 -49t-126.5 -17.5q-66 0 -118 16.5t-89 46.5t-58.5 71t-24.5 90h149q4 -49 36.5 -80t110.5 -31q37 0 62.5 8.5t41.5 22.5t23.5 32t7.5 38q0 26 -9.5 43t-29 28t-48.5 17.5t-68 11.5q-65 8 -115 22t-83.5 38t-50.5 60.5t-17 88.5q0 45 18.5 84.5t54.5 69.5t89.5 47
t124.5 17zM402 -43v-66q0 -28 -8.5 -50.5t-23.5 -40.5t-35.5 -32t-44.5 -25l-18 45q34 12 48.5 32t14.5 49h-50v88h117z" />
    <glyph glyph-name="Tbar" unicode="&#x166;" horiz-adv-x="629" 
d="M244 0v298h-97v86h97v224h-233v112h608v-112h-233v-224h96v-86h-96v-298h-142z" />
    <glyph glyph-name="Tcaron" unicode="&#x164;" horiz-adv-x="629" 
d="M244 0v608h-233v112h608v-112h-233v-608h-142zM215 922l99 -83l100 83l87 -14l-133 -149h-109l-131 149z" />
    <glyph glyph-name="Tcommaaccent" unicode="&#x162;" horiz-adv-x="629" 
d="M244 0v608h-233v112h608v-112h-233v-608h-142zM372 -43v-66q0 -28 -8.5 -50.5t-23.5 -40.5t-35.5 -32t-44.5 -25l-18 45q34 12 48.5 32t14.5 49h-50v88h117z" />
    <glyph glyph-name="Tcommaaccent" unicode="&#x21a;" horiz-adv-x="629" 
d="M244 0v608h-233v112h608v-112h-233v-608h-142zM372 -43v-66q0 -28 -8.5 -50.5t-23.5 -40.5t-35.5 -32t-44.5 -25l-18 45q34 12 48.5 32t14.5 49h-50v88h117z" />
    <glyph glyph-name="Uacute" unicode="&#xda;" horiz-adv-x="741" 
d="M522 720h144v-499q0 -59 -25 -102.5t-67 -72.5t-95.5 -43t-110.5 -14q-58 0 -111 14t-93.5 43t-65 72.5t-24.5 102.5v499h145v-472q0 -73 37.5 -105.5t113.5 -32.5q78 0 115 33t37 105v472zM542 908l-163 -149h-86l124 163z" />
    <glyph glyph-name="Ubreve" unicode="&#x16c;" horiz-adv-x="741" 
d="M522 720h144v-499q0 -59 -25 -102.5t-67 -72.5t-95.5 -43t-110.5 -14q-58 0 -111 14t-93.5 43t-65 72.5t-24.5 102.5v499h145v-472q0 -73 37.5 -105.5t113.5 -32.5q78 0 115 33t37 105v472zM299 900q0 -31 18.5 -47t52.5 -16q38 0 55 17.5t17 45.5l71 -8
q-1 -61 -41.5 -95t-101.5 -34q-30 0 -56 9t-45 25.5t-30 40.5t-11 54z" />
    <glyph glyph-name="Ucircumflex" unicode="&#xdb;" horiz-adv-x="741" 
d="M522 720h144v-499q0 -59 -25 -102.5t-67 -72.5t-95.5 -43t-110.5 -14q-58 0 -111 14t-93.5 43t-65 72.5t-24.5 102.5v499h145v-472q0 -73 37.5 -105.5t113.5 -32.5q78 0 115 33t37 105v472zM470 759l-99 85l-100 -85l-87 15l131 148h109l133 -148z" />
    <glyph glyph-name="Udieresis" unicode="&#xdc;" horiz-adv-x="741" 
d="M522 720h144v-499q0 -59 -25 -102.5t-67 -72.5t-95.5 -43t-110.5 -14q-58 0 -111 14t-93.5 43t-65 72.5t-24.5 102.5v499h145v-472q0 -73 37.5 -105.5t113.5 -32.5q78 0 115 33t37 105v472zM215 785v98h98v-98h-98zM425 785v98h100v-98h-100z" />
    <glyph glyph-name="Ugrave" unicode="&#xd9;" horiz-adv-x="741" 
d="M522 720h144v-499q0 -59 -25 -102.5t-67 -72.5t-95.5 -43t-110.5 -14q-58 0 -111 14t-93.5 43t-65 72.5t-24.5 102.5v499h145v-472q0 -73 37.5 -105.5t113.5 -32.5q78 0 115 33t37 105v472zM352 922l123 -163h-85l-164 149z" />
    <glyph glyph-name="Uhungarumlaut" unicode="&#x170;" horiz-adv-x="741" 
d="M522 720h144v-499q0 -59 -25 -102.5t-67 -72.5t-95.5 -43t-110.5 -14q-58 0 -111 14t-93.5 43t-65 72.5t-24.5 102.5v499h145v-472q0 -73 37.5 -105.5t113.5 -32.5q78 0 115 33t37 105v472zM434 908l-127 -141h-73l94 155zM623 908l-129 -141h-71l93 155z" />
    <glyph glyph-name="Umacron" unicode="&#x16a;" horiz-adv-x="741" 
d="M522 720h144v-499q0 -59 -25 -102.5t-67 -72.5t-95.5 -43t-110.5 -14q-58 0 -111 14t-93.5 43t-65 72.5t-24.5 102.5v499h145v-472q0 -73 37.5 -105.5t113.5 -32.5q78 0 115 33t37 105v472zM231 779v78h278v-78h-278z" />
    <glyph glyph-name="Uogonek" unicode="&#x172;" horiz-adv-x="741" 
d="M522 720h144v-499q0 -52 -19.5 -92t-53 -68.5t-78 -45t-93.5 -22.5q-20 -19 -32 -43t-12 -47q0 -22 13.5 -34t36.5 -12q6 0 12 0.5t12 1.5v-84q-23 -5 -47 -5q-60 0 -94.5 28.5t-34.5 73.5q0 67 69 118q-54 3 -103.5 18t-86.5 43.5t-59 71t-22 98.5v499h145v-472
q0 -73 37.5 -105.5t113.5 -32.5q78 0 115 33t37 105v472z" />
    <glyph glyph-name="Uring" unicode="&#x16e;" horiz-adv-x="741" 
d="M522 720h144v-499q0 -59 -25 -102.5t-67 -72.5t-95.5 -43t-110.5 -14q-58 0 -111 14t-93.5 43t-65 72.5t-24.5 102.5v499h145v-472q0 -73 37.5 -105.5t113.5 -32.5q78 0 115 33t37 105v472zM371 930q27 0 50 -6t40.5 -17.5t27.5 -29t10 -40.5t-10 -40.5t-27.5 -28.5
t-40.5 -16.5t-50 -5.5t-50.5 5.5t-41 16.5t-27.5 28.5t-10 40.5t10 40.5t27.5 29t41 17.5t50.5 6zM370 876q-26 0 -40.5 -11t-14.5 -28q0 -23 16 -31.5t39 -8.5q26 0 40.5 10t14.5 30t-16.5 29.5t-38.5 9.5z" />
    <glyph glyph-name="Utilde" unicode="&#x168;" horiz-adv-x="741" 
d="M522 720h144v-499q0 -59 -25 -102.5t-67 -72.5t-95.5 -43t-110.5 -14q-58 0 -111 14t-93.5 43t-65 72.5t-24.5 102.5v499h145v-472q0 -73 37.5 -105.5t113.5 -32.5q78 0 115 33t37 105v472zM299 897q27 0 47.5 -8.5t37.5 -18.5t31.5 -18.5t28.5 -8.5t25 7.5t14 32.5
l58 -9q-5 -51 -29 -79.5t-66 -28.5q-24 0 -43.5 9t-37.5 20t-35 20t-35 9q-17 0 -27 -10.5t-12 -34.5l-56 13q3 48 27 76.5t72 28.5z" />
    <glyph glyph-name="Wcircumflex" unicode="&#x174;" horiz-adv-x="1002" 
d="M166 720l120 -490q5 -15 9.5 -39t6.5 -45q2 20 6.5 44t9.5 40l119 490h130l123 -490q4 -15 8.5 -39.5t7.5 -46.5q2 22 6 46.5t8 39.5l125 490h142l-192 -720h-176l-104 417q-4 18 -7.5 41.5t-5.5 43.5q-2 -20 -5.5 -43.5t-8.5 -41.5l-103 -417h-176l-194 720h151z
M601 759l-99 85l-100 -85l-87 15l131 148h109l133 -148z" />
    <glyph glyph-name="Wacute" unicode="&#x1e82;" horiz-adv-x="1002" 
d="M166 720l120 -490q5 -15 9.5 -40t6.5 -46q2 21 6.5 45.5t9.5 40.5l119 490h130l123 -490q4 -15 8.5 -39.5t7.5 -46.5q2 22 6 46.5t8 39.5l125 490h142l-192 -720h-176l-104 417q-4 18 -7.5 41.5t-5.5 43.5q-2 -20 -5.5 -43.5t-8.5 -41.5l-103 -417h-176l-194 720h151z
M678 908l-163 -149h-86l124 163z" />
    <glyph glyph-name="Wgrave" unicode="&#x1e80;" horiz-adv-x="1002" 
d="M166 720l120 -490q5 -15 9.5 -40t6.5 -46q2 21 6.5 45.5t9.5 40.5l119 490h130l123 -490q4 -15 8.5 -39.5t7.5 -46.5q2 22 6 46.5t8 39.5l125 490h142l-192 -720h-176l-104 417q-4 18 -7.5 41.5t-5.5 43.5q-2 -20 -5.5 -43.5t-8.5 -41.5l-103 -417h-176l-194 720h151z
M459 922l123 -163h-85l-164 149z" />
    <glyph glyph-name="Wdieresis" unicode="&#x1e84;" horiz-adv-x="1002" 
d="M166 720l120 -490q5 -15 9.5 -39t6.5 -45q2 20 6.5 44t9.5 40l119 490h130l123 -490q4 -15 8.5 -39.5t7.5 -46.5q2 22 6 46.5t8 39.5l125 490h142l-192 -720h-176l-104 417q-4 18 -7.5 41.5t-5.5 43.5q-2 -20 -5.5 -43.5t-8.5 -41.5l-103 -417h-176l-194 720h151z
M556 785v98h100v-98h-100zM346 785v98h98v-98h-98z" />
    <glyph glyph-name="Yacute" unicode="&#xdd;" 
d="M267 0v311l-277 409h169l184 -288l186 288h156l-275 -409v-311h-143zM519 908l-163 -149h-86l124 163z" />
    <glyph glyph-name="Ycircumflex" unicode="&#x176;" 
d="M267 0v311l-277 409h169l184 -288l186 288h156l-275 -409v-311h-143zM438 759l-99 85l-100 -85l-87 15l131 148h109l133 -148z" />
    <glyph glyph-name="Ydieresis" unicode="&#x178;" 
d="M267 0v311l-277 409h169l184 -288l186 288h156l-275 -409v-311h-143zM183 785v98h98v-98h-98zM393 785v98h100v-98h-100z" />
    <glyph glyph-name="Ygrave" unicode="&#x1ef2;" 
d="M267 0v311l-277 409h169l184 -288l186 288h156l-275 -409v-311h-143zM312 922l123 -163h-85l-164 149z" />
    <glyph glyph-name="Zacute" unicode="&#x179;" horiz-adv-x="647" 
d="M41 0v113l393 495h-384v112h555v-113l-393 -494h398v-113h-569zM501 908l-163 -149h-86l124 163z" />
    <glyph glyph-name="Zcaron" unicode="&#x17d;" horiz-adv-x="647" 
d="M41 0v113l393 495h-384v112h555v-113l-393 -494h398v-113h-569zM230 922l99 -83l100 83l87 -14l-133 -149h-109l-131 149z" />
    <glyph glyph-name="Zdotaccent" unicode="&#x17b;" horiz-adv-x="647" 
d="M41 0v113l393 495h-384v112h555v-113l-393 -494h398v-113h-569zM260 785v105h127v-105h-127z" />
    <glyph glyph-name="AEacute" unicode="&#x1fc;" horiz-adv-x="974" 
d="M433 0v185h-254l-119 -185h-160l472 720h553v-112h-348v-181h285v-109h-285v-205h356v-113h-500zM433 295v292l-188 -292h188zM750 908l-163 -149h-86l124 163z" />
    <glyph glyph-name="Oslashacute" unicode="&#x1fe;" horiz-adv-x="793" 
d="M716 720l-69 -98q44 -50 67 -117t23 -145q0 -79 -23.5 -146.5t-67.5 -117.5t-107 -78.5t-142 -28.5q-49 0 -91.5 11t-78.5 31l-22 -31h-131l70 99q-43 50 -65.5 116.5t-22.5 144.5t23.5 146t67.5 117.5t107 78t143 28.5q48 0 90 -10.5t78 -30.5l22 31h129zM583 360
q0 81 -24 138l-256 -359q40 -23 94 -23q48 0 83 18t58 50t34 77t11 99zM397 605q-48 0 -83.5 -18t-58.5 -50t-34 -77.5t-11 -99.5q0 -78 23 -136l256 358q-38 23 -92 23zM559 908l-163 -149h-86l124 163z" />
    <glyph glyph-name="aacute" unicode="&#xe1;" horiz-adv-x="566" 
d="M290 535q60 0 99.5 -13t63.5 -35.5t34 -54t10 -67.5v-365h-134v84q-22 -46 -60.5 -69t-101.5 -23q-75 0 -118 39t-43 106q0 89 64.5 137t210.5 48q11 0 24 -0.5t24 -1.5v45q0 32 -17 50.5t-64 18.5q-49 0 -73 -16.5t-29 -50.5h-125q10 81 70 124.5t165 43.5zM319 237
q-69 0 -105 -18t-36 -61q0 -63 67 -63q51 0 84.5 30.5t33.5 82.5v28q-11 1 -22 1h-22zM443 737l-156 -155h-93l110 171z" />
    <glyph glyph-name="abreve" unicode="&#x103;" horiz-adv-x="566" 
d="M290 535q60 0 99.5 -13t63.5 -35.5t34 -54t10 -67.5v-365h-134v84q-22 -46 -60.5 -69t-101.5 -23q-75 0 -118 39t-43 106q0 89 64.5 137t210.5 48q11 0 24 -0.5t24 -1.5v45q0 32 -17 50.5t-64 18.5q-49 0 -73 -16.5t-29 -50.5h-125q10 81 70 124.5t165 43.5zM319 237
q-69 0 -105 -18t-36 -61q0 -63 67 -63q51 0 84.5 30.5t33.5 82.5v28q-11 1 -22 1h-22zM213 734q1 -34 18 -53t51 -19q38 0 53.5 21.5t15.5 50.5l82 -9q0 -34 -12 -60.5t-33 -45t-48.5 -28t-57.5 -9.5t-57 9.5t-48 28t-33 45t-12 60.5z" />
    <glyph glyph-name="acircumflex" unicode="&#xe2;" horiz-adv-x="566" 
d="M290 535q60 0 99.5 -13t63.5 -35.5t34 -54t10 -67.5v-365h-134v84q-22 -46 -60.5 -69t-101.5 -23q-75 0 -118 39t-43 106q0 89 64.5 137t210.5 48q11 0 24 -0.5t24 -1.5v45q0 32 -17 50.5t-64 18.5q-49 0 -73 -16.5t-29 -50.5h-125q10 81 70 124.5t165 43.5zM319 237
q-69 0 -105 -18t-36 -61q0 -63 67 -63q51 0 84.5 30.5t33.5 82.5v28q-11 1 -22 1h-22zM346 741l125 -147l-94 -17l-92 84l-94 -84l-93 17l125 147h123z" />
    <glyph glyph-name="adieresis" unicode="&#xe4;" horiz-adv-x="566" 
d="M290 535q60 0 99.5 -13t63.5 -35.5t34 -54t10 -67.5v-365h-134v84q-22 -46 -60.5 -69t-101.5 -23q-75 0 -118 39t-43 106q0 89 64.5 137t210.5 48q11 0 24 -0.5t24 -1.5v45q0 32 -17 50.5t-64 18.5q-49 0 -73 -16.5t-29 -50.5h-125q10 81 70 124.5t165 43.5zM319 237
q-69 0 -105 -18t-36 -61q0 -63 67 -63q51 0 84.5 30.5t33.5 82.5v28q-11 1 -22 1h-22zM135 606v103h100v-103h-100zM332 606v103h99v-103h-99z" />
    <glyph glyph-name="agrave" unicode="&#xe0;" horiz-adv-x="566" 
d="M290 535q60 0 99.5 -13t63.5 -35.5t34 -54t10 -67.5v-365h-134v84q-22 -46 -60.5 -69t-101.5 -23q-75 0 -118 39t-43 106q0 89 64.5 137t210.5 48q11 0 24 -0.5t24 -1.5v45q0 32 -17 50.5t-64 18.5q-49 0 -73 -16.5t-29 -50.5h-125q10 81 70 124.5t165 43.5zM319 237
q-69 0 -105 -18t-36 -61q0 -63 67 -63q51 0 84.5 30.5t33.5 82.5v28q-11 1 -22 1h-22zM268 753l109 -171h-91l-157 155z" />
    <glyph glyph-name="amacron" unicode="&#x101;" horiz-adv-x="566" 
d="M290 535q60 0 99.5 -13t63.5 -35.5t34 -54t10 -67.5v-365h-134v84q-22 -46 -60.5 -69t-101.5 -23q-75 0 -118 39t-43 106q0 89 64.5 137t210.5 48q11 0 24 -0.5t24 -1.5v45q0 32 -17 50.5t-64 18.5q-49 0 -73 -16.5t-29 -50.5h-125q10 81 70 124.5t165 43.5zM319 237
q-69 0 -105 -18t-36 -61q0 -63 67 -63q51 0 84.5 30.5t33.5 82.5v28q-11 1 -22 1h-22zM146 601v86h278v-86h-278z" />
    <glyph glyph-name="aogonek" unicode="&#x105;" horiz-adv-x="566" 
d="M363 0v84q-22 -46 -60.5 -69t-101.5 -23q-75 0 -118 39t-43 106q0 89 64.5 137t210.5 48q11 0 24 -0.5t24 -1.5v45q0 32 -17 50.5t-64 18.5q-49 0 -73 -16.5t-29 -50.5h-125q10 81 70 124.5t165 43.5q60 0 99.5 -13t63.5 -35.5t34 -54t10 -67.5v-365h-22
q-25 -19 -39.5 -45.5t-14.5 -51.5q0 -22 13.5 -34t36.5 -12q6 0 12 0.5t12 1.5v-84q-23 -5 -47 -5q-60 0 -94.5 28.5t-34.5 73.5q0 35 21.5 68.5t63.5 59.5h-41zM319 237q-69 0 -105 -18t-36 -61q0 -63 67 -63q51 0 84.5 30.5t33.5 82.5v28q-11 1 -22 1h-22z" />
    <glyph glyph-name="aring" unicode="&#xe5;" horiz-adv-x="566" 
d="M290 535q60 0 99.5 -13t63.5 -35.5t34 -54t10 -67.5v-365h-134v84q-22 -46 -60.5 -69t-101.5 -23q-75 0 -118 39t-43 106q0 89 64.5 137t210.5 48q11 0 24 -0.5t24 -1.5v45q0 32 -17 50.5t-64 18.5q-49 0 -73 -16.5t-29 -50.5h-125q10 81 70 124.5t165 43.5zM319 237
q-69 0 -105 -18t-36 -61q0 -63 67 -63q51 0 84.5 30.5t33.5 82.5v28q-11 1 -22 1h-22zM281 777q27 0 51 -7t42 -20.5t28.5 -33t10.5 -45.5t-10.5 -45.5t-28.5 -33t-42 -20t-51 -6.5t-51 6.5t-42 20t-28.5 33t-10.5 45.5t10.5 45.5t28.5 33t42 20.5t51 7zM281 713
q-25 0 -38 -12t-13 -29q0 -22 14.5 -32.5t36.5 -10.5q23 0 36.5 10.5t13.5 30.5q0 21 -15 32t-35 11z" />
    <glyph glyph-name="atilde" unicode="&#xe3;" horiz-adv-x="566" 
d="M290 535q60 0 99.5 -13t63.5 -35.5t34 -54t10 -67.5v-365h-134v84q-22 -46 -60.5 -69t-101.5 -23q-75 0 -118 39t-43 106q0 89 64.5 137t210.5 48q11 0 24 -0.5t24 -1.5v45q0 32 -17 50.5t-64 18.5q-49 0 -73 -16.5t-29 -50.5h-125q10 81 70 124.5t165 43.5zM319 237
q-69 0 -105 -18t-36 -61q0 -63 67 -63q51 0 84.5 30.5t33.5 82.5v28q-11 1 -22 1h-22zM209 730q27 0 47.5 -9t37.5 -20.5t31.5 -20.5t28.5 -9t25 8t14 34l58 -9q-5 -55 -29 -86.5t-66 -31.5q-24 0 -43.5 9.5t-37.5 21.5t-35 21.5t-35 9.5q-17 0 -27 -11.5t-12 -36.5l-56 13
q3 54 27 85.5t72 31.5z" />
    <glyph glyph-name="ccedilla" unicode="&#xe7;" horiz-adv-x="541" 
d="M287 535q46 0 86.5 -14.5t71.5 -41t49.5 -64t20.5 -83.5h-136q-2 39 -27 65t-71 26q-59 0 -85.5 -43t-26.5 -118t26.5 -118t85.5 -43q46 0 71 26.5t27 65.5h136q-2 -42 -18.5 -77.5t-43 -62t-62.5 -42.5t-77 -20l-33 -48q8 2 16 3t16 1q19 0 38 -5t34 -15.5t24 -26.5
t9 -39q0 -25 -11.5 -45t-32 -33.5t-47.5 -20.5t-57 -7q-35 0 -66.5 9.5t-52.5 29.5l39 45q8 -11 28.5 -18t42.5 -7q28 0 42.5 10.5t14.5 28.5q0 27 -23 37.5t-60 10.5q-12 0 -26 -1t-28 -3l54 96q-97 16 -148.5 87.5t-51.5 181.5q0 61 16.5 111.5t49 86.5t79.5 55.5
t107 19.5z" />
    <glyph glyph-name="cacute" unicode="&#x107;" horiz-adv-x="541" 
d="M287 535q46 0 86.5 -14.5t71.5 -41t49.5 -64t20.5 -83.5h-136q-2 39 -27 65t-71 26q-59 0 -85.5 -43t-26.5 -118t26.5 -118t85.5 -43q46 0 71 26.5t27 65.5h136q-2 -46 -20.5 -83.5t-49.5 -64.5t-71.5 -41.5t-86.5 -14.5q-60 0 -107 19.5t-79.5 55.5t-49 86t-16.5 112
q0 61 16.5 111.5t49 86.5t79.5 55.5t107 19.5zM448 737l-156 -155h-93l110 171z" />
    <glyph glyph-name="ccaron" unicode="&#x10d;" horiz-adv-x="541" 
d="M287 535q46 0 86.5 -14.5t71.5 -41t49.5 -64t20.5 -83.5h-136q-2 39 -27 65t-71 26q-59 0 -85.5 -43t-26.5 -118t26.5 -118t85.5 -43q46 0 71 26.5t27 65.5h136q-2 -46 -20.5 -83.5t-49.5 -64.5t-71.5 -41.5t-86.5 -14.5q-60 0 -107 19.5t-79.5 55.5t-49 86t-16.5 112
q0 61 16.5 111.5t49 86.5t79.5 55.5t107 19.5zM196 747l93 -84l93 84l94 -16l-125 -149h-123l-125 149z" />
    <glyph glyph-name="ccircumflex" unicode="&#x109;" horiz-adv-x="541" 
d="M287 535q46 0 86.5 -14.5t71.5 -41t49.5 -64t20.5 -83.5h-136q-2 39 -27 65t-71 26q-59 0 -85.5 -43t-26.5 -118t26.5 -118t85.5 -43q46 0 71 26.5t27 65.5h136q-2 -46 -20.5 -83.5t-49.5 -64.5t-71.5 -41.5t-86.5 -14.5q-60 0 -107 19.5t-79.5 55.5t-49 86t-16.5 112
q0 61 16.5 111.5t49 86.5t79.5 55.5t107 19.5zM350 741l125 -147l-94 -17l-92 84l-94 -84l-93 17l125 147h123z" />
    <glyph glyph-name="cdotaccent" unicode="&#x10b;" horiz-adv-x="541" 
d="M287 535q46 0 86.5 -14.5t71.5 -41t49.5 -64t20.5 -83.5h-136q-2 39 -27 65t-71 26q-59 0 -85.5 -43t-26.5 -118t26.5 -118t85.5 -43q46 0 71 26.5t27 65.5h136q-2 -46 -20.5 -83.5t-49.5 -64.5t-71.5 -41.5t-86.5 -14.5q-60 0 -107 19.5t-79.5 55.5t-49 86t-16.5 112
q0 61 16.5 111.5t49 86.5t79.5 55.5t107 19.5zM222 606v118h129v-118h-129z" />
    <glyph glyph-name="dcroat" unicode="&#x111;" horiz-adv-x="601" 
d="M251 535q60 0 95.5 -31t55.5 -76v157h-85v78h85v72h134v-72h69v-78h-69v-585h-134v95q-20 -43 -57 -74.5t-94 -31.5q-48 0 -88 19.5t-68.5 55.5t-44 86.5t-15.5 111.5t15.5 111.5t44 86.5t68.5 55.5t88 19.5zM285 422q-57 0 -84 -41.5t-27 -118.5q0 -76 27 -117.5
t84 -41.5q31 0 53 12.5t36 33.5t21 49.5t7 60.5q0 80 -30.5 121.5t-86.5 41.5z" />
    <glyph glyph-name="dcaron" unicode="&#x10f;" horiz-adv-x="601" 
d="M251 535q60 0 95.5 -31t55.5 -76v307h134v-735h-134v95q-20 -43 -57 -74.5t-94 -31.5q-48 0 -88 19.5t-68.5 55.5t-44 86.5t-15.5 111.5t15.5 111.5t44 86.5t68.5 55.5t88 19.5zM285 422q-57 0 -84 -41.5t-27 -118.5q0 -76 27 -117.5t84 -41.5q31 0 53 12.5t36 33.5
t21 49.5t7 60.5q0 80 -30.5 121.5t-86.5 41.5zM696 745l-52 -164h-66l2 164h116z" />
    <glyph glyph-name="eacute" unicode="&#xe9;" horiz-adv-x="554" 
d="M289 535q64 0 109.5 -24.5t73.5 -65.5t40 -95t8 -113h-352q4 -71 31 -105t84 -34q39 0 63.5 16t31.5 48h134q-5 -38 -24.5 -70t-49.5 -55t-69 -35.5t-85 -12.5q-58 0 -104 19.5t-78.5 55.5t-50 86.5t-17.5 113.5q0 60 17.5 110t50.5 86t80.5 55.5t106.5 19.5zM446 737
l-156 -155h-93l110 171zM284 434q-49 0 -76 -26.5t-36 -83.5h211q-2 48 -26 79t-73 31z" />
    <glyph glyph-name="ebreve" unicode="&#x115;" horiz-adv-x="554" 
d="M289 535q64 0 109.5 -24.5t73.5 -65.5t40 -95t8 -113h-352q4 -71 31 -105t84 -34q39 0 63.5 16t31.5 48h134q-5 -38 -24.5 -70t-49.5 -55t-69 -35.5t-85 -12.5q-58 0 -104 19.5t-78.5 55.5t-50 86.5t-17.5 113.5q0 60 17.5 110t50.5 86t80.5 55.5t106.5 19.5zM216 734
q1 -34 18 -53t51 -19q38 0 53.5 21.5t15.5 50.5l82 -9q0 -34 -12 -60.5t-33 -45t-48.5 -28t-57.5 -9.5t-57 9.5t-48 28t-33 45t-12 60.5zM284 434q-49 0 -76 -26.5t-36 -83.5h211q-2 48 -26 79t-73 31z" />
    <glyph glyph-name="ecaron" unicode="&#x11b;" horiz-adv-x="554" 
d="M289 535q64 0 109.5 -24.5t73.5 -65.5t40 -95t8 -113h-352q4 -71 31 -105t84 -34q39 0 63.5 16t31.5 48h134q-5 -38 -24.5 -70t-49.5 -55t-69 -35.5t-85 -12.5q-58 0 -104 19.5t-78.5 55.5t-50 86.5t-17.5 113.5q0 60 17.5 110t50.5 86t80.5 55.5t106.5 19.5zM192 747
l93 -84l93 84l94 -16l-125 -149h-123l-125 149zM284 434q-49 0 -76 -26.5t-36 -83.5h211q-2 48 -26 79t-73 31z" />
    <glyph glyph-name="ecircumflex" unicode="&#xea;" horiz-adv-x="554" 
d="M289 535q64 0 109.5 -24.5t73.5 -65.5t40 -95t8 -113h-352q4 -71 31 -105t84 -34q39 0 63.5 16t31.5 48h134q-5 -38 -24.5 -70t-49.5 -55t-69 -35.5t-85 -12.5q-58 0 -104 19.5t-78.5 55.5t-50 86.5t-17.5 113.5q0 60 17.5 110t50.5 86t80.5 55.5t106.5 19.5zM349 741
l125 -147l-94 -17l-92 84l-94 -84l-93 17l125 147h123zM284 434q-49 0 -76 -26.5t-36 -83.5h211q-2 48 -26 79t-73 31z" />
    <glyph glyph-name="edieresis" unicode="&#xeb;" horiz-adv-x="554" 
d="M289 535q64 0 109.5 -24.5t73.5 -65.5t40 -95t8 -113h-352q4 -71 31 -105t84 -34q39 0 63.5 16t31.5 48h134q-5 -38 -24.5 -70t-49.5 -55t-69 -35.5t-85 -12.5q-58 0 -104 19.5t-78.5 55.5t-50 86.5t-17.5 113.5q0 60 17.5 110t50.5 86t80.5 55.5t106.5 19.5zM284 434
q-49 0 -76 -26.5t-36 -83.5h211q-2 48 -26 79t-73 31zM140 606v103h100v-103h-100zM337 606v103h99v-103h-99z" />
    <glyph glyph-name="edotaccent" unicode="&#x117;" horiz-adv-x="554" 
d="M289 535q64 0 109.5 -24.5t73.5 -65.5t40 -95t8 -113h-352q4 -71 31 -105t84 -34q39 0 63.5 16t31.5 48h134q-5 -38 -24.5 -70t-49.5 -55t-69 -35.5t-85 -12.5q-58 0 -104 19.5t-78.5 55.5t-50 86.5t-17.5 113.5q0 60 17.5 110t50.5 86t80.5 55.5t106.5 19.5zM284 434
q-49 0 -76 -26.5t-36 -83.5h211q-2 48 -26 79t-73 31zM219 606v118h129v-118h-129z" />
    <glyph glyph-name="egrave" unicode="&#xe8;" horiz-adv-x="554" 
d="M289 535q64 0 109.5 -24.5t73.5 -65.5t40 -95t8 -113h-352q4 -71 31 -105t84 -34q39 0 63.5 16t31.5 48h134q-5 -38 -24.5 -70t-49.5 -55t-69 -35.5t-85 -12.5q-58 0 -104 19.5t-78.5 55.5t-50 86.5t-17.5 113.5q0 60 17.5 110t50.5 86t80.5 55.5t106.5 19.5zM256 753
l109 -171h-91l-157 155zM284 434q-49 0 -76 -26.5t-36 -83.5h211q-2 48 -26 79t-73 31z" />
    <glyph glyph-name="emacron" unicode="&#x113;" horiz-adv-x="554" 
d="M289 535q64 0 109.5 -24.5t73.5 -65.5t40 -95t8 -113h-352q4 -71 31 -105t84 -34q39 0 63.5 16t31.5 48h134q-5 -38 -24.5 -70t-49.5 -55t-69 -35.5t-85 -12.5q-58 0 -104 19.5t-78.5 55.5t-50 86.5t-17.5 113.5q0 60 17.5 110t50.5 86t80.5 55.5t106.5 19.5zM147 601v86
h278v-86h-278zM284 434q-49 0 -76 -26.5t-36 -83.5h211q-2 48 -26 79t-73 31z" />
    <glyph glyph-name="eogonek" unicode="&#x119;" horiz-adv-x="554" 
d="M289 535q64 0 109.5 -24.5t73.5 -65.5t40 -95t8 -113h-352q4 -71 31 -105t84 -34q39 0 63.5 16t31.5 48h134q-9 -64 -55 -108.5t-116 -58.5q-22 -19 -34.5 -44t-12.5 -48q0 -22 13.5 -34t36.5 -12q6 0 12 0.5t12 1.5v-84q-23 -5 -47 -5q-60 0 -94.5 28.5t-34.5 73.5
q0 32 17.5 62.5t52.5 55.5q-106 8 -167 81t-61 193q0 60 17.5 110t50.5 86t80.5 55.5t106.5 19.5zM284 434q-49 0 -76 -26.5t-36 -83.5h211q-2 48 -26 79t-73 31z" />
    <glyph glyph-name="gacute" unicode="&#x1f5;" horiz-adv-x="582" 
d="M283 535q37 0 77.5 -1.5t79 -3.5t73 -3.5t61.5 -1.5v-103q-22 0 -55.5 3t-62.5 7q25 -13 38 -39t13 -57q0 -76 -57 -122t-171 -46q-40 0 -72 7q-13 -6 -21 -18.5t-8 -26.5q0 -20 13.5 -28t39.5 -8h152q92 0 132 -36.5t40 -102.5q0 -78 -66 -127t-205 -49q-65 0 -110 8
t-73.5 23.5t-41.5 38.5t-13 53q0 39 22.5 66t57.5 42q-31 11 -49 31.5t-18 57.5q0 33 21 63t52 44q-34 22 -53.5 56.5t-19.5 82.5q0 85 56.5 137.5t167.5 52.5zM376 345q0 43 -20.5 69t-71.5 26q-48 0 -69 -25t-21 -70q0 -38 21.5 -63t68.5 -25q48 0 70 23.5t22 64.5z
M237 -3q-6 0 -13 0.5t-13 0.5q-34 -23 -34 -61q0 -34 24.5 -49t86.5 -15q72 0 101 19t29 54q0 25 -17 38t-55 13h-109zM471 737l-156 -155h-93l110 171z" />
    <glyph glyph-name="gbreve" unicode="&#x11f;" horiz-adv-x="582" 
d="M283 535q37 0 77.5 -1.5t79 -3.5t73 -3.5t61.5 -1.5v-103q-22 0 -55.5 3t-62.5 7q25 -13 38 -39t13 -57q0 -76 -57 -122t-171 -46q-40 0 -72 7q-13 -6 -21 -18.5t-8 -26.5q0 -20 13.5 -28t39.5 -8h152q92 0 132 -36.5t40 -102.5q0 -78 -66 -127t-205 -49q-65 0 -110 8
t-73.5 23.5t-41.5 38.5t-13 53q0 39 22.5 66t57.5 42q-31 11 -49 31.5t-18 57.5q0 33 21 63t52 44q-34 22 -53.5 56.5t-19.5 82.5q0 85 56.5 137.5t167.5 52.5zM376 345q0 43 -20.5 69t-71.5 26q-48 0 -69 -25t-21 -70q0 -38 21.5 -63t68.5 -25q48 0 70 23.5t22 64.5z
M237 -3q-6 0 -13 0.5t-13 0.5q-34 -23 -34 -61q0 -34 24.5 -49t86.5 -15q72 0 101 19t29 54q0 25 -17 38t-55 13h-109zM226 734q1 -34 18 -53t51 -19q38 0 53.5 21.5t15.5 50.5l82 -9q0 -34 -12 -60.5t-33 -45t-48.5 -28t-57.5 -9.5t-57 9.5t-48 28t-33 45t-12 60.5z" />
    <glyph glyph-name="gcircumflex" unicode="&#x11d;" horiz-adv-x="582" 
d="M283 535q37 0 77.5 -1.5t79 -3.5t73 -3.5t61.5 -1.5v-103q-22 0 -55.5 3t-62.5 7q25 -13 38 -39t13 -57q0 -76 -57 -122t-171 -46q-40 0 -72 7q-13 -6 -21 -18.5t-8 -26.5q0 -20 13.5 -28t39.5 -8h152q92 0 132 -36.5t40 -102.5q0 -78 -66 -127t-205 -49q-65 0 -110 8
t-73.5 23.5t-41.5 38.5t-13 53q0 39 22.5 66t57.5 42q-31 11 -49 31.5t-18 57.5q0 33 21 63t52 44q-34 22 -53.5 56.5t-19.5 82.5q0 85 56.5 137.5t167.5 52.5zM376 345q0 43 -20.5 69t-71.5 26q-48 0 -69 -25t-21 -70q0 -38 21.5 -63t68.5 -25q48 0 70 23.5t22 64.5z
M237 -3q-6 0 -13 0.5t-13 0.5q-34 -23 -34 -61q0 -34 24.5 -49t86.5 -15q72 0 101 19t29 54q0 25 -17 38t-55 13h-109zM353 741l125 -147l-94 -17l-92 84l-94 -84l-93 17l125 147h123z" />
    <glyph glyph-name="gcommaaccent" unicode="&#x123;" horiz-adv-x="582" 
d="M283 535q37 0 77.5 -1.5t79 -3.5t73 -3.5t61.5 -1.5v-103q-22 0 -55.5 3t-62.5 7q25 -13 38 -39t13 -57q0 -76 -57 -122t-171 -46q-40 0 -72 7q-13 -6 -21 -18.5t-8 -26.5q0 -20 13.5 -28t39.5 -8h152q92 0 132 -36.5t40 -102.5q0 -78 -66 -127t-205 -49q-65 0 -110 8
t-73.5 23.5t-41.5 38.5t-13 53q0 39 22.5 66t57.5 42q-31 11 -49 31.5t-18 57.5q0 33 21 63t52 44q-34 22 -53.5 56.5t-19.5 82.5q0 85 56.5 137.5t167.5 52.5zM376 345q0 43 -20.5 69t-71.5 26q-48 0 -69 -25t-21 -70q0 -38 21.5 -63t68.5 -25q48 0 70 23.5t22 64.5z
M237 -3q-6 0 -13 0.5t-13 0.5q-34 -23 -34 -61q0 -34 24.5 -49t86.5 -15q72 0 101 19t29 54q0 25 -17 38t-55 13h-109zM340 563h-120l88 189h75z" />
    <glyph glyph-name="gdotaccent" unicode="&#x121;" horiz-adv-x="582" 
d="M283 535q37 0 77.5 -1.5t79 -3.5t73 -3.5t61.5 -1.5v-103q-22 0 -55.5 3t-62.5 7q25 -13 38 -39t13 -57q0 -76 -57 -122t-171 -46q-40 0 -72 7q-13 -6 -21 -18.5t-8 -26.5q0 -20 13.5 -28t39.5 -8h152q92 0 132 -36.5t40 -102.5q0 -78 -66 -127t-205 -49q-65 0 -110 8
t-73.5 23.5t-41.5 38.5t-13 53q0 39 22.5 66t57.5 42q-31 11 -49 31.5t-18 57.5q0 33 21 63t52 44q-34 22 -53.5 56.5t-19.5 82.5q0 85 56.5 137.5t167.5 52.5zM376 345q0 43 -20.5 69t-71.5 26q-48 0 -69 -25t-21 -70q0 -38 21.5 -63t68.5 -25q48 0 70 23.5t22 64.5z
M237 -3q-6 0 -13 0.5t-13 0.5q-34 -23 -34 -61q0 -34 24.5 -49t86.5 -15q72 0 101 19t29 54q0 25 -17 38t-55 13h-109zM228 606v118h129v-118h-129z" />
    <glyph glyph-name="hcircumflex" unicode="&#x125;" horiz-adv-x="594" 
d="M204 735v-290q21 41 59.5 65.5t98.5 24.5q79 0 121 -48t42 -135v-352h-135v323q0 48 -16.5 72t-59.5 24q-45 0 -77.5 -32t-32.5 -100v-287h-134v735h134zM327 759l-99 85l-100 -85l-87 15l131 148h109l133 -148z" />
    <glyph glyph-name="hbar" unicode="&#x127;" horiz-adv-x="594" 
d="M204 735v-72h97v-78h-97v-140q21 41 59.5 65.5t98.5 24.5q79 0 121 -48t42 -135v-352h-135v323q0 48 -16.5 72t-59.5 24q-45 0 -77.5 -32t-32.5 -100v-287h-134v585h-57v78h57v72h134z" />
    <glyph glyph-name="iacute" unicode="&#xed;" horiz-adv-x="275" 
d="M304 737l-156 -155h-93l110 171zM70 0v525h134v-525h-134z" />
    <glyph glyph-name="ibreve" unicode="&#x12d;" horiz-adv-x="275" 
d="M69 734q1 -34 18 -53t51 -19q38 0 53.5 21.5t15.5 50.5l82 -9q0 -34 -12 -60.5t-33 -45t-48.5 -28t-57.5 -9.5t-57 9.5t-48 28t-33 45t-12 60.5zM70 0v525h134v-525h-134z" />
    <glyph glyph-name="icircumflex" unicode="&#xee;" horiz-adv-x="275" 
d="M70 0v525h134v-525h-134zM200 741l125 -147l-94 -17l-92 84l-94 -84l-93 17l125 147h123z" />
    <glyph glyph-name="idieresis" unicode="&#xef;" horiz-adv-x="275" 
d="M-10 606v103h100v-103h-100zM187 606v103h99v-103h-99zM70 0v525h134v-525h-134z" />
    <glyph glyph-name="igrave" unicode="&#xec;" horiz-adv-x="275" 
d="M109 753l109 -171h-91l-157 155zM70 0v525h134v-525h-134z" />
    <glyph glyph-name="imacron" unicode="&#x12b;" horiz-adv-x="275" 
d="M-2 601v86h278v-86h-278zM70 0v525h134v-525h-134z" />
    <glyph glyph-name="iogonek" unicode="&#x12f;" horiz-adv-x="274" 
d="M70 0v525h134v-525h-18q-25 -19 -39.5 -45.5t-14.5 -51.5q0 -22 13.5 -34t36.5 -12q6 0 12 0.5t12 1.5v-84q-23 -5 -47 -5q-60 0 -94.5 28.5t-34.5 73.5q0 35 21.5 68.5t63.5 59.5h-45zM205 713v-117h-135v117h135z" />
    <glyph glyph-name="itilde" unicode="&#x129;" horiz-adv-x="275" 
d="M67 730q27 0 47.5 -9t37.5 -20.5t31.5 -20.5t28.5 -9t25 8t14 34l58 -9q-5 -55 -29 -86.5t-66 -31.5q-24 0 -43.5 9.5t-37.5 21.5t-35 21.5t-35 9.5q-17 0 -27 -11.5t-12 -36.5l-56 13q3 54 27 85.5t72 31.5zM70 0v525h134v-525h-134z" />
    <glyph glyph-name="dotlessi" unicode="&#x131;" horiz-adv-x="275" 
d="M70 0v525h134v-525h-134z" />
    <glyph glyph-name="dotlessj" unicode="&#xf6be;" horiz-adv-x="269" 
d="M197 525v-549q0 -50 -18.5 -87t-48.5 -61.5t-67.5 -36.5t-75.5 -12v106q39 0 61 20.5t22 79.5v540h127z" />
    <glyph glyph-name="jcircumflex" unicode="&#x135;" horiz-adv-x="269" 
d="M197 525v-549q0 -50 -18.5 -87t-48.5 -61.5t-67.5 -36.5t-75.5 -12v106q39 0 61 20.5t22 79.5v540h127zM195 741l125 -147l-94 -17l-92 84l-94 -84l-93 17l125 147h123z" />
    <glyph glyph-name="kcommaaccent" unicode="&#x137;" horiz-adv-x="558" 
d="M70 0v735h134v-735h-134zM407 0l-196 286l183 239h157l-190 -234l206 -291h-160zM358 -43v-66q0 -28 -8.5 -50.5t-23.5 -40.5t-35.5 -32t-44.5 -25l-18 45q34 12 48.5 32t14.5 49h-50v88h117z" />
    <glyph glyph-name="lacute" unicode="&#x13a;" horiz-adv-x="274" 
d="M70 0v735h134v-735h-134zM308 908l-163 -149h-86l124 163z" />
    <glyph glyph-name="lcaron" unicode="&#x13e;" horiz-adv-x="274" 
d="M70 0v735h134v-735h-134zM364 745l-52 -164h-66l2 164h116z" />
    <glyph glyph-name="lcommaaccent" unicode="&#x13c;" horiz-adv-x="274" 
d="M70 0v735h134v-735h-134zM191 -43v-66q0 -28 -8.5 -50.5t-23.5 -40.5t-35.5 -32t-44.5 -25l-18 45q34 12 48.5 32t14.5 49h-50v88h117z" />
    <glyph glyph-name="lslash" unicode="&#x142;" horiz-adv-x="274" 
d="M70 0v353l-34 -34l-61 59l95 95v262h134v-127l35 35l62 -60l-97 -97v-486h-134z" />
    <glyph glyph-name="nacute" unicode="&#x144;" horiz-adv-x="588" 
d="M204 525v-80q21 41 57.5 65.5t96.5 24.5q79 0 123 -48t44 -135v-352h-135v323q0 48 -16.5 72t-60.5 24q-45 0 -77 -32t-32 -100v-287h-134v525h134zM464 737l-156 -155h-93l110 171z" />
    <glyph glyph-name="napostrophe" unicode="&#x149;" horiz-adv-x="588" 
d="M204 525v-80q21 41 57.5 65.5t96.5 24.5q79 0 123 -48t44 -135v-352h-135v323q0 48 -16.5 72t-60.5 24q-45 0 -77 -32t-32 -100v-287h-134v525h134zM194 766v-66q0 -28 -8.5 -50.5t-23.5 -40.5t-35.5 -32t-44.5 -25l-18 45q34 12 48.5 32t14.5 49h-50v88h117z" />
    <glyph glyph-name="ncaron" unicode="&#x148;" horiz-adv-x="588" 
d="M204 525v-80q21 41 57.5 65.5t96.5 24.5q79 0 123 -48t44 -135v-352h-135v323q0 48 -16.5 72t-60.5 24q-45 0 -77 -32t-32 -100v-287h-134v525h134zM207 747l93 -84l93 84l94 -16l-125 -149h-123l-125 149z" />
    <glyph glyph-name="ncommaaccent" unicode="&#x146;" horiz-adv-x="588" 
d="M204 525v-80q21 41 57.5 65.5t96.5 24.5q79 0 123 -48t44 -135v-352h-135v323q0 48 -16.5 72t-60.5 24q-45 0 -77 -32t-32 -100v-287h-134v525h134zM357 -43v-66q0 -28 -8.5 -50.5t-23.5 -40.5t-35.5 -32t-44.5 -25l-18 45q34 12 48.5 32t14.5 49h-50v88h117z" />
    <glyph glyph-name="ntilde" unicode="&#xf1;" horiz-adv-x="588" 
d="M204 525v-80q21 41 57.5 65.5t96.5 24.5q79 0 123 -48t44 -135v-352h-135v323q0 48 -16.5 72t-60.5 24q-45 0 -77 -32t-32 -100v-287h-134v525h134zM227 730q27 0 47.5 -9t37.5 -20.5t31.5 -20.5t28.5 -9t25 8t14 34l58 -9q-5 -55 -29 -86.5t-66 -31.5q-24 0 -43.5 9.5
t-37.5 21.5t-35 21.5t-35 9.5q-17 0 -27 -11.5t-12 -36.5l-56 13q3 54 27 85.5t72 31.5z" />
    <glyph glyph-name="oacute" unicode="&#xf3;" horiz-adv-x="560" 
d="M280 423q-56 0 -83 -41t-27 -118q0 -80 27 -121.5t83 -41.5q55 0 82.5 41.5t27.5 121.5q0 77 -27.5 118t-82.5 41zM280 535q54 0 99.5 -18.5t77.5 -53.5t50 -85t18 -114q0 -65 -18 -116t-50 -86.5t-77.5 -54t-99.5 -18.5q-55 0 -100 18.5t-77.5 54t-50 86.5t-17.5 116
q0 64 17.5 114t50 85t77.5 53.5t100 18.5zM436 737l-156 -155h-93l110 171z" />
    <glyph glyph-name="obreve" unicode="&#x14f;" horiz-adv-x="560" 
d="M280 423q-56 0 -83 -41t-27 -118q0 -80 27 -121.5t83 -41.5q55 0 82.5 41.5t27.5 121.5q0 77 -27.5 118t-82.5 41zM280 535q54 0 99.5 -18.5t77.5 -53.5t50 -85t18 -114q0 -65 -18 -116t-50 -86.5t-77.5 -54t-99.5 -18.5q-55 0 -100 18.5t-77.5 54t-50 86.5t-17.5 116
q0 64 17.5 114t50 85t77.5 53.5t100 18.5zM210 734q1 -34 18 -53t51 -19q38 0 53.5 21.5t15.5 50.5l82 -9q0 -34 -12 -60.5t-33 -45t-48.5 -28t-57.5 -9.5t-57 9.5t-48 28t-33 45t-12 60.5z" />
    <glyph glyph-name="ocircumflex" unicode="&#xf4;" horiz-adv-x="560" 
d="M280 423q-56 0 -83 -41t-27 -118q0 -80 27 -121.5t83 -41.5q55 0 82.5 41.5t27.5 121.5q0 77 -27.5 118t-82.5 41zM280 535q54 0 99.5 -18.5t77.5 -53.5t50 -85t18 -114q0 -65 -18 -116t-50 -86.5t-77.5 -54t-99.5 -18.5q-55 0 -100 18.5t-77.5 54t-50 86.5t-17.5 116
q0 64 17.5 114t50 85t77.5 53.5t100 18.5zM341 741l125 -147l-94 -17l-92 84l-94 -84l-93 17l125 147h123z" />
    <glyph glyph-name="odieresis" unicode="&#xf6;" horiz-adv-x="560" 
d="M280 423q-56 0 -83 -41t-27 -118q0 -80 27 -121.5t83 -41.5q55 0 82.5 41.5t27.5 121.5q0 77 -27.5 118t-82.5 41zM280 535q54 0 99.5 -18.5t77.5 -53.5t50 -85t18 -114q0 -65 -18 -116t-50 -86.5t-77.5 -54t-99.5 -18.5q-55 0 -100 18.5t-77.5 54t-50 86.5t-17.5 116
q0 64 17.5 114t50 85t77.5 53.5t100 18.5zM131 606v103h100v-103h-100zM328 606v103h99v-103h-99z" />
    <glyph glyph-name="ograve" unicode="&#xf2;" horiz-adv-x="560" 
d="M280 423q-56 0 -83 -41t-27 -118q0 -80 27 -121.5t83 -41.5q55 0 82.5 41.5t27.5 121.5q0 77 -27.5 118t-82.5 41zM280 535q54 0 99.5 -18.5t77.5 -53.5t50 -85t18 -114q0 -65 -18 -116t-50 -86.5t-77.5 -54t-99.5 -18.5q-55 0 -100 18.5t-77.5 54t-50 86.5t-17.5 116
q0 64 17.5 114t50 85t77.5 53.5t100 18.5zM262 753l109 -171h-91l-157 155z" />
    <glyph glyph-name="ohungarumlaut" unicode="&#x151;" horiz-adv-x="560" 
d="M280 423q-56 0 -83 -41t-27 -118q0 -80 27 -121.5t83 -41.5q55 0 82.5 41.5t27.5 121.5q0 77 -27.5 118t-82.5 41zM280 535q54 0 99.5 -18.5t77.5 -53.5t50 -85t18 -114q0 -65 -18 -116t-50 -86.5t-77.5 -54t-99.5 -18.5q-55 0 -100 18.5t-77.5 54t-50 86.5t-17.5 116
q0 64 17.5 114t50 85t77.5 53.5t100 18.5zM339 737l-127 -146h-73l94 162zM513 737l-127 -146h-73l94 162z" />
    <glyph glyph-name="omacron" unicode="&#x14d;" horiz-adv-x="560" 
d="M280 423q-56 0 -83 -41t-27 -118q0 -80 27 -121.5t83 -41.5q55 0 82.5 41.5t27.5 121.5q0 77 -27.5 118t-82.5 41zM280 535q54 0 99.5 -18.5t77.5 -53.5t50 -85t18 -114q0 -65 -18 -116t-50 -86.5t-77.5 -54t-99.5 -18.5q-55 0 -100 18.5t-77.5 54t-50 86.5t-17.5 116
q0 64 17.5 114t50 85t77.5 53.5t100 18.5zM140 601v86h278v-86h-278z" />
    <glyph glyph-name="otilde" unicode="&#xf5;" horiz-adv-x="560" 
d="M280 423q-56 0 -83 -41t-27 -118q0 -80 27 -121.5t83 -41.5q55 0 82.5 41.5t27.5 121.5q0 77 -27.5 118t-82.5 41zM280 535q54 0 99.5 -18.5t77.5 -53.5t50 -85t18 -114q0 -65 -18 -116t-50 -86.5t-77.5 -54t-99.5 -18.5q-55 0 -100 18.5t-77.5 54t-50 86.5t-17.5 116
q0 64 17.5 114t50 85t77.5 53.5t100 18.5zM207 730q27 0 47.5 -9t37.5 -20.5t31.5 -20.5t28.5 -9t25 8t14 34l58 -9q-5 -55 -29 -86.5t-66 -31.5q-24 0 -43.5 9.5t-37.5 21.5t-35 21.5t-35 9.5q-17 0 -27 -11.5t-12 -36.5l-56 13q3 54 27 85.5t72 31.5z" />
    <glyph glyph-name="racute" unicode="&#x155;" horiz-adv-x="377" 
d="M204 525v-112q14 55 52.5 88.5t112.5 33.5v-130q-4 2 -12.5 3t-17.5 1q-26 0 -50.5 -9.5t-43 -29t-30 -50t-11.5 -71.5v-249h-134v525h134zM394 737l-156 -155h-93l110 171z" />
    <glyph glyph-name="rcaron" unicode="&#x159;" horiz-adv-x="377" 
d="M204 525v-112q14 55 52.5 88.5t112.5 33.5v-130q-4 2 -12.5 3t-17.5 1q-26 0 -50.5 -9.5t-43 -29t-30 -50t-11.5 -71.5v-249h-134v525h134zM132 747l93 -84l93 84l94 -16l-125 -149h-123l-125 149z" />
    <glyph glyph-name="rcommaaccent" unicode="&#x157;" horiz-adv-x="377" 
d="M204 525v-112q14 55 52.5 88.5t112.5 33.5v-130q-4 2 -12.5 3t-17.5 1q-26 0 -50.5 -9.5t-43 -29t-30 -50t-11.5 -71.5v-249h-134v525h134zM195 -43v-66q0 -28 -8.5 -50.5t-23.5 -40.5t-35.5 -32t-44.5 -25l-18 45q34 12 48.5 32t14.5 49h-50v88h117z" />
    <glyph glyph-name="sacute" unicode="&#x15b;" horiz-adv-x="525" 
d="M262 535q55 0 96.5 -12.5t69.5 -34.5t42.5 -52.5t15.5 -67.5h-125q-1 32 -26.5 51t-67.5 19q-25 0 -42 -5t-27.5 -13t-15 -18.5t-4.5 -21.5q0 -30 26.5 -41t66.5 -17q37 -4 76 -11.5t71.5 -24t53 -46t20.5 -77.5q0 -37 -12.5 -68.5t-40 -55t-71.5 -37t-106 -13.5
q-55 0 -96.5 12.5t-69.5 35t-43 53.5t-16 68h126q1 -31 28 -50t75 -19q55 0 75 17.5t20 40.5q0 33 -27 44.5t-66 16.5q-42 5 -81.5 12.5t-70.5 24t-50 45.5t-19 78q0 34 14.5 64.5t42.5 53t67.5 36t90.5 13.5zM432 737l-156 -155h-93l110 171z" />
    <glyph glyph-name="scaron" unicode="&#x161;" horiz-adv-x="525" 
d="M262 535q55 0 96.5 -12.5t69.5 -34.5t42.5 -52.5t15.5 -67.5h-125q-1 32 -26.5 51t-67.5 19q-25 0 -42 -5t-27.5 -13t-15 -18.5t-4.5 -21.5q0 -30 26.5 -41t66.5 -17q37 -4 76 -11.5t71.5 -24t53 -46t20.5 -77.5q0 -37 -12.5 -68.5t-40 -55t-71.5 -37t-106 -13.5
q-55 0 -96.5 12.5t-69.5 35t-43 53.5t-16 68h126q1 -31 28 -50t75 -19q55 0 75 17.5t20 40.5q0 33 -27 44.5t-66 16.5q-42 5 -81.5 12.5t-70.5 24t-50 45.5t-19 78q0 34 14.5 64.5t42.5 53t67.5 36t90.5 13.5zM174 747l93 -84l93 84l94 -16l-125 -149h-123l-125 149z" />
    <glyph glyph-name="scedilla" unicode="&#x15f;" horiz-adv-x="525" 
d="M262 535q55 0 96.5 -12.5t69.5 -34.5t42.5 -52.5t15.5 -67.5h-125q-1 32 -26.5 51t-67.5 19q-25 0 -42 -5t-27.5 -13t-15 -18.5t-4.5 -21.5q0 -30 26.5 -41t66.5 -17q37 -4 76 -11.5t71.5 -24t53 -46t20.5 -77.5q0 -35 -11.5 -65.5t-36 -53.5t-64 -37t-94.5 -17l-32 -47
q8 2 16 3t16 1q19 0 38 -5t34 -15.5t24 -26.5t9 -39q0 -25 -11.5 -45t-32 -33.5t-47.5 -20.5t-57 -7q-35 0 -66.5 9.5t-52.5 29.5l39 45q8 -11 28.5 -18t42.5 -7q28 0 42.5 10.5t14.5 28.5q0 27 -23 37.5t-60 10.5q-12 0 -26 -1t-28 -3l53 96q-83 11 -125.5 56t-44.5 109
h126q1 -31 28 -50t75 -19q55 0 75 17.5t20 40.5q0 33 -27 44.5t-66 16.5q-42 5 -81.5 12.5t-70.5 24t-50 45.5t-19 78q0 34 14.5 64.5t42.5 53t67.5 36t90.5 13.5z" />
    <glyph glyph-name="scedilla" unicode="&#xf6c2;" horiz-adv-x="525" 
d="M262 535q55 0 96.5 -12.5t69.5 -34.5t42.5 -52.5t15.5 -67.5h-125q-1 32 -26.5 51t-67.5 19q-25 0 -42 -5t-27.5 -13t-15 -18.5t-4.5 -21.5q0 -30 26.5 -41t66.5 -17q37 -4 76 -11.5t71.5 -24t53 -46t20.5 -77.5q0 -35 -11.5 -65.5t-36 -53.5t-64 -37t-94.5 -17l-32 -47
q8 2 16 3t16 1q19 0 38 -5t34 -15.5t24 -26.5t9 -39q0 -25 -11.5 -45t-32 -33.5t-47.5 -20.5t-57 -7q-35 0 -66.5 9.5t-52.5 29.5l39 45q8 -11 28.5 -18t42.5 -7q28 0 42.5 10.5t14.5 28.5q0 27 -23 37.5t-60 10.5q-12 0 -26 -1t-28 -3l53 96q-83 11 -125.5 56t-44.5 109
h126q1 -31 28 -50t75 -19q55 0 75 17.5t20 40.5q0 33 -27 44.5t-66 16.5q-42 5 -81.5 12.5t-70.5 24t-50 45.5t-19 78q0 34 14.5 64.5t42.5 53t67.5 36t90.5 13.5z" />
    <glyph glyph-name="scircumflex" unicode="&#x15d;" horiz-adv-x="525" 
d="M262 535q55 0 96.5 -12.5t69.5 -34.5t42.5 -52.5t15.5 -67.5h-125q-1 32 -26.5 51t-67.5 19q-25 0 -42 -5t-27.5 -13t-15 -18.5t-4.5 -21.5q0 -30 26.5 -41t66.5 -17q37 -4 76 -11.5t71.5 -24t53 -46t20.5 -77.5q0 -37 -12.5 -68.5t-40 -55t-71.5 -37t-106 -13.5
q-55 0 -96.5 12.5t-69.5 35t-43 53.5t-16 68h126q1 -31 28 -50t75 -19q55 0 75 17.5t20 40.5q0 33 -27 44.5t-66 16.5q-42 5 -81.5 12.5t-70.5 24t-50 45.5t-19 78q0 34 14.5 64.5t42.5 53t67.5 36t90.5 13.5zM333 741l125 -147l-94 -17l-92 84l-94 -84l-93 17l125 147h123z
" />
    <glyph glyph-name="scommaaccent" unicode="&#x219;" horiz-adv-x="525" 
d="M262 535q55 0 96.5 -12.5t69.5 -34.5t42.5 -52.5t15.5 -67.5h-125q-1 32 -26.5 51t-67.5 19q-25 0 -42 -5t-27.5 -13t-15 -18.5t-4.5 -21.5q0 -30 26.5 -41t66.5 -17q37 -4 76 -11.5t71.5 -24t53 -46t20.5 -77.5q0 -37 -12.5 -68.5t-40 -55t-71.5 -37t-106 -13.5
q-55 0 -96.5 12.5t-69.5 35t-43 53.5t-16 68h126q1 -31 28 -50t75 -19q55 0 75 17.5t20 40.5q0 33 -27 44.5t-66 16.5q-42 5 -81.5 12.5t-70.5 24t-50 45.5t-19 78q0 34 14.5 64.5t42.5 53t67.5 36t90.5 13.5zM323 -43v-66q0 -28 -8.5 -50.5t-23.5 -40.5t-35.5 -32
t-44.5 -25l-18 45q34 12 48.5 32t14.5 49h-50v88h117z" />
    <glyph glyph-name="tbar" unicode="&#x167;" horiz-adv-x="368" 
d="M228 647v-122h131v-103h-131v-103h97v-78h-97v-56q0 -45 17.5 -64.5t55.5 -19.5q25 0 58 10v-113q-22 -4 -41.5 -6.5t-38.5 -2.5q-42 0 -76 10t-58 31.5t-37.5 55t-13.5 80.5v75h-56v78h56v103h-76v103h76v122h134z" />
    <glyph glyph-name="tcaron" unicode="&#x165;" horiz-adv-x="368" 
d="M228 647v-122h131v-103h-131v-237q0 -45 17.5 -64.5t55.5 -19.5q25 0 58 10v-113q-22 -4 -41.5 -6.5t-38.5 -2.5q-42 0 -76 10t-58 31.5t-37.5 55t-13.5 80.5v256h-76v103h76v122h134zM396 745l-52 -164h-66l2 164h116z" />
    <glyph glyph-name="tcommaaccent" unicode="&#x163;" horiz-adv-x="368" 
d="M228 647v-122h131v-103h-131v-237q0 -45 17.5 -64.5t55.5 -19.5q25 0 58 10v-113q-22 -4 -41.5 -6.5t-38.5 -2.5q-42 0 -76 10t-58 31.5t-37.5 55t-13.5 80.5v256h-76v103h76v122h134zM283 -43v-66q0 -28 -8.5 -50.5t-23.5 -40.5t-35.5 -32t-44.5 -25l-18 45
q34 12 48.5 32t14.5 49h-50v88h117z" />
    <glyph glyph-name="tcommaaccent" unicode="&#x21b;" horiz-adv-x="368" 
d="M228 647v-122h131v-103h-131v-237q0 -45 17.5 -64.5t55.5 -19.5q25 0 58 10v-113q-22 -4 -41.5 -6.5t-38.5 -2.5q-42 0 -76 10t-58 31.5t-37.5 55t-13.5 80.5v256h-76v103h76v122h134zM283 -43v-66q0 -28 -8.5 -50.5t-23.5 -40.5t-35.5 -32t-44.5 -25l-18 45
q34 12 48.5 32t14.5 49h-50v88h117z" />
    <glyph glyph-name="uacute" unicode="&#xfa;" horiz-adv-x="595" 
d="M203 525v-324q0 -47 16.5 -71t59.5 -24q46 0 77.5 32t31.5 100v287h135v-525h-135v79q-21 -41 -57 -65.5t-96 -24.5q-79 0 -123 48.5t-44 135.5v352h135zM465 737l-156 -155h-93l110 171z" />
    <glyph glyph-name="ubreve" unicode="&#x16d;" horiz-adv-x="595" 
d="M203 525v-324q0 -47 16.5 -71t59.5 -24q46 0 77.5 32t31.5 100v287h135v-525h-135v79q-21 -41 -57 -65.5t-96 -24.5q-79 0 -123 48.5t-44 135.5v352h135zM227 734q1 -34 18 -53t51 -19q38 0 53.5 21.5t15.5 50.5l82 -9q0 -34 -12 -60.5t-33 -45t-48.5 -28t-57.5 -9.5
t-57 9.5t-48 28t-33 45t-12 60.5z" />
    <glyph glyph-name="ucircumflex" unicode="&#xfb;" horiz-adv-x="595" 
d="M203 525v-324q0 -47 16.5 -71t59.5 -24q46 0 77.5 32t31.5 100v287h135v-525h-135v79q-21 -41 -57 -65.5t-96 -24.5q-79 0 -123 48.5t-44 135.5v352h135zM359 741l125 -147l-94 -17l-92 84l-94 -84l-93 17l125 147h123z" />
    <glyph glyph-name="udieresis" unicode="&#xfc;" horiz-adv-x="595" 
d="M203 525v-324q0 -47 16.5 -71t59.5 -24q46 0 77.5 32t31.5 100v287h135v-525h-135v79q-21 -41 -57 -65.5t-96 -24.5q-79 0 -123 48.5t-44 135.5v352h135zM148 606v103h100v-103h-100zM345 606v103h99v-103h-99z" />
    <glyph glyph-name="ugrave" unicode="&#xf9;" horiz-adv-x="595" 
d="M203 525v-324q0 -47 16.5 -71t59.5 -24q46 0 77.5 32t31.5 100v287h135v-525h-135v79q-21 -41 -57 -65.5t-96 -24.5q-79 0 -123 48.5t-44 135.5v352h135zM270 753l109 -171h-91l-157 155z" />
    <glyph glyph-name="uhungarumlaut" unicode="&#x171;" horiz-adv-x="595" 
d="M203 525v-324q0 -47 16.5 -71t59.5 -24q46 0 77.5 32t31.5 100v287h135v-525h-135v79q-21 -41 -57 -65.5t-96 -24.5q-79 0 -123 48.5t-44 135.5v352h135zM351 737l-127 -146h-73l94 162zM525 737l-127 -146h-73l94 162z" />
    <glyph glyph-name="umacron" unicode="&#x16b;" horiz-adv-x="595" 
d="M203 525v-324q0 -47 16.5 -71t59.5 -24q46 0 77.5 32t31.5 100v287h135v-525h-135v79q-21 -41 -57 -65.5t-96 -24.5q-79 0 -123 48.5t-44 135.5v352h135zM157 601v86h278v-86h-278z" />
    <glyph glyph-name="uogonek" unicode="&#x173;" horiz-adv-x="595" 
d="M388 0v79q-21 -41 -57 -65.5t-96 -24.5q-79 0 -123 48.5t-44 135.5v352h135v-324q0 -47 16.5 -71t59.5 -24q46 0 77.5 32t31.5 100v287h135v-525h-31q-25 -19 -39.5 -45.5t-14.5 -51.5q0 -22 13.5 -34t36.5 -12q6 0 12 0.5t12 1.5v-84q-23 -5 -47 -5q-60 0 -94.5 28.5
t-34.5 73.5q0 35 21.5 68.5t63.5 59.5h-33z" />
    <glyph glyph-name="uring" unicode="&#x16f;" horiz-adv-x="595" 
d="M203 525v-324q0 -47 16.5 -71t59.5 -24q46 0 77.5 32t31.5 100v287h135v-525h-135v79q-21 -41 -57 -65.5t-96 -24.5q-79 0 -123 48.5t-44 135.5v352h135zM296 777q27 0 51 -7t42 -20.5t28.5 -33t10.5 -45.5t-10.5 -45.5t-28.5 -33t-42 -20t-51 -6.5t-51 6.5t-42 20
t-28.5 33t-10.5 45.5t10.5 45.5t28.5 33t42 20.5t51 7zM296 713q-25 0 -38 -12t-13 -29q0 -22 14.5 -32.5t36.5 -10.5q23 0 36.5 10.5t13.5 30.5q0 21 -15 32t-35 11z" />
    <glyph glyph-name="utilde" unicode="&#x169;" horiz-adv-x="595" 
d="M203 525v-324q0 -47 16.5 -71t59.5 -24q46 0 77.5 32t31.5 100v287h135v-525h-135v79q-21 -41 -57 -65.5t-96 -24.5q-79 0 -123 48.5t-44 135.5v352h135zM224 730q27 0 47.5 -9t37.5 -20.5t31.5 -20.5t28.5 -9t25 8t14 34l58 -9q-5 -55 -29 -86.5t-66 -31.5
q-24 0 -43.5 9.5t-37.5 21.5t-35 21.5t-35 9.5q-17 0 -27 -11.5t-12 -36.5l-56 13q3 54 27 85.5t72 31.5z" />
    <glyph glyph-name="wcircumflex" unicode="&#x175;" horiz-adv-x="806" 
d="M137 525l86 -324q5 -20 9 -42t7 -42q2 20 5.5 42t8.5 42l87 324h128l89 -324q5 -20 8.5 -42t6.5 -42q2 20 5.5 42t8.5 42l87 324h131l-155 -525h-158l-73 274q-5 23 -10 49t-7 50q-3 -24 -7.5 -50.5t-10.5 -48.5l-75 -274h-153l-154 525h136zM464 741l125 -147l-94 -17
l-92 84l-94 -84l-93 17l125 147h123z" />
    <glyph glyph-name="wacute" unicode="&#x1e83;" horiz-adv-x="806" 
d="M137 525l86 -324q5 -20 9 -42t7 -42q2 20 5.5 42t8.5 42l87 324h128l89 -324q5 -20 8.5 -42t6.5 -42q2 20 5.5 42t8.5 42l87 324h131l-155 -525h-158l-73 274q-5 23 -10 49t-7 50q-3 -24 -7.5 -50.5t-10.5 -48.5l-75 -274h-153l-154 525h136zM572 737l-156 -155h-93
l110 171z" />
    <glyph glyph-name="wgrave" unicode="&#x1e81;" horiz-adv-x="806" 
d="M137 525l86 -324q5 -20 9 -42t7 -42q2 20 5.5 42t8.5 42l87 324h128l89 -324q5 -20 8.5 -42t6.5 -42q2 20 5.5 42t8.5 42l87 324h131l-155 -525h-158l-73 274q-5 23 -10 49t-7 50q-3 -24 -7.5 -50.5t-10.5 -48.5l-75 -274h-153l-154 525h136zM379 753l109 -171h-91
l-157 155z" />
    <glyph glyph-name="wdieresis" unicode="&#x1e85;" horiz-adv-x="806" 
d="M137 525l86 -324q5 -20 9 -42t7 -42q2 20 5.5 42t8.5 42l87 324h128l89 -324q5 -20 8.5 -42t6.5 -42q2 20 5.5 42t8.5 42l87 324h131l-155 -525h-158l-73 274q-5 23 -10 49t-7 50q-3 -24 -7.5 -50.5t-10.5 -48.5l-75 -274h-153l-154 525h136zM254 606v103h100v-103h-100z
M451 606v103h99v-103h-99z" />
    <glyph glyph-name="yacute" unicode="&#xfd;" horiz-adv-x="514" 
d="M138 525l103 -316q5 -20 10 -47t7 -43q1 7 3.5 18.5t4.5 24t5 25t6 22.5l108 316h132l-193 -549q-23 -68 -49.5 -107t-60 -59t-75 -25.5t-94.5 -5.5v117q50 1 78.5 12.5t42.5 42.5l17 38l-186 536h141zM439 737l-156 -155h-93l110 171z" />
    <glyph glyph-name="ycircumflex" unicode="&#x177;" horiz-adv-x="514" 
d="M138 525l103 -316q5 -20 10 -47t7 -43q1 7 3.5 18.5t4.5 24t5 25t6 22.5l108 316h132l-193 -549q-23 -68 -49.5 -107t-60 -59t-75 -25.5t-94.5 -5.5v117q50 1 78.5 12.5t42.5 42.5l17 38l-186 536h141zM322 741l125 -147l-94 -17l-92 84l-94 -84l-93 17l125 147h123z" />
    <glyph glyph-name="ydieresis" unicode="&#xff;" horiz-adv-x="514" 
d="M138 525l103 -316q5 -20 10 -47t7 -43q1 7 3.5 18.5t4.5 24t5 25t6 22.5l108 316h132l-193 -549q-23 -68 -49.5 -107t-60 -59t-75 -25.5t-94.5 -5.5v117q50 1 78.5 12.5t42.5 42.5l17 38l-186 536h141zM111 606v103h100v-103h-100zM308 606v103h99v-103h-99z" />
    <glyph glyph-name="ygrave" unicode="&#x1ef3;" horiz-adv-x="514" 
d="M138 525l103 -316q5 -20 10 -47t7 -43q1 7 3.5 18.5t4.5 24t5 25t6 22.5l108 316h132l-193 -549q-23 -68 -49.5 -107t-60 -59t-75 -25.5t-94.5 -5.5v117q50 1 78.5 12.5t42.5 42.5l17 38l-186 536h141zM242 753l109 -171h-91l-157 155z" />
    <glyph glyph-name="zacute" unicode="&#x17a;" horiz-adv-x="484" 
d="M29 0v104l264 318h-249v103h406v-103l-263 -318h269v-104h-427zM417 737l-156 -155h-93l110 171z" />
    <glyph glyph-name="zcaron" unicode="&#x17e;" horiz-adv-x="484" 
d="M29 0v104l264 318h-249v103h406v-103l-263 -318h269v-104h-427zM152 747l93 -84l93 84l94 -16l-125 -149h-123l-125 149z" />
    <glyph glyph-name="zdotaccent" unicode="&#x17c;" horiz-adv-x="484" 
d="M29 0v104l264 318h-249v103h406v-103l-263 -318h269v-104h-427zM182 606v118h129v-118h-129z" />
    <glyph glyph-name="aeacute" unicode="&#x1fd;" horiz-adv-x="885" 
d="M288 535q65 0 105 -14.5t63 -42.5q31 27 71.5 42t91.5 15q59 0 103.5 -23.5t74 -63.5t43 -94t9.5 -115h-354q4 -70 31 -105.5t84 -35.5q42 0 68.5 20.5t32.5 52.5h130q-3 -41 -22 -74.5t-50 -57.5t-71 -37t-83 -13q-74 0 -127.5 29.5t-83.5 86.5q-29 -54 -78.5 -84
t-127.5 -30q-75 0 -116 39.5t-41 106.5q0 89 64 137.5t210 48.5h50v42q0 32 -22 50.5t-66 18.5q-42 0 -71 -18.5t-30 -58.5h-120q3 85 62.5 131.5t169.5 46.5zM241 95q25 0 48 8.5t39.5 23.5t26.5 36t10 47v29h-48q-68 0 -106.5 -19t-38.5 -62q0 -31 18.5 -47t50.5 -16z
M624 737l-156 -155h-93l110 171zM612 435q-92 0 -112 -112h218q-3 48 -29 80t-77 32z" />
    <glyph glyph-name="iacute_jacute" horiz-adv-x="537" 
d="M70 0v525h127v-525h-127zM466 525v-549q0 -51 -18.5 -88t-48.5 -61.5t-67.5 -36.5t-75.5 -12v107q19 0 34.5 4.5t26 15.5t16 30.5t5.5 48.5v541h128zM306 737l-156 -155h-93l110 171zM576 737l-156 -155h-93l110 171z" />
    <glyph glyph-name="oslashacute" unicode="&#x1ff;" horiz-adv-x="558" 
d="M280 535q72 0 125 -29l14 19h102l-52 -72q27 -35 41.5 -82t14.5 -107q0 -133 -65 -204t-180 -71q-71 0 -125 28l-12 -17h-104l52 71q-27 35 -41.5 83t-14.5 110q0 130 65 200.5t180 70.5zM448 737l-156 -155h-93l110 171zM280 419q-56 0 -85 -41t-29 -114q0 -43 9 -76
l158 218q-24 13 -53 13zM395 264q0 20 -2.5 38t-7.5 34l-157 -218q22 -12 52 -12q55 0 85 41t30 117z" />
    <glyph glyph-name="f_f" unicode="&#xfb00;" horiz-adv-x="669" 
d="M280 745q35 0 81 -8v-110q-20 5 -33.5 6.5t-29.5 1.5q-36 0 -52 -18t-16 -53v-39h171v37q0 47 13.5 81.5t38 57t58.5 33.5t75 11q34 0 80 -8v-110q-20 5 -33.5 6.5t-29.5 1.5q-36 0 -52 -18t-16 -53v-39h131v-103h-131v-422h-134v422h-171v-422h-135v422h-75v103h75v37
q0 47 13.5 81.5t38 57t58.5 33.5t75 11z" />
    <glyph glyph-name="f_b" horiz-adv-x="939" 
d="M651 422q-57 0 -86.5 -41.5t-29.5 -121.5q0 -32 6.5 -60.5t20.5 -49.5t36 -33.5t53 -12.5q57 0 82.5 41.5t25.5 117.5q0 77 -25.5 118.5t-82.5 41.5zM320 745q51 0 107.5 -5.5t107.5 -15.5v-296q19 45 56 76t97 31q49 0 88.5 -19.5t67.5 -55.5t43 -86.5t15 -111.5
t-15 -111.5t-43 -86.5t-67.5 -55.5t-88.5 -19.5q-57 0 -95.5 29.5t-57.5 73.5v-92h-134v627q-18 4 -37 6t-45 2q-89 0 -89 -71v-39h116v-103h-116v-422h-135v422h-75v103h75v37q0 47 17.5 81.5t47.5 57t71 33.5t89 11z" />
    <glyph glyph-name="f_h" horiz-adv-x="917" 
d="M320 745q51 0 107.5 -5.5t107.5 -15.5v-279q21 41 56 65.5t95 24.5q78 0 120.5 -48t42.5 -135v-352h-135v323q0 48 -16.5 72t-60.5 24q-45 0 -73.5 -32t-28.5 -100v-287h-134v627q-18 4 -37 6t-45 2q-89 0 -89 -71v-39h116v-103h-116v-422h-135v422h-75v103h75v37
q0 47 17.5 81.5t47.5 57t71 33.5t89 11z" />
    <glyph glyph-name="f_i" unicode="&#xfb01;" horiz-adv-x="599" 
d="M280 745q11 0 26.5 -1.5t28.5 -3.5v-110q-22 5 -41 5q-36 0 -50 -18t-14 -53v-39h298v-525h-134v422h-164v-422h-135v422h-75v103h75v37q0 47 13.5 81.5t38 57t58.5 33.5t75 11zM528 713v-117h-135v117h135z" />
    <glyph glyph-name="f_j" horiz-adv-x="599" 
d="M280 745q11 0 26.5 -1.5t28.5 -3.5v-110q-22 5 -41 5q-36 0 -50 -18t-14 -53v-39h298v-549q0 -51 -19.5 -88t-50.5 -61.5t-69.5 -36.5t-77.5 -12v107q19 0 34.5 4.5t26.5 15.5t16.5 30.5t5.5 48.5v438h-164v-422h-135v422h-75v103h75v37q0 47 13.5 81.5t38 57t58.5 33.5
t75 11zM528 713v-117h-135v117h135z" />
    <glyph glyph-name="f_k" horiz-adv-x="903" 
d="M320 745q51 0 107.5 -5.5t107.5 -15.5v-724h-134v627q-18 4 -37 6t-45 2q-89 0 -89 -71v-39h116v-103h-116v-422h-135v422h-75v103h75v37q0 47 17.5 81.5t47.5 57t71 33.5t89 11zM882 525l-190 -234l206 -291h-160l-197 286l184 239h157z" />
    <glyph glyph-name="f_l" unicode="&#xfb02;" horiz-adv-x="599" 
d="M320 745q51 0 104 -5.5t104 -15.5v-724h-134v627q-19 4 -36 6t-42 2q-45 0 -65.5 -18t-20.5 -53v-39h114v-103h-114v-422h-135v422h-75v103h75v37q0 47 17.5 81.5t47.5 57t71 33.5t89 11z" />
    <glyph glyph-name="f_t" horiz-adv-x="671" 
d="M284 745q11 0 26 -1.5t28 -3.5v-110q-9 2 -20.5 3.5t-19.5 1.5q-36 0 -52 -18t-16 -53v-39h164v122h134v-122h138v-103h-138v-237q0 -44 19 -64t57 -20q13 0 29 2.5t33 7.5v-113q-22 -4 -44 -6.5t-41 -2.5q-41 0 -75.5 11t-59 33.5t-38.5 57t-14 81.5v250h-164v-422h-135
v422h-75v103h75v37q0 47 14 81.5t39 57t59.5 33.5t76.5 11z" />
    <glyph glyph-name="f_f_b" horiz-adv-x="1244" 
d="M280 745q35 0 81 -8v-110q-20 5 -33.5 6.5t-29.5 1.5q-36 0 -52 -18t-16 -53v-39h171v37q0 47 17 81.5t47.5 57t71.5 33.5t89 11q50 0 106.5 -5.5t108.5 -15.5v-296q19 45 56 76t97 31q48 0 87.5 -19.5t67 -55.5t43 -86.5t15.5 -111.5t-15.5 -111.5t-43 -86.5t-67 -55.5
t-87.5 -19.5q-58 0 -96.5 29.5t-56.5 73.5v-92h-135v627q-18 4 -37 6t-44 2q-90 0 -90 -71v-39h117v-103h-117v-422h-134v422h-171v-422h-135v422h-75v103h75v37q0 47 13.5 81.5t38 57t58.5 33.5t75 11zM961 422q-57 0 -88.5 -41.5t-31.5 -121.5q0 -32 7 -60.5t21.5 -49.5
t37 -33.5t54.5 -12.5q56 0 79.5 41.5t23.5 117.5q0 77 -23.5 118.5t-79.5 41.5z" />
    <glyph glyph-name="f_f_h" horiz-adv-x="1222" 
d="M280 745q35 0 81 -8v-110q-20 5 -33.5 6.5t-29.5 1.5q-36 0 -52 -18t-16 -53v-39h171v37q0 47 17 81.5t47.5 57t71.5 33.5t89 11q50 0 106.5 -5.5t108.5 -15.5v-279q20 41 56.5 65.5t96.5 24.5q80 0 120 -48t40 -135v-352h-135v323q0 48 -16 72t-60 24q-46 0 -74 -32
t-28 -100v-287h-135v627q-18 4 -37 6t-44 2q-90 0 -90 -71v-39h117v-103h-117v-422h-134v422h-171v-422h-135v422h-75v103h75v37q0 47 13.5 81.5t38 57t58.5 33.5t75 11z" />
    <glyph glyph-name="f_f_i" unicode="&#xfb03;" horiz-adv-x="905" 
d="M280 745q35 0 81 -8v-110q-20 5 -33.5 6.5t-29.5 1.5q-36 0 -52 -18t-16 -53v-39h171v37q0 47 13.5 81.5t38 57t58.5 33.5t75 11q11 0 26 -1.5t28 -3.5v-110q-9 2 -21 3.5t-20 1.5q-35 0 -49.5 -18t-14.5 -53v-39h298v-525h-134v422h-164v-422h-134v422h-171v-422h-135
v422h-75v103h75v37q0 47 13.5 81.5t38 57t58.5 33.5t75 11zM698 596v117h136v-117h-136z" />
    <glyph glyph-name="f_f_j" horiz-adv-x="905" 
d="M280 745q35 0 81 -8v-110q-20 5 -33.5 6.5t-29.5 1.5q-36 0 -52 -18t-16 -53v-39h171v37q0 47 13.5 81.5t38 57t58.5 33.5t75 11q11 0 26 -1.5t28 -3.5v-110q-9 2 -21 3.5t-20 1.5q-35 0 -49.5 -18t-14.5 -53v-39h298v-549q0 -51 -19.5 -88t-50.5 -61.5t-70 -36.5
t-77 -12v107q19 0 34.5 4.5t26.5 15.5t16.5 30.5t5.5 48.5v438h-164v-422h-134v422h-171v-422h-135v422h-75v103h75v37q0 47 13.5 81.5t38 57t58.5 33.5t75 11zM834 713v-117h-136v117h136z" />
    <glyph glyph-name="f_f_k" horiz-adv-x="1208" 
d="M280 745q35 0 81 -8v-110q-20 5 -33.5 6.5t-29.5 1.5q-36 0 -52 -18t-16 -53v-39h171v37q0 47 17 81.5t47.5 57t71.5 33.5t89 11q50 0 106.5 -5.5t108.5 -15.5v-724h-135v627q-38 8 -85 8q-46 0 -66 -18t-20 -53v-39h117v-103h-117v-422h-134v422h-171v-422h-135v422h-75
v103h75v37q0 47 13.5 81.5t38 57t58.5 33.5t75 11zM1187 525l-194 -234l209 -291h-158l-197 286l181 239h159z" />
    <glyph glyph-name="f_f_l" unicode="&#xfb04;" horiz-adv-x="905" 
d="M280 745q35 0 81 -8v-110q-20 5 -33.5 6.5t-29.5 1.5q-36 0 -52 -18t-16 -53v-39h171v37q0 47 17 81.5t47.5 57t71.5 33.5t89 11q50 0 103 -5.5t104 -15.5v-724h-134v627q-18 4 -34 6t-41 2q-89 0 -89 -71v-39h113v-103h-113v-422h-134v422h-171v-422h-135v422h-75v103
h75v37q0 47 13.5 81.5t38 57t58.5 33.5t75 11z" />
    <glyph glyph-name="f_f_t" horiz-adv-x="977" 
d="M280 745q35 0 81 -8v-110q-20 5 -33.5 6.5t-29.5 1.5q-36 0 -52 -18t-16 -53v-39h171v37q0 47 13.5 81.5t38 57t58.5 33.5t75 11q11 0 26 -1.5t28 -3.5v-110q-9 2 -21 3.5t-20 1.5q-35 0 -49.5 -18t-14.5 -53v-39h164v122h134v-122h139v-103h-139v-237q0 -44 19 -64
t57 -20q27 0 63 10v-113q-22 -4 -42.5 -6.5t-38.5 -2.5q-41 0 -76.5 11t-61 33.5t-40 57t-14.5 81.5v250h-164v-422h-134v422h-171v-422h-135v422h-75v103h75v37q0 47 13.5 81.5t38 57t58.5 33.5t75 11z" />
    <glyph glyph-name="s_p" horiz-adv-x="1114" 
d="M266 535q51 0 95.5 -1.5t94 -3.5t110 -3.5t145.5 -1.5v-97q20 45 57 76t97 31q48 0 87.5 -19.5t67 -55.5t43 -86.5t15.5 -111.5t-15.5 -111.5t-43 -86.5t-67 -55.5t-87.5 -19.5q-58 0 -96.5 30.5t-57.5 75.5v-305h-135v637q-85 2 -164 6.5t-142 4.5q-25 0 -42 -5
t-27.5 -13t-15 -18.5t-4.5 -21.5q0 -30 27 -41t67 -17q37 -5 75.5 -12.5t70 -24t51.5 -45.5t20 -77q0 -37 -12.5 -68.5t-40 -55t-71.5 -37t-106 -13.5q-55 0 -96 12.5t-68.5 35t-42.5 53.5t-18 68h123q2 -31 30 -50t76 -19q55 0 75 18.5t20 43.5q0 15 -7 25t-19.5 16.5
t-29.5 10t-36 6.5q-33 4 -71 11t-71 23.5t-54.5 46t-21.5 78.5q0 34 14.5 64.5t42 53t67.5 36t91 13.5zM827 422q-57 0 -86.5 -41.5t-29.5 -121.5q0 -32 6.5 -60.5t20.5 -49.5t36 -33.5t53 -12.5q57 0 82.5 41.5t25.5 117.5q0 77 -25.5 118.5t-82.5 41.5z" />
    <glyph glyph-name="s_t" unicode="&#xfb06;" horiz-adv-x="853" 
d="M266 535q42 0 79.5 -1.5t74 -3.5t74.5 -3.5t81 -1.5v122h134v-122h139v-103h-139v-237q0 -44 19.5 -64t57.5 -20q29 0 62 10v-113q-22 -4 -41.5 -6.5t-39.5 -2.5q-41 0 -76.5 11t-61 33.5t-40 57t-14.5 81.5v255q-87 2 -164.5 6.5t-140.5 4.5q-25 0 -42 -5t-27.5 -13
t-15 -18.5t-4.5 -21.5q0 -30 27 -41t67 -17q34 -5 72.5 -12.5t70.5 -24t53 -45.5t21 -77q0 -37 -12.5 -68.5t-40 -55t-71.5 -37t-106 -13.5q-55 0 -96 12.5t-68.5 35t-42.5 53.5t-18 68h123q2 -31 30 -50t76 -19q55 0 75 18.5t20 43.5q0 15 -7 25t-19.5 16.5t-29.5 10
t-36 6.5q-33 4 -71 11.5t-71 24t-54.5 45.5t-21.5 78q0 34 14.5 64.5t42 53t67.5 36t91 13.5z" />
    <glyph glyph-name="c_t" horiz-adv-x="907" 
d="M287 535q63 0 112 -27t78 -78q27 4 54.5 25.5t49 53.5t35 71.5t13.5 79.5h134v-135h139v-103h-139v-237q0 -44 19.5 -64t57.5 -20q28 0 62 10v-113q-22 -4 -42 -6.5t-39 -2.5q-41 0 -76.5 11t-61 33.5t-40 57t-14.5 81.5v276q-12 -21 -27.5 -42t-36 -37.5t-45.5 -26.5
t-57 -10h-83q-8 39 -30.5 65t-68.5 26q-59 0 -85.5 -43t-26.5 -118t26.5 -118t85.5 -43q46 0 68.5 26.5t30.5 65.5h135q-6 -45 -25 -82.5t-49 -64.5t-69 -42t-85 -15q-60 0 -107 19.5t-79.5 55.5t-49 86t-16.5 112q0 61 16.5 111.5t49 86.5t79.5 55.5t107 19.5z" />
    <glyph glyph-name="T_i" horiz-adv-x="804" 
d="M733 720v-112h-347v-608h-142v608h-233v112h722zM602 0v514h131v-514h-131z" />
    <glyph glyph-name="T_h" horiz-adv-x="1138" 
d="M762 720v-284q21 40 57.5 64t93.5 24q78 0 117.5 -47t39.5 -132v-345h-132v317q0 46 -16.5 70t-58.5 24q-44 0 -72.5 -32t-28.5 -98v-281h-131v608h-245v-608h-142v608h-233v112h751z" />
    <glyph glyph-name="o_f" horiz-adv-x="903" 
d="M280 535q21 0 40.5 -2.5t36.5 -7.5h278v37q0 47 13.5 81.5t37.5 57t58 33.5t75 11q35 0 81 -8v-110q-19 5 -33 6.5t-31 1.5q-35 0 -51 -18t-16 -53v-39h131v-103h-131v-422h-134v422h-163q25 -28 39 -68.5t14 -89.5q0 -66 -18 -117t-50 -86.5t-77.5 -53.5t-99.5 -18
q-55 0 -100 18t-77.5 53.5t-50 86.5t-17.5 117q0 64 17.5 114.5t50 85.5t77.5 53t100 18zM280 419q-56 0 -83.5 -39.5t-27.5 -115.5q0 -158 111 -158t111 158q0 76 -28 115.5t-83 39.5z" />
    <glyph glyph-name="o_f_f" horiz-adv-x="1212" 
d="M280 535q21 0 40.5 -2.5t36.5 -7.5h278v37q0 47 13.5 81.5t37.5 57t58 33.5t75 11q35 0 81 -8v-110q-19 5 -33 6.5t-31 1.5q-35 0 -51 -18t-16 -53v-39h170v37q0 47 13.5 81.5t38 57t58.5 33.5t76 11q19 0 38.5 -2t41.5 -6v-110q-20 5 -33.5 6.5t-30.5 1.5q-35 0 -51 -18
t-16 -53v-39h131v-103h-131v-422h-135v422h-170v-422h-134v422h-163q25 -28 39 -68.5t14 -89.5q0 -66 -18 -117t-50 -86.5t-77.5 -53.5t-99.5 -18q-55 0 -100 18t-77.5 53.5t-50 86.5t-17.5 117q0 64 17.5 114.5t50 85.5t77.5 53t100 18zM280 419q-56 0 -83.5 -39.5
t-27.5 -115.5q0 -158 111 -158t111 158q0 76 -28 115.5t-83 39.5z" />
    <glyph glyph-name="o_f_i" horiz-adv-x="1138" 
d="M280 535q21 0 40.5 -2.5t36.5 -7.5h278v37q0 47 13.5 81.5t37.5 57t58 33.5t75 11q11 0 26.5 -1.5t28.5 -3.5v-110q-9 2 -20.5 3.5t-19.5 1.5q-35 0 -50 -18t-15 -53v-39h297v-525h-133v422h-164v-422h-134v422h-163q25 -28 39 -68.5t14 -89.5q0 -66 -18 -117t-50 -86.5
t-77.5 -53.5t-99.5 -18q-55 0 -100 18t-77.5 53.5t-50 86.5t-17.5 117q0 64 17.5 114.5t50 85.5t77.5 53t100 18zM280 419q-56 0 -83.5 -39.5t-27.5 -115.5q0 -158 111 -158t111 158q0 76 -28 115.5t-83 39.5zM932 596v117h135v-117h-135z" />
    <glyph glyph-name="o_f_f_i" horiz-adv-x="1443" 
d="M280 535q21 0 40.5 -2.5t36.5 -7.5h270v37q0 47 13.5 81.5t38 57t58.5 33.5t75 11q35 0 81 -8v-110q-20 5 -35 6.5t-31 1.5q-35 0 -50 -18t-15 -53v-39h171v37q0 94 50.5 138.5t133.5 44.5q11 0 26.5 -1.5t28.5 -3.5v-110q-10 2 -21 3.5t-19 1.5q-35 0 -50.5 -18
t-15.5 -53v-39h306v-525h-134v422h-172v-422h-133v422h-171v-422h-135v422h-155q25 -28 39 -68.5t14 -89.5q0 -66 -18 -117t-50 -86.5t-77.5 -53.5t-99.5 -18q-55 0 -100 18t-77.5 53.5t-50 86.5t-17.5 117q0 64 17.5 114.5t50 85.5t77.5 53t100 18zM280 419
q-56 0 -83.5 -39.5t-27.5 -115.5q0 -158 111 -158t111 158q0 76 -28 115.5t-83 39.5zM1236 596v117h137v-117h-137z" />
    <glyph glyph-name="C" unicode="C" horiz-adv-x="733" 
d="M702 231q-6 -54 -29.5 -98.5t-63 -76.5t-93.5 -49.5t-119 -17.5q-79 0 -142 28.5t-107.5 78.5t-68 117.5t-23.5 146.5q0 78 23.5 146t68 117.5t107.5 78t142 28.5q65 0 119 -17.5t93.5 -49.5t63 -76.5t29.5 -98.5h-146q-10 55 -50 86t-109 31q-48 0 -83 -18t-58.5 -50
t-34.5 -77.5t-11 -99.5t11 -99t34.5 -77t58.5 -50t83 -18q69 0 109 30.5t50 84.5h146z" />
    <glyph glyph-name="Germandbls" horiz-adv-x="748" 
d="M378 730q42 0 84 -8t80 -23.5t71 -38.5t57 -54l-148 -184q37 -12 68 -30t54 -42t36 -55t13 -69q0 -45 -17.5 -87.5t-52.5 -76t-87 -53.5t-121 -20q-9 0 -22 0.5t-26 1.5t-25 2t-21 3v114q16 -4 37.5 -5.5t35.5 -1.5q66 0 104 32t38 92q0 36 -16 62t-43 43.5t-63.5 27
t-76.5 12.5l160 201q-23 20 -60 31t-75 11q-25 0 -49.5 -5t-44 -16t-31.5 -28.5t-12 -41.5v-524h-143v526q0 51 22 89t61.5 63.5t94 38.5t118.5 13z" />
    <glyph glyph-name="nonbreakingspace" unicode="&#xa0;" horiz-adv-x="227" 
 />
    <glyph glyph-name="A" unicode="A" 
d="M443 720l244 -720h-158l-60 185h-269l-60 -185h-151l246 720h208zM335 627q-5 -23 -12.5 -54t-15.5 -54l-74 -224h203l-73 226q-8 23 -15.5 53t-12.5 53z" />
    <glyph glyph-name="B" unicode="B" horiz-adv-x="701" 
d="M370 421q61 0 85.5 28t24.5 68q0 42 -24 66.5t-86 24.5h-145v-187h145zM82 0v720h329q55 0 95.5 -14t67.5 -37.5t40 -55t13 -66.5q0 -66 -34.5 -109.5t-112.5 -59.5q86 -11 128 -60.5t42 -120.5q0 -41 -15 -77t-44 -62.5t-71.5 -42t-97.5 -15.5h-340zM379 113
q69 0 98 28.5t29 74.5q0 45 -29.5 76t-96.5 31h-155v-210h154z" />
    </font>
</defs>
</svg>
