<svg xmlns="http://www.w3.org/2000/svg" width="703" height="320" fill="none"><path fill="#FFE4E4" fill-rule="evenodd" d="M170.4-414.8L11.6 62.4c.7 0 1.4.2 2 .3 1.3.2 2.4.6 3.1 1.8.6 1 1.4 1.7 2 2.6 1.6 2.3 4.2 3.3 6.2 5 2 1.8 4.4 3.2 7 4 1.4.4 2.5 1.2 3.7 2 3 2 5.8 4.3 9.4 5.2 2.3.5 4.3 1 6.4-.8a5.3 5.3 0 015.9-.8c1.3.6 3.1.4 4.7.3 1.4 0 2.7-.1 4.1.7 1.4.8 3.2 1.4 4.8 1.4 3.5 0 6.7.7 9.8 2.1l1.3.4c4.1 0 7.8 1.6 11.5 3.2 2.7 1.1 5.5 1.6 8.4 1.2 2.4-.3 4.6.2 6.9.8 2.3.6 4.6 1.2 7 1 1.3-.1 2.9.1 4 .8 2.3 1.5 5 1.8 7.6 2.4 1.5.4 3.1.7 4.4 1.5 2.4 1.4 5 1.5 7.4.6 3.1-1 5.6.5 8.2 1.3l2.7 1 1.8.6 5.6 2.9c1.6-.8 2.8-1.9 4-2 2.2-.2 4.3.3 6 2 1.9 1.7 4 3.2 6 4.7 1.5 1.1 3 2 4.2 3.2 1.3 1.2 2.7 2 4.5 2.2 1.7.3 3.4.3 5 1.3.6.5 1.3.4 2.1-.2 1.7-1.2 3.7-1 4.8.3.9 1.2 1.8 1.1 3 .8l1-.3 7.4.8c.8.1 1.7.3 2.2.8 1.8 2 4.3 2.6 6.6 2.9 2.9.3 5 1.9 6.9 3.5 2.4 1.9 4.6 3.9 7.5 5 .7.3 1.4 1 1.8 1.6 1 2 2.6 3.6 4.2 5.2a15 15 0 006.3 4.4c2 .7 2.2.8 2 2.9-.1 1.8.7 3.2 2.2 4 2.9 1.1 5.6 2.2 7.6 4.9 1.3 1.6 3 3 4.3 4.8 1.4 2.3 2.8 4.7 4.6 6.6 2.2 2.3 3.7 4.7 3.8 8 0 .6.5 1.4 1 1.8l5.5 4.3c1.4 1.2 3.2 2.3 4.1 3.9.9 1.3 1.6 2.7 2.7 3.9l3.4 4c1.1 1.3 2.4 2.5 4.3 2.4 1.4-.1 2.8-.5 4.1-.8 3.8-.8 7.6-1.8 11.6-1.3.9.2 1.6 0 2.5-.3 2-1 4.1-1.8 6.5-1 .5.2 1.4-.2 2-.5 1-.3 1.8-.8 2.6-1.2 1-.4 2.3-.6 3.2-1.2 2.4-1.7 4.8-.9 7 .2 1.6.7 2.3.7 3.7-.3a9 9 0 012.6-1c1-.4 2.2-.3 3.1-.9 1.9-1 3.5-.7 5.3 0 1.2.4 2.3.3 3.6 0 2.9-.7 5.9-1.4 9-.5 1.2.4 2.6.5 3.9-.1l4.3-2.2h.7l3.4-.1 1.5 1.7c.7 1 1.5 1.2 2.7.6a5 5 0 012.3-.5c1.5 0 3 .3 4.5.5 2.7.3 5.4.4 7.7-1.6.4-.3 1.2-.5 1.8-.4 1.6.1 3.3 0 4.7.8 2 1 4.3 0 6.3 1 .3.1 1-.5 1.4-.7 2.3-1.3 4.4-3.3 7.4-2.5h1.2c3-1 6.2-.4 9 .5 2.5.7 4.6-.3 6.7-.6 1.4-.2 2.8-.4 4.2-.1l1.8.1c2 0 4-.1 5.8.2 2.6.5 5.2.5 7.8.8 1.7.2 3.7 0 5 1.7.9 1 2 1.8 3.2 2.4 3.7 1.7 7.3 3.4 11.4 3.7l4.4.7a8 8 0 014.2 2.2c1.3 1.2 2.6 2.1 4.6 1.5.6-.2 1.4.4 2.1.8.8.4 1.4 1 2.2 1.5 2.1 1 3.9 2.5 5.2 4.5.8 1.3 2 2 3.4 2.5 1.9.7 4 1.4 5.2 2.8 1.4 1.5 3 2.3 4.7 3.2 1 .7 2 1.4 3.6.9.5-.2 1.5.3 2.1.8 3 2 6 3.9 8.9 6 1.9 1.6 4 2 6.2 2.4 1.5.3 3 .4 4.3.8 1.6.5 3 1 4.3-.8.2-.4.8-.4 1.3-.6l2.4-1a252.4 252.4 0 017.4-2.6c.7-.2 1.3-.5 2-.6l7.5-.2c.9 0 1.9-.4 2.8-.3 1.3.2 2.6.7 4 1 .5 0 1.3.2 1.8 0l5.8-3.2c1-.5 2-1.1 3-1.2 1.3-.1 2.4-.3 3.5-1.2 1-.9 2.3-1 3.5 0l3.2 2.2c.3-.1.8-.2 1.2-.5 1.3-1 2.4-1.1 3.7 0 .3.3.8.4 1.3.4 2.4 0 4.5 1 6.8 1.8l.4-.1-.4-1.3c3.3-1.6 6-2 9.2-1.1 2.2.6 4.3 1.3 6.7 1.3 1.3 0 2.4 1.3 3.9.6l.5.4 3.6 2.6c1.2-1.2 2.2-1.3 3.6-.3 2.7 1.7 5.6 2.6 8.6.5.5-.4 1.3-.6 2-.9.5.4.8.9 1.3 1.1 1.6.8 3.3 1.3 4.8 2.1 1.7 1 3.8 0 5.2 1.6h.7c2.7-.5 4.7 1 6.9 2.1.5.3 1 .7 1.4.8l4.1.4c.5 0 1.2 0 1.5-.3 1-.8 2-.8 3.2-.7 1.4.1 3 .6 4 0 2.5-1.3 5.2.2 7.5-1.1.2-.2 1 .1 1.3.4 1.2.8 2.3 1.6 3.4 2.6.8.7 1.6 1 2.8.6 3-1 5.8-1 8.4 0 1.2-.3 2.4-.4 3.1-1 2.2-1.7 4.2-.7 6.3.2.7.3 1.5.6 2.2.7 2.3.2 4.4 1.1 6.4 2.1l138.8-417-669.6-222.9z" clip-rule="evenodd"/></svg>
