<svg xmlns="http://www.w3.org/2000/svg" width="661" height="273" fill="none"><path fill="#C9F0EE" fill-rule="evenodd" d="M-220.9-270.7L-52 271c1.8.2 3.7.5 5.5 0 4.2-1 8.4-2.5 12.6-4 4.2-1.6 8.3-3.6 12.5-5.2 2.2-.9 4-2 5.8-3.5 1.2-1 2.7-1.6 4.2-2.2 1.4-.5 3-.6 4.4-1 2.1-.6 4.6-.8 6.3-2.1 2.2-1.8 5-1.7 7.1-3.4 2.8.3 5-1 7.3-2.4 2.5-1.4 5.2-3 8.3-3 .6 0 1.2-.5 1.8-.7.7-.3 1.4-.6 2.1-.7l8-.7c1.4-.1 3-.2 4-1.6.3-.4 1-.7 1.5-.6 3 .7 5.2-1.6 7.8-2.2 1.3-.3 1.9-1.4 1.6-2.9-.4-2-.6-4.2-.8-6.4 1.7-.9 3.7-1.5 4.4-3.7a2 2 0 011-1c1.2-.5 2.7-.6 3.4-1.5 1-1 1.8-2.2 3.2-2.7l.8-.4c.6-.4 1.2-.8 1.8-1.4 2-2 3.5-4.7 6.9-4.8.4 0 .7-.5 1.1-.7l4.1-2.6c1.6-1 3.6-1.9 4.5-3.3 2.3-3.8 5.6-6.3 9.5-8.2 2-1 3.9-2 5.4-3.8 2-2.2 4.1-4.3 7.4-4.3 1.6 0 2.8-.7 4.2-1.5 1.4-.8 3-1.2 4.8-.5 2.1.9 4.4 1 6.2-.7.8-.7 1.4-1.7 2.3-2.3a8 8 0 003.3-6.6c.1-3.2 1.9-5 4.6-6.5 1.6-1 3.2-1 5-1l1.5-.1c2.4-1 5-1.6 7.2-3 .5-.3 1-.6 1.5-.6 2.4 0 4.5-.8 6.4-2.3.5-.4 1.4-.5 2-.6 2.7-.3 5.5-.2 8-1.3 2.6-1.3 5.4-.7 8-.9 1 0 2 0 3-.3l10.3-2.3c2.4 1.2 5 0 7.3-.2 2.2-.3 4 0 5.7.7 1-.7 1.8-1.5 2.7-1.7 2.1-.5 4.3-.7 6.4.4 1.5.8 3.4.9 3.9 3 2.2.9 3 2.8 3.4 5 1.8-.3 2.7.9 3.6 2l.6-.2c.2-.2.5-.3.6-.6a16 16 0 017.4-6.6c.8-.4 1.7-.8 2.1-1.4 1-1.4 2.1-1.8 3.6-2.4 2.2-.8 3.7-3.3 6-4.3 1.6-4 5.6-4.8 8.6-7 2.8 0 4-2.3 5.5-4 .9-1.1 2-1.6 3-1.7 2.1-.3 4.2-.2 6.2.7.6.3 1.2.4 1.8.4l4.5-.3 3.5-5.5c1-2 2.4-2.7 4.6-2.2l2.2.6c1 .2 2-.1 2.2-1.3.3-1.6 1-2.5 2.7-3.2 2.4-1 4.5-2.9 6.5-4.6a7 7 0 013.6-2l7.8-1 4-.3c1.9 0 3.8-.3 5.7 0 3 .4 5.7 0 8.4-1.4 1.9-.9 4-1.2 6-1.7l.1.4 1.3-1.4c2-.2 3.6-.6 5-.5 2.7.2 4.7-1.1 6.6-2.5a9.9 9.9 0 017.2-2.2c3.7.3 7-1.2 10.4-2.4 1.8-.6 3.6-1.3 5.4-1.6 3.5-.6 6.9-1.2 10-2.7 1-.4 2-1 3-1 1.5 0 2.3-.8 3-2 1.6-2.8 4-4.8 7.2-5.4 3.7-.7 6.2-3.5 9.4-5.1.3-.2.6-.5.7-.9 1.2-2.3 3.7-2.8 5.8-3.7a5 5 0 012.5-.1c1.7.2 3.4 1.3 5 0h.6c3 1.5 5.2-.8 7.8-1.2 1-1.7 2.8-1.8 4.5-1.7l1.1-.1c2-1.3 3.9-.5 5.8-.2 1 .2 2.2.6 3 .2 2-.8 4.2-.6 5.7-2.3.3-.3 1.1-.5 1.4-.3 1 .9 1.9 0 2.8-.2l3.5-.9c1.7-.4 3.7-.5 5-1.5 1.2-.9 2.4-1.7 3.7-1.9a80 80 0 0110.1-.3c3.9.2 7.7.6 11-2.1 1-.9 2.8-1.1 4.2-1.2 2.7 0 5.3-.1 7.7-1.5.7-.3 1.7-.2 2.5 0l4.3 1.4c3 .8 5.8 2.7 9.2 2.2.3 0 .7.3 1 .5a3 3 0 003.7-.1c2.8-2 5.4-4.2 8-6.4.3-.3.5-.8.7-1.3a7.4 7.4 0 013.1-3.8c3-2.2 6.2-4.1 7.8-7.7.4-.7 1.6-1.3 2.5-1.6 2.1-.7 4.1-1.3 5-3.7A5 5 0 01530 50l5.1-3.8c.5-.3.7-1 1-1.4l3.2-6c3.5.3 4 0 5.6-3l1.3-2.1c1-2.2 2.7-3.6 5-4.3.6-.1 1.2-.6 1.4-1.1 1.5-3 3.2-5.9 4.2-9a8.9 8.9 0 014-4.9l2-1.4c2-1.5 3.9-3 6-4.4a6 6 0 012.6-1c1.3-.1 2.1-.8 3-1.8C575 5 576 4 577 3.5c2.5-1.3 5-2.2 7.5-3.4 1.8-.9 3.4-1.9 4.6-3.6 1.3-1.9 2.8-3.6 4.2-5.3 1-1.3 2.4-2.2 3.2-3.6 1.4-2.5 3.8-4 6-5.7.9-.8 2.3-1.3 3.6-1.4 1.5 0 2-.9 2.9-1.8 2-2.2 4-4.5 6.3-6.4a28 28 0 004.7-4.8c1.6-2 3-4.3 5-6 1.8-1.7 4-2.8 6.1-4l-140.3-450-711.7 221.8z" clip-rule="evenodd"/></svg>
