<svg width="311" height="9" fill="none" xmlns="http://www.w3.org/2000/svg"><path fill-rule="evenodd" clip-rule="evenodd" d="M30.432 2.346c-.044.005-.114.009-.124.018-.01.008.026.029.06.032.033.003.087-.01.13-.015l-.066-.035zm-2.034-.067c-.115.01-.293.017-.438.04-.075.012-.137.052-.123.076.015.027.115.068.192.07.278.009.57.014.838-.001.125-.008.278-.065.285-.102.002-.025-.211-.06-.349-.077-.096-.013-.23-.005-.405-.006zm-2.418.017c-.29-.003-.581-.014-.87-.008l-3.276.063-2.52.066c-.08.002-.16.024-.232.04-.032.007-.069.027-.062.036.02.027.062.074.096.074.434.001.87.001 1.303-.009l1.926-.053c.646-.017 1.294-.035 1.935-.06.578-.024 1.145-.06 1.717-.091l-.017-.058zm98.092-.097l.028-.027-.112.005.084.022zm-31.283.436c-.149.01-.28.035-.42.054.092.025.192.072.276.07.13-.003.249-.04.4-.066-.113-.027-.203-.061-.256-.058zm124.254.134c-.088-.026-.165-.056-.271-.074-.025-.005-.15.031-.227.049l.199.054.299-.03zm-136.06.067c.86.01 1.462.02 2.028-.065.467.011.937.037 1.4.031.885-.01 1.767-.045 2.654-.054 1.239-.012 2.48-.01 3.767-.014-.034-.082-.066-.165-.103-.252l3.633-.008c.15 0 .298.047.447.072l-.007-.002 1.087.095-.023-.003c.4.065.587.012.696-.087l.053-.017c.956-.062 1.858-.162 2.858.026.593.113 1.436.077 2.527-.015l-2.015-.172a6304.1 6304.1 0 003.339-.098c.417-.011.652.053.786.15-.226.013-.465.016-.67.04-.101.012-.139.062-.207.094.157.003.368.022.464.003.168-.035.268-.092.396-.14.083-.022.155-.046.246-.063.682-.13.7-.133 1.337.026.483.12.68.013.932-.066l-.015.004c.816.082 1.604.216 2.506.041.203-.039.593-.04.854-.02.58.045.871-.017 1.127-.145.122-.06.385-.054.59.005.108.03.327.077.393.068 1.159-.166 2.455-.089 3.673-.145.791-.037 1.639.008 2.462.017.698.211 1.628.121 2.489.146.952.026 1.798-.02 2.497-.181.706-.164 1.444-.083 2.182-.06.064.002.173.055.148.074-.202.162.233.124.399.073a4.232 4.232 0 012.146-.13l-.45.035c.047.004.106.015.139.01.105-.013.2-.032.298-.049l.365.002-.012-.002 2.188.167c.465.038.785.006 1.06-.104.104-.042.445-.088.566-.072.671.087 1.262.028 1.882-.034.207-.021.561-.038.677-.01.667.166 1.255.181 1.968.01.187-.045.677-.002 1.028.001.406.004.869.042 1.209.004 1.084-.122 1.934-.078 2.663.17.197.068.62.08.736-.008.258-.195.786-.2 1.412-.2 1.183.004 2.371-.018 3.551-.005.818.008 1.628.057 2.442.088l.224.05.199-.023.04-.013c.572-.032 1.14-.077 1.718-.092 1.055-.028 2.096-.066 3.07.128.512.102 1.204.129 1.811-.016.198-.048.524-.078.796-.081 1.058-.013 2.11-.075 3.182.01.489.039 1.056.011 1.587.01.653-.001 1.306-.013 1.958-.01l7.993.048c1.724.01 3.45.01 5.17.035 2.059.03 4.096.12 6.18.096 1.834-.022 3.679.025 5.519.047 1.193.014 2.389.033 3.286.297.697-.107 1.25-.315 2.079-.13l-.224.033c.043 0 .091.002.123-.003.043-.006.071-.019.106-.03.346-.021.693-.066 1.039-.064 1.48.01 2.961.031 4.44.054.138.002.381.045.378.068-.022.18.434.173.849.145.533-.036 1.029-.021 1.569-.006 1.053.028 2.125.01 3.189.011.986-.21 2.162-.126 3.268-.148.898-.018 1.711-.018 2.403.203.508.165 1.178.14 1.824-.029.497-.13 1.051-.132 1.64-.129l5.521.039c.598.003 1.19.01 1.694.112a2.3 2.3 0 00.965-.016c.127-.027.323-.04.491-.042 1.361-.019 2.726-.057 4.081-.04.98.011 1.962.027 2.94.136 1.078.12 2.28.158 3.397-.06.453-.088 1.096-.115 1.67-.149.724-.042.812.268 1.404.224.548-.041.845-.268 1.651-.168.211.026.463.041.693.04.349-.003.697-.025 1.047-.038l-.011-.003c.445.083.896.061 1.352.005.788-.097 1.544-.136 2.375-.003.306.05.87.058 1.189.016 1.015-.133 2.12.016 3.129-.096.178-.02.474.009.678.036.527.069 1.006.029 1.544.001 1.392-.07 2.848-.158 3.901.22.068.025.181.042.286.056.341.046.785.072.961-.025.533-.288 1.378-.302 2.395-.244.458.026.945.025 1.418.026.702 0 1.425-.04 1.912.16.094.038.429.043.659.049.532.015 1.068.039 1.598.03.742-.012 1.501.028 2.19-.132.321-.075.997-.044 1.512-.06.525.18 1.27.14 1.973.135.606-.004 1.191.01 1.705.106.623.115 1.423.093 1.81-.014.495-.137.907-.09 1.425-.092.923-.003 1.515.144 2.15.28l.037.046-.052-.042c.295-.14.758-.18 1.344-.18 2.043.003 4.183-.035 6.143.043.473.024.972.025 1.445.002.72-.035 1.4.006 2.082.072.069.006.121.035.2.06l-.903.212c.747-.003 1.22.003 1.689-.01.227-.006.396-.058.379-.158-.023-.132.246-.172.513-.149.371.034.745.088 1.068.162.341.079.67.14 1.087.148 2.139.04 4.268.118 6.369.28.21.016.439.013.653.004 1.043-.047 2.001.063 2.944.2l3.166.462c.119.017.254.022.385.029l2.472.119c.318.016.639.035.888.148-.177.02-.258.037-.34.038l-1.054.01-.092-.027.099.024c.117.055.429.066.302.183-.119.01-.242.029-.368.03-.349.006-.702.013-1.046.003-.57-.018-.203.279-.729.267l-.003.001.538.189-.009-.005c.331.038.657.092.997.11 1.004.04 2.001.082 3.003.124.194.009.381.041.595.064-.521.276-1.256.319-1.992.346-.789.028-1.584.028-2.373.056-.47.016-.857-.026-1.208-.132-.325.137-.73.207-1.242.216-.613.013-1.229.033-1.831.073-1.167.078-2.319.184-3.488.258-.642.04-1.306.033-1.958.051-1.534.043-3.031.173-4.572.212-2.276.057-4.537.187-6.809.27-.866.037-2.48.072-3.825.104l-4.183.086-10.526.15c-.297.006-.594.016-.885.031-1.191.063-2.36.057-3.531-.038-1.042-.085-2.088-.073-3.177-.032-1.994.075-4.01.114-6.023.148-1.421.023-2.851.015-4.276.018-4.529.012-9.057.01-13.585.039-3.57.023-7.135-.031-10.706-.005-3.212.024-6.429-.011-9.643-.018l-5.005-.003-7.145-.05c-.354-.002-.771.015-1.053-.027-.939-.142-1.834-.214-2.798-.018-.105.021-.346-.003-.523-.007l-1.423-.026-7.854-.089c-1.126-.01-2.254.004-3.381-.01l-9.447-.121-9.997-.079c-3.985-.039-7.967-.103-11.954-.132l-14.828-.067-10.719-.045-6.613.006c-2.916-.003-5.833-.025-8.749-.014l-13.752.09-9.46.068-7.137.08c-2.62.02-5.252-.011-7.861.044-2.324.049-4.63.057-6.956.04-6.61-.05-13.224.045-19.836-.058-3.745-.057-7.502-.057-11.25-.108-4.042-.056-8.08-.14-12.117-.214l-2.362-.045-1.18-.024-.876-.022-3.49-.091-6.061-.14c-1.582-.035-3.167-.06-4.747-.104a65.971 65.971 0 01-4.412-.287c-.27-.026-.507-.095-.793-.151.309-.19.876-.277.849-.501-.036-.306.46-.496 1.182-.627.352-.064.677-.152 1.042-.202 1.84-.26 3.582-.597 5.53-.772 1.913-.173 3.76-.433 5.75-.506 2.006-.076 4.006-.188 6.012-.268.893-.026 1.789-.049 2.687-.066 2.723-.05 5.443-.167 8.192-.125.369.006.836.044 1.183-.118a58.86 58.86 0 00-2.317.018c-.974.03-1.308-.003-2.397-.174a232.5 232.5 0 019.815.083c1.83.055 3.705 0 5.498.153.203.017.482.002.69-.022.647-.072 1.27-.048 1.923-.005.39.025.816.014 1.227.017l3.922.024 2.496.036 10.705.057c.535.003 1.082-.008 1.317.173.053.041.37.076.576.082.6.02 1.189.005 1.72-.087 1.182-.205 2.535-.233 3.886-.243.311-.002.786.044.92.107.55.26 1.287.236 2.142.145.251-.027.537-.03 1.04-.056-.705-.017-1.176-.025-1.644-.043-.081-.002-.197-.041-.198-.065-.003-.024.089-.06.176-.072a3.96 3.96 0 01.504-.038l7.684-.039c.125 0 .252.041.409.068l-.592.136c-.895-.036-.895-.034-2.037.061z" fill="#09B1BA"/></svg>
