<svg fill="#dddddd" width="16" height="16" viewBox="0 0 16 16" xmlns="http://www.w3.org/2000/svg">
  <path d="M11.804 4h2.189c0.556 0 1.007 0.446 1.007 0.998v7.005c0 0.551-0.45 0.998-1.007 0.998h-11.986c-0.556 0-1.007-0.446-1.007-0.998v-7.005c0-0.551 0.45-0.998 1.007-0.998h2.191l0.216-1.021c0.114-0.54 0.65-0.979 1.204-0.979h4.766c0.551 0 1.091 0.443 1.204 0.979l0.216 1.021zM8 11c1.657 0 3-1.343 3-3s-1.343-3-3-3c-1.657 0-3 1.343-3 3s1.343 3 3 3zM13.5 5c-0.276 0-0.5 0.224-0.5 0.5s0.224 0.5 0.5 0.5c0.276 0 0.5-0.224 0.5-0.5s-0.224-0.5-0.5-0.5z"></path>
</svg>
