<?xml version="1.0" encoding="UTF-8" standalone="no"?>
<svg width="120px" height="23px" viewBox="0 0 120 23" version="1.1" xmlns="http://www.w3.org/2000/svg" xmlns:xlink="http://www.w3.org/1999/xlink">
    <!-- Generator: Sketch 39.1 (31720) - http://www.bohemiancoding.com/sketch -->
    <title>logo</title>
    <desc>Created with Sketch.</desc>
    <defs></defs>
    <g id="hotovo" stroke="none" stroke-width="1" fill="none" fill-rule="evenodd">
        <g id="18_detail_technicky_uz-se-neprodava" transform="translate(-40.000000, -32.000000)">
            <g id="hlavicka" transform="translate(-10.000000, 0.000000)">
                <g id="logo" transform="translate(50.000000, 32.000000)">
                    <path d="M27.1787879,7.83460811 C23.3078788,9.77468919 13.2190909,12.8936757 11.8672727,13.3611351 C10.9842424,13.6660405 8.06969697,14.7168919 7.91424242,15.8258649 C7.69787879,17.3671757 11.1293939,17.7566216 13.1157576,17.9965676 C14.4548485,18.1585 17.7239394,18.5209054 20.6939394,18.360527 C23.5830303,18.2045 27.6272727,17.5825676 27.7145455,18.2302973 C27.8157576,18.9843243 22.7809091,20.8031892 20.7445455,21.2852568 C19.0081818,21.6961486 13.6330303,22.5362703 10.0527273,22.4498649 C7.07484848,22.3783784 2.24787879,21.9864459 0.511212121,19.0729054 C-0.0945454545,18.0565541 -0.0945454545,16.0235405 0.475454545,15.1399054 C1.10757576,14.1602297 1.79666667,13.183973 3.32787879,12.5092027 C6.24606061,11.2230676 19.5048485,6.27589189 19.9057576,6.1897973 C20.7930303,5.99771622 21.960303,5.42333784 19.6254545,5.23218919 C17.7784848,5.0802027 15.9260606,4.9822973 14.0727273,4.98291892 C13.1857576,4.98354054 12.3009091,5.01555405 11.4154545,5.06062162 C10.7036364,5.0972973 9.88424242,5.17095946 9.33121212,4.61087838 C8.83939394,4.11358108 8.44333333,3.14354054 8.33181818,2.45012162 C8.2269697,1.80083784 8.46,1.25443243 8.97606061,0.868716216 C10.0772727,0.0469324324 11.7942424,0.143283784 13.0827273,0.174364865 C13.7672727,0.190837838 17.69,0.501027027 18.970303,0.607324324 C22.3409091,0.887054054 27.1012121,1.51427027 28.5536364,4.97918919 C29.3509091,6.88166216 27.1787879,7.83460811 27.1787879,7.83460811" id="Fill-1" fill="#DC1F27"></path>
                    <path d="M39.2739394,22.6919865 C37.4621212,22.9682973 34.0675758,22.5014595 32.8393939,22.040527 C31.5578788,21.5593919 29.2463636,20.5430405 29.0642424,19.7022973 C28.8984848,18.9361486 29.8275758,18.3577297 30.0336364,15.2517973 C30.1078788,14.1319459 30.0560606,13.1936081 30.0336364,12.0725135 C30.0109091,10.9296622 30.0493939,7.32643243 30.0230303,6.70636486 C30.0230303,6.70636486 30.0130303,1.47262162 30.5336364,0.879283784 C31.1709091,0.152608108 32.9790909,2.73358108 33.4372727,3.27625676 C34.1148485,4.07845946 32.9660606,11.8981486 33.1760606,12.1449324 C33.3963636,12.4025946 34.65,9.65782432 38.6360606,10.1274595 C41.8257576,10.5035405 45.0875758,12.6879189 45.0875758,17.4050946 C45.0875758,18.9140811 44.5760606,19.8676486 43.9454545,20.5794054 C42.9330303,21.7235 41.7063636,22.3193243 39.2739394,22.6919865 L39.2739394,22.6919865 Z M33.4651515,15.5047973 C33.2578788,15.8072162 32.9575758,17.4566892 33.2366667,18.055 C33.3736364,18.349027 35.630303,18.6449189 36.2563636,18.6800405 C37.5969697,18.7537027 38.7609091,18.6209865 39.6821212,18.2374459 C40.4942424,17.898973 40.9433333,17.1533378 40.7481818,15.6089189 C40.5706061,14.2037432 38.9969697,12.9807027 37.1445455,13.1628378 C35.2921212,13.3446622 34.3024242,14.2820676 33.4651515,15.5047973 L33.4651515,15.5047973 Z" id="Fill-2" fill="#000000"></path>
                    <path d="M55.7718182,9.38772973 C59.6348485,9.53381081 62.5154545,13.9448378 61.2515152,17.4961622 C60.7657576,18.8606216 59.959697,20.3466081 58.6115152,21.2408108 C56.6251515,22.5583378 53.6606061,23.1899054 51.3357576,22.671473 C50.600303,22.5076757 49.8318182,22.2226622 49.1669697,21.8590135 C48.05,21.2485811 46.8178788,20.3978919 46.3960606,19.1092703 C46.1790909,18.4456892 46.07,17.4542027 46.2284848,16.7663784 C46.3915152,16.0580405 46.6963636,15.1762703 47.1142424,14.582 C47.9345455,13.4145946 49.1448485,12.2732973 50.3321212,11.5037297 C51.8257576,10.5349324 53.9481818,9.31841892 55.7718182,9.38772973 M51.1175758,18.4491081 C52.2272727,18.8553378 53.3812121,18.8833108 54.5739394,18.7403378 C55.8912121,18.5827568 57.1478788,17.8035541 57.7409091,16.5596892 C58.2475758,15.4982703 58.1445455,14.191 57.2330303,13.3965676 C56.290303,12.5732297 54.9106061,12.5766486 53.7966667,12.9819459 C52.7715152,13.3546081 51.6890909,13.7421892 50.8930303,14.5335135 C50.3284848,15.094527 49.5660606,15.9971216 49.7093939,16.8698784 C49.8287879,17.5959324 50.4651515,18.2100946 51.1175758,18.4491081" id="Fill-3" fill="#000000"></path>
                    <path d="M65.3439394,8.22902703 C66.4942424,8.22902703 67.6315152,8.30890541 68.7718182,8.47052703 C70.0675758,8.65421622 71.9875758,8.81645946 72.4536364,10.2154189 C73.2848485,12.7118514 70.7893939,14.4921757 69.7160606,15.7304459 C69.3575758,16.1438243 67.9212121,17.7168378 67.679697,18.2035676 C68.1790909,18.4851622 69.3045455,18.3701622 69.8818182,18.3577297 C75.8821212,18.2284324 77.3818182,16.6740676 77.8439394,16.5982297 C78.7436364,16.4505946 77.4824242,18.8963649 77.3236364,19.1683243 C75.6039394,22.1033108 73.940303,22.0930541 70.8809091,22.4887162 C69.889697,22.6167703 68.8724242,22.6904324 67.8730303,22.6534459 C66.5727273,22.6055811 64.9939394,22.4657162 63.9057576,21.6591622 C62.5018182,20.6179459 62.8760606,19.1499865 63.6063636,17.8731757 C64.1339394,16.9513108 68.3645455,13.1734054 68.320303,12.3488243 C67.1754545,12.0035135 65.2124242,12.1940405 64.3539394,12.5247432 C63.7527273,12.7559865 62.8260606,13.149473 62.4684848,12.3367027 C62.2148485,11.7607703 62.4981818,10.9781486 62.6472727,10.4087432 C63.0293939,8.94731081 63.8451515,8.22902703 65.3439394,8.22902703" id="Fill-4" fill="#000000"></path>
                    <path d="M63.8424242,1.51458108 C63.8424242,1.51458108 68.6227273,2.05041892 75.2263636,4.32617568 C77.1939394,5.00436486 79.2054545,5.52808108 80.4493939,6.46952703 C81.999697,7.64221622 82.9972727,8.40898649 83.2851515,9.14809459 C83.6651515,10.1227973 83.8236364,11.3187973 83.5548485,13.7083108 C83.3590909,15.4469865 82.4636364,20.6832162 82.0927273,21.3999459 C81.5378788,22.4719324 80.44,21.7984054 79.8784848,21.0711081 C78.3745455,19.1238784 79.1375758,16.486027 79.6845455,14.3175 C79.9527273,13.2535946 81.0145455,10.8031622 80.7481818,9.68393243 C80.48,8.55662162 79.7142424,8.70052703 78.1860606,8.17836486 C77.4078788,7.91231081 74.2581818,7.16232432 70.2881818,6.41327027 C66.4587879,5.69094595 66.4818182,5.78418919 64.9681818,5.50072973 C63.6512121,5.25425676 62.1418182,5.15044595 61.2090909,4.95308108 C59.9584848,4.68889189 59.4651515,4.32368919 59.2045455,3.85125676 C58.7484848,3.02667568 58.6418182,1.6242973 59.070303,1.29452703 C59.4993939,0.964756757 63.8424242,1.51458108 63.8424242,1.51458108" id="Fill-5" fill="#000000"></path>
                    <path d="M82.2569697,5.15044595 C82.2672727,4.14683784 83.949697,3.49786486 85.1406061,2.8837027 C86.3542424,2.25741892 87.9284848,1.41045946 89.2372727,1.01572973 C90.2281818,0.717040541 90.9721212,1.20377027 91.3242424,2.20240541 C91.5263636,2.77585135 91.6024242,3.47144595 91.4215152,4.06167568 C91.1560606,4.92977027 90.2748485,5.16816216 89.4951515,5.31641892 C84.9387879,6.18109459 82.2721212,5.98124324 82.2569697,5.15044595" id="Fill-6" fill="#000000"></path>
                    <path d="M112.041818,19.2304865 C110.580606,19.3374054 109.203333,19.5922703 107.720303,19.4471216 C107.240303,19.3992568 106.415758,19.3588514 106.010909,19.0872027 C104.825758,18.2859324 108.978182,16.8602432 109.489394,16.6734459 C110.928788,16.1456892 113.829697,15.2869189 113.829697,15.2869189 C113.829697,15.2869189 116.555152,14.5925676 116.636364,13.087 C116.736667,11.2603649 114.905152,10.4332973 113.503333,9.97640541 C112.92,9.84306757 112.346061,9.74143243 111.753636,9.68082432 C111.355455,9.63824324 110.950909,9.62145946 110.549091,9.60685135 C109.793333,9.57981081 109.056667,9.65533784 108.303333,9.74858108 C107.532121,9.84306757 105.891818,9.89341892 105.653636,10.8870811 C105.534242,11.3937027 104.975758,12.4374054 105.443636,12.8958514 C105.939091,13.3838243 106.744848,13.1802432 107.353636,13.1196351 C108.193939,13.0341622 109.025152,12.8737838 109.862424,12.7883108 C110.48,12.7249054 111.285758,12.5853514 111.793939,13.0497027 C112.417879,13.6275 110.76303,14.174527 110.433333,14.3190541 C109.182121,14.8657703 107.873939,15.2583243 106.619697,15.7932297 C105.443636,16.2951892 104.263939,16.7778784 103.116667,17.3410676 C102.589394,17.5977973 102.09697,17.9151351 101.601515,18.2234595 L101.36303,18.0562432 L99.9175758,18.2144459 C99.9175758,18.2144459 98.4718182,18.3356622 98.4684848,18.3356622 C97.499697,18.4183378 96.5181818,18.4469324 95.5454545,18.4935541 C95.0593939,18.5115811 94.2972727,18.5302297 93.9151515,18.1591216 C93.0775758,17.3435541 93.5448485,16.2143784 94.0966667,15.4270946 C94.7024242,14.5698784 95.5518182,13.9345811 96.4239394,13.3947027 C97.010303,13.0322973 97.6593939,12.7364054 98.3178788,12.5340676 C98.7636364,12.3954459 99.2242424,12.2813784 99.6887879,12.2111351 C99.7545455,12.3426081 99.83,12.4743919 99.9018182,12.6030676 C99.9390909,12.6770405 101.021818,12.2111351 101.125152,12.1558108 C101.457576,11.9792703 101.921515,11.6240135 101.931212,11.194473 C101.946667,10.6716892 101.507576,10.1507703 101.109091,9.88968919 C100.663636,9.59814865 100.158788,9.50241892 99.6351515,9.49744595 C99.0675758,9.48967568 98.4969697,9.5247973 97.9384848,9.60032432 C97.5433333,9.65533784 97.1545455,9.74516216 96.7687879,9.85922973 C96.1290909,10.0503784 95.520303,10.3095946 94.940303,10.6427838 C94.1690909,11.0847568 93.4160606,11.677473 92.8109091,12.3363919 C92.5224242,12.6496892 92.2621212,12.9981081 92.0454545,13.3689054 C91.7663636,13.8413378 91.5624242,14.3638108 91.3993939,14.8900135 C90.9572727,16.3449189 91.0927273,18.1578784 91.7318182,19.5307297 C92.1715152,20.4743514 92.8515152,21.2927162 93.7233333,21.8431622 C94.8212121,22.5365811 96.210303,22.7647162 97.4684848,22.5166892 C97.9951515,22.4156757 98.4621212,22.2742568 98.9481818,22.0716081 C99.4627273,21.8577703 99.9642424,21.6998784 100.444545,21.4151757 C100.538788,21.3638919 101.563636,20.7606081 101.62303,20.8411081 C101.783939,21.0552568 101.87697,21.3172703 102.050303,21.5217838 C102.216364,21.7194595 102.426667,21.8997297 102.626667,22.0538919 C103.050303,22.3802432 103.530303,22.5092297 104.047879,22.5713919 C105.34303,22.7311486 106.657273,22.8113378 107.961818,22.8287432 C109.002727,22.8433514 110.056667,22.7712432 111.091515,22.671473 C111.762727,22.6068243 112.434242,22.5166892 113.101818,22.4333919 C114.802121,22.2192432 116.206667,21.831973 118.047879,21.0167162 C118.916667,20.5974324 119.456061,20.0578649 119.788788,19.660027 C119.593939,19.5338378 119.368182,19.4253649 119.154848,19.3361622 C117.815758,18.7847838 116.288485,18.7617838 114.864848,18.9485811 C114.209091,19.0343649 113.553939,19.0999459 112.898182,19.159 C112.612727,19.1866622 112.327273,19.2090405 112.041818,19.2304865" id="Fill-7" fill="#000000"></path>
                    <path d="M89.4406061,20.8849324 C89.4554545,20.6412568 89.4287879,20.3972703 89.36,20.2089189 C89.1775758,19.7181486 88.6724242,19.2199189 88.17,19.1251216 C87.7154545,19.0405811 87.1681818,19.129473 86.7975758,19.428473 C86.5972727,19.591027 86.3790909,19.8533514 86.2742424,20.097027 C86.0439394,20.6316216 86.0678788,21.4260541 86.4057576,21.8997297 C86.9769697,22.7019324 88.1848485,22.7019324 88.8572727,22.0517162 C89.1806061,21.7418378 89.4078788,21.3467973 89.4406061,20.8849324" id="Fill-8" fill="#000000"></path>
                </g>
            </g>
        </g>
    </g>
</svg>