<svg xmlns="http://www.w3.org/2000/svg" xmlns:xlink="http://www.w3.org/1999/xlink" width="24" height="24" viewBox="0 0 24 24">
  <defs>
    <path id="poi-b" d="M12,20 C16,16 18,12.6666667 18,10 C18,6.6862915 15.3137085,4 12,4 C8.6862915,4 6,6.6862915 6,10 C6,12.6666667 8,16 12,20 Z"/>
    <filter id="poi-a" width="216.7%" height="187.5%" x="-58.3%" y="-43.8%" filterUnits="objectBoundingBox">
      <feMorphology in="SourceAlpha" operator="dilate" radius="1" result="shadowSpreadOuter1"/>
      <feOffset in="shadowSpreadOuter1" result="shadowOffsetOuter1"/>
      <feGaussianBlur in="shadowOffsetOuter1" result="shadowBlurOuter1" stdDeviation="2"/>
      <feComposite in="shadowBlurOuter1" in2="SourceAlpha" operator="out" result="shadowBlurOuter1"/>
      <feColorMatrix in="shadowBlurOuter1" values="0 0 0 0 0   0 0 0 0 0   0 0 0 0 0  0 0 0 0.2 0"/>
    </filter>
  </defs>
  <g fill="none" fill-rule="evenodd">
    <use fill="#000" filter="url(#poi-a)" xlink:href="#poi-b"/>
    <path fill="#DC1F27" stroke="#FFF" d="M11.6464466,20.3535534 C7.56104513,16.2681519 5.5,12.8330767 5.5,10 C5.5,6.41014913 8.41014913,3.5 12,3.5 C15.5898509,3.5 18.5,6.41014913 18.5,10 C18.5,12.8330767 16.4389549,16.2681519 12.3535534,20.3535534 L12,20.7071068 L11.6464466,20.3535534 Z"/>
  </g>
</svg>
