<svg xmlns="http://www.w3.org/2000/svg" xmlns:xlink="http://www.w3.org/1999/xlink" width="34" height="40" viewBox="0 0 34 40">
  <defs>
    <path id="poi-select-b" d="M17,36 C25,28.25 29,21.7916667 29,16.625 C29,10.2046898 23.627417,5 17,5 C10.372583,5 5,10.2046898 5,16.625 C5,21.7916667 9,28.25 17,36 Z"/>
    <filter id="poi-select-a" width="158.3%" height="145.2%" x="-29.2%" y="-22.6%" filterUnits="objectBoundingBox">
      <feMorphology in="SourceAlpha" operator="dilate" radius="1" result="shadowSpreadOuter1"/>
      <feOffset in="shadowSpreadOuter1" result="shadowOffsetOuter1"/>
      <feGaussianBlur in="shadowOffsetOuter1" result="shadowBlurOuter1" stdDeviation="2"/>
      <feComposite in="shadowBlurOuter1" in2="SourceAlpha" operator="out" result="shadowBlurOuter1"/>
      <feColorMatrix in="shadowBlurOuter1" values="0 0 0 0 0   0 0 0 0 0   0 0 0 0 0  0 0 0 0.2 0"/>
    </filter>
  </defs>
  <g fill="none" fill-rule="evenodd">
    <use fill="#000" filter="url(#poi-select-a)" xlink:href="#poi-select-b"/>
    <path fill="#DC1F27" stroke="#FFF" d="M16.6521024,36.3591201 C8.56342776,28.5232166 4.5,21.9624738 4.5,16.625 C4.5,9.92493272 10.0999306,4.5 17,4.5 C23.9000694,4.5 29.5,9.92493272 29.5,16.625 C29.5,21.9624738 25.4365722,28.5232166 17.3478976,36.3591201 L17,36.6961459 L16.6521024,36.3591201 Z"/>
    <circle cx="17" cy="17" r="4" fill="#FFF"/>
  </g>
</svg>
